G04 #@! TF.GenerationSoftware,KiCad,Pcbnew,(5.1.6)-1*
G04 #@! TF.CreationDate,2021-01-15T17:25:52+09:00*
G04 #@! TF.ProjectId,HATv2.0,48415476-322e-4302-9e6b-696361645f70,rev?*
G04 #@! TF.SameCoordinates,Original*
G04 #@! TF.FileFunction,Paste,Top*
G04 #@! TF.FilePolarity,Positive*
%FSLAX46Y46*%
G04 Gerber Fmt 4.6, Leading zero omitted, Abs format (unit mm)*
G04 Created by KiCad (PCBNEW (5.1.6)-1) date 2021-01-15 17:25:52*
%MOMM*%
%LPD*%
G01*
G04 APERTURE LIST*
%ADD10R,1.900000X1.300000*%
%ADD11R,2.800000X1.000000*%
%ADD12R,0.800000X1.000000*%
%ADD13R,1.200000X1.000000*%
%ADD14R,1.200000X0.700000*%
%ADD15R,0.480000X0.200000*%
%ADD16R,1.900000X1.500000*%
%ADD17R,1.350000X0.400000*%
%ADD18R,0.900000X1.200000*%
%ADD19C,0.600000*%
%ADD20R,1.500000X2.000000*%
%ADD21R,3.800000X2.000000*%
%ADD22R,0.300000X0.450000*%
%ADD23R,1.200000X0.900000*%
G04 APERTURE END LIST*
D10*
X204375000Y-60075000D03*
D11*
X203925000Y-73575000D03*
D12*
X199775000Y-73575000D03*
D13*
X193575000Y-73575000D03*
X189275000Y-62425000D03*
D14*
X189275000Y-70575000D03*
X189275000Y-69475000D03*
X189275000Y-68375000D03*
X189275000Y-67275000D03*
X189275000Y-66175000D03*
X189275000Y-65075000D03*
X189275000Y-63975000D03*
X189275000Y-71675000D03*
X189275000Y-72625000D03*
D15*
X195850000Y-30500000D03*
X195850000Y-30000000D03*
X195850000Y-31000000D03*
X197150000Y-30500000D03*
X197150000Y-30000000D03*
X197150000Y-31000000D03*
D16*
X203987500Y-31000000D03*
D17*
X201287500Y-30000000D03*
X201287500Y-29350000D03*
X201287500Y-28700000D03*
X201287500Y-31300000D03*
X201287500Y-30650000D03*
D16*
X203987500Y-29000000D03*
D18*
X198150000Y-33250000D03*
X194850000Y-33250000D03*
G36*
G01*
X186440000Y-70922500D02*
X186440000Y-70577500D01*
G75*
G02*
X186587500Y-70430000I147500J0D01*
G01*
X186882500Y-70430000D01*
G75*
G02*
X187030000Y-70577500I0J-147500D01*
G01*
X187030000Y-70922500D01*
G75*
G02*
X186882500Y-71070000I-147500J0D01*
G01*
X186587500Y-71070000D01*
G75*
G02*
X186440000Y-70922500I0J147500D01*
G01*
G37*
G36*
G01*
X185470000Y-70922500D02*
X185470000Y-70577500D01*
G75*
G02*
X185617500Y-70430000I147500J0D01*
G01*
X185912500Y-70430000D01*
G75*
G02*
X186060000Y-70577500I0J-147500D01*
G01*
X186060000Y-70922500D01*
G75*
G02*
X185912500Y-71070000I-147500J0D01*
G01*
X185617500Y-71070000D01*
G75*
G02*
X185470000Y-70922500I0J147500D01*
G01*
G37*
G36*
G01*
X144100000Y-66256250D02*
X144100000Y-65743750D01*
G75*
G02*
X144318750Y-65525000I218750J0D01*
G01*
X144756250Y-65525000D01*
G75*
G02*
X144975000Y-65743750I0J-218750D01*
G01*
X144975000Y-66256250D01*
G75*
G02*
X144756250Y-66475000I-218750J0D01*
G01*
X144318750Y-66475000D01*
G75*
G02*
X144100000Y-66256250I0J218750D01*
G01*
G37*
G36*
G01*
X142525000Y-66256250D02*
X142525000Y-65743750D01*
G75*
G02*
X142743750Y-65525000I218750J0D01*
G01*
X143181250Y-65525000D01*
G75*
G02*
X143400000Y-65743750I0J-218750D01*
G01*
X143400000Y-66256250D01*
G75*
G02*
X143181250Y-66475000I-218750J0D01*
G01*
X142743750Y-66475000D01*
G75*
G02*
X142525000Y-66256250I0J218750D01*
G01*
G37*
G36*
G01*
X144137500Y-64656250D02*
X144137500Y-64143750D01*
G75*
G02*
X144356250Y-63925000I218750J0D01*
G01*
X144793750Y-63925000D01*
G75*
G02*
X145012500Y-64143750I0J-218750D01*
G01*
X145012500Y-64656250D01*
G75*
G02*
X144793750Y-64875000I-218750J0D01*
G01*
X144356250Y-64875000D01*
G75*
G02*
X144137500Y-64656250I0J218750D01*
G01*
G37*
G36*
G01*
X142562500Y-64656250D02*
X142562500Y-64143750D01*
G75*
G02*
X142781250Y-63925000I218750J0D01*
G01*
X143218750Y-63925000D01*
G75*
G02*
X143437500Y-64143750I0J-218750D01*
G01*
X143437500Y-64656250D01*
G75*
G02*
X143218750Y-64875000I-218750J0D01*
G01*
X142781250Y-64875000D01*
G75*
G02*
X142562500Y-64656250I0J218750D01*
G01*
G37*
D19*
X167070000Y-60700000D03*
X167070000Y-59430000D03*
X165770000Y-59430000D03*
X165770000Y-60700000D03*
X165800000Y-61970000D03*
X164530000Y-61970000D03*
X164530000Y-60700000D03*
X164530000Y-59430000D03*
X163230000Y-59430000D03*
X163230000Y-60700000D03*
X163260000Y-61970000D03*
X161990000Y-61970000D03*
X160690000Y-60700000D03*
X160720000Y-61970000D03*
X161990000Y-60700000D03*
X161990000Y-59430000D03*
X160690000Y-59430000D03*
X159450000Y-61970000D03*
X158180000Y-61970000D03*
X158150000Y-59430000D03*
X159450000Y-60700000D03*
X158150000Y-60700000D03*
X159450000Y-59430000D03*
X156910000Y-60700000D03*
X154370000Y-59430000D03*
X153070000Y-60700000D03*
X151830000Y-61970000D03*
X149290000Y-59430000D03*
X153100000Y-61970000D03*
X156910000Y-61970000D03*
X155610000Y-59430000D03*
X151830000Y-59430000D03*
X153070000Y-59430000D03*
X148020000Y-61970000D03*
X151830000Y-60700000D03*
X155610000Y-60700000D03*
X150530000Y-60700000D03*
X150530000Y-59430000D03*
X156910000Y-59430000D03*
X149290000Y-60700000D03*
X154370000Y-61970000D03*
X150560000Y-61970000D03*
X154370000Y-60700000D03*
X149290000Y-61970000D03*
X155640000Y-61970000D03*
X147990000Y-59430000D03*
X147990000Y-60700000D03*
X140370000Y-59430000D03*
X142910000Y-60700000D03*
X140400000Y-61970000D03*
X146750000Y-59430000D03*
X139130000Y-61970000D03*
X146750000Y-61970000D03*
X145450000Y-60700000D03*
X141670000Y-59430000D03*
X145450000Y-59430000D03*
X144210000Y-59430000D03*
X145480000Y-61970000D03*
X139130000Y-59430000D03*
X141670000Y-60700000D03*
X139130000Y-60700000D03*
X141670000Y-61970000D03*
X144210000Y-61970000D03*
X142910000Y-59430000D03*
X140370000Y-60700000D03*
X144210000Y-60700000D03*
X142940000Y-61970000D03*
X146750000Y-60700000D03*
X164530000Y-58160000D03*
X165800000Y-58160000D03*
X167070000Y-58160000D03*
X140400000Y-58160000D03*
X139130000Y-58160000D03*
X141670000Y-58160000D03*
X161990000Y-36570000D03*
X164530000Y-36570000D03*
X165800000Y-36570000D03*
X163260000Y-36570000D03*
X160720000Y-36570000D03*
X154370000Y-36570000D03*
X139130000Y-36570000D03*
X153100000Y-36570000D03*
X158180000Y-36570000D03*
X150560000Y-36570000D03*
X156910000Y-36570000D03*
X141670000Y-36570000D03*
X146750000Y-36570000D03*
X142940000Y-36570000D03*
X155640000Y-36570000D03*
X151830000Y-36570000D03*
X145480000Y-36570000D03*
X140400000Y-36570000D03*
X159450000Y-36570000D03*
X144210000Y-36570000D03*
X148020000Y-36570000D03*
X149290000Y-36570000D03*
X167070000Y-36570000D03*
X167070000Y-35300000D03*
X164530000Y-35300000D03*
X163230000Y-35300000D03*
X165770000Y-35300000D03*
X160690000Y-35300000D03*
X161990000Y-35300000D03*
X156910000Y-35300000D03*
X155610000Y-35300000D03*
X150530000Y-35300000D03*
X149290000Y-35300000D03*
X139130000Y-35300000D03*
X144210000Y-35300000D03*
X147990000Y-35300000D03*
X146750000Y-35300000D03*
X140370000Y-35300000D03*
X141670000Y-35300000D03*
X142910000Y-35300000D03*
X151830000Y-35300000D03*
X159450000Y-35300000D03*
X158150000Y-35300000D03*
X154370000Y-35300000D03*
X153070000Y-35300000D03*
X145450000Y-35300000D03*
X167070000Y-34030000D03*
X165770000Y-34030000D03*
X163230000Y-34030000D03*
X164530000Y-34030000D03*
X161990000Y-34030000D03*
X160690000Y-34030000D03*
X140370000Y-34030000D03*
X147990000Y-34030000D03*
X146750000Y-34030000D03*
X154370000Y-34030000D03*
X151830000Y-34030000D03*
X153070000Y-34030000D03*
X149290000Y-34030000D03*
X141670000Y-34030000D03*
X142910000Y-34030000D03*
X145450000Y-34030000D03*
X159450000Y-34030000D03*
X144210000Y-34030000D03*
X150530000Y-34030000D03*
X139130000Y-34030000D03*
X155610000Y-34030000D03*
X158150000Y-34030000D03*
X156910000Y-34030000D03*
X165800000Y-56890000D03*
X164530000Y-56890000D03*
X167070000Y-56890000D03*
X140400000Y-56890000D03*
X141670000Y-56890000D03*
X139130000Y-56890000D03*
X141670000Y-54350000D03*
X139130000Y-54350000D03*
X165800000Y-54350000D03*
X164530000Y-54350000D03*
X140400000Y-54350000D03*
X167070000Y-54350000D03*
X165800000Y-55620000D03*
X164530000Y-55620000D03*
X167070000Y-55620000D03*
X140400000Y-55620000D03*
X141670000Y-55620000D03*
X139130000Y-55620000D03*
X139130000Y-53080000D03*
X141670000Y-53080000D03*
X164530000Y-53080000D03*
X167070000Y-53080000D03*
X140400000Y-53080000D03*
X165800000Y-53080000D03*
X167070000Y-40380000D03*
X167070000Y-41650000D03*
X165800000Y-41650000D03*
X165800000Y-50540000D03*
X140400000Y-50540000D03*
X141670000Y-48000000D03*
X167070000Y-50540000D03*
X164530000Y-40380000D03*
X165800000Y-51810000D03*
X141670000Y-46730000D03*
X139130000Y-46730000D03*
X164530000Y-41650000D03*
X165800000Y-49270000D03*
X141670000Y-49270000D03*
X140400000Y-48000000D03*
X167070000Y-49270000D03*
X165800000Y-40380000D03*
X141670000Y-50540000D03*
X140400000Y-49270000D03*
X164530000Y-50540000D03*
X139130000Y-48000000D03*
X164530000Y-49270000D03*
X140400000Y-46730000D03*
X139130000Y-50540000D03*
X139130000Y-49270000D03*
X140400000Y-51810000D03*
X141670000Y-51810000D03*
X167070000Y-51810000D03*
X139130000Y-51810000D03*
X164530000Y-51810000D03*
X164530000Y-39110000D03*
X164530000Y-37840000D03*
X167070000Y-37840000D03*
X167070000Y-39110000D03*
X141670000Y-37840000D03*
X139130000Y-37840000D03*
X165800000Y-39110000D03*
X141670000Y-39110000D03*
X140400000Y-39110000D03*
X139130000Y-39110000D03*
X140400000Y-37840000D03*
X165800000Y-37840000D03*
X165800000Y-45460000D03*
X165800000Y-44190000D03*
X167070000Y-44190000D03*
X164530000Y-44190000D03*
X165800000Y-46730000D03*
X164530000Y-45460000D03*
X164530000Y-48000000D03*
X167070000Y-45460000D03*
X164530000Y-46730000D03*
X165800000Y-48000000D03*
X167070000Y-48000000D03*
X167070000Y-46730000D03*
X164530000Y-42920000D03*
X165800000Y-42920000D03*
X167070000Y-42920000D03*
X139130000Y-45460000D03*
X141670000Y-45460000D03*
X139130000Y-40380000D03*
X139130000Y-42920000D03*
X140400000Y-40380000D03*
X139130000Y-41650000D03*
X141670000Y-42920000D03*
X140400000Y-44190000D03*
X141670000Y-40380000D03*
X140400000Y-45460000D03*
X140400000Y-42920000D03*
X141670000Y-44190000D03*
X140400000Y-41650000D03*
X139130000Y-44190000D03*
X141670000Y-41650000D03*
G36*
G01*
X133195000Y-58077500D02*
X133195000Y-58422500D01*
G75*
G02*
X133047500Y-58570000I-147500J0D01*
G01*
X132752500Y-58570000D01*
G75*
G02*
X132605000Y-58422500I0J147500D01*
G01*
X132605000Y-58077500D01*
G75*
G02*
X132752500Y-57930000I147500J0D01*
G01*
X133047500Y-57930000D01*
G75*
G02*
X133195000Y-58077500I0J-147500D01*
G01*
G37*
G36*
G01*
X134165000Y-58077500D02*
X134165000Y-58422500D01*
G75*
G02*
X134017500Y-58570000I-147500J0D01*
G01*
X133722500Y-58570000D01*
G75*
G02*
X133575000Y-58422500I0J147500D01*
G01*
X133575000Y-58077500D01*
G75*
G02*
X133722500Y-57930000I147500J0D01*
G01*
X134017500Y-57930000D01*
G75*
G02*
X134165000Y-58077500I0J-147500D01*
G01*
G37*
D20*
X176100000Y-34700000D03*
X171500000Y-34700000D03*
X173800000Y-34700000D03*
D21*
X173800000Y-41000000D03*
D22*
X170958000Y-61090000D03*
X171458000Y-59690000D03*
X171958000Y-61090000D03*
X170958000Y-59690000D03*
X171958000Y-59690000D03*
G36*
G01*
X156256250Y-71362500D02*
X155743750Y-71362500D01*
G75*
G02*
X155525000Y-71143750I0J218750D01*
G01*
X155525000Y-70706250D01*
G75*
G02*
X155743750Y-70487500I218750J0D01*
G01*
X156256250Y-70487500D01*
G75*
G02*
X156475000Y-70706250I0J-218750D01*
G01*
X156475000Y-71143750D01*
G75*
G02*
X156256250Y-71362500I-218750J0D01*
G01*
G37*
G36*
G01*
X156256250Y-72937500D02*
X155743750Y-72937500D01*
G75*
G02*
X155525000Y-72718750I0J218750D01*
G01*
X155525000Y-72281250D01*
G75*
G02*
X155743750Y-72062500I218750J0D01*
G01*
X156256250Y-72062500D01*
G75*
G02*
X156475000Y-72281250I0J-218750D01*
G01*
X156475000Y-72718750D01*
G75*
G02*
X156256250Y-72937500I-218750J0D01*
G01*
G37*
G36*
G01*
X162756250Y-71362500D02*
X162243750Y-71362500D01*
G75*
G02*
X162025000Y-71143750I0J218750D01*
G01*
X162025000Y-70706250D01*
G75*
G02*
X162243750Y-70487500I218750J0D01*
G01*
X162756250Y-70487500D01*
G75*
G02*
X162975000Y-70706250I0J-218750D01*
G01*
X162975000Y-71143750D01*
G75*
G02*
X162756250Y-71362500I-218750J0D01*
G01*
G37*
G36*
G01*
X162756250Y-72937500D02*
X162243750Y-72937500D01*
G75*
G02*
X162025000Y-72718750I0J218750D01*
G01*
X162025000Y-72281250D01*
G75*
G02*
X162243750Y-72062500I218750J0D01*
G01*
X162756250Y-72062500D01*
G75*
G02*
X162975000Y-72281250I0J-218750D01*
G01*
X162975000Y-72718750D01*
G75*
G02*
X162756250Y-72937500I-218750J0D01*
G01*
G37*
G36*
G01*
X149756250Y-71362500D02*
X149243750Y-71362500D01*
G75*
G02*
X149025000Y-71143750I0J218750D01*
G01*
X149025000Y-70706250D01*
G75*
G02*
X149243750Y-70487500I218750J0D01*
G01*
X149756250Y-70487500D01*
G75*
G02*
X149975000Y-70706250I0J-218750D01*
G01*
X149975000Y-71143750D01*
G75*
G02*
X149756250Y-71362500I-218750J0D01*
G01*
G37*
G36*
G01*
X149756250Y-72937500D02*
X149243750Y-72937500D01*
G75*
G02*
X149025000Y-72718750I0J218750D01*
G01*
X149025000Y-72281250D01*
G75*
G02*
X149243750Y-72062500I218750J0D01*
G01*
X149756250Y-72062500D01*
G75*
G02*
X149975000Y-72281250I0J-218750D01*
G01*
X149975000Y-72718750D01*
G75*
G02*
X149756250Y-72937500I-218750J0D01*
G01*
G37*
G36*
G01*
X136756250Y-71362500D02*
X136243750Y-71362500D01*
G75*
G02*
X136025000Y-71143750I0J218750D01*
G01*
X136025000Y-70706250D01*
G75*
G02*
X136243750Y-70487500I218750J0D01*
G01*
X136756250Y-70487500D01*
G75*
G02*
X136975000Y-70706250I0J-218750D01*
G01*
X136975000Y-71143750D01*
G75*
G02*
X136756250Y-71362500I-218750J0D01*
G01*
G37*
G36*
G01*
X136756250Y-72937500D02*
X136243750Y-72937500D01*
G75*
G02*
X136025000Y-72718750I0J218750D01*
G01*
X136025000Y-72281250D01*
G75*
G02*
X136243750Y-72062500I218750J0D01*
G01*
X136756250Y-72062500D01*
G75*
G02*
X136975000Y-72281250I0J-218750D01*
G01*
X136975000Y-72718750D01*
G75*
G02*
X136756250Y-72937500I-218750J0D01*
G01*
G37*
D23*
X180800000Y-34416000D03*
X180800000Y-31116000D03*
G36*
G01*
X143256250Y-71362500D02*
X142743750Y-71362500D01*
G75*
G02*
X142525000Y-71143750I0J218750D01*
G01*
X142525000Y-70706250D01*
G75*
G02*
X142743750Y-70487500I218750J0D01*
G01*
X143256250Y-70487500D01*
G75*
G02*
X143475000Y-70706250I0J-218750D01*
G01*
X143475000Y-71143750D01*
G75*
G02*
X143256250Y-71362500I-218750J0D01*
G01*
G37*
G36*
G01*
X143256250Y-72937500D02*
X142743750Y-72937500D01*
G75*
G02*
X142525000Y-72718750I0J218750D01*
G01*
X142525000Y-72281250D01*
G75*
G02*
X142743750Y-72062500I218750J0D01*
G01*
X143256250Y-72062500D01*
G75*
G02*
X143475000Y-72281250I0J-218750D01*
G01*
X143475000Y-72718750D01*
G75*
G02*
X143256250Y-72937500I-218750J0D01*
G01*
G37*
G36*
G01*
X135617500Y-37196250D02*
X135617500Y-36683750D01*
G75*
G02*
X135836250Y-36465000I218750J0D01*
G01*
X136273750Y-36465000D01*
G75*
G02*
X136492500Y-36683750I0J-218750D01*
G01*
X136492500Y-37196250D01*
G75*
G02*
X136273750Y-37415000I-218750J0D01*
G01*
X135836250Y-37415000D01*
G75*
G02*
X135617500Y-37196250I0J218750D01*
G01*
G37*
G36*
G01*
X134042500Y-37196250D02*
X134042500Y-36683750D01*
G75*
G02*
X134261250Y-36465000I218750J0D01*
G01*
X134698750Y-36465000D01*
G75*
G02*
X134917500Y-36683750I0J-218750D01*
G01*
X134917500Y-37196250D01*
G75*
G02*
X134698750Y-37415000I-218750J0D01*
G01*
X134261250Y-37415000D01*
G75*
G02*
X134042500Y-37196250I0J218750D01*
G01*
G37*
G36*
G01*
X134213750Y-39942500D02*
X134726250Y-39942500D01*
G75*
G02*
X134945000Y-40161250I0J-218750D01*
G01*
X134945000Y-40598750D01*
G75*
G02*
X134726250Y-40817500I-218750J0D01*
G01*
X134213750Y-40817500D01*
G75*
G02*
X133995000Y-40598750I0J218750D01*
G01*
X133995000Y-40161250D01*
G75*
G02*
X134213750Y-39942500I218750J0D01*
G01*
G37*
G36*
G01*
X134213750Y-38367500D02*
X134726250Y-38367500D01*
G75*
G02*
X134945000Y-38586250I0J-218750D01*
G01*
X134945000Y-39023750D01*
G75*
G02*
X134726250Y-39242500I-218750J0D01*
G01*
X134213750Y-39242500D01*
G75*
G02*
X133995000Y-39023750I0J218750D01*
G01*
X133995000Y-38586250D01*
G75*
G02*
X134213750Y-38367500I218750J0D01*
G01*
G37*
G36*
G01*
X134193750Y-32787500D02*
X134706250Y-32787500D01*
G75*
G02*
X134925000Y-33006250I0J-218750D01*
G01*
X134925000Y-33443750D01*
G75*
G02*
X134706250Y-33662500I-218750J0D01*
G01*
X134193750Y-33662500D01*
G75*
G02*
X133975000Y-33443750I0J218750D01*
G01*
X133975000Y-33006250D01*
G75*
G02*
X134193750Y-32787500I218750J0D01*
G01*
G37*
G36*
G01*
X134193750Y-31212500D02*
X134706250Y-31212500D01*
G75*
G02*
X134925000Y-31431250I0J-218750D01*
G01*
X134925000Y-31868750D01*
G75*
G02*
X134706250Y-32087500I-218750J0D01*
G01*
X134193750Y-32087500D01*
G75*
G02*
X133975000Y-31868750I0J218750D01*
G01*
X133975000Y-31431250D01*
G75*
G02*
X134193750Y-31212500I218750J0D01*
G01*
G37*
G36*
G01*
X177143750Y-42150000D02*
X177656250Y-42150000D01*
G75*
G02*
X177875000Y-42368750I0J-218750D01*
G01*
X177875000Y-42806250D01*
G75*
G02*
X177656250Y-43025000I-218750J0D01*
G01*
X177143750Y-43025000D01*
G75*
G02*
X176925000Y-42806250I0J218750D01*
G01*
X176925000Y-42368750D01*
G75*
G02*
X177143750Y-42150000I218750J0D01*
G01*
G37*
G36*
G01*
X177143750Y-40575000D02*
X177656250Y-40575000D01*
G75*
G02*
X177875000Y-40793750I0J-218750D01*
G01*
X177875000Y-41231250D01*
G75*
G02*
X177656250Y-41450000I-218750J0D01*
G01*
X177143750Y-41450000D01*
G75*
G02*
X176925000Y-41231250I0J218750D01*
G01*
X176925000Y-40793750D01*
G75*
G02*
X177143750Y-40575000I218750J0D01*
G01*
G37*
G36*
G01*
X176150000Y-44543750D02*
X176150000Y-45056250D01*
G75*
G02*
X175931250Y-45275000I-218750J0D01*
G01*
X175493750Y-45275000D01*
G75*
G02*
X175275000Y-45056250I0J218750D01*
G01*
X175275000Y-44543750D01*
G75*
G02*
X175493750Y-44325000I218750J0D01*
G01*
X175931250Y-44325000D01*
G75*
G02*
X176150000Y-44543750I0J-218750D01*
G01*
G37*
G36*
G01*
X177725000Y-44543750D02*
X177725000Y-45056250D01*
G75*
G02*
X177506250Y-45275000I-218750J0D01*
G01*
X177068750Y-45275000D01*
G75*
G02*
X176850000Y-45056250I0J218750D01*
G01*
X176850000Y-44543750D01*
G75*
G02*
X177068750Y-44325000I218750J0D01*
G01*
X177506250Y-44325000D01*
G75*
G02*
X177725000Y-44543750I0J-218750D01*
G01*
G37*
G36*
G01*
X172737500Y-45056250D02*
X172737500Y-44543750D01*
G75*
G02*
X172956250Y-44325000I218750J0D01*
G01*
X173393750Y-44325000D01*
G75*
G02*
X173612500Y-44543750I0J-218750D01*
G01*
X173612500Y-45056250D01*
G75*
G02*
X173393750Y-45275000I-218750J0D01*
G01*
X172956250Y-45275000D01*
G75*
G02*
X172737500Y-45056250I0J218750D01*
G01*
G37*
G36*
G01*
X171162500Y-45056250D02*
X171162500Y-44543750D01*
G75*
G02*
X171381250Y-44325000I218750J0D01*
G01*
X171818750Y-44325000D01*
G75*
G02*
X172037500Y-44543750I0J-218750D01*
G01*
X172037500Y-45056250D01*
G75*
G02*
X171818750Y-45275000I-218750J0D01*
G01*
X171381250Y-45275000D01*
G75*
G02*
X171162500Y-45056250I0J218750D01*
G01*
G37*
G36*
G01*
X172950000Y-32456250D02*
X172950000Y-31943750D01*
G75*
G02*
X173168750Y-31725000I218750J0D01*
G01*
X173606250Y-31725000D01*
G75*
G02*
X173825000Y-31943750I0J-218750D01*
G01*
X173825000Y-32456250D01*
G75*
G02*
X173606250Y-32675000I-218750J0D01*
G01*
X173168750Y-32675000D01*
G75*
G02*
X172950000Y-32456250I0J218750D01*
G01*
G37*
G36*
G01*
X171375000Y-32456250D02*
X171375000Y-31943750D01*
G75*
G02*
X171593750Y-31725000I218750J0D01*
G01*
X172031250Y-31725000D01*
G75*
G02*
X172250000Y-31943750I0J-218750D01*
G01*
X172250000Y-32456250D01*
G75*
G02*
X172031250Y-32675000I-218750J0D01*
G01*
X171593750Y-32675000D01*
G75*
G02*
X171375000Y-32456250I0J218750D01*
G01*
G37*
G36*
G01*
X176625000Y-46325000D02*
X176625000Y-46125000D01*
G75*
G02*
X176725000Y-46025000I100000J0D01*
G01*
X178000000Y-46025000D01*
G75*
G02*
X178100000Y-46125000I0J-100000D01*
G01*
X178100000Y-46325000D01*
G75*
G02*
X178000000Y-46425000I-100000J0D01*
G01*
X176725000Y-46425000D01*
G75*
G02*
X176625000Y-46325000I0J100000D01*
G01*
G37*
G36*
G01*
X176625000Y-46975000D02*
X176625000Y-46775000D01*
G75*
G02*
X176725000Y-46675000I100000J0D01*
G01*
X178000000Y-46675000D01*
G75*
G02*
X178100000Y-46775000I0J-100000D01*
G01*
X178100000Y-46975000D01*
G75*
G02*
X178000000Y-47075000I-100000J0D01*
G01*
X176725000Y-47075000D01*
G75*
G02*
X176625000Y-46975000I0J100000D01*
G01*
G37*
G36*
G01*
X176625000Y-47625000D02*
X176625000Y-47425000D01*
G75*
G02*
X176725000Y-47325000I100000J0D01*
G01*
X178000000Y-47325000D01*
G75*
G02*
X178100000Y-47425000I0J-100000D01*
G01*
X178100000Y-47625000D01*
G75*
G02*
X178000000Y-47725000I-100000J0D01*
G01*
X176725000Y-47725000D01*
G75*
G02*
X176625000Y-47625000I0J100000D01*
G01*
G37*
G36*
G01*
X176625000Y-48275000D02*
X176625000Y-48075000D01*
G75*
G02*
X176725000Y-47975000I100000J0D01*
G01*
X178000000Y-47975000D01*
G75*
G02*
X178100000Y-48075000I0J-100000D01*
G01*
X178100000Y-48275000D01*
G75*
G02*
X178000000Y-48375000I-100000J0D01*
G01*
X176725000Y-48375000D01*
G75*
G02*
X176625000Y-48275000I0J100000D01*
G01*
G37*
G36*
G01*
X176625000Y-48925000D02*
X176625000Y-48725000D01*
G75*
G02*
X176725000Y-48625000I100000J0D01*
G01*
X178000000Y-48625000D01*
G75*
G02*
X178100000Y-48725000I0J-100000D01*
G01*
X178100000Y-48925000D01*
G75*
G02*
X178000000Y-49025000I-100000J0D01*
G01*
X176725000Y-49025000D01*
G75*
G02*
X176625000Y-48925000I0J100000D01*
G01*
G37*
G36*
G01*
X176625000Y-49575000D02*
X176625000Y-49375000D01*
G75*
G02*
X176725000Y-49275000I100000J0D01*
G01*
X178000000Y-49275000D01*
G75*
G02*
X178100000Y-49375000I0J-100000D01*
G01*
X178100000Y-49575000D01*
G75*
G02*
X178000000Y-49675000I-100000J0D01*
G01*
X176725000Y-49675000D01*
G75*
G02*
X176625000Y-49575000I0J100000D01*
G01*
G37*
G36*
G01*
X176625000Y-50225000D02*
X176625000Y-50025000D01*
G75*
G02*
X176725000Y-49925000I100000J0D01*
G01*
X178000000Y-49925000D01*
G75*
G02*
X178100000Y-50025000I0J-100000D01*
G01*
X178100000Y-50225000D01*
G75*
G02*
X178000000Y-50325000I-100000J0D01*
G01*
X176725000Y-50325000D01*
G75*
G02*
X176625000Y-50225000I0J100000D01*
G01*
G37*
G36*
G01*
X176625000Y-50875000D02*
X176625000Y-50675000D01*
G75*
G02*
X176725000Y-50575000I100000J0D01*
G01*
X178000000Y-50575000D01*
G75*
G02*
X178100000Y-50675000I0J-100000D01*
G01*
X178100000Y-50875000D01*
G75*
G02*
X178000000Y-50975000I-100000J0D01*
G01*
X176725000Y-50975000D01*
G75*
G02*
X176625000Y-50875000I0J100000D01*
G01*
G37*
G36*
G01*
X170900000Y-50875000D02*
X170900000Y-50675000D01*
G75*
G02*
X171000000Y-50575000I100000J0D01*
G01*
X172275000Y-50575000D01*
G75*
G02*
X172375000Y-50675000I0J-100000D01*
G01*
X172375000Y-50875000D01*
G75*
G02*
X172275000Y-50975000I-100000J0D01*
G01*
X171000000Y-50975000D01*
G75*
G02*
X170900000Y-50875000I0J100000D01*
G01*
G37*
G36*
G01*
X170900000Y-50225000D02*
X170900000Y-50025000D01*
G75*
G02*
X171000000Y-49925000I100000J0D01*
G01*
X172275000Y-49925000D01*
G75*
G02*
X172375000Y-50025000I0J-100000D01*
G01*
X172375000Y-50225000D01*
G75*
G02*
X172275000Y-50325000I-100000J0D01*
G01*
X171000000Y-50325000D01*
G75*
G02*
X170900000Y-50225000I0J100000D01*
G01*
G37*
G36*
G01*
X170900000Y-49575000D02*
X170900000Y-49375000D01*
G75*
G02*
X171000000Y-49275000I100000J0D01*
G01*
X172275000Y-49275000D01*
G75*
G02*
X172375000Y-49375000I0J-100000D01*
G01*
X172375000Y-49575000D01*
G75*
G02*
X172275000Y-49675000I-100000J0D01*
G01*
X171000000Y-49675000D01*
G75*
G02*
X170900000Y-49575000I0J100000D01*
G01*
G37*
G36*
G01*
X170900000Y-48925000D02*
X170900000Y-48725000D01*
G75*
G02*
X171000000Y-48625000I100000J0D01*
G01*
X172275000Y-48625000D01*
G75*
G02*
X172375000Y-48725000I0J-100000D01*
G01*
X172375000Y-48925000D01*
G75*
G02*
X172275000Y-49025000I-100000J0D01*
G01*
X171000000Y-49025000D01*
G75*
G02*
X170900000Y-48925000I0J100000D01*
G01*
G37*
G36*
G01*
X170900000Y-48275000D02*
X170900000Y-48075000D01*
G75*
G02*
X171000000Y-47975000I100000J0D01*
G01*
X172275000Y-47975000D01*
G75*
G02*
X172375000Y-48075000I0J-100000D01*
G01*
X172375000Y-48275000D01*
G75*
G02*
X172275000Y-48375000I-100000J0D01*
G01*
X171000000Y-48375000D01*
G75*
G02*
X170900000Y-48275000I0J100000D01*
G01*
G37*
G36*
G01*
X170900000Y-47625000D02*
X170900000Y-47425000D01*
G75*
G02*
X171000000Y-47325000I100000J0D01*
G01*
X172275000Y-47325000D01*
G75*
G02*
X172375000Y-47425000I0J-100000D01*
G01*
X172375000Y-47625000D01*
G75*
G02*
X172275000Y-47725000I-100000J0D01*
G01*
X171000000Y-47725000D01*
G75*
G02*
X170900000Y-47625000I0J100000D01*
G01*
G37*
G36*
G01*
X170900000Y-46975000D02*
X170900000Y-46775000D01*
G75*
G02*
X171000000Y-46675000I100000J0D01*
G01*
X172275000Y-46675000D01*
G75*
G02*
X172375000Y-46775000I0J-100000D01*
G01*
X172375000Y-46975000D01*
G75*
G02*
X172275000Y-47075000I-100000J0D01*
G01*
X171000000Y-47075000D01*
G75*
G02*
X170900000Y-46975000I0J100000D01*
G01*
G37*
G36*
G01*
X170900000Y-46325000D02*
X170900000Y-46125000D01*
G75*
G02*
X171000000Y-46025000I100000J0D01*
G01*
X172275000Y-46025000D01*
G75*
G02*
X172375000Y-46125000I0J-100000D01*
G01*
X172375000Y-46325000D01*
G75*
G02*
X172275000Y-46425000I-100000J0D01*
G01*
X171000000Y-46425000D01*
G75*
G02*
X170900000Y-46325000I0J100000D01*
G01*
G37*
G36*
G01*
X186350000Y-62756250D02*
X186350000Y-62243750D01*
G75*
G02*
X186568750Y-62025000I218750J0D01*
G01*
X187006250Y-62025000D01*
G75*
G02*
X187225000Y-62243750I0J-218750D01*
G01*
X187225000Y-62756250D01*
G75*
G02*
X187006250Y-62975000I-218750J0D01*
G01*
X186568750Y-62975000D01*
G75*
G02*
X186350000Y-62756250I0J218750D01*
G01*
G37*
G36*
G01*
X184775000Y-62756250D02*
X184775000Y-62243750D01*
G75*
G02*
X184993750Y-62025000I218750J0D01*
G01*
X185431250Y-62025000D01*
G75*
G02*
X185650000Y-62243750I0J-218750D01*
G01*
X185650000Y-62756250D01*
G75*
G02*
X185431250Y-62975000I-218750J0D01*
G01*
X184993750Y-62975000D01*
G75*
G02*
X184775000Y-62756250I0J218750D01*
G01*
G37*
G36*
G01*
X186440000Y-66422500D02*
X186440000Y-66077500D01*
G75*
G02*
X186587500Y-65930000I147500J0D01*
G01*
X186882500Y-65930000D01*
G75*
G02*
X187030000Y-66077500I0J-147500D01*
G01*
X187030000Y-66422500D01*
G75*
G02*
X186882500Y-66570000I-147500J0D01*
G01*
X186587500Y-66570000D01*
G75*
G02*
X186440000Y-66422500I0J147500D01*
G01*
G37*
G36*
G01*
X185470000Y-66422500D02*
X185470000Y-66077500D01*
G75*
G02*
X185617500Y-65930000I147500J0D01*
G01*
X185912500Y-65930000D01*
G75*
G02*
X186060000Y-66077500I0J-147500D01*
G01*
X186060000Y-66422500D01*
G75*
G02*
X185912500Y-66570000I-147500J0D01*
G01*
X185617500Y-66570000D01*
G75*
G02*
X185470000Y-66422500I0J147500D01*
G01*
G37*
G36*
G01*
X185485000Y-69422500D02*
X185485000Y-69077500D01*
G75*
G02*
X185632500Y-68930000I147500J0D01*
G01*
X185927500Y-68930000D01*
G75*
G02*
X186075000Y-69077500I0J-147500D01*
G01*
X186075000Y-69422500D01*
G75*
G02*
X185927500Y-69570000I-147500J0D01*
G01*
X185632500Y-69570000D01*
G75*
G02*
X185485000Y-69422500I0J147500D01*
G01*
G37*
G36*
G01*
X186455000Y-69422500D02*
X186455000Y-69077500D01*
G75*
G02*
X186602500Y-68930000I147500J0D01*
G01*
X186897500Y-68930000D01*
G75*
G02*
X187045000Y-69077500I0J-147500D01*
G01*
X187045000Y-69422500D01*
G75*
G02*
X186897500Y-69570000I-147500J0D01*
G01*
X186602500Y-69570000D01*
G75*
G02*
X186455000Y-69422500I0J147500D01*
G01*
G37*
G36*
G01*
X185470000Y-67922500D02*
X185470000Y-67577500D01*
G75*
G02*
X185617500Y-67430000I147500J0D01*
G01*
X185912500Y-67430000D01*
G75*
G02*
X186060000Y-67577500I0J-147500D01*
G01*
X186060000Y-67922500D01*
G75*
G02*
X185912500Y-68070000I-147500J0D01*
G01*
X185617500Y-68070000D01*
G75*
G02*
X185470000Y-67922500I0J147500D01*
G01*
G37*
G36*
G01*
X186440000Y-67922500D02*
X186440000Y-67577500D01*
G75*
G02*
X186587500Y-67430000I147500J0D01*
G01*
X186882500Y-67430000D01*
G75*
G02*
X187030000Y-67577500I0J-147500D01*
G01*
X187030000Y-67922500D01*
G75*
G02*
X186882500Y-68070000I-147500J0D01*
G01*
X186587500Y-68070000D01*
G75*
G02*
X186440000Y-67922500I0J147500D01*
G01*
G37*
G36*
G01*
X185650000Y-63993750D02*
X185650000Y-64506250D01*
G75*
G02*
X185431250Y-64725000I-218750J0D01*
G01*
X184993750Y-64725000D01*
G75*
G02*
X184775000Y-64506250I0J218750D01*
G01*
X184775000Y-63993750D01*
G75*
G02*
X184993750Y-63775000I218750J0D01*
G01*
X185431250Y-63775000D01*
G75*
G02*
X185650000Y-63993750I0J-218750D01*
G01*
G37*
G36*
G01*
X187225000Y-63993750D02*
X187225000Y-64506250D01*
G75*
G02*
X187006250Y-64725000I-218750J0D01*
G01*
X186568750Y-64725000D01*
G75*
G02*
X186350000Y-64506250I0J218750D01*
G01*
X186350000Y-63993750D01*
G75*
G02*
X186568750Y-63775000I218750J0D01*
G01*
X187006250Y-63775000D01*
G75*
G02*
X187225000Y-63993750I0J-218750D01*
G01*
G37*
G36*
G01*
X177975000Y-69493750D02*
X177975000Y-70006250D01*
G75*
G02*
X177756250Y-70225000I-218750J0D01*
G01*
X177318750Y-70225000D01*
G75*
G02*
X177100000Y-70006250I0J218750D01*
G01*
X177100000Y-69493750D01*
G75*
G02*
X177318750Y-69275000I218750J0D01*
G01*
X177756250Y-69275000D01*
G75*
G02*
X177975000Y-69493750I0J-218750D01*
G01*
G37*
G36*
G01*
X176400000Y-69493750D02*
X176400000Y-70006250D01*
G75*
G02*
X176181250Y-70225000I-218750J0D01*
G01*
X175743750Y-70225000D01*
G75*
G02*
X175525000Y-70006250I0J218750D01*
G01*
X175525000Y-69493750D01*
G75*
G02*
X175743750Y-69275000I218750J0D01*
G01*
X176181250Y-69275000D01*
G75*
G02*
X176400000Y-69493750I0J-218750D01*
G01*
G37*
M02*
