G04 #@! TF.GenerationSoftware,KiCad,Pcbnew,(5.1.6)-1*
G04 #@! TF.CreationDate,2021-01-15T17:25:52+09:00*
G04 #@! TF.ProjectId,HATv2.0,48415476-322e-4302-9e6b-696361645f70,rev?*
G04 #@! TF.SameCoordinates,Original*
G04 #@! TF.FileFunction,Copper,L2,Inr*
G04 #@! TF.FilePolarity,Positive*
%FSLAX46Y46*%
G04 Gerber Fmt 4.6, Leading zero omitted, Abs format (unit mm)*
G04 Created by KiCad (PCBNEW (5.1.6)-1) date 2021-01-15 17:25:52*
%MOMM*%
%LPD*%
G01*
G04 APERTURE LIST*
G04 #@! TA.AperFunction,ViaPad*
%ADD10C,1.800000*%
G04 #@! TD*
G04 #@! TA.AperFunction,ViaPad*
%ADD11R,1.800000X1.800000*%
G04 #@! TD*
G04 #@! TA.AperFunction,ViaPad*
%ADD12C,1.700000*%
G04 #@! TD*
G04 #@! TA.AperFunction,ViaPad*
%ADD13C,2.200000*%
G04 #@! TD*
G04 #@! TA.AperFunction,ViaPad*
%ADD14O,1.350000X1.350000*%
G04 #@! TD*
G04 #@! TA.AperFunction,ViaPad*
%ADD15R,1.350000X1.350000*%
G04 #@! TD*
G04 #@! TA.AperFunction,ViaPad*
%ADD16O,1.900000X1.200000*%
G04 #@! TD*
G04 #@! TA.AperFunction,ViaPad*
%ADD17C,1.450000*%
G04 #@! TD*
G04 #@! TA.AperFunction,ViaPad*
%ADD18O,1.700000X1.700000*%
G04 #@! TD*
G04 #@! TA.AperFunction,ViaPad*
%ADD19R,1.700000X1.700000*%
G04 #@! TD*
G04 #@! TA.AperFunction,ViaPad*
%ADD20C,2.250000*%
G04 #@! TD*
G04 #@! TA.AperFunction,ViaPad*
%ADD21O,1.700000X2.000000*%
G04 #@! TD*
G04 #@! TA.AperFunction,ViaPad*
%ADD22C,0.800000*%
G04 #@! TD*
G04 #@! TA.AperFunction,ViaPad*
%ADD23C,1.000000*%
G04 #@! TD*
G04 #@! TA.AperFunction,Conductor*
%ADD24C,0.254000*%
G04 #@! TD*
G04 APERTURE END LIST*
D10*
X156040000Y-76000000D03*
D11*
X153500000Y-76000000D03*
D10*
X162540000Y-76000000D03*
D11*
X160000000Y-76000000D03*
D10*
X136540000Y-76000000D03*
D11*
X134000000Y-76000000D03*
D10*
X149540000Y-76000000D03*
D11*
X147000000Y-76000000D03*
D10*
X143040000Y-76000000D03*
D11*
X140500000Y-76000000D03*
D12*
X172000000Y-75250000D03*
X167500000Y-75250000D03*
D13*
X173250000Y-72750000D03*
X166250000Y-72750000D03*
D14*
X182750000Y-44750000D03*
X182750000Y-42750000D03*
D15*
X182750000Y-40750000D03*
D16*
X203987500Y-26500000D03*
X203987500Y-33500000D03*
D17*
X201287500Y-27500000D03*
X201287500Y-32500000D03*
D18*
X177240000Y-24030000D03*
X177240000Y-26570000D03*
X174700000Y-24030000D03*
X174700000Y-26570000D03*
X172160000Y-24030000D03*
X172160000Y-26570000D03*
X169620000Y-24030000D03*
X169620000Y-26570000D03*
X167080000Y-24030000D03*
X167080000Y-26570000D03*
X164540000Y-24030000D03*
X164540000Y-26570000D03*
X162000000Y-24030000D03*
X162000000Y-26570000D03*
X159460000Y-24030000D03*
X159460000Y-26570000D03*
X156920000Y-24030000D03*
X156920000Y-26570000D03*
X154380000Y-24030000D03*
X154380000Y-26570000D03*
X151840000Y-24030000D03*
X151840000Y-26570000D03*
X149300000Y-24030000D03*
X149300000Y-26570000D03*
X146760000Y-24030000D03*
X146760000Y-26570000D03*
X144220000Y-24030000D03*
X144220000Y-26570000D03*
X141680000Y-24030000D03*
X141680000Y-26570000D03*
X139140000Y-24030000D03*
X139140000Y-26570000D03*
X136600000Y-24030000D03*
X136600000Y-26570000D03*
X134060000Y-24030000D03*
X134060000Y-26570000D03*
X131520000Y-24030000D03*
X131520000Y-26570000D03*
X128980000Y-24030000D03*
D19*
X128980000Y-26570000D03*
D20*
X126900000Y-64200000D03*
X129440000Y-61660000D03*
X124360000Y-61660000D03*
X124360000Y-66740000D03*
X129440000Y-66740000D03*
D18*
X194000000Y-53450000D03*
X194000000Y-50910000D03*
X194000000Y-48370000D03*
X194000000Y-45830000D03*
X194000000Y-43290000D03*
D19*
X194000000Y-40750000D03*
D18*
X189500000Y-48370000D03*
X189500000Y-45830000D03*
X189500000Y-43290000D03*
D19*
X189500000Y-40750000D03*
D20*
X126900000Y-35814000D03*
X129440000Y-33274000D03*
X124360000Y-33274000D03*
X124360000Y-38354000D03*
X129440000Y-38354000D03*
D14*
X128600000Y-52775000D03*
X128600000Y-50775000D03*
D15*
X128600000Y-48775000D03*
G04 #@! TA.AperFunction,ViaPad*
G36*
G01*
X191850000Y-25500000D02*
X191850000Y-27000000D01*
G75*
G02*
X191600000Y-27250000I-250000J0D01*
G01*
X190400000Y-27250000D01*
G75*
G02*
X190150000Y-27000000I0J250000D01*
G01*
X190150000Y-25500000D01*
G75*
G02*
X190400000Y-25250000I250000J0D01*
G01*
X191600000Y-25250000D01*
G75*
G02*
X191850000Y-25500000I0J-250000D01*
G01*
G37*
G04 #@! TD.AperFunction*
D21*
X188500000Y-26250000D03*
D22*
X161900000Y-30990000D03*
X144100000Y-32650000D03*
X139150000Y-32825000D03*
X139150000Y-30450000D03*
X141300000Y-30450000D03*
X143200000Y-31400000D03*
X136750000Y-30450000D03*
X137450000Y-32850000D03*
X121950000Y-61650000D03*
X121950000Y-66850000D03*
X121850000Y-64200000D03*
X121950000Y-59400000D03*
X121950000Y-68900000D03*
X124400000Y-69000000D03*
X126500000Y-66950000D03*
X127600000Y-66950000D03*
X124350000Y-64850000D03*
X124350000Y-63600000D03*
X126450000Y-61600000D03*
X127550000Y-61550000D03*
X124400000Y-59400000D03*
X126950000Y-59250000D03*
X129500000Y-59300000D03*
X131400000Y-59350000D03*
X127050000Y-69000000D03*
X129550000Y-69000000D03*
X131750000Y-69000000D03*
X131750000Y-66800000D03*
X121850000Y-33200000D03*
X121850000Y-40450000D03*
X121750000Y-35750000D03*
X121850000Y-38400000D03*
X121850000Y-30950000D03*
X123800000Y-35275000D03*
X124300000Y-30900000D03*
X127500000Y-38500000D03*
X127450000Y-33100000D03*
X131550000Y-30900000D03*
X126850000Y-30800000D03*
X129450000Y-40550000D03*
X131650000Y-38350000D03*
X126950000Y-40550000D03*
X131650000Y-40550000D03*
X126400000Y-38500000D03*
X129400000Y-30850000D03*
X126350000Y-33150000D03*
X124300000Y-40550000D03*
X123825000Y-36225000D03*
X134300000Y-43000000D03*
X134200000Y-44900000D03*
X131400000Y-43300000D03*
X131500000Y-45500000D03*
X131500000Y-47600000D03*
X134200000Y-46200000D03*
X134400000Y-49900000D03*
X134400000Y-51200000D03*
X134400000Y-52700000D03*
X134300000Y-54100000D03*
X134300000Y-55500000D03*
X131600000Y-52000000D03*
X131500000Y-53950000D03*
X131400000Y-57700000D03*
X135200000Y-62100000D03*
X135200000Y-59200000D03*
X134900000Y-57200000D03*
X132700000Y-39900000D03*
X135800000Y-41600000D03*
X135900000Y-39300000D03*
X133450000Y-34400000D03*
X146700000Y-58300000D03*
X148000000Y-58300000D03*
X149300000Y-58300000D03*
X143000000Y-58100000D03*
X143000000Y-56900000D03*
X143000000Y-55600000D03*
X143000000Y-54300000D03*
X143000000Y-53100000D03*
X143000000Y-51800000D03*
X143000000Y-50500000D03*
X143000000Y-49200000D03*
X143000000Y-48000000D03*
X143000000Y-46800000D03*
X143100000Y-45500000D03*
X143100000Y-44200000D03*
X143100000Y-42900000D03*
X143100000Y-41700000D03*
X143100000Y-40400000D03*
X143100000Y-39100000D03*
X143000000Y-37800000D03*
X144300000Y-37800000D03*
X145600000Y-37800000D03*
X147000000Y-38500000D03*
X162000000Y-37800000D03*
X163300000Y-37800000D03*
X146400000Y-54800000D03*
X146300000Y-41100000D03*
X159800000Y-54700000D03*
X147600000Y-41900000D03*
X147500000Y-53700000D03*
X158700000Y-53500000D03*
X145725000Y-64675000D03*
X151800000Y-32850000D03*
X170500000Y-32600000D03*
X133400000Y-30700000D03*
X170300000Y-45400000D03*
X174250000Y-44800000D03*
X136906000Y-38354000D03*
X136144000Y-35052000D03*
X138000000Y-34000000D03*
X178100000Y-33100000D03*
X140250000Y-65900000D03*
X153400000Y-48050000D03*
X151900000Y-58250000D03*
X151800000Y-64050000D03*
X148700000Y-63050000D03*
X147400000Y-63050000D03*
X138100000Y-58150000D03*
X138050000Y-56800000D03*
X137950000Y-55600000D03*
X138050000Y-54350000D03*
X138000000Y-53100000D03*
X138050000Y-51800000D03*
X138000000Y-50550000D03*
X138050000Y-49300000D03*
X138000000Y-42950000D03*
X137950000Y-41650000D03*
X138000000Y-39100000D03*
X138000000Y-37850000D03*
X138000000Y-36550000D03*
X138000000Y-35300000D03*
X141650000Y-63100000D03*
X140450000Y-63100000D03*
X139100000Y-63100000D03*
X137950000Y-59400000D03*
X164550000Y-32950000D03*
X165800000Y-32900000D03*
X168150000Y-35300000D03*
X160700000Y-63100000D03*
X141025000Y-32875000D03*
X132250000Y-32200000D03*
X159500000Y-58150000D03*
X163200000Y-58150000D03*
X163250000Y-56300000D03*
X163200000Y-53700000D03*
X163200000Y-52450000D03*
X156900000Y-37850000D03*
X157900000Y-39050000D03*
X158500000Y-41950000D03*
X159650000Y-41000000D03*
X163150000Y-45400000D03*
X162850000Y-44200000D03*
X164250000Y-64000000D03*
X132400000Y-35750000D03*
X166500000Y-64000000D03*
X162250000Y-64000000D03*
X130950000Y-56675000D03*
X153725000Y-38000000D03*
X148000000Y-37800000D03*
X178950000Y-34550000D03*
X135200000Y-60700000D03*
X138500000Y-76000000D03*
X145000000Y-76000000D03*
X151500000Y-76000000D03*
X158000000Y-76000000D03*
X165000000Y-76000000D03*
X187750000Y-60750000D03*
X187750000Y-72500000D03*
X202750000Y-58250000D03*
X198000000Y-58250000D03*
X194250000Y-58250000D03*
X189250000Y-59000000D03*
X198500000Y-31500000D03*
X203250000Y-35500000D03*
X199500000Y-26750000D03*
X199750000Y-34250000D03*
X201500000Y-25250000D03*
X198750000Y-29000000D03*
X196750000Y-28000000D03*
X163258660Y-48441340D03*
X168750000Y-64000000D03*
X171000000Y-64000000D03*
X174000000Y-62000000D03*
X175500000Y-60500000D03*
X177000000Y-59000000D03*
X178500000Y-57500000D03*
X180250000Y-55750000D03*
X182200000Y-50600000D03*
X185250000Y-50750000D03*
X174000000Y-59000000D03*
X175400000Y-57400000D03*
X177000000Y-55800000D03*
X184404000Y-46990000D03*
X184404000Y-44831000D03*
X184404000Y-42291000D03*
X184404000Y-39751000D03*
X184404000Y-37465000D03*
X184531000Y-35433000D03*
X188214000Y-32131000D03*
X189611000Y-30607000D03*
X190881000Y-29210000D03*
X193802000Y-29210000D03*
X194437000Y-31369000D03*
X192278000Y-31369000D03*
X191135000Y-32258000D03*
X189230000Y-34544000D03*
X187452000Y-36068000D03*
X186563000Y-37592000D03*
X186563000Y-39751000D03*
X186563000Y-42291000D03*
X186563000Y-44450000D03*
X186563000Y-46228000D03*
X183134000Y-52832000D03*
X180340000Y-52578000D03*
X185801000Y-34290000D03*
X170565660Y-58796340D03*
X176276000Y-63500000D03*
X181737000Y-58166000D03*
X186436000Y-52705000D03*
X187960000Y-50546000D03*
X202565000Y-75184000D03*
X197612000Y-75438000D03*
X193040000Y-75438000D03*
X188468000Y-74930000D03*
X173990000Y-68072000D03*
X180721000Y-63881000D03*
X182118000Y-70993000D03*
X157480000Y-65024000D03*
X136500000Y-69000000D03*
X170700000Y-41200000D03*
X141650000Y-66500000D03*
X191000000Y-67350000D03*
X170200000Y-36500000D03*
X182982616Y-64103926D03*
X177500000Y-71750000D03*
X173990000Y-57531000D03*
X136700000Y-45500000D03*
X163200000Y-31000000D03*
X171000000Y-43200000D03*
X175224997Y-55025003D03*
X176330016Y-53080000D03*
D23*
X175249999Y-29349999D03*
D22*
X192000000Y-33250000D03*
X176810010Y-51810000D03*
X175799088Y-54079534D03*
X156000000Y-68243000D03*
X179117394Y-48100000D03*
X179917948Y-48750000D03*
X180750000Y-49500000D03*
X166624000Y-65405000D03*
X149479000Y-67691000D03*
X170200000Y-50100000D03*
X158140000Y-30980000D03*
X170200000Y-48800000D03*
X159470000Y-30980000D03*
X170200000Y-47300000D03*
X160690000Y-30990000D03*
X171500000Y-55750004D03*
X171450000Y-57940000D03*
X152800000Y-65100000D03*
X168250000Y-36500000D03*
X184500000Y-67000000D03*
X168250000Y-37750000D03*
X183896000Y-69977000D03*
X168250000Y-39000000D03*
X186000000Y-72390000D03*
X170053000Y-61870001D03*
X162560000Y-68199000D03*
X161150000Y-50850000D03*
D24*
G36*
X202931063Y-22322993D02*
G01*
X203345697Y-22448178D01*
X203728127Y-22651519D01*
X204063775Y-22925268D01*
X204339864Y-23259001D01*
X204545866Y-23639994D01*
X204673945Y-24053751D01*
X204723000Y-24520475D01*
X204723000Y-25321894D01*
X204702996Y-25313507D01*
X204464500Y-25265000D01*
X204114500Y-25265000D01*
X204114500Y-26373000D01*
X204134500Y-26373000D01*
X204134500Y-26627000D01*
X204114500Y-26627000D01*
X204114500Y-27735000D01*
X204464500Y-27735000D01*
X204702996Y-27686493D01*
X204723000Y-27678106D01*
X204723000Y-32321894D01*
X204702996Y-32313507D01*
X204464500Y-32265000D01*
X204114500Y-32265000D01*
X204114500Y-33373000D01*
X204134500Y-33373000D01*
X204134500Y-33627000D01*
X204114500Y-33627000D01*
X204114500Y-34735000D01*
X204464500Y-34735000D01*
X204702996Y-34686493D01*
X204723000Y-34678106D01*
X204723001Y-74961985D01*
X204677007Y-75431063D01*
X204551821Y-75845700D01*
X204348478Y-76228131D01*
X204074733Y-76563775D01*
X203740999Y-76839864D01*
X203360006Y-77045866D01*
X202946245Y-77173947D01*
X202479525Y-77223000D01*
X163617925Y-77223000D01*
X163803773Y-77037152D01*
X163981828Y-76770673D01*
X164104475Y-76474578D01*
X164143498Y-76278397D01*
X166651208Y-76278397D01*
X166728843Y-76527472D01*
X166992883Y-76653371D01*
X167276411Y-76725339D01*
X167568531Y-76740611D01*
X167858019Y-76698599D01*
X168133747Y-76600919D01*
X168271157Y-76527472D01*
X168348792Y-76278397D01*
X167500000Y-75429605D01*
X166651208Y-76278397D01*
X164143498Y-76278397D01*
X164167000Y-76160245D01*
X164167000Y-75839755D01*
X164104475Y-75525422D01*
X163981828Y-75229327D01*
X163803773Y-74962848D01*
X163577152Y-74736227D01*
X163310673Y-74558172D01*
X163014578Y-74435525D01*
X162700245Y-74373000D01*
X162379755Y-74373000D01*
X162065422Y-74435525D01*
X161769327Y-74558172D01*
X161502848Y-74736227D01*
X161452493Y-74786582D01*
X161430537Y-74745506D01*
X161351185Y-74648815D01*
X161254494Y-74569463D01*
X161144180Y-74510498D01*
X161024482Y-74474188D01*
X160900000Y-74461928D01*
X160285750Y-74465000D01*
X160127000Y-74623750D01*
X160127000Y-75873000D01*
X160147000Y-75873000D01*
X160147000Y-76127000D01*
X160127000Y-76127000D01*
X160127000Y-76147000D01*
X159873000Y-76147000D01*
X159873000Y-76127000D01*
X158623750Y-76127000D01*
X158465000Y-76285750D01*
X158461928Y-76900000D01*
X158474188Y-77024482D01*
X158510498Y-77144180D01*
X158552629Y-77223000D01*
X157117925Y-77223000D01*
X157303773Y-77037152D01*
X157481828Y-76770673D01*
X157604475Y-76474578D01*
X157667000Y-76160245D01*
X157667000Y-75839755D01*
X157604475Y-75525422D01*
X157481828Y-75229327D01*
X157395415Y-75100000D01*
X158461928Y-75100000D01*
X158465000Y-75714250D01*
X158623750Y-75873000D01*
X159873000Y-75873000D01*
X159873000Y-74623750D01*
X159714250Y-74465000D01*
X159100000Y-74461928D01*
X158975518Y-74474188D01*
X158855820Y-74510498D01*
X158745506Y-74569463D01*
X158648815Y-74648815D01*
X158569463Y-74745506D01*
X158510498Y-74855820D01*
X158474188Y-74975518D01*
X158461928Y-75100000D01*
X157395415Y-75100000D01*
X157303773Y-74962848D01*
X157077152Y-74736227D01*
X156810673Y-74558172D01*
X156514578Y-74435525D01*
X156200245Y-74373000D01*
X155879755Y-74373000D01*
X155565422Y-74435525D01*
X155269327Y-74558172D01*
X155002848Y-74736227D01*
X154952493Y-74786582D01*
X154930537Y-74745506D01*
X154851185Y-74648815D01*
X154754494Y-74569463D01*
X154644180Y-74510498D01*
X154524482Y-74474188D01*
X154400000Y-74461928D01*
X153785750Y-74465000D01*
X153627000Y-74623750D01*
X153627000Y-75873000D01*
X153647000Y-75873000D01*
X153647000Y-76127000D01*
X153627000Y-76127000D01*
X153627000Y-76147000D01*
X153373000Y-76147000D01*
X153373000Y-76127000D01*
X152123750Y-76127000D01*
X151965000Y-76285750D01*
X151961928Y-76900000D01*
X151974188Y-77024482D01*
X152010498Y-77144180D01*
X152052629Y-77223000D01*
X150617925Y-77223000D01*
X150803773Y-77037152D01*
X150981828Y-76770673D01*
X151104475Y-76474578D01*
X151167000Y-76160245D01*
X151167000Y-75839755D01*
X151104475Y-75525422D01*
X150981828Y-75229327D01*
X150895415Y-75100000D01*
X151961928Y-75100000D01*
X151965000Y-75714250D01*
X152123750Y-75873000D01*
X153373000Y-75873000D01*
X153373000Y-74623750D01*
X153214250Y-74465000D01*
X152600000Y-74461928D01*
X152475518Y-74474188D01*
X152355820Y-74510498D01*
X152245506Y-74569463D01*
X152148815Y-74648815D01*
X152069463Y-74745506D01*
X152010498Y-74855820D01*
X151974188Y-74975518D01*
X151961928Y-75100000D01*
X150895415Y-75100000D01*
X150803773Y-74962848D01*
X150577152Y-74736227D01*
X150310673Y-74558172D01*
X150014578Y-74435525D01*
X149700245Y-74373000D01*
X149379755Y-74373000D01*
X149065422Y-74435525D01*
X148769327Y-74558172D01*
X148502848Y-74736227D01*
X148452493Y-74786582D01*
X148430537Y-74745506D01*
X148351185Y-74648815D01*
X148254494Y-74569463D01*
X148144180Y-74510498D01*
X148024482Y-74474188D01*
X147900000Y-74461928D01*
X147285750Y-74465000D01*
X147127000Y-74623750D01*
X147127000Y-75873000D01*
X147147000Y-75873000D01*
X147147000Y-76127000D01*
X147127000Y-76127000D01*
X147127000Y-76147000D01*
X146873000Y-76147000D01*
X146873000Y-76127000D01*
X145623750Y-76127000D01*
X145465000Y-76285750D01*
X145461928Y-76900000D01*
X145474188Y-77024482D01*
X145510498Y-77144180D01*
X145552629Y-77223000D01*
X144117925Y-77223000D01*
X144303773Y-77037152D01*
X144481828Y-76770673D01*
X144604475Y-76474578D01*
X144667000Y-76160245D01*
X144667000Y-75839755D01*
X144604475Y-75525422D01*
X144481828Y-75229327D01*
X144395415Y-75100000D01*
X145461928Y-75100000D01*
X145465000Y-75714250D01*
X145623750Y-75873000D01*
X146873000Y-75873000D01*
X146873000Y-74623750D01*
X146714250Y-74465000D01*
X146100000Y-74461928D01*
X145975518Y-74474188D01*
X145855820Y-74510498D01*
X145745506Y-74569463D01*
X145648815Y-74648815D01*
X145569463Y-74745506D01*
X145510498Y-74855820D01*
X145474188Y-74975518D01*
X145461928Y-75100000D01*
X144395415Y-75100000D01*
X144303773Y-74962848D01*
X144077152Y-74736227D01*
X143810673Y-74558172D01*
X143514578Y-74435525D01*
X143200245Y-74373000D01*
X142879755Y-74373000D01*
X142565422Y-74435525D01*
X142269327Y-74558172D01*
X142002848Y-74736227D01*
X141952493Y-74786582D01*
X141930537Y-74745506D01*
X141851185Y-74648815D01*
X141754494Y-74569463D01*
X141644180Y-74510498D01*
X141524482Y-74474188D01*
X141400000Y-74461928D01*
X140785750Y-74465000D01*
X140627000Y-74623750D01*
X140627000Y-75873000D01*
X140647000Y-75873000D01*
X140647000Y-76127000D01*
X140627000Y-76127000D01*
X140627000Y-76147000D01*
X140373000Y-76147000D01*
X140373000Y-76127000D01*
X139123750Y-76127000D01*
X138965000Y-76285750D01*
X138961928Y-76900000D01*
X138974188Y-77024482D01*
X139010498Y-77144180D01*
X139052629Y-77223000D01*
X137617925Y-77223000D01*
X137803773Y-77037152D01*
X137981828Y-76770673D01*
X138104475Y-76474578D01*
X138167000Y-76160245D01*
X138167000Y-75839755D01*
X138104475Y-75525422D01*
X137981828Y-75229327D01*
X137895415Y-75100000D01*
X138961928Y-75100000D01*
X138965000Y-75714250D01*
X139123750Y-75873000D01*
X140373000Y-75873000D01*
X140373000Y-74623750D01*
X140214250Y-74465000D01*
X139600000Y-74461928D01*
X139475518Y-74474188D01*
X139355820Y-74510498D01*
X139245506Y-74569463D01*
X139148815Y-74648815D01*
X139069463Y-74745506D01*
X139010498Y-74855820D01*
X138974188Y-74975518D01*
X138961928Y-75100000D01*
X137895415Y-75100000D01*
X137803773Y-74962848D01*
X137577152Y-74736227D01*
X137310673Y-74558172D01*
X137014578Y-74435525D01*
X136700245Y-74373000D01*
X136379755Y-74373000D01*
X136065422Y-74435525D01*
X135769327Y-74558172D01*
X135502848Y-74736227D01*
X135452493Y-74786582D01*
X135430537Y-74745506D01*
X135351185Y-74648815D01*
X135254494Y-74569463D01*
X135144180Y-74510498D01*
X135024482Y-74474188D01*
X134900000Y-74461928D01*
X134285750Y-74465000D01*
X134127000Y-74623750D01*
X134127000Y-75873000D01*
X134147000Y-75873000D01*
X134147000Y-76127000D01*
X134127000Y-76127000D01*
X134127000Y-76147000D01*
X133873000Y-76147000D01*
X133873000Y-76127000D01*
X132623750Y-76127000D01*
X132465000Y-76285750D01*
X132461928Y-76900000D01*
X132474188Y-77024482D01*
X132510498Y-77144180D01*
X132552629Y-77223000D01*
X123538005Y-77223000D01*
X123068937Y-77177007D01*
X122654300Y-77051821D01*
X122271869Y-76848478D01*
X121936225Y-76574733D01*
X121660136Y-76240999D01*
X121454134Y-75860006D01*
X121326053Y-75446245D01*
X121277000Y-74979525D01*
X121277000Y-74247100D01*
X121892834Y-74247100D01*
X121892834Y-74662176D01*
X121973811Y-75069276D01*
X122132653Y-75452756D01*
X122363257Y-75797878D01*
X122656760Y-76091381D01*
X123001882Y-76321985D01*
X123385362Y-76480827D01*
X123792462Y-76561804D01*
X124207538Y-76561804D01*
X124614638Y-76480827D01*
X124998118Y-76321985D01*
X125343240Y-76091381D01*
X125636743Y-75797878D01*
X125867347Y-75452756D01*
X126013462Y-75100000D01*
X132461928Y-75100000D01*
X132465000Y-75714250D01*
X132623750Y-75873000D01*
X133873000Y-75873000D01*
X133873000Y-74623750D01*
X133714250Y-74465000D01*
X133100000Y-74461928D01*
X132975518Y-74474188D01*
X132855820Y-74510498D01*
X132745506Y-74569463D01*
X132648815Y-74648815D01*
X132569463Y-74745506D01*
X132510498Y-74855820D01*
X132474188Y-74975518D01*
X132461928Y-75100000D01*
X126013462Y-75100000D01*
X126026189Y-75069276D01*
X126107166Y-74662176D01*
X126107166Y-74247100D01*
X126026189Y-73840000D01*
X125867347Y-73456520D01*
X125636743Y-73111398D01*
X125343240Y-72817895D01*
X124998118Y-72587291D01*
X124956509Y-72570056D01*
X164423000Y-72570056D01*
X164423000Y-72929944D01*
X164493211Y-73282916D01*
X164630934Y-73615409D01*
X164830876Y-73914645D01*
X165085355Y-74169124D01*
X165384591Y-74369066D01*
X165717084Y-74506789D01*
X166070056Y-74577000D01*
X166175725Y-74577000D01*
X166096629Y-74742883D01*
X166024661Y-75026411D01*
X166009389Y-75318531D01*
X166051401Y-75608019D01*
X166149081Y-75883747D01*
X166222528Y-76021157D01*
X166471603Y-76098792D01*
X167320395Y-75250000D01*
X167679605Y-75250000D01*
X168528397Y-76098792D01*
X168777472Y-76021157D01*
X168903371Y-75757117D01*
X168975339Y-75473589D01*
X168990611Y-75181469D01*
X168978016Y-75094679D01*
X170423000Y-75094679D01*
X170423000Y-75405321D01*
X170483604Y-75709994D01*
X170602481Y-75996989D01*
X170775064Y-76255279D01*
X170994721Y-76474936D01*
X171253011Y-76647519D01*
X171540006Y-76766396D01*
X171844679Y-76827000D01*
X172155321Y-76827000D01*
X172459994Y-76766396D01*
X172746989Y-76647519D01*
X173005279Y-76474936D01*
X173224936Y-76255279D01*
X173397519Y-75996989D01*
X173516396Y-75709994D01*
X173577000Y-75405321D01*
X173577000Y-75094679D01*
X173516396Y-74790006D01*
X173428166Y-74577000D01*
X173429944Y-74577000D01*
X173782916Y-74506789D01*
X174115409Y-74369066D01*
X174230055Y-74292462D01*
X179938196Y-74292462D01*
X179938196Y-74707538D01*
X180019173Y-75114638D01*
X180178015Y-75498118D01*
X180408619Y-75843240D01*
X180702122Y-76136743D01*
X181047244Y-76367347D01*
X181430724Y-76526189D01*
X181837824Y-76607166D01*
X182252900Y-76607166D01*
X182660000Y-76526189D01*
X183043480Y-76367347D01*
X183388602Y-76136743D01*
X183682105Y-75843240D01*
X183912709Y-75498118D01*
X184071551Y-75114638D01*
X184152528Y-74707538D01*
X184152528Y-74292462D01*
X184071551Y-73885362D01*
X183912709Y-73501882D01*
X183682105Y-73156760D01*
X183388602Y-72863257D01*
X183043480Y-72632653D01*
X182660000Y-72473811D01*
X182252900Y-72392834D01*
X181837824Y-72392834D01*
X181430724Y-72473811D01*
X181047244Y-72632653D01*
X180702122Y-72863257D01*
X180408619Y-73156760D01*
X180178015Y-73501882D01*
X180019173Y-73885362D01*
X179938196Y-74292462D01*
X174230055Y-74292462D01*
X174414645Y-74169124D01*
X174669124Y-73914645D01*
X174869066Y-73615409D01*
X175006789Y-73282916D01*
X175077000Y-72929944D01*
X175077000Y-72570056D01*
X175006789Y-72217084D01*
X174869066Y-71884591D01*
X174704969Y-71639000D01*
X176373000Y-71639000D01*
X176373000Y-71861000D01*
X176416310Y-72078734D01*
X176501266Y-72283835D01*
X176624602Y-72468421D01*
X176781579Y-72625398D01*
X176966165Y-72748734D01*
X177171266Y-72833690D01*
X177389000Y-72877000D01*
X177611000Y-72877000D01*
X177828734Y-72833690D01*
X178033835Y-72748734D01*
X178218421Y-72625398D01*
X178375398Y-72468421D01*
X178498734Y-72283835D01*
X178500736Y-72279000D01*
X184873000Y-72279000D01*
X184873000Y-72501000D01*
X184916310Y-72718734D01*
X185001266Y-72923835D01*
X185124602Y-73108421D01*
X185281579Y-73265398D01*
X185466165Y-73388734D01*
X185671266Y-73473690D01*
X185889000Y-73517000D01*
X186111000Y-73517000D01*
X186328734Y-73473690D01*
X186533835Y-73388734D01*
X186718421Y-73265398D01*
X186875398Y-73108421D01*
X186998734Y-72923835D01*
X187083690Y-72718734D01*
X187127000Y-72501000D01*
X187127000Y-72279000D01*
X187083690Y-72061266D01*
X186998734Y-71856165D01*
X186875398Y-71671579D01*
X186718421Y-71514602D01*
X186533835Y-71391266D01*
X186328734Y-71306310D01*
X186111000Y-71263000D01*
X185889000Y-71263000D01*
X185671266Y-71306310D01*
X185466165Y-71391266D01*
X185281579Y-71514602D01*
X185124602Y-71671579D01*
X185001266Y-71856165D01*
X184916310Y-72061266D01*
X184873000Y-72279000D01*
X178500736Y-72279000D01*
X178583690Y-72078734D01*
X178627000Y-71861000D01*
X178627000Y-71639000D01*
X178583690Y-71421266D01*
X178498734Y-71216165D01*
X178375398Y-71031579D01*
X178218421Y-70874602D01*
X178033835Y-70751266D01*
X177828734Y-70666310D01*
X177611000Y-70623000D01*
X177389000Y-70623000D01*
X177171266Y-70666310D01*
X176966165Y-70751266D01*
X176781579Y-70874602D01*
X176624602Y-71031579D01*
X176501266Y-71216165D01*
X176416310Y-71421266D01*
X176373000Y-71639000D01*
X174704969Y-71639000D01*
X174669124Y-71585355D01*
X174414645Y-71330876D01*
X174115409Y-71130934D01*
X173782916Y-70993211D01*
X173429944Y-70923000D01*
X173070056Y-70923000D01*
X172717084Y-70993211D01*
X172384591Y-71130934D01*
X172085355Y-71330876D01*
X171830876Y-71585355D01*
X171630934Y-71884591D01*
X171493211Y-72217084D01*
X171423000Y-72570056D01*
X171423000Y-72929944D01*
X171493211Y-73282916D01*
X171630934Y-73615409D01*
X171689976Y-73703773D01*
X171540006Y-73733604D01*
X171253011Y-73852481D01*
X170994721Y-74025064D01*
X170775064Y-74244721D01*
X170602481Y-74503011D01*
X170483604Y-74790006D01*
X170423000Y-75094679D01*
X168978016Y-75094679D01*
X168948599Y-74891981D01*
X168850919Y-74616253D01*
X168777472Y-74478843D01*
X168528397Y-74401208D01*
X167679605Y-75250000D01*
X167320395Y-75250000D01*
X167306253Y-75235858D01*
X167485858Y-75056253D01*
X167500000Y-75070395D01*
X168348792Y-74221603D01*
X168271157Y-73972528D01*
X168007117Y-73846629D01*
X167756992Y-73783140D01*
X167869066Y-73615409D01*
X168006789Y-73282916D01*
X168077000Y-72929944D01*
X168077000Y-72570056D01*
X168006789Y-72217084D01*
X167869066Y-71884591D01*
X167669124Y-71585355D01*
X167414645Y-71330876D01*
X167115409Y-71130934D01*
X166782916Y-70993211D01*
X166429944Y-70923000D01*
X166070056Y-70923000D01*
X165717084Y-70993211D01*
X165384591Y-71130934D01*
X165085355Y-71330876D01*
X164830876Y-71585355D01*
X164630934Y-71884591D01*
X164493211Y-72217084D01*
X164423000Y-72570056D01*
X124956509Y-72570056D01*
X124614638Y-72428449D01*
X124207538Y-72347472D01*
X123792462Y-72347472D01*
X123385362Y-72428449D01*
X123001882Y-72587291D01*
X122656760Y-72817895D01*
X122363257Y-73111398D01*
X122132653Y-73456520D01*
X121973811Y-73840000D01*
X121892834Y-74247100D01*
X121277000Y-74247100D01*
X121277000Y-68889000D01*
X135373000Y-68889000D01*
X135373000Y-69111000D01*
X135416310Y-69328734D01*
X135501266Y-69533835D01*
X135624602Y-69718421D01*
X135781579Y-69875398D01*
X135966165Y-69998734D01*
X136171266Y-70083690D01*
X136389000Y-70127000D01*
X136611000Y-70127000D01*
X136828734Y-70083690D01*
X137033835Y-69998734D01*
X137218421Y-69875398D01*
X137227819Y-69866000D01*
X182769000Y-69866000D01*
X182769000Y-70088000D01*
X182812310Y-70305734D01*
X182897266Y-70510835D01*
X183020602Y-70695421D01*
X183177579Y-70852398D01*
X183362165Y-70975734D01*
X183567266Y-71060690D01*
X183785000Y-71104000D01*
X184007000Y-71104000D01*
X184224734Y-71060690D01*
X184429835Y-70975734D01*
X184614421Y-70852398D01*
X184771398Y-70695421D01*
X184894734Y-70510835D01*
X184979690Y-70305734D01*
X185023000Y-70088000D01*
X185023000Y-69866000D01*
X184979690Y-69648266D01*
X184894734Y-69443165D01*
X184771398Y-69258579D01*
X184614421Y-69101602D01*
X184429835Y-68978266D01*
X184224734Y-68893310D01*
X184007000Y-68850000D01*
X183785000Y-68850000D01*
X183567266Y-68893310D01*
X183362165Y-68978266D01*
X183177579Y-69101602D01*
X183020602Y-69258579D01*
X182897266Y-69443165D01*
X182812310Y-69648266D01*
X182769000Y-69866000D01*
X137227819Y-69866000D01*
X137375398Y-69718421D01*
X137498734Y-69533835D01*
X137583690Y-69328734D01*
X137627000Y-69111000D01*
X137627000Y-68889000D01*
X137583690Y-68671266D01*
X137498734Y-68466165D01*
X137375398Y-68281579D01*
X137218421Y-68124602D01*
X137033835Y-68001266D01*
X136828734Y-67916310D01*
X136611000Y-67873000D01*
X136389000Y-67873000D01*
X136171266Y-67916310D01*
X135966165Y-68001266D01*
X135781579Y-68124602D01*
X135624602Y-68281579D01*
X135501266Y-68466165D01*
X135416310Y-68671266D01*
X135373000Y-68889000D01*
X121277000Y-68889000D01*
X121277000Y-67964531D01*
X123315074Y-67964531D01*
X123425921Y-68241714D01*
X123736840Y-68395089D01*
X124071705Y-68484860D01*
X124417650Y-68507576D01*
X124761380Y-68462366D01*
X125089685Y-68350966D01*
X125294079Y-68241714D01*
X125404926Y-67964531D01*
X128395074Y-67964531D01*
X128505921Y-68241714D01*
X128816840Y-68395089D01*
X129151705Y-68484860D01*
X129497650Y-68507576D01*
X129841380Y-68462366D01*
X130169685Y-68350966D01*
X130374079Y-68241714D01*
X130484926Y-67964531D01*
X129440000Y-66919605D01*
X128395074Y-67964531D01*
X125404926Y-67964531D01*
X124360000Y-66919605D01*
X123315074Y-67964531D01*
X121277000Y-67964531D01*
X121277000Y-66797650D01*
X122592424Y-66797650D01*
X122637634Y-67141380D01*
X122749034Y-67469685D01*
X122858286Y-67674079D01*
X123135469Y-67784926D01*
X124180395Y-66740000D01*
X123135469Y-65695074D01*
X122858286Y-65805921D01*
X122704911Y-66116840D01*
X122615140Y-66451705D01*
X122592424Y-66797650D01*
X121277000Y-66797650D01*
X121277000Y-62884531D01*
X123315074Y-62884531D01*
X123425921Y-63161714D01*
X123736840Y-63315089D01*
X124071705Y-63404860D01*
X124417650Y-63427576D01*
X124761380Y-63382366D01*
X124807629Y-63366673D01*
X124734544Y-63543116D01*
X124648000Y-63978197D01*
X124648000Y-64421803D01*
X124734544Y-64856884D01*
X124809738Y-65038420D01*
X124648295Y-64995140D01*
X124302350Y-64972424D01*
X123958620Y-65017634D01*
X123630315Y-65129034D01*
X123425921Y-65238286D01*
X123315074Y-65515469D01*
X124360000Y-66560395D01*
X124374143Y-66546253D01*
X124553748Y-66725858D01*
X124539605Y-66740000D01*
X125584531Y-67784926D01*
X125861714Y-67674079D01*
X126015089Y-67363160D01*
X126104860Y-67028295D01*
X126127576Y-66682350D01*
X126082366Y-66338620D01*
X126066673Y-66292371D01*
X126243116Y-66365456D01*
X126678197Y-66452000D01*
X127121803Y-66452000D01*
X127556884Y-66365456D01*
X127738420Y-66290262D01*
X127695140Y-66451705D01*
X127672424Y-66797650D01*
X127717634Y-67141380D01*
X127829034Y-67469685D01*
X127938286Y-67674079D01*
X128215469Y-67784926D01*
X129260395Y-66740000D01*
X129619605Y-66740000D01*
X130664531Y-67784926D01*
X130941714Y-67674079D01*
X131095089Y-67363160D01*
X131184860Y-67028295D01*
X131207576Y-66682350D01*
X131168993Y-66389000D01*
X140523000Y-66389000D01*
X140523000Y-66611000D01*
X140566310Y-66828734D01*
X140651266Y-67033835D01*
X140774602Y-67218421D01*
X140931579Y-67375398D01*
X141116165Y-67498734D01*
X141321266Y-67583690D01*
X141539000Y-67627000D01*
X141761000Y-67627000D01*
X141978734Y-67583690D01*
X141987642Y-67580000D01*
X148352000Y-67580000D01*
X148352000Y-67802000D01*
X148395310Y-68019734D01*
X148480266Y-68224835D01*
X148603602Y-68409421D01*
X148760579Y-68566398D01*
X148945165Y-68689734D01*
X149150266Y-68774690D01*
X149368000Y-68818000D01*
X149590000Y-68818000D01*
X149807734Y-68774690D01*
X150012835Y-68689734D01*
X150197421Y-68566398D01*
X150354398Y-68409421D01*
X150477734Y-68224835D01*
X150516187Y-68132000D01*
X154873000Y-68132000D01*
X154873000Y-68354000D01*
X154916310Y-68571734D01*
X155001266Y-68776835D01*
X155124602Y-68961421D01*
X155281579Y-69118398D01*
X155466165Y-69241734D01*
X155671266Y-69326690D01*
X155889000Y-69370000D01*
X156111000Y-69370000D01*
X156328734Y-69326690D01*
X156533835Y-69241734D01*
X156718421Y-69118398D01*
X156875398Y-68961421D01*
X156998734Y-68776835D01*
X157083690Y-68571734D01*
X157127000Y-68354000D01*
X157127000Y-68132000D01*
X157118248Y-68088000D01*
X161433000Y-68088000D01*
X161433000Y-68310000D01*
X161476310Y-68527734D01*
X161561266Y-68732835D01*
X161684602Y-68917421D01*
X161841579Y-69074398D01*
X162026165Y-69197734D01*
X162231266Y-69282690D01*
X162449000Y-69326000D01*
X162671000Y-69326000D01*
X162888734Y-69282690D01*
X163093835Y-69197734D01*
X163278421Y-69074398D01*
X163435398Y-68917421D01*
X163558734Y-68732835D01*
X163643690Y-68527734D01*
X163687000Y-68310000D01*
X163687000Y-68088000D01*
X163643690Y-67870266D01*
X163558734Y-67665165D01*
X163435398Y-67480579D01*
X163278421Y-67323602D01*
X163093835Y-67200266D01*
X162888734Y-67115310D01*
X162671000Y-67072000D01*
X162449000Y-67072000D01*
X162231266Y-67115310D01*
X162026165Y-67200266D01*
X161841579Y-67323602D01*
X161684602Y-67480579D01*
X161561266Y-67665165D01*
X161476310Y-67870266D01*
X161433000Y-68088000D01*
X157118248Y-68088000D01*
X157083690Y-67914266D01*
X156998734Y-67709165D01*
X156875398Y-67524579D01*
X156718421Y-67367602D01*
X156533835Y-67244266D01*
X156328734Y-67159310D01*
X156111000Y-67116000D01*
X155889000Y-67116000D01*
X155671266Y-67159310D01*
X155466165Y-67244266D01*
X155281579Y-67367602D01*
X155124602Y-67524579D01*
X155001266Y-67709165D01*
X154916310Y-67914266D01*
X154873000Y-68132000D01*
X150516187Y-68132000D01*
X150562690Y-68019734D01*
X150606000Y-67802000D01*
X150606000Y-67580000D01*
X150562690Y-67362266D01*
X150477734Y-67157165D01*
X150354398Y-66972579D01*
X150270819Y-66889000D01*
X183373000Y-66889000D01*
X183373000Y-67111000D01*
X183416310Y-67328734D01*
X183501266Y-67533835D01*
X183624602Y-67718421D01*
X183781579Y-67875398D01*
X183966165Y-67998734D01*
X184171266Y-68083690D01*
X184389000Y-68127000D01*
X184611000Y-68127000D01*
X184828734Y-68083690D01*
X185033835Y-67998734D01*
X185218421Y-67875398D01*
X185375398Y-67718421D01*
X185498734Y-67533835D01*
X185583690Y-67328734D01*
X185601539Y-67239000D01*
X189873000Y-67239000D01*
X189873000Y-67461000D01*
X189916310Y-67678734D01*
X190001266Y-67883835D01*
X190124602Y-68068421D01*
X190281579Y-68225398D01*
X190466165Y-68348734D01*
X190671266Y-68433690D01*
X190889000Y-68477000D01*
X191111000Y-68477000D01*
X191328734Y-68433690D01*
X191533835Y-68348734D01*
X191718421Y-68225398D01*
X191875398Y-68068421D01*
X191998734Y-67883835D01*
X192083690Y-67678734D01*
X192127000Y-67461000D01*
X192127000Y-67239000D01*
X192083690Y-67021266D01*
X191998734Y-66816165D01*
X191875398Y-66631579D01*
X191718421Y-66474602D01*
X191533835Y-66351266D01*
X191328734Y-66266310D01*
X191111000Y-66223000D01*
X190889000Y-66223000D01*
X190671266Y-66266310D01*
X190466165Y-66351266D01*
X190281579Y-66474602D01*
X190124602Y-66631579D01*
X190001266Y-66816165D01*
X189916310Y-67021266D01*
X189873000Y-67239000D01*
X185601539Y-67239000D01*
X185627000Y-67111000D01*
X185627000Y-66889000D01*
X185583690Y-66671266D01*
X185498734Y-66466165D01*
X185375398Y-66281579D01*
X185218421Y-66124602D01*
X185033835Y-66001266D01*
X184828734Y-65916310D01*
X184611000Y-65873000D01*
X184389000Y-65873000D01*
X184171266Y-65916310D01*
X183966165Y-66001266D01*
X183781579Y-66124602D01*
X183624602Y-66281579D01*
X183501266Y-66466165D01*
X183416310Y-66671266D01*
X183373000Y-66889000D01*
X150270819Y-66889000D01*
X150197421Y-66815602D01*
X150012835Y-66692266D01*
X149807734Y-66607310D01*
X149590000Y-66564000D01*
X149368000Y-66564000D01*
X149150266Y-66607310D01*
X148945165Y-66692266D01*
X148760579Y-66815602D01*
X148603602Y-66972579D01*
X148480266Y-67157165D01*
X148395310Y-67362266D01*
X148352000Y-67580000D01*
X141987642Y-67580000D01*
X142183835Y-67498734D01*
X142368421Y-67375398D01*
X142525398Y-67218421D01*
X142648734Y-67033835D01*
X142733690Y-66828734D01*
X142777000Y-66611000D01*
X142777000Y-66389000D01*
X142733690Y-66171266D01*
X142648734Y-65966165D01*
X142525398Y-65781579D01*
X142368421Y-65624602D01*
X142183835Y-65501266D01*
X141978734Y-65416310D01*
X141761000Y-65373000D01*
X141539000Y-65373000D01*
X141321266Y-65416310D01*
X141116165Y-65501266D01*
X140931579Y-65624602D01*
X140774602Y-65781579D01*
X140651266Y-65966165D01*
X140566310Y-66171266D01*
X140523000Y-66389000D01*
X131168993Y-66389000D01*
X131162366Y-66338620D01*
X131050966Y-66010315D01*
X130941714Y-65805921D01*
X130664531Y-65695074D01*
X129619605Y-66740000D01*
X129260395Y-66740000D01*
X129246253Y-66725858D01*
X129425858Y-66546253D01*
X129440000Y-66560395D01*
X130484926Y-65515469D01*
X130374079Y-65238286D01*
X130063160Y-65084911D01*
X129728295Y-64995140D01*
X129634789Y-64989000D01*
X151673000Y-64989000D01*
X151673000Y-65211000D01*
X151716310Y-65428734D01*
X151801266Y-65633835D01*
X151924602Y-65818421D01*
X152081579Y-65975398D01*
X152266165Y-66098734D01*
X152471266Y-66183690D01*
X152689000Y-66227000D01*
X152911000Y-66227000D01*
X153128734Y-66183690D01*
X153333835Y-66098734D01*
X153518421Y-65975398D01*
X153675398Y-65818421D01*
X153798734Y-65633835D01*
X153883690Y-65428734D01*
X153927000Y-65211000D01*
X153927000Y-64989000D01*
X153911883Y-64913000D01*
X156353000Y-64913000D01*
X156353000Y-65135000D01*
X156396310Y-65352734D01*
X156481266Y-65557835D01*
X156604602Y-65742421D01*
X156761579Y-65899398D01*
X156946165Y-66022734D01*
X157151266Y-66107690D01*
X157369000Y-66151000D01*
X157591000Y-66151000D01*
X157808734Y-66107690D01*
X158013835Y-66022734D01*
X158198421Y-65899398D01*
X158355398Y-65742421D01*
X158478734Y-65557835D01*
X158563690Y-65352734D01*
X158575372Y-65294000D01*
X165497000Y-65294000D01*
X165497000Y-65516000D01*
X165540310Y-65733734D01*
X165625266Y-65938835D01*
X165748602Y-66123421D01*
X165905579Y-66280398D01*
X166090165Y-66403734D01*
X166295266Y-66488690D01*
X166513000Y-66532000D01*
X166735000Y-66532000D01*
X166952734Y-66488690D01*
X167157835Y-66403734D01*
X167342421Y-66280398D01*
X167499398Y-66123421D01*
X167622734Y-65938835D01*
X167707690Y-65733734D01*
X167751000Y-65516000D01*
X167751000Y-65294000D01*
X167707690Y-65076266D01*
X167622734Y-64871165D01*
X167499398Y-64686579D01*
X167342421Y-64529602D01*
X167157835Y-64406266D01*
X166952734Y-64321310D01*
X166735000Y-64278000D01*
X166513000Y-64278000D01*
X166295266Y-64321310D01*
X166090165Y-64406266D01*
X165905579Y-64529602D01*
X165748602Y-64686579D01*
X165625266Y-64871165D01*
X165540310Y-65076266D01*
X165497000Y-65294000D01*
X158575372Y-65294000D01*
X158607000Y-65135000D01*
X158607000Y-64913000D01*
X158563690Y-64695266D01*
X158478734Y-64490165D01*
X158355398Y-64305579D01*
X158198421Y-64148602D01*
X158013835Y-64025266D01*
X157935760Y-63992926D01*
X181855616Y-63992926D01*
X181855616Y-64214926D01*
X181898926Y-64432660D01*
X181983882Y-64637761D01*
X182107218Y-64822347D01*
X182264195Y-64979324D01*
X182448781Y-65102660D01*
X182653882Y-65187616D01*
X182871616Y-65230926D01*
X183093616Y-65230926D01*
X183311350Y-65187616D01*
X183516451Y-65102660D01*
X183701037Y-64979324D01*
X183858014Y-64822347D01*
X183981350Y-64637761D01*
X184066306Y-64432660D01*
X184109616Y-64214926D01*
X184109616Y-63992926D01*
X184066306Y-63775192D01*
X183981350Y-63570091D01*
X183858014Y-63385505D01*
X183701037Y-63228528D01*
X183516451Y-63105192D01*
X183311350Y-63020236D01*
X183093616Y-62976926D01*
X182871616Y-62976926D01*
X182653882Y-63020236D01*
X182448781Y-63105192D01*
X182264195Y-63228528D01*
X182107218Y-63385505D01*
X181983882Y-63570091D01*
X181898926Y-63775192D01*
X181855616Y-63992926D01*
X157935760Y-63992926D01*
X157808734Y-63940310D01*
X157591000Y-63897000D01*
X157369000Y-63897000D01*
X157151266Y-63940310D01*
X156946165Y-64025266D01*
X156761579Y-64148602D01*
X156604602Y-64305579D01*
X156481266Y-64490165D01*
X156396310Y-64695266D01*
X156353000Y-64913000D01*
X153911883Y-64913000D01*
X153883690Y-64771266D01*
X153798734Y-64566165D01*
X153675398Y-64381579D01*
X153518421Y-64224602D01*
X153333835Y-64101266D01*
X153128734Y-64016310D01*
X152911000Y-63973000D01*
X152689000Y-63973000D01*
X152471266Y-64016310D01*
X152266165Y-64101266D01*
X152081579Y-64224602D01*
X151924602Y-64381579D01*
X151801266Y-64566165D01*
X151716310Y-64771266D01*
X151673000Y-64989000D01*
X129634789Y-64989000D01*
X129382350Y-64972424D01*
X129038620Y-65017634D01*
X128992371Y-65033327D01*
X129065456Y-64856884D01*
X129152000Y-64421803D01*
X129152000Y-63978197D01*
X129065456Y-63543116D01*
X128990262Y-63361580D01*
X129151705Y-63404860D01*
X129497650Y-63427576D01*
X129841380Y-63382366D01*
X130169685Y-63270966D01*
X130374079Y-63161714D01*
X130484926Y-62884531D01*
X129440000Y-61839605D01*
X129425858Y-61853748D01*
X129246253Y-61674143D01*
X129260395Y-61660000D01*
X129619605Y-61660000D01*
X130664531Y-62704926D01*
X130941714Y-62594079D01*
X131095089Y-62283160D01*
X131184860Y-61948295D01*
X131197289Y-61759001D01*
X168926000Y-61759001D01*
X168926000Y-61981001D01*
X168969310Y-62198735D01*
X169054266Y-62403836D01*
X169177602Y-62588422D01*
X169334579Y-62745399D01*
X169519165Y-62868735D01*
X169724266Y-62953691D01*
X169942000Y-62997001D01*
X170164000Y-62997001D01*
X170381734Y-62953691D01*
X170586835Y-62868735D01*
X170771421Y-62745399D01*
X170928398Y-62588422D01*
X171051734Y-62403836D01*
X171136690Y-62198735D01*
X171180000Y-61981001D01*
X171180000Y-61759001D01*
X171136690Y-61541267D01*
X171051734Y-61336166D01*
X170928398Y-61151580D01*
X170771421Y-60994603D01*
X170586835Y-60871267D01*
X170381734Y-60786311D01*
X170164000Y-60743001D01*
X169942000Y-60743001D01*
X169724266Y-60786311D01*
X169519165Y-60871267D01*
X169334579Y-60994603D01*
X169177602Y-61151580D01*
X169054266Y-61336166D01*
X168969310Y-61541267D01*
X168926000Y-61759001D01*
X131197289Y-61759001D01*
X131207576Y-61602350D01*
X131162366Y-61258620D01*
X131050966Y-60930315D01*
X130941714Y-60725921D01*
X130664531Y-60615074D01*
X129619605Y-61660000D01*
X129260395Y-61660000D01*
X128215469Y-60615074D01*
X127938286Y-60725921D01*
X127784911Y-61036840D01*
X127695140Y-61371705D01*
X127672424Y-61717650D01*
X127717634Y-62061380D01*
X127733327Y-62107629D01*
X127556884Y-62034544D01*
X127121803Y-61948000D01*
X126678197Y-61948000D01*
X126243116Y-62034544D01*
X126061580Y-62109738D01*
X126104860Y-61948295D01*
X126127576Y-61602350D01*
X126082366Y-61258620D01*
X125970966Y-60930315D01*
X125861714Y-60725921D01*
X125584531Y-60615074D01*
X124539605Y-61660000D01*
X124553748Y-61674143D01*
X124374143Y-61853748D01*
X124360000Y-61839605D01*
X123315074Y-62884531D01*
X121277000Y-62884531D01*
X121277000Y-61717650D01*
X122592424Y-61717650D01*
X122637634Y-62061380D01*
X122749034Y-62389685D01*
X122858286Y-62594079D01*
X123135469Y-62704926D01*
X124180395Y-61660000D01*
X123135469Y-60615074D01*
X122858286Y-60725921D01*
X122704911Y-61036840D01*
X122615140Y-61371705D01*
X122592424Y-61717650D01*
X121277000Y-61717650D01*
X121277000Y-60435469D01*
X123315074Y-60435469D01*
X124360000Y-61480395D01*
X125404926Y-60435469D01*
X128395074Y-60435469D01*
X129440000Y-61480395D01*
X130484926Y-60435469D01*
X130374079Y-60158286D01*
X130063160Y-60004911D01*
X129728295Y-59915140D01*
X129382350Y-59892424D01*
X129038620Y-59937634D01*
X128710315Y-60049034D01*
X128505921Y-60158286D01*
X128395074Y-60435469D01*
X125404926Y-60435469D01*
X125294079Y-60158286D01*
X124983160Y-60004911D01*
X124648295Y-59915140D01*
X124302350Y-59892424D01*
X123958620Y-59937634D01*
X123630315Y-60049034D01*
X123425921Y-60158286D01*
X123315074Y-60435469D01*
X121277000Y-60435469D01*
X121277000Y-59538006D01*
X121284903Y-59457406D01*
X121297270Y-59416444D01*
X121317363Y-59378655D01*
X121344410Y-59345491D01*
X121377382Y-59318215D01*
X121415027Y-59297860D01*
X121455913Y-59285204D01*
X121533967Y-59277000D01*
X124538166Y-59277000D01*
X124571311Y-59273735D01*
X124577404Y-59273778D01*
X124588202Y-59272719D01*
X124782299Y-59252318D01*
X124851268Y-59238160D01*
X124920456Y-59224962D01*
X124930842Y-59221827D01*
X125117280Y-59164115D01*
X125182213Y-59136820D01*
X125247495Y-59110444D01*
X125257075Y-59105351D01*
X125428752Y-59012526D01*
X125487151Y-58973135D01*
X125546065Y-58934583D01*
X125554473Y-58927726D01*
X125704850Y-58803322D01*
X125754446Y-58753378D01*
X125804787Y-58704080D01*
X125811703Y-58695721D01*
X125935053Y-58544479D01*
X125974021Y-58485827D01*
X126013811Y-58427714D01*
X126018972Y-58418171D01*
X126110597Y-58245848D01*
X126137427Y-58180753D01*
X126165175Y-58116011D01*
X126168383Y-58105647D01*
X126224792Y-57918811D01*
X126238473Y-57849719D01*
X126242876Y-57829000D01*
X170323000Y-57829000D01*
X170323000Y-58051000D01*
X170366310Y-58268734D01*
X170451266Y-58473835D01*
X170574602Y-58658421D01*
X170731579Y-58815398D01*
X170916165Y-58938734D01*
X171121266Y-59023690D01*
X171339000Y-59067000D01*
X171561000Y-59067000D01*
X171778734Y-59023690D01*
X171983835Y-58938734D01*
X172168421Y-58815398D01*
X172325398Y-58658421D01*
X172448734Y-58473835D01*
X172533690Y-58268734D01*
X172577000Y-58051000D01*
X172577000Y-57829000D01*
X172533690Y-57611266D01*
X172454465Y-57420000D01*
X172863000Y-57420000D01*
X172863000Y-57642000D01*
X172906310Y-57859734D01*
X172991266Y-58064835D01*
X173114602Y-58249421D01*
X173271579Y-58406398D01*
X173456165Y-58529734D01*
X173661266Y-58614690D01*
X173879000Y-58658000D01*
X174101000Y-58658000D01*
X174318734Y-58614690D01*
X174523835Y-58529734D01*
X174708421Y-58406398D01*
X174865398Y-58249421D01*
X174988734Y-58064835D01*
X175073690Y-57859734D01*
X175117000Y-57642000D01*
X175117000Y-57420000D01*
X175073690Y-57202266D01*
X174988734Y-56997165D01*
X174865398Y-56812579D01*
X174708421Y-56655602D01*
X174523835Y-56532266D01*
X174318734Y-56447310D01*
X174101000Y-56404000D01*
X173879000Y-56404000D01*
X173661266Y-56447310D01*
X173456165Y-56532266D01*
X173271579Y-56655602D01*
X173114602Y-56812579D01*
X172991266Y-56997165D01*
X172906310Y-57202266D01*
X172863000Y-57420000D01*
X172454465Y-57420000D01*
X172448734Y-57406165D01*
X172325398Y-57221579D01*
X172168421Y-57064602D01*
X171983835Y-56941266D01*
X171778734Y-56856310D01*
X171746885Y-56849975D01*
X171828734Y-56833694D01*
X172033835Y-56748738D01*
X172218421Y-56625402D01*
X172375398Y-56468425D01*
X172498734Y-56283839D01*
X172583690Y-56078738D01*
X172627000Y-55861004D01*
X172627000Y-55639004D01*
X172583690Y-55421270D01*
X172498734Y-55216169D01*
X172375398Y-55031583D01*
X172257818Y-54914003D01*
X174097997Y-54914003D01*
X174097997Y-55136003D01*
X174141307Y-55353737D01*
X174226263Y-55558838D01*
X174349599Y-55743424D01*
X174506576Y-55900401D01*
X174691162Y-56023737D01*
X174896263Y-56108693D01*
X175113997Y-56152003D01*
X175335997Y-56152003D01*
X175553731Y-56108693D01*
X175758832Y-56023737D01*
X175943418Y-55900401D01*
X176100395Y-55743424D01*
X176223731Y-55558838D01*
X176308687Y-55353737D01*
X176351997Y-55136003D01*
X176351997Y-55065523D01*
X176517509Y-54954932D01*
X176674486Y-54797955D01*
X176797822Y-54613369D01*
X176882778Y-54408268D01*
X176926088Y-54190534D01*
X176926088Y-54037149D01*
X177048437Y-53955398D01*
X177205414Y-53798421D01*
X177328750Y-53613835D01*
X177413706Y-53408734D01*
X177457016Y-53191000D01*
X177457016Y-52969000D01*
X177415600Y-52760789D01*
X177528431Y-52685398D01*
X177685408Y-52528421D01*
X177808744Y-52343835D01*
X177893700Y-52138734D01*
X177937010Y-51921000D01*
X177937010Y-51699000D01*
X177893700Y-51481266D01*
X177808744Y-51276165D01*
X177685408Y-51091579D01*
X177528431Y-50934602D01*
X177343845Y-50811266D01*
X177138744Y-50726310D01*
X176921010Y-50683000D01*
X176699010Y-50683000D01*
X176481276Y-50726310D01*
X176276175Y-50811266D01*
X176091589Y-50934602D01*
X175934612Y-51091579D01*
X175811276Y-51276165D01*
X175726320Y-51481266D01*
X175683010Y-51699000D01*
X175683010Y-51921000D01*
X175724426Y-52129211D01*
X175611595Y-52204602D01*
X175454618Y-52361579D01*
X175331282Y-52546165D01*
X175246326Y-52751266D01*
X175203016Y-52969000D01*
X175203016Y-53122385D01*
X175080667Y-53204136D01*
X174923690Y-53361113D01*
X174800354Y-53545699D01*
X174715398Y-53750800D01*
X174672088Y-53968534D01*
X174672088Y-54039014D01*
X174506576Y-54149605D01*
X174349599Y-54306582D01*
X174226263Y-54491168D01*
X174141307Y-54696269D01*
X174097997Y-54914003D01*
X172257818Y-54914003D01*
X172218421Y-54874606D01*
X172033835Y-54751270D01*
X171828734Y-54666314D01*
X171611000Y-54623004D01*
X171389000Y-54623004D01*
X171171266Y-54666314D01*
X170966165Y-54751270D01*
X170781579Y-54874606D01*
X170624602Y-55031583D01*
X170501266Y-55216169D01*
X170416310Y-55421270D01*
X170373000Y-55639004D01*
X170373000Y-55861004D01*
X170416310Y-56078738D01*
X170501266Y-56283839D01*
X170624602Y-56468425D01*
X170781579Y-56625402D01*
X170966165Y-56748738D01*
X171171266Y-56833694D01*
X171203115Y-56840029D01*
X171121266Y-56856310D01*
X170916165Y-56941266D01*
X170731579Y-57064602D01*
X170574602Y-57221579D01*
X170451266Y-57406165D01*
X170366310Y-57611266D01*
X170323000Y-57829000D01*
X126242876Y-57829000D01*
X126253112Y-57780846D01*
X126254247Y-57770057D01*
X126273292Y-57575823D01*
X126273292Y-57575814D01*
X126277000Y-57538166D01*
X126277000Y-48100000D01*
X127194483Y-48100000D01*
X127194483Y-49450000D01*
X127208520Y-49592517D01*
X127250090Y-49729557D01*
X127317597Y-49855853D01*
X127408446Y-49966554D01*
X127437876Y-49990707D01*
X127357563Y-50110904D01*
X127251878Y-50366052D01*
X127198000Y-50636915D01*
X127198000Y-50913085D01*
X127251878Y-51183948D01*
X127357563Y-51439096D01*
X127510995Y-51668723D01*
X127617272Y-51775000D01*
X127510995Y-51881277D01*
X127357563Y-52110904D01*
X127251878Y-52366052D01*
X127198000Y-52636915D01*
X127198000Y-52913085D01*
X127251878Y-53183948D01*
X127357563Y-53439096D01*
X127510995Y-53668723D01*
X127706277Y-53864005D01*
X127935904Y-54017437D01*
X128191052Y-54123122D01*
X128461915Y-54177000D01*
X128738085Y-54177000D01*
X129008948Y-54123122D01*
X129264096Y-54017437D01*
X129493723Y-53864005D01*
X129689005Y-53668723D01*
X129842437Y-53439096D01*
X129948122Y-53183948D01*
X130002000Y-52913085D01*
X130002000Y-52636915D01*
X129948122Y-52366052D01*
X129842437Y-52110904D01*
X129689005Y-51881277D01*
X129582728Y-51775000D01*
X129689005Y-51668723D01*
X129842437Y-51439096D01*
X129948122Y-51183948D01*
X130002000Y-50913085D01*
X130002000Y-50739000D01*
X160023000Y-50739000D01*
X160023000Y-50961000D01*
X160066310Y-51178734D01*
X160151266Y-51383835D01*
X160274602Y-51568421D01*
X160431579Y-51725398D01*
X160616165Y-51848734D01*
X160821266Y-51933690D01*
X161039000Y-51977000D01*
X161261000Y-51977000D01*
X161478734Y-51933690D01*
X161683835Y-51848734D01*
X161868421Y-51725398D01*
X162025398Y-51568421D01*
X162148734Y-51383835D01*
X162233690Y-51178734D01*
X162277000Y-50961000D01*
X162277000Y-50739000D01*
X162233690Y-50521266D01*
X162148734Y-50316165D01*
X162025398Y-50131579D01*
X161868421Y-49974602D01*
X161683835Y-49851266D01*
X161478734Y-49766310D01*
X161261000Y-49723000D01*
X161039000Y-49723000D01*
X160821266Y-49766310D01*
X160616165Y-49851266D01*
X160431579Y-49974602D01*
X160274602Y-50131579D01*
X160151266Y-50316165D01*
X160066310Y-50521266D01*
X160023000Y-50739000D01*
X130002000Y-50739000D01*
X130002000Y-50636915D01*
X129948122Y-50366052D01*
X129842437Y-50110904D01*
X129762124Y-49990707D01*
X129791554Y-49966554D01*
X129882403Y-49855853D01*
X129949910Y-49729557D01*
X129991480Y-49592517D01*
X130005517Y-49450000D01*
X130005517Y-48100000D01*
X129991480Y-47957483D01*
X129949910Y-47820443D01*
X129882403Y-47694147D01*
X129791554Y-47583446D01*
X129680853Y-47492597D01*
X129554557Y-47425090D01*
X129417517Y-47383520D01*
X129275000Y-47369483D01*
X127925000Y-47369483D01*
X127782483Y-47383520D01*
X127645443Y-47425090D01*
X127519147Y-47492597D01*
X127408446Y-47583446D01*
X127317597Y-47694147D01*
X127250090Y-47820443D01*
X127208520Y-47957483D01*
X127194483Y-48100000D01*
X126277000Y-48100000D01*
X126277000Y-47189000D01*
X169073000Y-47189000D01*
X169073000Y-47411000D01*
X169116310Y-47628734D01*
X169201266Y-47833835D01*
X169324602Y-48018421D01*
X169356181Y-48050000D01*
X169324602Y-48081579D01*
X169201266Y-48266165D01*
X169116310Y-48471266D01*
X169073000Y-48689000D01*
X169073000Y-48911000D01*
X169116310Y-49128734D01*
X169201266Y-49333835D01*
X169278885Y-49450000D01*
X169201266Y-49566165D01*
X169116310Y-49771266D01*
X169073000Y-49989000D01*
X169073000Y-50211000D01*
X169116310Y-50428734D01*
X169201266Y-50633835D01*
X169324602Y-50818421D01*
X169481579Y-50975398D01*
X169666165Y-51098734D01*
X169871266Y-51183690D01*
X170089000Y-51227000D01*
X170311000Y-51227000D01*
X170528734Y-51183690D01*
X170733835Y-51098734D01*
X170918421Y-50975398D01*
X171075398Y-50818421D01*
X171198734Y-50633835D01*
X171283690Y-50428734D01*
X171327000Y-50211000D01*
X171327000Y-49989000D01*
X171283690Y-49771266D01*
X171198734Y-49566165D01*
X171121115Y-49450000D01*
X171198734Y-49333835D01*
X171283690Y-49128734D01*
X171327000Y-48911000D01*
X171327000Y-48689000D01*
X171283690Y-48471266D01*
X171198734Y-48266165D01*
X171075398Y-48081579D01*
X171043819Y-48050000D01*
X171075398Y-48018421D01*
X171095056Y-47989000D01*
X177990394Y-47989000D01*
X177990394Y-48211000D01*
X178033704Y-48428734D01*
X178118660Y-48633835D01*
X178241996Y-48818421D01*
X178398973Y-48975398D01*
X178583559Y-49098734D01*
X178788660Y-49183690D01*
X178885730Y-49202998D01*
X178919214Y-49283835D01*
X179042550Y-49468421D01*
X179199527Y-49625398D01*
X179384113Y-49748734D01*
X179589214Y-49833690D01*
X179675470Y-49850847D01*
X179751266Y-50033835D01*
X179874602Y-50218421D01*
X180031579Y-50375398D01*
X180216165Y-50498734D01*
X180421266Y-50583690D01*
X180639000Y-50627000D01*
X180861000Y-50627000D01*
X181078734Y-50583690D01*
X181283835Y-50498734D01*
X181468421Y-50375398D01*
X181625398Y-50218421D01*
X181748734Y-50033835D01*
X181833690Y-49828734D01*
X181877000Y-49611000D01*
X181877000Y-49389000D01*
X181833690Y-49171266D01*
X181748734Y-48966165D01*
X181625398Y-48781579D01*
X181570709Y-48726890D01*
X188058524Y-48726890D01*
X188103175Y-48874099D01*
X188228359Y-49136920D01*
X188402412Y-49370269D01*
X188618645Y-49565178D01*
X188868748Y-49714157D01*
X189143109Y-49811481D01*
X189373000Y-49690814D01*
X189373000Y-48497000D01*
X189627000Y-48497000D01*
X189627000Y-49690814D01*
X189856891Y-49811481D01*
X190131252Y-49714157D01*
X190381355Y-49565178D01*
X190597588Y-49370269D01*
X190771641Y-49136920D01*
X190896825Y-48874099D01*
X190941476Y-48726890D01*
X190820155Y-48497000D01*
X189627000Y-48497000D01*
X189373000Y-48497000D01*
X188179845Y-48497000D01*
X188058524Y-48726890D01*
X181570709Y-48726890D01*
X181468421Y-48624602D01*
X181283835Y-48501266D01*
X181078734Y-48416310D01*
X180992478Y-48399153D01*
X180916682Y-48216165D01*
X180793346Y-48031579D01*
X180636369Y-47874602D01*
X180451783Y-47751266D01*
X180246682Y-47666310D01*
X180149612Y-47647002D01*
X180116128Y-47566165D01*
X179992792Y-47381579D01*
X179835815Y-47224602D01*
X179651229Y-47101266D01*
X179446128Y-47016310D01*
X179228394Y-46973000D01*
X179006394Y-46973000D01*
X178788660Y-47016310D01*
X178583559Y-47101266D01*
X178398973Y-47224602D01*
X178241996Y-47381579D01*
X178118660Y-47566165D01*
X178033704Y-47771266D01*
X177990394Y-47989000D01*
X171095056Y-47989000D01*
X171198734Y-47833835D01*
X171283690Y-47628734D01*
X171327000Y-47411000D01*
X171327000Y-47189000D01*
X171283690Y-46971266D01*
X171198734Y-46766165D01*
X171075398Y-46581579D01*
X170918421Y-46424602D01*
X170733835Y-46301266D01*
X170528734Y-46216310D01*
X170311000Y-46173000D01*
X170089000Y-46173000D01*
X169871266Y-46216310D01*
X169666165Y-46301266D01*
X169481579Y-46424602D01*
X169324602Y-46581579D01*
X169201266Y-46766165D01*
X169116310Y-46971266D01*
X169073000Y-47189000D01*
X126277000Y-47189000D01*
X126277000Y-45389000D01*
X135573000Y-45389000D01*
X135573000Y-45611000D01*
X135616310Y-45828734D01*
X135701266Y-46033835D01*
X135824602Y-46218421D01*
X135981579Y-46375398D01*
X136166165Y-46498734D01*
X136371266Y-46583690D01*
X136589000Y-46627000D01*
X136811000Y-46627000D01*
X137028734Y-46583690D01*
X137233835Y-46498734D01*
X137418421Y-46375398D01*
X137575398Y-46218421D01*
X137698734Y-46033835D01*
X137783690Y-45828734D01*
X137827000Y-45611000D01*
X137827000Y-45389000D01*
X137783690Y-45171266D01*
X137698734Y-44966165D01*
X137575398Y-44781579D01*
X137418421Y-44624602D01*
X137233835Y-44501266D01*
X137028734Y-44416310D01*
X136811000Y-44373000D01*
X136589000Y-44373000D01*
X136371266Y-44416310D01*
X136166165Y-44501266D01*
X135981579Y-44624602D01*
X135824602Y-44781579D01*
X135701266Y-44966165D01*
X135616310Y-45171266D01*
X135573000Y-45389000D01*
X126277000Y-45389000D01*
X126277000Y-42461834D01*
X126273735Y-42428689D01*
X126273778Y-42422595D01*
X126272719Y-42411798D01*
X126252318Y-42217701D01*
X126238160Y-42148732D01*
X126224962Y-42079544D01*
X126221826Y-42069157D01*
X126164115Y-41882720D01*
X126136830Y-41817812D01*
X126110444Y-41752504D01*
X126105351Y-41742925D01*
X126012526Y-41571248D01*
X125973118Y-41512823D01*
X125934582Y-41453935D01*
X125927726Y-41445527D01*
X125803322Y-41295149D01*
X125753343Y-41245518D01*
X125704080Y-41195213D01*
X125695721Y-41188297D01*
X125573971Y-41089000D01*
X169573000Y-41089000D01*
X169573000Y-41311000D01*
X169616310Y-41528734D01*
X169701266Y-41733835D01*
X169824602Y-41918421D01*
X169981579Y-42075398D01*
X170166165Y-42198734D01*
X170353699Y-42276413D01*
X170281579Y-42324602D01*
X170124602Y-42481579D01*
X170001266Y-42666165D01*
X169916310Y-42871266D01*
X169873000Y-43089000D01*
X169873000Y-43311000D01*
X169916310Y-43528734D01*
X170001266Y-43733835D01*
X170124602Y-43918421D01*
X170281579Y-44075398D01*
X170466165Y-44198734D01*
X170671266Y-44283690D01*
X170889000Y-44327000D01*
X171111000Y-44327000D01*
X171328734Y-44283690D01*
X171533835Y-44198734D01*
X171718421Y-44075398D01*
X171875398Y-43918421D01*
X171998734Y-43733835D01*
X172083690Y-43528734D01*
X172127000Y-43311000D01*
X172127000Y-43089000D01*
X172083690Y-42871266D01*
X171998734Y-42666165D01*
X171875398Y-42481579D01*
X171718421Y-42324602D01*
X171533835Y-42201266D01*
X171346301Y-42123587D01*
X171418421Y-42075398D01*
X171575398Y-41918421D01*
X171698734Y-41733835D01*
X171783690Y-41528734D01*
X171827000Y-41311000D01*
X171827000Y-41089000D01*
X171783690Y-40871266D01*
X171698734Y-40666165D01*
X171575398Y-40481579D01*
X171418421Y-40324602D01*
X171233835Y-40201266D01*
X171028734Y-40116310D01*
X170821055Y-40075000D01*
X181344483Y-40075000D01*
X181344483Y-41425000D01*
X181358520Y-41567517D01*
X181400090Y-41704557D01*
X181467597Y-41830853D01*
X181558446Y-41941554D01*
X181587876Y-41965707D01*
X181507563Y-42085904D01*
X181401878Y-42341052D01*
X181348000Y-42611915D01*
X181348000Y-42888085D01*
X181401878Y-43158948D01*
X181507563Y-43414096D01*
X181660995Y-43643723D01*
X181767272Y-43750000D01*
X181660995Y-43856277D01*
X181507563Y-44085904D01*
X181401878Y-44341052D01*
X181348000Y-44611915D01*
X181348000Y-44888085D01*
X181401878Y-45158948D01*
X181507563Y-45414096D01*
X181660995Y-45643723D01*
X181856277Y-45839005D01*
X182085904Y-45992437D01*
X182341052Y-46098122D01*
X182611915Y-46152000D01*
X182888085Y-46152000D01*
X183158948Y-46098122D01*
X183414096Y-45992437D01*
X183643723Y-45839005D01*
X183839005Y-45643723D01*
X183992437Y-45414096D01*
X184098122Y-45158948D01*
X184152000Y-44888085D01*
X184152000Y-44611915D01*
X184098122Y-44341052D01*
X183992437Y-44085904D01*
X183839005Y-43856277D01*
X183732728Y-43750000D01*
X183839005Y-43643723D01*
X183992437Y-43414096D01*
X184098122Y-43158948D01*
X184152000Y-42888085D01*
X184152000Y-42611915D01*
X184098122Y-42341052D01*
X183992437Y-42085904D01*
X183912124Y-41965707D01*
X183941554Y-41941554D01*
X184032403Y-41830853D01*
X184099910Y-41704557D01*
X184141480Y-41567517D01*
X184155517Y-41425000D01*
X184155517Y-40075000D01*
X184141480Y-39932483D01*
X184131627Y-39900000D01*
X187919483Y-39900000D01*
X187919483Y-41600000D01*
X187933520Y-41742517D01*
X187975090Y-41879557D01*
X188042597Y-42005853D01*
X188133446Y-42116554D01*
X188244147Y-42207403D01*
X188314681Y-42245104D01*
X188275064Y-42284721D01*
X188102481Y-42543011D01*
X187983604Y-42830006D01*
X187923000Y-43134679D01*
X187923000Y-43445321D01*
X187983604Y-43749994D01*
X188102481Y-44036989D01*
X188275064Y-44295279D01*
X188494721Y-44514936D01*
X188562164Y-44560000D01*
X188494721Y-44605064D01*
X188275064Y-44824721D01*
X188102481Y-45083011D01*
X187983604Y-45370006D01*
X187923000Y-45674679D01*
X187923000Y-45985321D01*
X187983604Y-46289994D01*
X188102481Y-46576989D01*
X188275064Y-46835279D01*
X188494721Y-47054936D01*
X188647986Y-47157344D01*
X188618645Y-47174822D01*
X188402412Y-47369731D01*
X188228359Y-47603080D01*
X188103175Y-47865901D01*
X188058524Y-48013110D01*
X188179845Y-48243000D01*
X189373000Y-48243000D01*
X189373000Y-48223000D01*
X189627000Y-48223000D01*
X189627000Y-48243000D01*
X190820155Y-48243000D01*
X190941476Y-48013110D01*
X190896825Y-47865901D01*
X190771641Y-47603080D01*
X190597588Y-47369731D01*
X190381355Y-47174822D01*
X190352014Y-47157344D01*
X190505279Y-47054936D01*
X190724936Y-46835279D01*
X190897519Y-46576989D01*
X191016396Y-46289994D01*
X191077000Y-45985321D01*
X191077000Y-45674679D01*
X191016396Y-45370006D01*
X190897519Y-45083011D01*
X190724936Y-44824721D01*
X190505279Y-44605064D01*
X190437836Y-44560000D01*
X190505279Y-44514936D01*
X190724936Y-44295279D01*
X190897519Y-44036989D01*
X191016396Y-43749994D01*
X191077000Y-43445321D01*
X191077000Y-43134679D01*
X192423000Y-43134679D01*
X192423000Y-43445321D01*
X192483604Y-43749994D01*
X192602481Y-44036989D01*
X192775064Y-44295279D01*
X192994721Y-44514936D01*
X193062164Y-44560000D01*
X192994721Y-44605064D01*
X192775064Y-44824721D01*
X192602481Y-45083011D01*
X192483604Y-45370006D01*
X192423000Y-45674679D01*
X192423000Y-45985321D01*
X192483604Y-46289994D01*
X192602481Y-46576989D01*
X192775064Y-46835279D01*
X192994721Y-47054936D01*
X193062164Y-47100000D01*
X192994721Y-47145064D01*
X192775064Y-47364721D01*
X192602481Y-47623011D01*
X192483604Y-47910006D01*
X192423000Y-48214679D01*
X192423000Y-48525321D01*
X192483604Y-48829994D01*
X192602481Y-49116989D01*
X192775064Y-49375279D01*
X192994721Y-49594936D01*
X193062164Y-49640000D01*
X192994721Y-49685064D01*
X192775064Y-49904721D01*
X192602481Y-50163011D01*
X192483604Y-50450006D01*
X192423000Y-50754679D01*
X192423000Y-51065321D01*
X192483604Y-51369994D01*
X192602481Y-51656989D01*
X192775064Y-51915279D01*
X192994721Y-52134936D01*
X193062164Y-52180000D01*
X192994721Y-52225064D01*
X192775064Y-52444721D01*
X192602481Y-52703011D01*
X192483604Y-52990006D01*
X192423000Y-53294679D01*
X192423000Y-53605321D01*
X192483604Y-53909994D01*
X192602481Y-54196989D01*
X192775064Y-54455279D01*
X192994721Y-54674936D01*
X193253011Y-54847519D01*
X193540006Y-54966396D01*
X193844679Y-55027000D01*
X194155321Y-55027000D01*
X194459994Y-54966396D01*
X194746989Y-54847519D01*
X195005279Y-54674936D01*
X195224936Y-54455279D01*
X195397519Y-54196989D01*
X195516396Y-53909994D01*
X195577000Y-53605321D01*
X195577000Y-53294679D01*
X195516396Y-52990006D01*
X195397519Y-52703011D01*
X195224936Y-52444721D01*
X195005279Y-52225064D01*
X194937836Y-52180000D01*
X195005279Y-52134936D01*
X195224936Y-51915279D01*
X195397519Y-51656989D01*
X195516396Y-51369994D01*
X195577000Y-51065321D01*
X195577000Y-50754679D01*
X195516396Y-50450006D01*
X195397519Y-50163011D01*
X195224936Y-49904721D01*
X195005279Y-49685064D01*
X194937836Y-49640000D01*
X195005279Y-49594936D01*
X195224936Y-49375279D01*
X195397519Y-49116989D01*
X195516396Y-48829994D01*
X195577000Y-48525321D01*
X195577000Y-48214679D01*
X195516396Y-47910006D01*
X195397519Y-47623011D01*
X195224936Y-47364721D01*
X195005279Y-47145064D01*
X194937836Y-47100000D01*
X195005279Y-47054936D01*
X195224936Y-46835279D01*
X195397519Y-46576989D01*
X195516396Y-46289994D01*
X195577000Y-45985321D01*
X195577000Y-45674679D01*
X195516396Y-45370006D01*
X195397519Y-45083011D01*
X195224936Y-44824721D01*
X195005279Y-44605064D01*
X194937836Y-44560000D01*
X195005279Y-44514936D01*
X195224936Y-44295279D01*
X195397519Y-44036989D01*
X195516396Y-43749994D01*
X195577000Y-43445321D01*
X195577000Y-43134679D01*
X195516396Y-42830006D01*
X195397519Y-42543011D01*
X195224936Y-42284721D01*
X195117338Y-42177123D01*
X195204494Y-42130537D01*
X195301185Y-42051185D01*
X195380537Y-41954494D01*
X195439502Y-41844180D01*
X195475812Y-41724482D01*
X195488072Y-41600000D01*
X195485000Y-41035750D01*
X195326250Y-40877000D01*
X194127000Y-40877000D01*
X194127000Y-40897000D01*
X193873000Y-40897000D01*
X193873000Y-40877000D01*
X192673750Y-40877000D01*
X192515000Y-41035750D01*
X192511928Y-41600000D01*
X192524188Y-41724482D01*
X192560498Y-41844180D01*
X192619463Y-41954494D01*
X192698815Y-42051185D01*
X192795506Y-42130537D01*
X192882662Y-42177123D01*
X192775064Y-42284721D01*
X192602481Y-42543011D01*
X192483604Y-42830006D01*
X192423000Y-43134679D01*
X191077000Y-43134679D01*
X191016396Y-42830006D01*
X190897519Y-42543011D01*
X190724936Y-42284721D01*
X190685319Y-42245104D01*
X190755853Y-42207403D01*
X190866554Y-42116554D01*
X190957403Y-42005853D01*
X191024910Y-41879557D01*
X191066480Y-41742517D01*
X191080517Y-41600000D01*
X191080517Y-39900000D01*
X192511928Y-39900000D01*
X192515000Y-40464250D01*
X192673750Y-40623000D01*
X193873000Y-40623000D01*
X193873000Y-39423750D01*
X194127000Y-39423750D01*
X194127000Y-40623000D01*
X195326250Y-40623000D01*
X195485000Y-40464250D01*
X195488072Y-39900000D01*
X195475812Y-39775518D01*
X195439502Y-39655820D01*
X195380537Y-39545506D01*
X195301185Y-39448815D01*
X195204494Y-39369463D01*
X195094180Y-39310498D01*
X194974482Y-39274188D01*
X194850000Y-39261928D01*
X194285750Y-39265000D01*
X194127000Y-39423750D01*
X193873000Y-39423750D01*
X193714250Y-39265000D01*
X193150000Y-39261928D01*
X193025518Y-39274188D01*
X192905820Y-39310498D01*
X192795506Y-39369463D01*
X192698815Y-39448815D01*
X192619463Y-39545506D01*
X192560498Y-39655820D01*
X192524188Y-39775518D01*
X192511928Y-39900000D01*
X191080517Y-39900000D01*
X191066480Y-39757483D01*
X191024910Y-39620443D01*
X190957403Y-39494147D01*
X190866554Y-39383446D01*
X190755853Y-39292597D01*
X190629557Y-39225090D01*
X190492517Y-39183520D01*
X190350000Y-39169483D01*
X188650000Y-39169483D01*
X188507483Y-39183520D01*
X188370443Y-39225090D01*
X188244147Y-39292597D01*
X188133446Y-39383446D01*
X188042597Y-39494147D01*
X187975090Y-39620443D01*
X187933520Y-39757483D01*
X187919483Y-39900000D01*
X184131627Y-39900000D01*
X184099910Y-39795443D01*
X184032403Y-39669147D01*
X183941554Y-39558446D01*
X183830853Y-39467597D01*
X183704557Y-39400090D01*
X183567517Y-39358520D01*
X183425000Y-39344483D01*
X182075000Y-39344483D01*
X181932483Y-39358520D01*
X181795443Y-39400090D01*
X181669147Y-39467597D01*
X181558446Y-39558446D01*
X181467597Y-39669147D01*
X181400090Y-39795443D01*
X181358520Y-39932483D01*
X181344483Y-40075000D01*
X170821055Y-40075000D01*
X170811000Y-40073000D01*
X170589000Y-40073000D01*
X170371266Y-40116310D01*
X170166165Y-40201266D01*
X169981579Y-40324602D01*
X169824602Y-40481579D01*
X169701266Y-40666165D01*
X169616310Y-40871266D01*
X169573000Y-41089000D01*
X125573971Y-41089000D01*
X125544479Y-41064947D01*
X125485804Y-41025964D01*
X125427714Y-40986189D01*
X125418171Y-40981029D01*
X125245849Y-40889403D01*
X125180753Y-40862573D01*
X125116012Y-40834825D01*
X125105648Y-40831617D01*
X124918811Y-40775208D01*
X124849706Y-40761525D01*
X124780846Y-40746888D01*
X124770056Y-40745753D01*
X124575823Y-40726708D01*
X124575814Y-40726708D01*
X124538166Y-40723000D01*
X121538005Y-40723000D01*
X121457407Y-40715097D01*
X121416442Y-40702729D01*
X121378656Y-40682638D01*
X121345492Y-40655590D01*
X121318214Y-40622616D01*
X121297859Y-40584971D01*
X121285204Y-40544089D01*
X121277000Y-40466033D01*
X121277000Y-39578531D01*
X123315074Y-39578531D01*
X123425921Y-39855714D01*
X123736840Y-40009089D01*
X124071705Y-40098860D01*
X124417650Y-40121576D01*
X124761380Y-40076366D01*
X125089685Y-39964966D01*
X125294079Y-39855714D01*
X125404926Y-39578531D01*
X128395074Y-39578531D01*
X128505921Y-39855714D01*
X128816840Y-40009089D01*
X129151705Y-40098860D01*
X129497650Y-40121576D01*
X129841380Y-40076366D01*
X130169685Y-39964966D01*
X130374079Y-39855714D01*
X130484926Y-39578531D01*
X129440000Y-38533605D01*
X128395074Y-39578531D01*
X125404926Y-39578531D01*
X124360000Y-38533605D01*
X123315074Y-39578531D01*
X121277000Y-39578531D01*
X121277000Y-38411650D01*
X122592424Y-38411650D01*
X122637634Y-38755380D01*
X122749034Y-39083685D01*
X122858286Y-39288079D01*
X123135469Y-39398926D01*
X124180395Y-38354000D01*
X123135469Y-37309074D01*
X122858286Y-37419921D01*
X122704911Y-37730840D01*
X122615140Y-38065705D01*
X122592424Y-38411650D01*
X121277000Y-38411650D01*
X121277000Y-34498531D01*
X123315074Y-34498531D01*
X123425921Y-34775714D01*
X123736840Y-34929089D01*
X124071705Y-35018860D01*
X124417650Y-35041576D01*
X124761380Y-34996366D01*
X124807629Y-34980673D01*
X124734544Y-35157116D01*
X124648000Y-35592197D01*
X124648000Y-36035803D01*
X124734544Y-36470884D01*
X124809738Y-36652420D01*
X124648295Y-36609140D01*
X124302350Y-36586424D01*
X123958620Y-36631634D01*
X123630315Y-36743034D01*
X123425921Y-36852286D01*
X123315074Y-37129469D01*
X124360000Y-38174395D01*
X124374143Y-38160253D01*
X124553748Y-38339858D01*
X124539605Y-38354000D01*
X125584531Y-39398926D01*
X125861714Y-39288079D01*
X126015089Y-38977160D01*
X126104860Y-38642295D01*
X126127576Y-38296350D01*
X126082366Y-37952620D01*
X126066673Y-37906371D01*
X126243116Y-37979456D01*
X126678197Y-38066000D01*
X127121803Y-38066000D01*
X127556884Y-37979456D01*
X127738420Y-37904262D01*
X127695140Y-38065705D01*
X127672424Y-38411650D01*
X127717634Y-38755380D01*
X127829034Y-39083685D01*
X127938286Y-39288079D01*
X128215469Y-39398926D01*
X129260395Y-38354000D01*
X129619605Y-38354000D01*
X130664531Y-39398926D01*
X130941714Y-39288079D01*
X131095089Y-38977160D01*
X131184860Y-38642295D01*
X131207576Y-38296350D01*
X131162366Y-37952620D01*
X131050966Y-37624315D01*
X130941714Y-37419921D01*
X130664531Y-37309074D01*
X129619605Y-38354000D01*
X129260395Y-38354000D01*
X129246253Y-38339858D01*
X129425858Y-38160253D01*
X129440000Y-38174395D01*
X130484926Y-37129469D01*
X130374079Y-36852286D01*
X130063160Y-36698911D01*
X129728295Y-36609140D01*
X129382350Y-36586424D01*
X129038620Y-36631634D01*
X128992371Y-36647327D01*
X129065456Y-36470884D01*
X129081743Y-36389000D01*
X167123000Y-36389000D01*
X167123000Y-36611000D01*
X167166310Y-36828734D01*
X167251266Y-37033835D01*
X167312180Y-37125000D01*
X167251266Y-37216165D01*
X167166310Y-37421266D01*
X167123000Y-37639000D01*
X167123000Y-37861000D01*
X167166310Y-38078734D01*
X167251266Y-38283835D01*
X167312180Y-38375000D01*
X167251266Y-38466165D01*
X167166310Y-38671266D01*
X167123000Y-38889000D01*
X167123000Y-39111000D01*
X167166310Y-39328734D01*
X167251266Y-39533835D01*
X167374602Y-39718421D01*
X167531579Y-39875398D01*
X167716165Y-39998734D01*
X167921266Y-40083690D01*
X168139000Y-40127000D01*
X168361000Y-40127000D01*
X168578734Y-40083690D01*
X168783835Y-39998734D01*
X168968421Y-39875398D01*
X169125398Y-39718421D01*
X169248734Y-39533835D01*
X169333690Y-39328734D01*
X169377000Y-39111000D01*
X169377000Y-38889000D01*
X169333690Y-38671266D01*
X169248734Y-38466165D01*
X169187820Y-38375000D01*
X169248734Y-38283835D01*
X169333690Y-38078734D01*
X169377000Y-37861000D01*
X169377000Y-37639000D01*
X169333690Y-37421266D01*
X169248734Y-37216165D01*
X169187820Y-37125000D01*
X169225000Y-37069356D01*
X169324602Y-37218421D01*
X169481579Y-37375398D01*
X169666165Y-37498734D01*
X169871266Y-37583690D01*
X170089000Y-37627000D01*
X170311000Y-37627000D01*
X170528734Y-37583690D01*
X170733835Y-37498734D01*
X170918421Y-37375398D01*
X171075398Y-37218421D01*
X171198734Y-37033835D01*
X171283690Y-36828734D01*
X171327000Y-36611000D01*
X171327000Y-36389000D01*
X171283690Y-36171266D01*
X171198734Y-35966165D01*
X171075398Y-35781579D01*
X170918421Y-35624602D01*
X170733835Y-35501266D01*
X170528734Y-35416310D01*
X170311000Y-35373000D01*
X170089000Y-35373000D01*
X169871266Y-35416310D01*
X169666165Y-35501266D01*
X169481579Y-35624602D01*
X169324602Y-35781579D01*
X169225000Y-35930644D01*
X169125398Y-35781579D01*
X168968421Y-35624602D01*
X168783835Y-35501266D01*
X168578734Y-35416310D01*
X168361000Y-35373000D01*
X168139000Y-35373000D01*
X167921266Y-35416310D01*
X167716165Y-35501266D01*
X167531579Y-35624602D01*
X167374602Y-35781579D01*
X167251266Y-35966165D01*
X167166310Y-36171266D01*
X167123000Y-36389000D01*
X129081743Y-36389000D01*
X129152000Y-36035803D01*
X129152000Y-35592197D01*
X129065456Y-35157116D01*
X128990262Y-34975580D01*
X129151705Y-35018860D01*
X129497650Y-35041576D01*
X129841380Y-34996366D01*
X130169685Y-34884966D01*
X130374079Y-34775714D01*
X130484926Y-34498531D01*
X129440000Y-33453605D01*
X129425858Y-33467748D01*
X129246253Y-33288143D01*
X129260395Y-33274000D01*
X129619605Y-33274000D01*
X130664531Y-34318926D01*
X130941714Y-34208079D01*
X131095089Y-33897160D01*
X131184860Y-33562295D01*
X131207576Y-33216350D01*
X131197403Y-33139000D01*
X190873000Y-33139000D01*
X190873000Y-33361000D01*
X190916310Y-33578734D01*
X191001266Y-33783835D01*
X191124602Y-33968421D01*
X191281579Y-34125398D01*
X191466165Y-34248734D01*
X191671266Y-34333690D01*
X191889000Y-34377000D01*
X192111000Y-34377000D01*
X192328734Y-34333690D01*
X192533835Y-34248734D01*
X192718421Y-34125398D01*
X192875398Y-33968421D01*
X192998734Y-33783835D01*
X193083690Y-33578734D01*
X193111458Y-33439133D01*
X200527972Y-33439133D01*
X200590465Y-33675450D01*
X200833178Y-33788850D01*
X201093349Y-33852719D01*
X201360982Y-33864604D01*
X201625791Y-33824048D01*
X201643523Y-33817609D01*
X202444038Y-33817609D01*
X202447909Y-33855282D01*
X202540079Y-34080533D01*
X202674422Y-34283474D01*
X202845775Y-34456307D01*
X203047554Y-34592390D01*
X203272004Y-34686493D01*
X203510500Y-34735000D01*
X203860500Y-34735000D01*
X203860500Y-33627000D01*
X202568769Y-33627000D01*
X202444038Y-33817609D01*
X201643523Y-33817609D01*
X201877600Y-33732609D01*
X201984535Y-33675450D01*
X202047028Y-33439133D01*
X201287500Y-32679605D01*
X200527972Y-33439133D01*
X193111458Y-33439133D01*
X193127000Y-33361000D01*
X193127000Y-33139000D01*
X193083690Y-32921266D01*
X192998734Y-32716165D01*
X192903397Y-32573482D01*
X199922896Y-32573482D01*
X199963452Y-32838291D01*
X200054891Y-33090100D01*
X200112050Y-33197035D01*
X200348367Y-33259528D01*
X201107895Y-32500000D01*
X201467105Y-32500000D01*
X202226633Y-33259528D01*
X202454997Y-33199138D01*
X202568769Y-33373000D01*
X203860500Y-33373000D01*
X203860500Y-32265000D01*
X203510500Y-32265000D01*
X203272004Y-32313507D01*
X203047554Y-32407610D01*
X202845775Y-32543693D01*
X202674422Y-32716526D01*
X202611329Y-32811836D01*
X202640219Y-32694151D01*
X202652104Y-32426518D01*
X202611548Y-32161709D01*
X202520109Y-31909900D01*
X202462950Y-31802965D01*
X202226633Y-31740472D01*
X201467105Y-32500000D01*
X201107895Y-32500000D01*
X200348367Y-31740472D01*
X200112050Y-31802965D01*
X199998650Y-32045678D01*
X199934781Y-32305849D01*
X199922896Y-32573482D01*
X192903397Y-32573482D01*
X192875398Y-32531579D01*
X192718421Y-32374602D01*
X192533835Y-32251266D01*
X192328734Y-32166310D01*
X192111000Y-32123000D01*
X191889000Y-32123000D01*
X191671266Y-32166310D01*
X191466165Y-32251266D01*
X191281579Y-32374602D01*
X191124602Y-32531579D01*
X191001266Y-32716165D01*
X190916310Y-32921266D01*
X190873000Y-33139000D01*
X131197403Y-33139000D01*
X131162366Y-32872620D01*
X131050966Y-32544315D01*
X130941714Y-32339921D01*
X130664531Y-32229074D01*
X129619605Y-33274000D01*
X129260395Y-33274000D01*
X128215469Y-32229074D01*
X127938286Y-32339921D01*
X127784911Y-32650840D01*
X127695140Y-32985705D01*
X127672424Y-33331650D01*
X127717634Y-33675380D01*
X127733327Y-33721629D01*
X127556884Y-33648544D01*
X127121803Y-33562000D01*
X126678197Y-33562000D01*
X126243116Y-33648544D01*
X126061580Y-33723738D01*
X126104860Y-33562295D01*
X126127576Y-33216350D01*
X126082366Y-32872620D01*
X125970966Y-32544315D01*
X125861714Y-32339921D01*
X125584531Y-32229074D01*
X124539605Y-33274000D01*
X124553748Y-33288143D01*
X124374143Y-33467748D01*
X124360000Y-33453605D01*
X123315074Y-34498531D01*
X121277000Y-34498531D01*
X121277000Y-33331650D01*
X122592424Y-33331650D01*
X122637634Y-33675380D01*
X122749034Y-34003685D01*
X122858286Y-34208079D01*
X123135469Y-34318926D01*
X124180395Y-33274000D01*
X123135469Y-32229074D01*
X122858286Y-32339921D01*
X122704911Y-32650840D01*
X122615140Y-32985705D01*
X122592424Y-33331650D01*
X121277000Y-33331650D01*
X121277000Y-32049469D01*
X123315074Y-32049469D01*
X124360000Y-33094395D01*
X125404926Y-32049469D01*
X128395074Y-32049469D01*
X129440000Y-33094395D01*
X130484926Y-32049469D01*
X130374079Y-31772286D01*
X130063160Y-31618911D01*
X129728295Y-31529140D01*
X129382350Y-31506424D01*
X129038620Y-31551634D01*
X128710315Y-31663034D01*
X128505921Y-31772286D01*
X128395074Y-32049469D01*
X125404926Y-32049469D01*
X125294079Y-31772286D01*
X124983160Y-31618911D01*
X124648295Y-31529140D01*
X124302350Y-31506424D01*
X123958620Y-31551634D01*
X123630315Y-31663034D01*
X123425921Y-31772286D01*
X123315074Y-32049469D01*
X121277000Y-32049469D01*
X121277000Y-30869000D01*
X157013000Y-30869000D01*
X157013000Y-31091000D01*
X157056310Y-31308734D01*
X157141266Y-31513835D01*
X157264602Y-31698421D01*
X157421579Y-31855398D01*
X157606165Y-31978734D01*
X157811266Y-32063690D01*
X158029000Y-32107000D01*
X158251000Y-32107000D01*
X158468734Y-32063690D01*
X158673835Y-31978734D01*
X158805000Y-31891093D01*
X158936165Y-31978734D01*
X159141266Y-32063690D01*
X159359000Y-32107000D01*
X159581000Y-32107000D01*
X159798734Y-32063690D01*
X160003835Y-31978734D01*
X160072517Y-31932842D01*
X160156165Y-31988734D01*
X160361266Y-32073690D01*
X160579000Y-32117000D01*
X160801000Y-32117000D01*
X161018734Y-32073690D01*
X161223835Y-31988734D01*
X161408421Y-31865398D01*
X161565398Y-31708421D01*
X161688734Y-31523835D01*
X161773690Y-31318734D01*
X161817000Y-31101000D01*
X161817000Y-30889000D01*
X162073000Y-30889000D01*
X162073000Y-31111000D01*
X162116310Y-31328734D01*
X162201266Y-31533835D01*
X162324602Y-31718421D01*
X162481579Y-31875398D01*
X162666165Y-31998734D01*
X162871266Y-32083690D01*
X163089000Y-32127000D01*
X163311000Y-32127000D01*
X163528734Y-32083690D01*
X163733835Y-31998734D01*
X163918421Y-31875398D01*
X164075398Y-31718421D01*
X164180671Y-31560867D01*
X200527972Y-31560867D01*
X201287500Y-32320395D01*
X202047028Y-31560867D01*
X201984535Y-31324550D01*
X201741822Y-31211150D01*
X201481651Y-31147281D01*
X201214018Y-31135396D01*
X200949209Y-31175952D01*
X200697400Y-31267391D01*
X200590465Y-31324550D01*
X200527972Y-31560867D01*
X164180671Y-31560867D01*
X164198734Y-31533835D01*
X164283690Y-31328734D01*
X164327000Y-31111000D01*
X164327000Y-30889000D01*
X164283690Y-30671266D01*
X164198734Y-30466165D01*
X164075398Y-30281579D01*
X163918421Y-30124602D01*
X163733835Y-30001266D01*
X163528734Y-29916310D01*
X163311000Y-29873000D01*
X163089000Y-29873000D01*
X162871266Y-29916310D01*
X162666165Y-30001266D01*
X162481579Y-30124602D01*
X162324602Y-30281579D01*
X162201266Y-30466165D01*
X162116310Y-30671266D01*
X162073000Y-30889000D01*
X161817000Y-30889000D01*
X161817000Y-30879000D01*
X161773690Y-30661266D01*
X161688734Y-30456165D01*
X161565398Y-30271579D01*
X161408421Y-30114602D01*
X161223835Y-29991266D01*
X161018734Y-29906310D01*
X160801000Y-29863000D01*
X160579000Y-29863000D01*
X160361266Y-29906310D01*
X160156165Y-29991266D01*
X160087483Y-30037158D01*
X160003835Y-29981266D01*
X159798734Y-29896310D01*
X159581000Y-29853000D01*
X159359000Y-29853000D01*
X159141266Y-29896310D01*
X158936165Y-29981266D01*
X158805000Y-30068907D01*
X158673835Y-29981266D01*
X158468734Y-29896310D01*
X158251000Y-29853000D01*
X158029000Y-29853000D01*
X157811266Y-29896310D01*
X157606165Y-29981266D01*
X157421579Y-30104602D01*
X157264602Y-30261579D01*
X157141266Y-30446165D01*
X157056310Y-30651266D01*
X157013000Y-30869000D01*
X121277000Y-30869000D01*
X121277000Y-29229150D01*
X174022999Y-29229150D01*
X174022999Y-29470848D01*
X174070152Y-29707902D01*
X174162646Y-29931201D01*
X174296926Y-30132166D01*
X174467832Y-30303072D01*
X174668797Y-30437352D01*
X174892096Y-30529846D01*
X175129150Y-30576999D01*
X175370848Y-30576999D01*
X175607902Y-30529846D01*
X175831201Y-30437352D01*
X176032166Y-30303072D01*
X176203072Y-30132166D01*
X176337352Y-29931201D01*
X176429846Y-29707902D01*
X176476999Y-29470848D01*
X176476999Y-29229150D01*
X176429846Y-28992096D01*
X176337352Y-28768797D01*
X176203072Y-28567832D01*
X176074373Y-28439133D01*
X200527972Y-28439133D01*
X200590465Y-28675450D01*
X200833178Y-28788850D01*
X201093349Y-28852719D01*
X201360982Y-28864604D01*
X201625791Y-28824048D01*
X201877600Y-28732609D01*
X201984535Y-28675450D01*
X202047028Y-28439133D01*
X201287500Y-27679605D01*
X200527972Y-28439133D01*
X176074373Y-28439133D01*
X176032166Y-28396926D01*
X175831201Y-28262646D01*
X175607902Y-28170152D01*
X175370848Y-28122999D01*
X175129150Y-28122999D01*
X174892096Y-28170152D01*
X174668797Y-28262646D01*
X174467832Y-28396926D01*
X174296926Y-28567832D01*
X174162646Y-28768797D01*
X174070152Y-28992096D01*
X174022999Y-29229150D01*
X121277000Y-29229150D01*
X121277000Y-25292462D01*
X121892834Y-25292462D01*
X121892834Y-25707538D01*
X121973811Y-26114638D01*
X122132653Y-26498118D01*
X122363257Y-26843240D01*
X122656760Y-27136743D01*
X123001882Y-27367347D01*
X123385362Y-27526189D01*
X123792462Y-27607166D01*
X124207538Y-27607166D01*
X124614638Y-27526189D01*
X124998118Y-27367347D01*
X125343240Y-27136743D01*
X125636743Y-26843240D01*
X125867347Y-26498118D01*
X126026189Y-26114638D01*
X126104687Y-25720000D01*
X127399483Y-25720000D01*
X127399483Y-27420000D01*
X127413520Y-27562517D01*
X127455090Y-27699557D01*
X127522597Y-27825853D01*
X127613446Y-27936554D01*
X127724147Y-28027403D01*
X127850443Y-28094910D01*
X127987483Y-28136480D01*
X128130000Y-28150517D01*
X129830000Y-28150517D01*
X129972517Y-28136480D01*
X130109557Y-28094910D01*
X130235853Y-28027403D01*
X130346554Y-27936554D01*
X130437403Y-27825853D01*
X130475104Y-27755319D01*
X130514721Y-27794936D01*
X130773011Y-27967519D01*
X131060006Y-28086396D01*
X131364679Y-28147000D01*
X131675321Y-28147000D01*
X131979994Y-28086396D01*
X132266989Y-27967519D01*
X132525279Y-27794936D01*
X132744936Y-27575279D01*
X132790000Y-27507836D01*
X132835064Y-27575279D01*
X133054721Y-27794936D01*
X133313011Y-27967519D01*
X133600006Y-28086396D01*
X133904679Y-28147000D01*
X134215321Y-28147000D01*
X134519994Y-28086396D01*
X134806989Y-27967519D01*
X135065279Y-27794936D01*
X135284936Y-27575279D01*
X135330000Y-27507836D01*
X135375064Y-27575279D01*
X135594721Y-27794936D01*
X135853011Y-27967519D01*
X136140006Y-28086396D01*
X136444679Y-28147000D01*
X136755321Y-28147000D01*
X137059994Y-28086396D01*
X137346989Y-27967519D01*
X137605279Y-27794936D01*
X137824936Y-27575279D01*
X137927344Y-27422014D01*
X137944822Y-27451355D01*
X138139731Y-27667588D01*
X138373080Y-27841641D01*
X138635901Y-27966825D01*
X138783110Y-28011476D01*
X139013000Y-27890155D01*
X139013000Y-26697000D01*
X138993000Y-26697000D01*
X138993000Y-26443000D01*
X139013000Y-26443000D01*
X139013000Y-26423000D01*
X139267000Y-26423000D01*
X139267000Y-26443000D01*
X139287000Y-26443000D01*
X139287000Y-26697000D01*
X139267000Y-26697000D01*
X139267000Y-27890155D01*
X139496890Y-28011476D01*
X139644099Y-27966825D01*
X139906920Y-27841641D01*
X140140269Y-27667588D01*
X140335178Y-27451355D01*
X140352656Y-27422014D01*
X140455064Y-27575279D01*
X140674721Y-27794936D01*
X140933011Y-27967519D01*
X141220006Y-28086396D01*
X141524679Y-28147000D01*
X141835321Y-28147000D01*
X142139994Y-28086396D01*
X142426989Y-27967519D01*
X142685279Y-27794936D01*
X142904936Y-27575279D01*
X142950000Y-27507836D01*
X142995064Y-27575279D01*
X143214721Y-27794936D01*
X143473011Y-27967519D01*
X143760006Y-28086396D01*
X144064679Y-28147000D01*
X144375321Y-28147000D01*
X144679994Y-28086396D01*
X144966989Y-27967519D01*
X145225279Y-27794936D01*
X145444936Y-27575279D01*
X145490000Y-27507836D01*
X145535064Y-27575279D01*
X145754721Y-27794936D01*
X146013011Y-27967519D01*
X146300006Y-28086396D01*
X146604679Y-28147000D01*
X146915321Y-28147000D01*
X147219994Y-28086396D01*
X147506989Y-27967519D01*
X147765279Y-27794936D01*
X147984936Y-27575279D01*
X148030000Y-27507836D01*
X148075064Y-27575279D01*
X148294721Y-27794936D01*
X148553011Y-27967519D01*
X148840006Y-28086396D01*
X149144679Y-28147000D01*
X149455321Y-28147000D01*
X149759994Y-28086396D01*
X150046989Y-27967519D01*
X150305279Y-27794936D01*
X150524936Y-27575279D01*
X150570000Y-27507836D01*
X150615064Y-27575279D01*
X150834721Y-27794936D01*
X151093011Y-27967519D01*
X151380006Y-28086396D01*
X151684679Y-28147000D01*
X151995321Y-28147000D01*
X152299994Y-28086396D01*
X152586989Y-27967519D01*
X152845279Y-27794936D01*
X153064936Y-27575279D01*
X153110000Y-27507836D01*
X153155064Y-27575279D01*
X153374721Y-27794936D01*
X153633011Y-27967519D01*
X153920006Y-28086396D01*
X154224679Y-28147000D01*
X154535321Y-28147000D01*
X154839994Y-28086396D01*
X155126989Y-27967519D01*
X155385279Y-27794936D01*
X155604936Y-27575279D01*
X155650000Y-27507836D01*
X155695064Y-27575279D01*
X155914721Y-27794936D01*
X156173011Y-27967519D01*
X156460006Y-28086396D01*
X156764679Y-28147000D01*
X157075321Y-28147000D01*
X157379994Y-28086396D01*
X157666989Y-27967519D01*
X157925279Y-27794936D01*
X158144936Y-27575279D01*
X158247344Y-27422014D01*
X158264822Y-27451355D01*
X158459731Y-27667588D01*
X158693080Y-27841641D01*
X158955901Y-27966825D01*
X159103110Y-28011476D01*
X159333000Y-27890155D01*
X159333000Y-26697000D01*
X159313000Y-26697000D01*
X159313000Y-26443000D01*
X159333000Y-26443000D01*
X159333000Y-26423000D01*
X159587000Y-26423000D01*
X159587000Y-26443000D01*
X159607000Y-26443000D01*
X159607000Y-26697000D01*
X159587000Y-26697000D01*
X159587000Y-27890155D01*
X159816890Y-28011476D01*
X159964099Y-27966825D01*
X160226920Y-27841641D01*
X160460269Y-27667588D01*
X160655178Y-27451355D01*
X160672656Y-27422014D01*
X160775064Y-27575279D01*
X160994721Y-27794936D01*
X161253011Y-27967519D01*
X161540006Y-28086396D01*
X161844679Y-28147000D01*
X162155321Y-28147000D01*
X162459994Y-28086396D01*
X162746989Y-27967519D01*
X163005279Y-27794936D01*
X163224936Y-27575279D01*
X163270000Y-27507836D01*
X163315064Y-27575279D01*
X163534721Y-27794936D01*
X163793011Y-27967519D01*
X164080006Y-28086396D01*
X164384679Y-28147000D01*
X164695321Y-28147000D01*
X164999994Y-28086396D01*
X165286989Y-27967519D01*
X165545279Y-27794936D01*
X165764936Y-27575279D01*
X165810000Y-27507836D01*
X165855064Y-27575279D01*
X166074721Y-27794936D01*
X166333011Y-27967519D01*
X166620006Y-28086396D01*
X166924679Y-28147000D01*
X167235321Y-28147000D01*
X167539994Y-28086396D01*
X167826989Y-27967519D01*
X168085279Y-27794936D01*
X168304936Y-27575279D01*
X168350000Y-27507836D01*
X168395064Y-27575279D01*
X168614721Y-27794936D01*
X168873011Y-27967519D01*
X169160006Y-28086396D01*
X169464679Y-28147000D01*
X169775321Y-28147000D01*
X170079994Y-28086396D01*
X170366989Y-27967519D01*
X170625279Y-27794936D01*
X170844936Y-27575279D01*
X170890000Y-27507836D01*
X170935064Y-27575279D01*
X171154721Y-27794936D01*
X171413011Y-27967519D01*
X171700006Y-28086396D01*
X172004679Y-28147000D01*
X172315321Y-28147000D01*
X172619994Y-28086396D01*
X172906989Y-27967519D01*
X173165279Y-27794936D01*
X173384936Y-27575279D01*
X173430000Y-27507836D01*
X173475064Y-27575279D01*
X173694721Y-27794936D01*
X173953011Y-27967519D01*
X174240006Y-28086396D01*
X174544679Y-28147000D01*
X174855321Y-28147000D01*
X175159994Y-28086396D01*
X175446989Y-27967519D01*
X175705279Y-27794936D01*
X175924936Y-27575279D01*
X176027344Y-27422014D01*
X176044822Y-27451355D01*
X176239731Y-27667588D01*
X176473080Y-27841641D01*
X176735901Y-27966825D01*
X176883110Y-28011476D01*
X177113000Y-27890155D01*
X177113000Y-26697000D01*
X177367000Y-26697000D01*
X177367000Y-27890155D01*
X177596890Y-28011476D01*
X177744099Y-27966825D01*
X178006920Y-27841641D01*
X178240269Y-27667588D01*
X178435178Y-27451355D01*
X178584157Y-27201252D01*
X178681481Y-26926891D01*
X178560814Y-26697000D01*
X177367000Y-26697000D01*
X177113000Y-26697000D01*
X177093000Y-26697000D01*
X177093000Y-26443000D01*
X177113000Y-26443000D01*
X177113000Y-26423000D01*
X177367000Y-26423000D01*
X177367000Y-26443000D01*
X178560814Y-26443000D01*
X178681481Y-26213109D01*
X178584157Y-25938748D01*
X178435178Y-25688645D01*
X178240269Y-25472412D01*
X178088842Y-25359464D01*
X178189117Y-25292462D01*
X179892834Y-25292462D01*
X179892834Y-25707538D01*
X179973811Y-26114638D01*
X180132653Y-26498118D01*
X180363257Y-26843240D01*
X180656760Y-27136743D01*
X181001882Y-27367347D01*
X181385362Y-27526189D01*
X181792462Y-27607166D01*
X182207538Y-27607166D01*
X182614638Y-27526189D01*
X182998118Y-27367347D01*
X183343240Y-27136743D01*
X183636743Y-26843240D01*
X183867347Y-26498118D01*
X184026189Y-26114638D01*
X184044510Y-26022531D01*
X186923000Y-26022531D01*
X186923000Y-26477468D01*
X186945818Y-26709145D01*
X187035993Y-27006411D01*
X187182428Y-27280372D01*
X187379497Y-27520503D01*
X187619627Y-27717572D01*
X187893588Y-27864007D01*
X188190854Y-27954182D01*
X188500000Y-27984630D01*
X188809145Y-27954182D01*
X189106411Y-27864007D01*
X189380372Y-27717572D01*
X189588574Y-27546706D01*
X189619463Y-27604494D01*
X189698815Y-27701185D01*
X189795506Y-27780537D01*
X189905820Y-27839502D01*
X190025518Y-27875812D01*
X190150000Y-27888072D01*
X190714250Y-27885000D01*
X190873000Y-27726250D01*
X190873000Y-26377000D01*
X191127000Y-26377000D01*
X191127000Y-27726250D01*
X191285750Y-27885000D01*
X191850000Y-27888072D01*
X191974482Y-27875812D01*
X192094180Y-27839502D01*
X192204494Y-27780537D01*
X192301185Y-27701185D01*
X192380537Y-27604494D01*
X192397113Y-27573482D01*
X199922896Y-27573482D01*
X199963452Y-27838291D01*
X200054891Y-28090100D01*
X200112050Y-28197035D01*
X200348367Y-28259528D01*
X201107895Y-27500000D01*
X201467105Y-27500000D01*
X202226633Y-28259528D01*
X202462950Y-28197035D01*
X202576350Y-27954322D01*
X202640219Y-27694151D01*
X202652104Y-27426518D01*
X202616885Y-27196558D01*
X202674422Y-27283474D01*
X202845775Y-27456307D01*
X203047554Y-27592390D01*
X203272004Y-27686493D01*
X203510500Y-27735000D01*
X203860500Y-27735000D01*
X203860500Y-26627000D01*
X202568769Y-26627000D01*
X202454997Y-26800862D01*
X202226633Y-26740472D01*
X201467105Y-27500000D01*
X201107895Y-27500000D01*
X200348367Y-26740472D01*
X200112050Y-26802965D01*
X199998650Y-27045678D01*
X199934781Y-27305849D01*
X199922896Y-27573482D01*
X192397113Y-27573482D01*
X192439502Y-27494180D01*
X192475812Y-27374482D01*
X192488072Y-27250000D01*
X192485109Y-26560867D01*
X200527972Y-26560867D01*
X201287500Y-27320395D01*
X202047028Y-26560867D01*
X201984535Y-26324550D01*
X201741822Y-26211150D01*
X201624672Y-26182391D01*
X202444038Y-26182391D01*
X202568769Y-26373000D01*
X203860500Y-26373000D01*
X203860500Y-25265000D01*
X203510500Y-25265000D01*
X203272004Y-25313507D01*
X203047554Y-25407610D01*
X202845775Y-25543693D01*
X202674422Y-25716526D01*
X202540079Y-25919467D01*
X202447909Y-26144718D01*
X202444038Y-26182391D01*
X201624672Y-26182391D01*
X201481651Y-26147281D01*
X201214018Y-26135396D01*
X200949209Y-26175952D01*
X200697400Y-26267391D01*
X200590465Y-26324550D01*
X200527972Y-26560867D01*
X192485109Y-26560867D01*
X192485000Y-26535750D01*
X192326250Y-26377000D01*
X191127000Y-26377000D01*
X190873000Y-26377000D01*
X190853000Y-26377000D01*
X190853000Y-26123000D01*
X190873000Y-26123000D01*
X190873000Y-24773750D01*
X191127000Y-24773750D01*
X191127000Y-26123000D01*
X192326250Y-26123000D01*
X192485000Y-25964250D01*
X192488072Y-25250000D01*
X192475812Y-25125518D01*
X192439502Y-25005820D01*
X192380537Y-24895506D01*
X192301185Y-24798815D01*
X192204494Y-24719463D01*
X192094180Y-24660498D01*
X191974482Y-24624188D01*
X191850000Y-24611928D01*
X191285750Y-24615000D01*
X191127000Y-24773750D01*
X190873000Y-24773750D01*
X190714250Y-24615000D01*
X190150000Y-24611928D01*
X190025518Y-24624188D01*
X189905820Y-24660498D01*
X189795506Y-24719463D01*
X189698815Y-24798815D01*
X189619463Y-24895506D01*
X189588574Y-24953294D01*
X189380373Y-24782428D01*
X189106412Y-24635993D01*
X188809146Y-24545818D01*
X188500000Y-24515370D01*
X188190855Y-24545818D01*
X187893589Y-24635993D01*
X187619628Y-24782428D01*
X187379497Y-24979497D01*
X187182428Y-25219627D01*
X187035993Y-25493588D01*
X186945818Y-25790854D01*
X186923000Y-26022531D01*
X184044510Y-26022531D01*
X184107166Y-25707538D01*
X184107166Y-25292462D01*
X184026189Y-24885362D01*
X183867347Y-24501882D01*
X183636743Y-24156760D01*
X183343240Y-23863257D01*
X182998118Y-23632653D01*
X182614638Y-23473811D01*
X182207538Y-23392834D01*
X181792462Y-23392834D01*
X181385362Y-23473811D01*
X181001882Y-23632653D01*
X180656760Y-23863257D01*
X180363257Y-24156760D01*
X180132653Y-24501882D01*
X179973811Y-24885362D01*
X179892834Y-25292462D01*
X178189117Y-25292462D01*
X178245279Y-25254936D01*
X178464936Y-25035279D01*
X178637519Y-24776989D01*
X178756396Y-24489994D01*
X178817000Y-24185321D01*
X178817000Y-23874679D01*
X178756396Y-23570006D01*
X178637519Y-23283011D01*
X178464936Y-23024721D01*
X178245279Y-22805064D01*
X177986989Y-22632481D01*
X177699994Y-22513604D01*
X177395321Y-22453000D01*
X177084679Y-22453000D01*
X176780006Y-22513604D01*
X176493011Y-22632481D01*
X176234721Y-22805064D01*
X176015064Y-23024721D01*
X175970000Y-23092164D01*
X175924936Y-23024721D01*
X175705279Y-22805064D01*
X175446989Y-22632481D01*
X175159994Y-22513604D01*
X174855321Y-22453000D01*
X174544679Y-22453000D01*
X174240006Y-22513604D01*
X173953011Y-22632481D01*
X173694721Y-22805064D01*
X173475064Y-23024721D01*
X173430000Y-23092164D01*
X173384936Y-23024721D01*
X173165279Y-22805064D01*
X172906989Y-22632481D01*
X172619994Y-22513604D01*
X172315321Y-22453000D01*
X172004679Y-22453000D01*
X171700006Y-22513604D01*
X171413011Y-22632481D01*
X171154721Y-22805064D01*
X170935064Y-23024721D01*
X170832656Y-23177986D01*
X170815178Y-23148645D01*
X170620269Y-22932412D01*
X170386920Y-22758359D01*
X170124099Y-22633175D01*
X169976890Y-22588524D01*
X169747000Y-22709845D01*
X169747000Y-23903000D01*
X169767000Y-23903000D01*
X169767000Y-24157000D01*
X169747000Y-24157000D01*
X169747000Y-24177000D01*
X169493000Y-24177000D01*
X169493000Y-24157000D01*
X169473000Y-24157000D01*
X169473000Y-23903000D01*
X169493000Y-23903000D01*
X169493000Y-22709845D01*
X169263110Y-22588524D01*
X169115901Y-22633175D01*
X168853080Y-22758359D01*
X168619731Y-22932412D01*
X168424822Y-23148645D01*
X168407344Y-23177986D01*
X168304936Y-23024721D01*
X168085279Y-22805064D01*
X167826989Y-22632481D01*
X167539994Y-22513604D01*
X167235321Y-22453000D01*
X166924679Y-22453000D01*
X166620006Y-22513604D01*
X166333011Y-22632481D01*
X166074721Y-22805064D01*
X165855064Y-23024721D01*
X165752656Y-23177986D01*
X165735178Y-23148645D01*
X165540269Y-22932412D01*
X165306920Y-22758359D01*
X165044099Y-22633175D01*
X164896890Y-22588524D01*
X164667000Y-22709845D01*
X164667000Y-23903000D01*
X164687000Y-23903000D01*
X164687000Y-24157000D01*
X164667000Y-24157000D01*
X164667000Y-24177000D01*
X164413000Y-24177000D01*
X164413000Y-24157000D01*
X164393000Y-24157000D01*
X164393000Y-23903000D01*
X164413000Y-23903000D01*
X164413000Y-22709845D01*
X164183110Y-22588524D01*
X164035901Y-22633175D01*
X163773080Y-22758359D01*
X163539731Y-22932412D01*
X163344822Y-23148645D01*
X163327344Y-23177986D01*
X163224936Y-23024721D01*
X163005279Y-22805064D01*
X162746989Y-22632481D01*
X162459994Y-22513604D01*
X162155321Y-22453000D01*
X161844679Y-22453000D01*
X161540006Y-22513604D01*
X161253011Y-22632481D01*
X160994721Y-22805064D01*
X160775064Y-23024721D01*
X160730000Y-23092164D01*
X160684936Y-23024721D01*
X160465279Y-22805064D01*
X160206989Y-22632481D01*
X159919994Y-22513604D01*
X159615321Y-22453000D01*
X159304679Y-22453000D01*
X159000006Y-22513604D01*
X158713011Y-22632481D01*
X158454721Y-22805064D01*
X158235064Y-23024721D01*
X158190000Y-23092164D01*
X158144936Y-23024721D01*
X157925279Y-22805064D01*
X157666989Y-22632481D01*
X157379994Y-22513604D01*
X157075321Y-22453000D01*
X156764679Y-22453000D01*
X156460006Y-22513604D01*
X156173011Y-22632481D01*
X155914721Y-22805064D01*
X155695064Y-23024721D01*
X155650000Y-23092164D01*
X155604936Y-23024721D01*
X155385279Y-22805064D01*
X155126989Y-22632481D01*
X154839994Y-22513604D01*
X154535321Y-22453000D01*
X154224679Y-22453000D01*
X153920006Y-22513604D01*
X153633011Y-22632481D01*
X153374721Y-22805064D01*
X153155064Y-23024721D01*
X153052656Y-23177986D01*
X153035178Y-23148645D01*
X152840269Y-22932412D01*
X152606920Y-22758359D01*
X152344099Y-22633175D01*
X152196890Y-22588524D01*
X151967000Y-22709845D01*
X151967000Y-23903000D01*
X151987000Y-23903000D01*
X151987000Y-24157000D01*
X151967000Y-24157000D01*
X151967000Y-24177000D01*
X151713000Y-24177000D01*
X151713000Y-24157000D01*
X151693000Y-24157000D01*
X151693000Y-23903000D01*
X151713000Y-23903000D01*
X151713000Y-22709845D01*
X151483110Y-22588524D01*
X151335901Y-22633175D01*
X151073080Y-22758359D01*
X150839731Y-22932412D01*
X150644822Y-23148645D01*
X150627344Y-23177986D01*
X150524936Y-23024721D01*
X150305279Y-22805064D01*
X150046989Y-22632481D01*
X149759994Y-22513604D01*
X149455321Y-22453000D01*
X149144679Y-22453000D01*
X148840006Y-22513604D01*
X148553011Y-22632481D01*
X148294721Y-22805064D01*
X148075064Y-23024721D01*
X148030000Y-23092164D01*
X147984936Y-23024721D01*
X147765279Y-22805064D01*
X147506989Y-22632481D01*
X147219994Y-22513604D01*
X146915321Y-22453000D01*
X146604679Y-22453000D01*
X146300006Y-22513604D01*
X146013011Y-22632481D01*
X145754721Y-22805064D01*
X145535064Y-23024721D01*
X145432656Y-23177986D01*
X145415178Y-23148645D01*
X145220269Y-22932412D01*
X144986920Y-22758359D01*
X144724099Y-22633175D01*
X144576890Y-22588524D01*
X144347000Y-22709845D01*
X144347000Y-23903000D01*
X144367000Y-23903000D01*
X144367000Y-24157000D01*
X144347000Y-24157000D01*
X144347000Y-24177000D01*
X144093000Y-24177000D01*
X144093000Y-24157000D01*
X144073000Y-24157000D01*
X144073000Y-23903000D01*
X144093000Y-23903000D01*
X144093000Y-22709845D01*
X143863110Y-22588524D01*
X143715901Y-22633175D01*
X143453080Y-22758359D01*
X143219731Y-22932412D01*
X143024822Y-23148645D01*
X143007344Y-23177986D01*
X142904936Y-23024721D01*
X142685279Y-22805064D01*
X142426989Y-22632481D01*
X142139994Y-22513604D01*
X141835321Y-22453000D01*
X141524679Y-22453000D01*
X141220006Y-22513604D01*
X140933011Y-22632481D01*
X140674721Y-22805064D01*
X140455064Y-23024721D01*
X140410000Y-23092164D01*
X140364936Y-23024721D01*
X140145279Y-22805064D01*
X139886989Y-22632481D01*
X139599994Y-22513604D01*
X139295321Y-22453000D01*
X138984679Y-22453000D01*
X138680006Y-22513604D01*
X138393011Y-22632481D01*
X138134721Y-22805064D01*
X137915064Y-23024721D01*
X137870000Y-23092164D01*
X137824936Y-23024721D01*
X137605279Y-22805064D01*
X137346989Y-22632481D01*
X137059994Y-22513604D01*
X136755321Y-22453000D01*
X136444679Y-22453000D01*
X136140006Y-22513604D01*
X135853011Y-22632481D01*
X135594721Y-22805064D01*
X135375064Y-23024721D01*
X135272656Y-23177986D01*
X135255178Y-23148645D01*
X135060269Y-22932412D01*
X134826920Y-22758359D01*
X134564099Y-22633175D01*
X134416890Y-22588524D01*
X134187000Y-22709845D01*
X134187000Y-23903000D01*
X134207000Y-23903000D01*
X134207000Y-24157000D01*
X134187000Y-24157000D01*
X134187000Y-24177000D01*
X133933000Y-24177000D01*
X133933000Y-24157000D01*
X133913000Y-24157000D01*
X133913000Y-23903000D01*
X133933000Y-23903000D01*
X133933000Y-22709845D01*
X133703110Y-22588524D01*
X133555901Y-22633175D01*
X133293080Y-22758359D01*
X133059731Y-22932412D01*
X132864822Y-23148645D01*
X132847344Y-23177986D01*
X132744936Y-23024721D01*
X132525279Y-22805064D01*
X132266989Y-22632481D01*
X131979994Y-22513604D01*
X131675321Y-22453000D01*
X131364679Y-22453000D01*
X131060006Y-22513604D01*
X130773011Y-22632481D01*
X130514721Y-22805064D01*
X130295064Y-23024721D01*
X130250000Y-23092164D01*
X130204936Y-23024721D01*
X129985279Y-22805064D01*
X129726989Y-22632481D01*
X129439994Y-22513604D01*
X129135321Y-22453000D01*
X128824679Y-22453000D01*
X128520006Y-22513604D01*
X128233011Y-22632481D01*
X127974721Y-22805064D01*
X127755064Y-23024721D01*
X127582481Y-23283011D01*
X127463604Y-23570006D01*
X127403000Y-23874679D01*
X127403000Y-24185321D01*
X127463604Y-24489994D01*
X127582481Y-24776989D01*
X127755064Y-25035279D01*
X127794681Y-25074896D01*
X127724147Y-25112597D01*
X127613446Y-25203446D01*
X127522597Y-25314147D01*
X127455090Y-25440443D01*
X127413520Y-25577483D01*
X127399483Y-25720000D01*
X126104687Y-25720000D01*
X126107166Y-25707538D01*
X126107166Y-25292462D01*
X126026189Y-24885362D01*
X125867347Y-24501882D01*
X125636743Y-24156760D01*
X125343240Y-23863257D01*
X124998118Y-23632653D01*
X124614638Y-23473811D01*
X124207538Y-23392834D01*
X123792462Y-23392834D01*
X123385362Y-23473811D01*
X123001882Y-23632653D01*
X122656760Y-23863257D01*
X122363257Y-24156760D01*
X122132653Y-24501882D01*
X121973811Y-24885362D01*
X121892834Y-25292462D01*
X121277000Y-25292462D01*
X121277000Y-24538006D01*
X121322993Y-24068937D01*
X121448178Y-23654303D01*
X121651519Y-23271873D01*
X121925268Y-22936225D01*
X122259001Y-22660136D01*
X122639994Y-22454134D01*
X123053751Y-22326055D01*
X123520475Y-22277000D01*
X202461994Y-22277000D01*
X202931063Y-22322993D01*
G37*
X202931063Y-22322993D02*
X203345697Y-22448178D01*
X203728127Y-22651519D01*
X204063775Y-22925268D01*
X204339864Y-23259001D01*
X204545866Y-23639994D01*
X204673945Y-24053751D01*
X204723000Y-24520475D01*
X204723000Y-25321894D01*
X204702996Y-25313507D01*
X204464500Y-25265000D01*
X204114500Y-25265000D01*
X204114500Y-26373000D01*
X204134500Y-26373000D01*
X204134500Y-26627000D01*
X204114500Y-26627000D01*
X204114500Y-27735000D01*
X204464500Y-27735000D01*
X204702996Y-27686493D01*
X204723000Y-27678106D01*
X204723000Y-32321894D01*
X204702996Y-32313507D01*
X204464500Y-32265000D01*
X204114500Y-32265000D01*
X204114500Y-33373000D01*
X204134500Y-33373000D01*
X204134500Y-33627000D01*
X204114500Y-33627000D01*
X204114500Y-34735000D01*
X204464500Y-34735000D01*
X204702996Y-34686493D01*
X204723000Y-34678106D01*
X204723001Y-74961985D01*
X204677007Y-75431063D01*
X204551821Y-75845700D01*
X204348478Y-76228131D01*
X204074733Y-76563775D01*
X203740999Y-76839864D01*
X203360006Y-77045866D01*
X202946245Y-77173947D01*
X202479525Y-77223000D01*
X163617925Y-77223000D01*
X163803773Y-77037152D01*
X163981828Y-76770673D01*
X164104475Y-76474578D01*
X164143498Y-76278397D01*
X166651208Y-76278397D01*
X166728843Y-76527472D01*
X166992883Y-76653371D01*
X167276411Y-76725339D01*
X167568531Y-76740611D01*
X167858019Y-76698599D01*
X168133747Y-76600919D01*
X168271157Y-76527472D01*
X168348792Y-76278397D01*
X167500000Y-75429605D01*
X166651208Y-76278397D01*
X164143498Y-76278397D01*
X164167000Y-76160245D01*
X164167000Y-75839755D01*
X164104475Y-75525422D01*
X163981828Y-75229327D01*
X163803773Y-74962848D01*
X163577152Y-74736227D01*
X163310673Y-74558172D01*
X163014578Y-74435525D01*
X162700245Y-74373000D01*
X162379755Y-74373000D01*
X162065422Y-74435525D01*
X161769327Y-74558172D01*
X161502848Y-74736227D01*
X161452493Y-74786582D01*
X161430537Y-74745506D01*
X161351185Y-74648815D01*
X161254494Y-74569463D01*
X161144180Y-74510498D01*
X161024482Y-74474188D01*
X160900000Y-74461928D01*
X160285750Y-74465000D01*
X160127000Y-74623750D01*
X160127000Y-75873000D01*
X160147000Y-75873000D01*
X160147000Y-76127000D01*
X160127000Y-76127000D01*
X160127000Y-76147000D01*
X159873000Y-76147000D01*
X159873000Y-76127000D01*
X158623750Y-76127000D01*
X158465000Y-76285750D01*
X158461928Y-76900000D01*
X158474188Y-77024482D01*
X158510498Y-77144180D01*
X158552629Y-77223000D01*
X157117925Y-77223000D01*
X157303773Y-77037152D01*
X157481828Y-76770673D01*
X157604475Y-76474578D01*
X157667000Y-76160245D01*
X157667000Y-75839755D01*
X157604475Y-75525422D01*
X157481828Y-75229327D01*
X157395415Y-75100000D01*
X158461928Y-75100000D01*
X158465000Y-75714250D01*
X158623750Y-75873000D01*
X159873000Y-75873000D01*
X159873000Y-74623750D01*
X159714250Y-74465000D01*
X159100000Y-74461928D01*
X158975518Y-74474188D01*
X158855820Y-74510498D01*
X158745506Y-74569463D01*
X158648815Y-74648815D01*
X158569463Y-74745506D01*
X158510498Y-74855820D01*
X158474188Y-74975518D01*
X158461928Y-75100000D01*
X157395415Y-75100000D01*
X157303773Y-74962848D01*
X157077152Y-74736227D01*
X156810673Y-74558172D01*
X156514578Y-74435525D01*
X156200245Y-74373000D01*
X155879755Y-74373000D01*
X155565422Y-74435525D01*
X155269327Y-74558172D01*
X155002848Y-74736227D01*
X154952493Y-74786582D01*
X154930537Y-74745506D01*
X154851185Y-74648815D01*
X154754494Y-74569463D01*
X154644180Y-74510498D01*
X154524482Y-74474188D01*
X154400000Y-74461928D01*
X153785750Y-74465000D01*
X153627000Y-74623750D01*
X153627000Y-75873000D01*
X153647000Y-75873000D01*
X153647000Y-76127000D01*
X153627000Y-76127000D01*
X153627000Y-76147000D01*
X153373000Y-76147000D01*
X153373000Y-76127000D01*
X152123750Y-76127000D01*
X151965000Y-76285750D01*
X151961928Y-76900000D01*
X151974188Y-77024482D01*
X152010498Y-77144180D01*
X152052629Y-77223000D01*
X150617925Y-77223000D01*
X150803773Y-77037152D01*
X150981828Y-76770673D01*
X151104475Y-76474578D01*
X151167000Y-76160245D01*
X151167000Y-75839755D01*
X151104475Y-75525422D01*
X150981828Y-75229327D01*
X150895415Y-75100000D01*
X151961928Y-75100000D01*
X151965000Y-75714250D01*
X152123750Y-75873000D01*
X153373000Y-75873000D01*
X153373000Y-74623750D01*
X153214250Y-74465000D01*
X152600000Y-74461928D01*
X152475518Y-74474188D01*
X152355820Y-74510498D01*
X152245506Y-74569463D01*
X152148815Y-74648815D01*
X152069463Y-74745506D01*
X152010498Y-74855820D01*
X151974188Y-74975518D01*
X151961928Y-75100000D01*
X150895415Y-75100000D01*
X150803773Y-74962848D01*
X150577152Y-74736227D01*
X150310673Y-74558172D01*
X150014578Y-74435525D01*
X149700245Y-74373000D01*
X149379755Y-74373000D01*
X149065422Y-74435525D01*
X148769327Y-74558172D01*
X148502848Y-74736227D01*
X148452493Y-74786582D01*
X148430537Y-74745506D01*
X148351185Y-74648815D01*
X148254494Y-74569463D01*
X148144180Y-74510498D01*
X148024482Y-74474188D01*
X147900000Y-74461928D01*
X147285750Y-74465000D01*
X147127000Y-74623750D01*
X147127000Y-75873000D01*
X147147000Y-75873000D01*
X147147000Y-76127000D01*
X147127000Y-76127000D01*
X147127000Y-76147000D01*
X146873000Y-76147000D01*
X146873000Y-76127000D01*
X145623750Y-76127000D01*
X145465000Y-76285750D01*
X145461928Y-76900000D01*
X145474188Y-77024482D01*
X145510498Y-77144180D01*
X145552629Y-77223000D01*
X144117925Y-77223000D01*
X144303773Y-77037152D01*
X144481828Y-76770673D01*
X144604475Y-76474578D01*
X144667000Y-76160245D01*
X144667000Y-75839755D01*
X144604475Y-75525422D01*
X144481828Y-75229327D01*
X144395415Y-75100000D01*
X145461928Y-75100000D01*
X145465000Y-75714250D01*
X145623750Y-75873000D01*
X146873000Y-75873000D01*
X146873000Y-74623750D01*
X146714250Y-74465000D01*
X146100000Y-74461928D01*
X145975518Y-74474188D01*
X145855820Y-74510498D01*
X145745506Y-74569463D01*
X145648815Y-74648815D01*
X145569463Y-74745506D01*
X145510498Y-74855820D01*
X145474188Y-74975518D01*
X145461928Y-75100000D01*
X144395415Y-75100000D01*
X144303773Y-74962848D01*
X144077152Y-74736227D01*
X143810673Y-74558172D01*
X143514578Y-74435525D01*
X143200245Y-74373000D01*
X142879755Y-74373000D01*
X142565422Y-74435525D01*
X142269327Y-74558172D01*
X142002848Y-74736227D01*
X141952493Y-74786582D01*
X141930537Y-74745506D01*
X141851185Y-74648815D01*
X141754494Y-74569463D01*
X141644180Y-74510498D01*
X141524482Y-74474188D01*
X141400000Y-74461928D01*
X140785750Y-74465000D01*
X140627000Y-74623750D01*
X140627000Y-75873000D01*
X140647000Y-75873000D01*
X140647000Y-76127000D01*
X140627000Y-76127000D01*
X140627000Y-76147000D01*
X140373000Y-76147000D01*
X140373000Y-76127000D01*
X139123750Y-76127000D01*
X138965000Y-76285750D01*
X138961928Y-76900000D01*
X138974188Y-77024482D01*
X139010498Y-77144180D01*
X139052629Y-77223000D01*
X137617925Y-77223000D01*
X137803773Y-77037152D01*
X137981828Y-76770673D01*
X138104475Y-76474578D01*
X138167000Y-76160245D01*
X138167000Y-75839755D01*
X138104475Y-75525422D01*
X137981828Y-75229327D01*
X137895415Y-75100000D01*
X138961928Y-75100000D01*
X138965000Y-75714250D01*
X139123750Y-75873000D01*
X140373000Y-75873000D01*
X140373000Y-74623750D01*
X140214250Y-74465000D01*
X139600000Y-74461928D01*
X139475518Y-74474188D01*
X139355820Y-74510498D01*
X139245506Y-74569463D01*
X139148815Y-74648815D01*
X139069463Y-74745506D01*
X139010498Y-74855820D01*
X138974188Y-74975518D01*
X138961928Y-75100000D01*
X137895415Y-75100000D01*
X137803773Y-74962848D01*
X137577152Y-74736227D01*
X137310673Y-74558172D01*
X137014578Y-74435525D01*
X136700245Y-74373000D01*
X136379755Y-74373000D01*
X136065422Y-74435525D01*
X135769327Y-74558172D01*
X135502848Y-74736227D01*
X135452493Y-74786582D01*
X135430537Y-74745506D01*
X135351185Y-74648815D01*
X135254494Y-74569463D01*
X135144180Y-74510498D01*
X135024482Y-74474188D01*
X134900000Y-74461928D01*
X134285750Y-74465000D01*
X134127000Y-74623750D01*
X134127000Y-75873000D01*
X134147000Y-75873000D01*
X134147000Y-76127000D01*
X134127000Y-76127000D01*
X134127000Y-76147000D01*
X133873000Y-76147000D01*
X133873000Y-76127000D01*
X132623750Y-76127000D01*
X132465000Y-76285750D01*
X132461928Y-76900000D01*
X132474188Y-77024482D01*
X132510498Y-77144180D01*
X132552629Y-77223000D01*
X123538005Y-77223000D01*
X123068937Y-77177007D01*
X122654300Y-77051821D01*
X122271869Y-76848478D01*
X121936225Y-76574733D01*
X121660136Y-76240999D01*
X121454134Y-75860006D01*
X121326053Y-75446245D01*
X121277000Y-74979525D01*
X121277000Y-74247100D01*
X121892834Y-74247100D01*
X121892834Y-74662176D01*
X121973811Y-75069276D01*
X122132653Y-75452756D01*
X122363257Y-75797878D01*
X122656760Y-76091381D01*
X123001882Y-76321985D01*
X123385362Y-76480827D01*
X123792462Y-76561804D01*
X124207538Y-76561804D01*
X124614638Y-76480827D01*
X124998118Y-76321985D01*
X125343240Y-76091381D01*
X125636743Y-75797878D01*
X125867347Y-75452756D01*
X126013462Y-75100000D01*
X132461928Y-75100000D01*
X132465000Y-75714250D01*
X132623750Y-75873000D01*
X133873000Y-75873000D01*
X133873000Y-74623750D01*
X133714250Y-74465000D01*
X133100000Y-74461928D01*
X132975518Y-74474188D01*
X132855820Y-74510498D01*
X132745506Y-74569463D01*
X132648815Y-74648815D01*
X132569463Y-74745506D01*
X132510498Y-74855820D01*
X132474188Y-74975518D01*
X132461928Y-75100000D01*
X126013462Y-75100000D01*
X126026189Y-75069276D01*
X126107166Y-74662176D01*
X126107166Y-74247100D01*
X126026189Y-73840000D01*
X125867347Y-73456520D01*
X125636743Y-73111398D01*
X125343240Y-72817895D01*
X124998118Y-72587291D01*
X124956509Y-72570056D01*
X164423000Y-72570056D01*
X164423000Y-72929944D01*
X164493211Y-73282916D01*
X164630934Y-73615409D01*
X164830876Y-73914645D01*
X165085355Y-74169124D01*
X165384591Y-74369066D01*
X165717084Y-74506789D01*
X166070056Y-74577000D01*
X166175725Y-74577000D01*
X166096629Y-74742883D01*
X166024661Y-75026411D01*
X166009389Y-75318531D01*
X166051401Y-75608019D01*
X166149081Y-75883747D01*
X166222528Y-76021157D01*
X166471603Y-76098792D01*
X167320395Y-75250000D01*
X167679605Y-75250000D01*
X168528397Y-76098792D01*
X168777472Y-76021157D01*
X168903371Y-75757117D01*
X168975339Y-75473589D01*
X168990611Y-75181469D01*
X168978016Y-75094679D01*
X170423000Y-75094679D01*
X170423000Y-75405321D01*
X170483604Y-75709994D01*
X170602481Y-75996989D01*
X170775064Y-76255279D01*
X170994721Y-76474936D01*
X171253011Y-76647519D01*
X171540006Y-76766396D01*
X171844679Y-76827000D01*
X172155321Y-76827000D01*
X172459994Y-76766396D01*
X172746989Y-76647519D01*
X173005279Y-76474936D01*
X173224936Y-76255279D01*
X173397519Y-75996989D01*
X173516396Y-75709994D01*
X173577000Y-75405321D01*
X173577000Y-75094679D01*
X173516396Y-74790006D01*
X173428166Y-74577000D01*
X173429944Y-74577000D01*
X173782916Y-74506789D01*
X174115409Y-74369066D01*
X174230055Y-74292462D01*
X179938196Y-74292462D01*
X179938196Y-74707538D01*
X180019173Y-75114638D01*
X180178015Y-75498118D01*
X180408619Y-75843240D01*
X180702122Y-76136743D01*
X181047244Y-76367347D01*
X181430724Y-76526189D01*
X181837824Y-76607166D01*
X182252900Y-76607166D01*
X182660000Y-76526189D01*
X183043480Y-76367347D01*
X183388602Y-76136743D01*
X183682105Y-75843240D01*
X183912709Y-75498118D01*
X184071551Y-75114638D01*
X184152528Y-74707538D01*
X184152528Y-74292462D01*
X184071551Y-73885362D01*
X183912709Y-73501882D01*
X183682105Y-73156760D01*
X183388602Y-72863257D01*
X183043480Y-72632653D01*
X182660000Y-72473811D01*
X182252900Y-72392834D01*
X181837824Y-72392834D01*
X181430724Y-72473811D01*
X181047244Y-72632653D01*
X180702122Y-72863257D01*
X180408619Y-73156760D01*
X180178015Y-73501882D01*
X180019173Y-73885362D01*
X179938196Y-74292462D01*
X174230055Y-74292462D01*
X174414645Y-74169124D01*
X174669124Y-73914645D01*
X174869066Y-73615409D01*
X175006789Y-73282916D01*
X175077000Y-72929944D01*
X175077000Y-72570056D01*
X175006789Y-72217084D01*
X174869066Y-71884591D01*
X174704969Y-71639000D01*
X176373000Y-71639000D01*
X176373000Y-71861000D01*
X176416310Y-72078734D01*
X176501266Y-72283835D01*
X176624602Y-72468421D01*
X176781579Y-72625398D01*
X176966165Y-72748734D01*
X177171266Y-72833690D01*
X177389000Y-72877000D01*
X177611000Y-72877000D01*
X177828734Y-72833690D01*
X178033835Y-72748734D01*
X178218421Y-72625398D01*
X178375398Y-72468421D01*
X178498734Y-72283835D01*
X178500736Y-72279000D01*
X184873000Y-72279000D01*
X184873000Y-72501000D01*
X184916310Y-72718734D01*
X185001266Y-72923835D01*
X185124602Y-73108421D01*
X185281579Y-73265398D01*
X185466165Y-73388734D01*
X185671266Y-73473690D01*
X185889000Y-73517000D01*
X186111000Y-73517000D01*
X186328734Y-73473690D01*
X186533835Y-73388734D01*
X186718421Y-73265398D01*
X186875398Y-73108421D01*
X186998734Y-72923835D01*
X187083690Y-72718734D01*
X187127000Y-72501000D01*
X187127000Y-72279000D01*
X187083690Y-72061266D01*
X186998734Y-71856165D01*
X186875398Y-71671579D01*
X186718421Y-71514602D01*
X186533835Y-71391266D01*
X186328734Y-71306310D01*
X186111000Y-71263000D01*
X185889000Y-71263000D01*
X185671266Y-71306310D01*
X185466165Y-71391266D01*
X185281579Y-71514602D01*
X185124602Y-71671579D01*
X185001266Y-71856165D01*
X184916310Y-72061266D01*
X184873000Y-72279000D01*
X178500736Y-72279000D01*
X178583690Y-72078734D01*
X178627000Y-71861000D01*
X178627000Y-71639000D01*
X178583690Y-71421266D01*
X178498734Y-71216165D01*
X178375398Y-71031579D01*
X178218421Y-70874602D01*
X178033835Y-70751266D01*
X177828734Y-70666310D01*
X177611000Y-70623000D01*
X177389000Y-70623000D01*
X177171266Y-70666310D01*
X176966165Y-70751266D01*
X176781579Y-70874602D01*
X176624602Y-71031579D01*
X176501266Y-71216165D01*
X176416310Y-71421266D01*
X176373000Y-71639000D01*
X174704969Y-71639000D01*
X174669124Y-71585355D01*
X174414645Y-71330876D01*
X174115409Y-71130934D01*
X173782916Y-70993211D01*
X173429944Y-70923000D01*
X173070056Y-70923000D01*
X172717084Y-70993211D01*
X172384591Y-71130934D01*
X172085355Y-71330876D01*
X171830876Y-71585355D01*
X171630934Y-71884591D01*
X171493211Y-72217084D01*
X171423000Y-72570056D01*
X171423000Y-72929944D01*
X171493211Y-73282916D01*
X171630934Y-73615409D01*
X171689976Y-73703773D01*
X171540006Y-73733604D01*
X171253011Y-73852481D01*
X170994721Y-74025064D01*
X170775064Y-74244721D01*
X170602481Y-74503011D01*
X170483604Y-74790006D01*
X170423000Y-75094679D01*
X168978016Y-75094679D01*
X168948599Y-74891981D01*
X168850919Y-74616253D01*
X168777472Y-74478843D01*
X168528397Y-74401208D01*
X167679605Y-75250000D01*
X167320395Y-75250000D01*
X167306253Y-75235858D01*
X167485858Y-75056253D01*
X167500000Y-75070395D01*
X168348792Y-74221603D01*
X168271157Y-73972528D01*
X168007117Y-73846629D01*
X167756992Y-73783140D01*
X167869066Y-73615409D01*
X168006789Y-73282916D01*
X168077000Y-72929944D01*
X168077000Y-72570056D01*
X168006789Y-72217084D01*
X167869066Y-71884591D01*
X167669124Y-71585355D01*
X167414645Y-71330876D01*
X167115409Y-71130934D01*
X166782916Y-70993211D01*
X166429944Y-70923000D01*
X166070056Y-70923000D01*
X165717084Y-70993211D01*
X165384591Y-71130934D01*
X165085355Y-71330876D01*
X164830876Y-71585355D01*
X164630934Y-71884591D01*
X164493211Y-72217084D01*
X164423000Y-72570056D01*
X124956509Y-72570056D01*
X124614638Y-72428449D01*
X124207538Y-72347472D01*
X123792462Y-72347472D01*
X123385362Y-72428449D01*
X123001882Y-72587291D01*
X122656760Y-72817895D01*
X122363257Y-73111398D01*
X122132653Y-73456520D01*
X121973811Y-73840000D01*
X121892834Y-74247100D01*
X121277000Y-74247100D01*
X121277000Y-68889000D01*
X135373000Y-68889000D01*
X135373000Y-69111000D01*
X135416310Y-69328734D01*
X135501266Y-69533835D01*
X135624602Y-69718421D01*
X135781579Y-69875398D01*
X135966165Y-69998734D01*
X136171266Y-70083690D01*
X136389000Y-70127000D01*
X136611000Y-70127000D01*
X136828734Y-70083690D01*
X137033835Y-69998734D01*
X137218421Y-69875398D01*
X137227819Y-69866000D01*
X182769000Y-69866000D01*
X182769000Y-70088000D01*
X182812310Y-70305734D01*
X182897266Y-70510835D01*
X183020602Y-70695421D01*
X183177579Y-70852398D01*
X183362165Y-70975734D01*
X183567266Y-71060690D01*
X183785000Y-71104000D01*
X184007000Y-71104000D01*
X184224734Y-71060690D01*
X184429835Y-70975734D01*
X184614421Y-70852398D01*
X184771398Y-70695421D01*
X184894734Y-70510835D01*
X184979690Y-70305734D01*
X185023000Y-70088000D01*
X185023000Y-69866000D01*
X184979690Y-69648266D01*
X184894734Y-69443165D01*
X184771398Y-69258579D01*
X184614421Y-69101602D01*
X184429835Y-68978266D01*
X184224734Y-68893310D01*
X184007000Y-68850000D01*
X183785000Y-68850000D01*
X183567266Y-68893310D01*
X183362165Y-68978266D01*
X183177579Y-69101602D01*
X183020602Y-69258579D01*
X182897266Y-69443165D01*
X182812310Y-69648266D01*
X182769000Y-69866000D01*
X137227819Y-69866000D01*
X137375398Y-69718421D01*
X137498734Y-69533835D01*
X137583690Y-69328734D01*
X137627000Y-69111000D01*
X137627000Y-68889000D01*
X137583690Y-68671266D01*
X137498734Y-68466165D01*
X137375398Y-68281579D01*
X137218421Y-68124602D01*
X137033835Y-68001266D01*
X136828734Y-67916310D01*
X136611000Y-67873000D01*
X136389000Y-67873000D01*
X136171266Y-67916310D01*
X135966165Y-68001266D01*
X135781579Y-68124602D01*
X135624602Y-68281579D01*
X135501266Y-68466165D01*
X135416310Y-68671266D01*
X135373000Y-68889000D01*
X121277000Y-68889000D01*
X121277000Y-67964531D01*
X123315074Y-67964531D01*
X123425921Y-68241714D01*
X123736840Y-68395089D01*
X124071705Y-68484860D01*
X124417650Y-68507576D01*
X124761380Y-68462366D01*
X125089685Y-68350966D01*
X125294079Y-68241714D01*
X125404926Y-67964531D01*
X128395074Y-67964531D01*
X128505921Y-68241714D01*
X128816840Y-68395089D01*
X129151705Y-68484860D01*
X129497650Y-68507576D01*
X129841380Y-68462366D01*
X130169685Y-68350966D01*
X130374079Y-68241714D01*
X130484926Y-67964531D01*
X129440000Y-66919605D01*
X128395074Y-67964531D01*
X125404926Y-67964531D01*
X124360000Y-66919605D01*
X123315074Y-67964531D01*
X121277000Y-67964531D01*
X121277000Y-66797650D01*
X122592424Y-66797650D01*
X122637634Y-67141380D01*
X122749034Y-67469685D01*
X122858286Y-67674079D01*
X123135469Y-67784926D01*
X124180395Y-66740000D01*
X123135469Y-65695074D01*
X122858286Y-65805921D01*
X122704911Y-66116840D01*
X122615140Y-66451705D01*
X122592424Y-66797650D01*
X121277000Y-66797650D01*
X121277000Y-62884531D01*
X123315074Y-62884531D01*
X123425921Y-63161714D01*
X123736840Y-63315089D01*
X124071705Y-63404860D01*
X124417650Y-63427576D01*
X124761380Y-63382366D01*
X124807629Y-63366673D01*
X124734544Y-63543116D01*
X124648000Y-63978197D01*
X124648000Y-64421803D01*
X124734544Y-64856884D01*
X124809738Y-65038420D01*
X124648295Y-64995140D01*
X124302350Y-64972424D01*
X123958620Y-65017634D01*
X123630315Y-65129034D01*
X123425921Y-65238286D01*
X123315074Y-65515469D01*
X124360000Y-66560395D01*
X124374143Y-66546253D01*
X124553748Y-66725858D01*
X124539605Y-66740000D01*
X125584531Y-67784926D01*
X125861714Y-67674079D01*
X126015089Y-67363160D01*
X126104860Y-67028295D01*
X126127576Y-66682350D01*
X126082366Y-66338620D01*
X126066673Y-66292371D01*
X126243116Y-66365456D01*
X126678197Y-66452000D01*
X127121803Y-66452000D01*
X127556884Y-66365456D01*
X127738420Y-66290262D01*
X127695140Y-66451705D01*
X127672424Y-66797650D01*
X127717634Y-67141380D01*
X127829034Y-67469685D01*
X127938286Y-67674079D01*
X128215469Y-67784926D01*
X129260395Y-66740000D01*
X129619605Y-66740000D01*
X130664531Y-67784926D01*
X130941714Y-67674079D01*
X131095089Y-67363160D01*
X131184860Y-67028295D01*
X131207576Y-66682350D01*
X131168993Y-66389000D01*
X140523000Y-66389000D01*
X140523000Y-66611000D01*
X140566310Y-66828734D01*
X140651266Y-67033835D01*
X140774602Y-67218421D01*
X140931579Y-67375398D01*
X141116165Y-67498734D01*
X141321266Y-67583690D01*
X141539000Y-67627000D01*
X141761000Y-67627000D01*
X141978734Y-67583690D01*
X141987642Y-67580000D01*
X148352000Y-67580000D01*
X148352000Y-67802000D01*
X148395310Y-68019734D01*
X148480266Y-68224835D01*
X148603602Y-68409421D01*
X148760579Y-68566398D01*
X148945165Y-68689734D01*
X149150266Y-68774690D01*
X149368000Y-68818000D01*
X149590000Y-68818000D01*
X149807734Y-68774690D01*
X150012835Y-68689734D01*
X150197421Y-68566398D01*
X150354398Y-68409421D01*
X150477734Y-68224835D01*
X150516187Y-68132000D01*
X154873000Y-68132000D01*
X154873000Y-68354000D01*
X154916310Y-68571734D01*
X155001266Y-68776835D01*
X155124602Y-68961421D01*
X155281579Y-69118398D01*
X155466165Y-69241734D01*
X155671266Y-69326690D01*
X155889000Y-69370000D01*
X156111000Y-69370000D01*
X156328734Y-69326690D01*
X156533835Y-69241734D01*
X156718421Y-69118398D01*
X156875398Y-68961421D01*
X156998734Y-68776835D01*
X157083690Y-68571734D01*
X157127000Y-68354000D01*
X157127000Y-68132000D01*
X157118248Y-68088000D01*
X161433000Y-68088000D01*
X161433000Y-68310000D01*
X161476310Y-68527734D01*
X161561266Y-68732835D01*
X161684602Y-68917421D01*
X161841579Y-69074398D01*
X162026165Y-69197734D01*
X162231266Y-69282690D01*
X162449000Y-69326000D01*
X162671000Y-69326000D01*
X162888734Y-69282690D01*
X163093835Y-69197734D01*
X163278421Y-69074398D01*
X163435398Y-68917421D01*
X163558734Y-68732835D01*
X163643690Y-68527734D01*
X163687000Y-68310000D01*
X163687000Y-68088000D01*
X163643690Y-67870266D01*
X163558734Y-67665165D01*
X163435398Y-67480579D01*
X163278421Y-67323602D01*
X163093835Y-67200266D01*
X162888734Y-67115310D01*
X162671000Y-67072000D01*
X162449000Y-67072000D01*
X162231266Y-67115310D01*
X162026165Y-67200266D01*
X161841579Y-67323602D01*
X161684602Y-67480579D01*
X161561266Y-67665165D01*
X161476310Y-67870266D01*
X161433000Y-68088000D01*
X157118248Y-68088000D01*
X157083690Y-67914266D01*
X156998734Y-67709165D01*
X156875398Y-67524579D01*
X156718421Y-67367602D01*
X156533835Y-67244266D01*
X156328734Y-67159310D01*
X156111000Y-67116000D01*
X155889000Y-67116000D01*
X155671266Y-67159310D01*
X155466165Y-67244266D01*
X155281579Y-67367602D01*
X155124602Y-67524579D01*
X155001266Y-67709165D01*
X154916310Y-67914266D01*
X154873000Y-68132000D01*
X150516187Y-68132000D01*
X150562690Y-68019734D01*
X150606000Y-67802000D01*
X150606000Y-67580000D01*
X150562690Y-67362266D01*
X150477734Y-67157165D01*
X150354398Y-66972579D01*
X150270819Y-66889000D01*
X183373000Y-66889000D01*
X183373000Y-67111000D01*
X183416310Y-67328734D01*
X183501266Y-67533835D01*
X183624602Y-67718421D01*
X183781579Y-67875398D01*
X183966165Y-67998734D01*
X184171266Y-68083690D01*
X184389000Y-68127000D01*
X184611000Y-68127000D01*
X184828734Y-68083690D01*
X185033835Y-67998734D01*
X185218421Y-67875398D01*
X185375398Y-67718421D01*
X185498734Y-67533835D01*
X185583690Y-67328734D01*
X185601539Y-67239000D01*
X189873000Y-67239000D01*
X189873000Y-67461000D01*
X189916310Y-67678734D01*
X190001266Y-67883835D01*
X190124602Y-68068421D01*
X190281579Y-68225398D01*
X190466165Y-68348734D01*
X190671266Y-68433690D01*
X190889000Y-68477000D01*
X191111000Y-68477000D01*
X191328734Y-68433690D01*
X191533835Y-68348734D01*
X191718421Y-68225398D01*
X191875398Y-68068421D01*
X191998734Y-67883835D01*
X192083690Y-67678734D01*
X192127000Y-67461000D01*
X192127000Y-67239000D01*
X192083690Y-67021266D01*
X191998734Y-66816165D01*
X191875398Y-66631579D01*
X191718421Y-66474602D01*
X191533835Y-66351266D01*
X191328734Y-66266310D01*
X191111000Y-66223000D01*
X190889000Y-66223000D01*
X190671266Y-66266310D01*
X190466165Y-66351266D01*
X190281579Y-66474602D01*
X190124602Y-66631579D01*
X190001266Y-66816165D01*
X189916310Y-67021266D01*
X189873000Y-67239000D01*
X185601539Y-67239000D01*
X185627000Y-67111000D01*
X185627000Y-66889000D01*
X185583690Y-66671266D01*
X185498734Y-66466165D01*
X185375398Y-66281579D01*
X185218421Y-66124602D01*
X185033835Y-66001266D01*
X184828734Y-65916310D01*
X184611000Y-65873000D01*
X184389000Y-65873000D01*
X184171266Y-65916310D01*
X183966165Y-66001266D01*
X183781579Y-66124602D01*
X183624602Y-66281579D01*
X183501266Y-66466165D01*
X183416310Y-66671266D01*
X183373000Y-66889000D01*
X150270819Y-66889000D01*
X150197421Y-66815602D01*
X150012835Y-66692266D01*
X149807734Y-66607310D01*
X149590000Y-66564000D01*
X149368000Y-66564000D01*
X149150266Y-66607310D01*
X148945165Y-66692266D01*
X148760579Y-66815602D01*
X148603602Y-66972579D01*
X148480266Y-67157165D01*
X148395310Y-67362266D01*
X148352000Y-67580000D01*
X141987642Y-67580000D01*
X142183835Y-67498734D01*
X142368421Y-67375398D01*
X142525398Y-67218421D01*
X142648734Y-67033835D01*
X142733690Y-66828734D01*
X142777000Y-66611000D01*
X142777000Y-66389000D01*
X142733690Y-66171266D01*
X142648734Y-65966165D01*
X142525398Y-65781579D01*
X142368421Y-65624602D01*
X142183835Y-65501266D01*
X141978734Y-65416310D01*
X141761000Y-65373000D01*
X141539000Y-65373000D01*
X141321266Y-65416310D01*
X141116165Y-65501266D01*
X140931579Y-65624602D01*
X140774602Y-65781579D01*
X140651266Y-65966165D01*
X140566310Y-66171266D01*
X140523000Y-66389000D01*
X131168993Y-66389000D01*
X131162366Y-66338620D01*
X131050966Y-66010315D01*
X130941714Y-65805921D01*
X130664531Y-65695074D01*
X129619605Y-66740000D01*
X129260395Y-66740000D01*
X129246253Y-66725858D01*
X129425858Y-66546253D01*
X129440000Y-66560395D01*
X130484926Y-65515469D01*
X130374079Y-65238286D01*
X130063160Y-65084911D01*
X129728295Y-64995140D01*
X129634789Y-64989000D01*
X151673000Y-64989000D01*
X151673000Y-65211000D01*
X151716310Y-65428734D01*
X151801266Y-65633835D01*
X151924602Y-65818421D01*
X152081579Y-65975398D01*
X152266165Y-66098734D01*
X152471266Y-66183690D01*
X152689000Y-66227000D01*
X152911000Y-66227000D01*
X153128734Y-66183690D01*
X153333835Y-66098734D01*
X153518421Y-65975398D01*
X153675398Y-65818421D01*
X153798734Y-65633835D01*
X153883690Y-65428734D01*
X153927000Y-65211000D01*
X153927000Y-64989000D01*
X153911883Y-64913000D01*
X156353000Y-64913000D01*
X156353000Y-65135000D01*
X156396310Y-65352734D01*
X156481266Y-65557835D01*
X156604602Y-65742421D01*
X156761579Y-65899398D01*
X156946165Y-66022734D01*
X157151266Y-66107690D01*
X157369000Y-66151000D01*
X157591000Y-66151000D01*
X157808734Y-66107690D01*
X158013835Y-66022734D01*
X158198421Y-65899398D01*
X158355398Y-65742421D01*
X158478734Y-65557835D01*
X158563690Y-65352734D01*
X158575372Y-65294000D01*
X165497000Y-65294000D01*
X165497000Y-65516000D01*
X165540310Y-65733734D01*
X165625266Y-65938835D01*
X165748602Y-66123421D01*
X165905579Y-66280398D01*
X166090165Y-66403734D01*
X166295266Y-66488690D01*
X166513000Y-66532000D01*
X166735000Y-66532000D01*
X166952734Y-66488690D01*
X167157835Y-66403734D01*
X167342421Y-66280398D01*
X167499398Y-66123421D01*
X167622734Y-65938835D01*
X167707690Y-65733734D01*
X167751000Y-65516000D01*
X167751000Y-65294000D01*
X167707690Y-65076266D01*
X167622734Y-64871165D01*
X167499398Y-64686579D01*
X167342421Y-64529602D01*
X167157835Y-64406266D01*
X166952734Y-64321310D01*
X166735000Y-64278000D01*
X166513000Y-64278000D01*
X166295266Y-64321310D01*
X166090165Y-64406266D01*
X165905579Y-64529602D01*
X165748602Y-64686579D01*
X165625266Y-64871165D01*
X165540310Y-65076266D01*
X165497000Y-65294000D01*
X158575372Y-65294000D01*
X158607000Y-65135000D01*
X158607000Y-64913000D01*
X158563690Y-64695266D01*
X158478734Y-64490165D01*
X158355398Y-64305579D01*
X158198421Y-64148602D01*
X158013835Y-64025266D01*
X157935760Y-63992926D01*
X181855616Y-63992926D01*
X181855616Y-64214926D01*
X181898926Y-64432660D01*
X181983882Y-64637761D01*
X182107218Y-64822347D01*
X182264195Y-64979324D01*
X182448781Y-65102660D01*
X182653882Y-65187616D01*
X182871616Y-65230926D01*
X183093616Y-65230926D01*
X183311350Y-65187616D01*
X183516451Y-65102660D01*
X183701037Y-64979324D01*
X183858014Y-64822347D01*
X183981350Y-64637761D01*
X184066306Y-64432660D01*
X184109616Y-64214926D01*
X184109616Y-63992926D01*
X184066306Y-63775192D01*
X183981350Y-63570091D01*
X183858014Y-63385505D01*
X183701037Y-63228528D01*
X183516451Y-63105192D01*
X183311350Y-63020236D01*
X183093616Y-62976926D01*
X182871616Y-62976926D01*
X182653882Y-63020236D01*
X182448781Y-63105192D01*
X182264195Y-63228528D01*
X182107218Y-63385505D01*
X181983882Y-63570091D01*
X181898926Y-63775192D01*
X181855616Y-63992926D01*
X157935760Y-63992926D01*
X157808734Y-63940310D01*
X157591000Y-63897000D01*
X157369000Y-63897000D01*
X157151266Y-63940310D01*
X156946165Y-64025266D01*
X156761579Y-64148602D01*
X156604602Y-64305579D01*
X156481266Y-64490165D01*
X156396310Y-64695266D01*
X156353000Y-64913000D01*
X153911883Y-64913000D01*
X153883690Y-64771266D01*
X153798734Y-64566165D01*
X153675398Y-64381579D01*
X153518421Y-64224602D01*
X153333835Y-64101266D01*
X153128734Y-64016310D01*
X152911000Y-63973000D01*
X152689000Y-63973000D01*
X152471266Y-64016310D01*
X152266165Y-64101266D01*
X152081579Y-64224602D01*
X151924602Y-64381579D01*
X151801266Y-64566165D01*
X151716310Y-64771266D01*
X151673000Y-64989000D01*
X129634789Y-64989000D01*
X129382350Y-64972424D01*
X129038620Y-65017634D01*
X128992371Y-65033327D01*
X129065456Y-64856884D01*
X129152000Y-64421803D01*
X129152000Y-63978197D01*
X129065456Y-63543116D01*
X128990262Y-63361580D01*
X129151705Y-63404860D01*
X129497650Y-63427576D01*
X129841380Y-63382366D01*
X130169685Y-63270966D01*
X130374079Y-63161714D01*
X130484926Y-62884531D01*
X129440000Y-61839605D01*
X129425858Y-61853748D01*
X129246253Y-61674143D01*
X129260395Y-61660000D01*
X129619605Y-61660000D01*
X130664531Y-62704926D01*
X130941714Y-62594079D01*
X131095089Y-62283160D01*
X131184860Y-61948295D01*
X131197289Y-61759001D01*
X168926000Y-61759001D01*
X168926000Y-61981001D01*
X168969310Y-62198735D01*
X169054266Y-62403836D01*
X169177602Y-62588422D01*
X169334579Y-62745399D01*
X169519165Y-62868735D01*
X169724266Y-62953691D01*
X169942000Y-62997001D01*
X170164000Y-62997001D01*
X170381734Y-62953691D01*
X170586835Y-62868735D01*
X170771421Y-62745399D01*
X170928398Y-62588422D01*
X171051734Y-62403836D01*
X171136690Y-62198735D01*
X171180000Y-61981001D01*
X171180000Y-61759001D01*
X171136690Y-61541267D01*
X171051734Y-61336166D01*
X170928398Y-61151580D01*
X170771421Y-60994603D01*
X170586835Y-60871267D01*
X170381734Y-60786311D01*
X170164000Y-60743001D01*
X169942000Y-60743001D01*
X169724266Y-60786311D01*
X169519165Y-60871267D01*
X169334579Y-60994603D01*
X169177602Y-61151580D01*
X169054266Y-61336166D01*
X168969310Y-61541267D01*
X168926000Y-61759001D01*
X131197289Y-61759001D01*
X131207576Y-61602350D01*
X131162366Y-61258620D01*
X131050966Y-60930315D01*
X130941714Y-60725921D01*
X130664531Y-60615074D01*
X129619605Y-61660000D01*
X129260395Y-61660000D01*
X128215469Y-60615074D01*
X127938286Y-60725921D01*
X127784911Y-61036840D01*
X127695140Y-61371705D01*
X127672424Y-61717650D01*
X127717634Y-62061380D01*
X127733327Y-62107629D01*
X127556884Y-62034544D01*
X127121803Y-61948000D01*
X126678197Y-61948000D01*
X126243116Y-62034544D01*
X126061580Y-62109738D01*
X126104860Y-61948295D01*
X126127576Y-61602350D01*
X126082366Y-61258620D01*
X125970966Y-60930315D01*
X125861714Y-60725921D01*
X125584531Y-60615074D01*
X124539605Y-61660000D01*
X124553748Y-61674143D01*
X124374143Y-61853748D01*
X124360000Y-61839605D01*
X123315074Y-62884531D01*
X121277000Y-62884531D01*
X121277000Y-61717650D01*
X122592424Y-61717650D01*
X122637634Y-62061380D01*
X122749034Y-62389685D01*
X122858286Y-62594079D01*
X123135469Y-62704926D01*
X124180395Y-61660000D01*
X123135469Y-60615074D01*
X122858286Y-60725921D01*
X122704911Y-61036840D01*
X122615140Y-61371705D01*
X122592424Y-61717650D01*
X121277000Y-61717650D01*
X121277000Y-60435469D01*
X123315074Y-60435469D01*
X124360000Y-61480395D01*
X125404926Y-60435469D01*
X128395074Y-60435469D01*
X129440000Y-61480395D01*
X130484926Y-60435469D01*
X130374079Y-60158286D01*
X130063160Y-60004911D01*
X129728295Y-59915140D01*
X129382350Y-59892424D01*
X129038620Y-59937634D01*
X128710315Y-60049034D01*
X128505921Y-60158286D01*
X128395074Y-60435469D01*
X125404926Y-60435469D01*
X125294079Y-60158286D01*
X124983160Y-60004911D01*
X124648295Y-59915140D01*
X124302350Y-59892424D01*
X123958620Y-59937634D01*
X123630315Y-60049034D01*
X123425921Y-60158286D01*
X123315074Y-60435469D01*
X121277000Y-60435469D01*
X121277000Y-59538006D01*
X121284903Y-59457406D01*
X121297270Y-59416444D01*
X121317363Y-59378655D01*
X121344410Y-59345491D01*
X121377382Y-59318215D01*
X121415027Y-59297860D01*
X121455913Y-59285204D01*
X121533967Y-59277000D01*
X124538166Y-59277000D01*
X124571311Y-59273735D01*
X124577404Y-59273778D01*
X124588202Y-59272719D01*
X124782299Y-59252318D01*
X124851268Y-59238160D01*
X124920456Y-59224962D01*
X124930842Y-59221827D01*
X125117280Y-59164115D01*
X125182213Y-59136820D01*
X125247495Y-59110444D01*
X125257075Y-59105351D01*
X125428752Y-59012526D01*
X125487151Y-58973135D01*
X125546065Y-58934583D01*
X125554473Y-58927726D01*
X125704850Y-58803322D01*
X125754446Y-58753378D01*
X125804787Y-58704080D01*
X125811703Y-58695721D01*
X125935053Y-58544479D01*
X125974021Y-58485827D01*
X126013811Y-58427714D01*
X126018972Y-58418171D01*
X126110597Y-58245848D01*
X126137427Y-58180753D01*
X126165175Y-58116011D01*
X126168383Y-58105647D01*
X126224792Y-57918811D01*
X126238473Y-57849719D01*
X126242876Y-57829000D01*
X170323000Y-57829000D01*
X170323000Y-58051000D01*
X170366310Y-58268734D01*
X170451266Y-58473835D01*
X170574602Y-58658421D01*
X170731579Y-58815398D01*
X170916165Y-58938734D01*
X171121266Y-59023690D01*
X171339000Y-59067000D01*
X171561000Y-59067000D01*
X171778734Y-59023690D01*
X171983835Y-58938734D01*
X172168421Y-58815398D01*
X172325398Y-58658421D01*
X172448734Y-58473835D01*
X172533690Y-58268734D01*
X172577000Y-58051000D01*
X172577000Y-57829000D01*
X172533690Y-57611266D01*
X172454465Y-57420000D01*
X172863000Y-57420000D01*
X172863000Y-57642000D01*
X172906310Y-57859734D01*
X172991266Y-58064835D01*
X173114602Y-58249421D01*
X173271579Y-58406398D01*
X173456165Y-58529734D01*
X173661266Y-58614690D01*
X173879000Y-58658000D01*
X174101000Y-58658000D01*
X174318734Y-58614690D01*
X174523835Y-58529734D01*
X174708421Y-58406398D01*
X174865398Y-58249421D01*
X174988734Y-58064835D01*
X175073690Y-57859734D01*
X175117000Y-57642000D01*
X175117000Y-57420000D01*
X175073690Y-57202266D01*
X174988734Y-56997165D01*
X174865398Y-56812579D01*
X174708421Y-56655602D01*
X174523835Y-56532266D01*
X174318734Y-56447310D01*
X174101000Y-56404000D01*
X173879000Y-56404000D01*
X173661266Y-56447310D01*
X173456165Y-56532266D01*
X173271579Y-56655602D01*
X173114602Y-56812579D01*
X172991266Y-56997165D01*
X172906310Y-57202266D01*
X172863000Y-57420000D01*
X172454465Y-57420000D01*
X172448734Y-57406165D01*
X172325398Y-57221579D01*
X172168421Y-57064602D01*
X171983835Y-56941266D01*
X171778734Y-56856310D01*
X171746885Y-56849975D01*
X171828734Y-56833694D01*
X172033835Y-56748738D01*
X172218421Y-56625402D01*
X172375398Y-56468425D01*
X172498734Y-56283839D01*
X172583690Y-56078738D01*
X172627000Y-55861004D01*
X172627000Y-55639004D01*
X172583690Y-55421270D01*
X172498734Y-55216169D01*
X172375398Y-55031583D01*
X172257818Y-54914003D01*
X174097997Y-54914003D01*
X174097997Y-55136003D01*
X174141307Y-55353737D01*
X174226263Y-55558838D01*
X174349599Y-55743424D01*
X174506576Y-55900401D01*
X174691162Y-56023737D01*
X174896263Y-56108693D01*
X175113997Y-56152003D01*
X175335997Y-56152003D01*
X175553731Y-56108693D01*
X175758832Y-56023737D01*
X175943418Y-55900401D01*
X176100395Y-55743424D01*
X176223731Y-55558838D01*
X176308687Y-55353737D01*
X176351997Y-55136003D01*
X176351997Y-55065523D01*
X176517509Y-54954932D01*
X176674486Y-54797955D01*
X176797822Y-54613369D01*
X176882778Y-54408268D01*
X176926088Y-54190534D01*
X176926088Y-54037149D01*
X177048437Y-53955398D01*
X177205414Y-53798421D01*
X177328750Y-53613835D01*
X177413706Y-53408734D01*
X177457016Y-53191000D01*
X177457016Y-52969000D01*
X177415600Y-52760789D01*
X177528431Y-52685398D01*
X177685408Y-52528421D01*
X177808744Y-52343835D01*
X177893700Y-52138734D01*
X177937010Y-51921000D01*
X177937010Y-51699000D01*
X177893700Y-51481266D01*
X177808744Y-51276165D01*
X177685408Y-51091579D01*
X177528431Y-50934602D01*
X177343845Y-50811266D01*
X177138744Y-50726310D01*
X176921010Y-50683000D01*
X176699010Y-50683000D01*
X176481276Y-50726310D01*
X176276175Y-50811266D01*
X176091589Y-50934602D01*
X175934612Y-51091579D01*
X175811276Y-51276165D01*
X175726320Y-51481266D01*
X175683010Y-51699000D01*
X175683010Y-51921000D01*
X175724426Y-52129211D01*
X175611595Y-52204602D01*
X175454618Y-52361579D01*
X175331282Y-52546165D01*
X175246326Y-52751266D01*
X175203016Y-52969000D01*
X175203016Y-53122385D01*
X175080667Y-53204136D01*
X174923690Y-53361113D01*
X174800354Y-53545699D01*
X174715398Y-53750800D01*
X174672088Y-53968534D01*
X174672088Y-54039014D01*
X174506576Y-54149605D01*
X174349599Y-54306582D01*
X174226263Y-54491168D01*
X174141307Y-54696269D01*
X174097997Y-54914003D01*
X172257818Y-54914003D01*
X172218421Y-54874606D01*
X172033835Y-54751270D01*
X171828734Y-54666314D01*
X171611000Y-54623004D01*
X171389000Y-54623004D01*
X171171266Y-54666314D01*
X170966165Y-54751270D01*
X170781579Y-54874606D01*
X170624602Y-55031583D01*
X170501266Y-55216169D01*
X170416310Y-55421270D01*
X170373000Y-55639004D01*
X170373000Y-55861004D01*
X170416310Y-56078738D01*
X170501266Y-56283839D01*
X170624602Y-56468425D01*
X170781579Y-56625402D01*
X170966165Y-56748738D01*
X171171266Y-56833694D01*
X171203115Y-56840029D01*
X171121266Y-56856310D01*
X170916165Y-56941266D01*
X170731579Y-57064602D01*
X170574602Y-57221579D01*
X170451266Y-57406165D01*
X170366310Y-57611266D01*
X170323000Y-57829000D01*
X126242876Y-57829000D01*
X126253112Y-57780846D01*
X126254247Y-57770057D01*
X126273292Y-57575823D01*
X126273292Y-57575814D01*
X126277000Y-57538166D01*
X126277000Y-48100000D01*
X127194483Y-48100000D01*
X127194483Y-49450000D01*
X127208520Y-49592517D01*
X127250090Y-49729557D01*
X127317597Y-49855853D01*
X127408446Y-49966554D01*
X127437876Y-49990707D01*
X127357563Y-50110904D01*
X127251878Y-50366052D01*
X127198000Y-50636915D01*
X127198000Y-50913085D01*
X127251878Y-51183948D01*
X127357563Y-51439096D01*
X127510995Y-51668723D01*
X127617272Y-51775000D01*
X127510995Y-51881277D01*
X127357563Y-52110904D01*
X127251878Y-52366052D01*
X127198000Y-52636915D01*
X127198000Y-52913085D01*
X127251878Y-53183948D01*
X127357563Y-53439096D01*
X127510995Y-53668723D01*
X127706277Y-53864005D01*
X127935904Y-54017437D01*
X128191052Y-54123122D01*
X128461915Y-54177000D01*
X128738085Y-54177000D01*
X129008948Y-54123122D01*
X129264096Y-54017437D01*
X129493723Y-53864005D01*
X129689005Y-53668723D01*
X129842437Y-53439096D01*
X129948122Y-53183948D01*
X130002000Y-52913085D01*
X130002000Y-52636915D01*
X129948122Y-52366052D01*
X129842437Y-52110904D01*
X129689005Y-51881277D01*
X129582728Y-51775000D01*
X129689005Y-51668723D01*
X129842437Y-51439096D01*
X129948122Y-51183948D01*
X130002000Y-50913085D01*
X130002000Y-50739000D01*
X160023000Y-50739000D01*
X160023000Y-50961000D01*
X160066310Y-51178734D01*
X160151266Y-51383835D01*
X160274602Y-51568421D01*
X160431579Y-51725398D01*
X160616165Y-51848734D01*
X160821266Y-51933690D01*
X161039000Y-51977000D01*
X161261000Y-51977000D01*
X161478734Y-51933690D01*
X161683835Y-51848734D01*
X161868421Y-51725398D01*
X162025398Y-51568421D01*
X162148734Y-51383835D01*
X162233690Y-51178734D01*
X162277000Y-50961000D01*
X162277000Y-50739000D01*
X162233690Y-50521266D01*
X162148734Y-50316165D01*
X162025398Y-50131579D01*
X161868421Y-49974602D01*
X161683835Y-49851266D01*
X161478734Y-49766310D01*
X161261000Y-49723000D01*
X161039000Y-49723000D01*
X160821266Y-49766310D01*
X160616165Y-49851266D01*
X160431579Y-49974602D01*
X160274602Y-50131579D01*
X160151266Y-50316165D01*
X160066310Y-50521266D01*
X160023000Y-50739000D01*
X130002000Y-50739000D01*
X130002000Y-50636915D01*
X129948122Y-50366052D01*
X129842437Y-50110904D01*
X129762124Y-49990707D01*
X129791554Y-49966554D01*
X129882403Y-49855853D01*
X129949910Y-49729557D01*
X129991480Y-49592517D01*
X130005517Y-49450000D01*
X130005517Y-48100000D01*
X129991480Y-47957483D01*
X129949910Y-47820443D01*
X129882403Y-47694147D01*
X129791554Y-47583446D01*
X129680853Y-47492597D01*
X129554557Y-47425090D01*
X129417517Y-47383520D01*
X129275000Y-47369483D01*
X127925000Y-47369483D01*
X127782483Y-47383520D01*
X127645443Y-47425090D01*
X127519147Y-47492597D01*
X127408446Y-47583446D01*
X127317597Y-47694147D01*
X127250090Y-47820443D01*
X127208520Y-47957483D01*
X127194483Y-48100000D01*
X126277000Y-48100000D01*
X126277000Y-47189000D01*
X169073000Y-47189000D01*
X169073000Y-47411000D01*
X169116310Y-47628734D01*
X169201266Y-47833835D01*
X169324602Y-48018421D01*
X169356181Y-48050000D01*
X169324602Y-48081579D01*
X169201266Y-48266165D01*
X169116310Y-48471266D01*
X169073000Y-48689000D01*
X169073000Y-48911000D01*
X169116310Y-49128734D01*
X169201266Y-49333835D01*
X169278885Y-49450000D01*
X169201266Y-49566165D01*
X169116310Y-49771266D01*
X169073000Y-49989000D01*
X169073000Y-50211000D01*
X169116310Y-50428734D01*
X169201266Y-50633835D01*
X169324602Y-50818421D01*
X169481579Y-50975398D01*
X169666165Y-51098734D01*
X169871266Y-51183690D01*
X170089000Y-51227000D01*
X170311000Y-51227000D01*
X170528734Y-51183690D01*
X170733835Y-51098734D01*
X170918421Y-50975398D01*
X171075398Y-50818421D01*
X171198734Y-50633835D01*
X171283690Y-50428734D01*
X171327000Y-50211000D01*
X171327000Y-49989000D01*
X171283690Y-49771266D01*
X171198734Y-49566165D01*
X171121115Y-49450000D01*
X171198734Y-49333835D01*
X171283690Y-49128734D01*
X171327000Y-48911000D01*
X171327000Y-48689000D01*
X171283690Y-48471266D01*
X171198734Y-48266165D01*
X171075398Y-48081579D01*
X171043819Y-48050000D01*
X171075398Y-48018421D01*
X171095056Y-47989000D01*
X177990394Y-47989000D01*
X177990394Y-48211000D01*
X178033704Y-48428734D01*
X178118660Y-48633835D01*
X178241996Y-48818421D01*
X178398973Y-48975398D01*
X178583559Y-49098734D01*
X178788660Y-49183690D01*
X178885730Y-49202998D01*
X178919214Y-49283835D01*
X179042550Y-49468421D01*
X179199527Y-49625398D01*
X179384113Y-49748734D01*
X179589214Y-49833690D01*
X179675470Y-49850847D01*
X179751266Y-50033835D01*
X179874602Y-50218421D01*
X180031579Y-50375398D01*
X180216165Y-50498734D01*
X180421266Y-50583690D01*
X180639000Y-50627000D01*
X180861000Y-50627000D01*
X181078734Y-50583690D01*
X181283835Y-50498734D01*
X181468421Y-50375398D01*
X181625398Y-50218421D01*
X181748734Y-50033835D01*
X181833690Y-49828734D01*
X181877000Y-49611000D01*
X181877000Y-49389000D01*
X181833690Y-49171266D01*
X181748734Y-48966165D01*
X181625398Y-48781579D01*
X181570709Y-48726890D01*
X188058524Y-48726890D01*
X188103175Y-48874099D01*
X188228359Y-49136920D01*
X188402412Y-49370269D01*
X188618645Y-49565178D01*
X188868748Y-49714157D01*
X189143109Y-49811481D01*
X189373000Y-49690814D01*
X189373000Y-48497000D01*
X189627000Y-48497000D01*
X189627000Y-49690814D01*
X189856891Y-49811481D01*
X190131252Y-49714157D01*
X190381355Y-49565178D01*
X190597588Y-49370269D01*
X190771641Y-49136920D01*
X190896825Y-48874099D01*
X190941476Y-48726890D01*
X190820155Y-48497000D01*
X189627000Y-48497000D01*
X189373000Y-48497000D01*
X188179845Y-48497000D01*
X188058524Y-48726890D01*
X181570709Y-48726890D01*
X181468421Y-48624602D01*
X181283835Y-48501266D01*
X181078734Y-48416310D01*
X180992478Y-48399153D01*
X180916682Y-48216165D01*
X180793346Y-48031579D01*
X180636369Y-47874602D01*
X180451783Y-47751266D01*
X180246682Y-47666310D01*
X180149612Y-47647002D01*
X180116128Y-47566165D01*
X179992792Y-47381579D01*
X179835815Y-47224602D01*
X179651229Y-47101266D01*
X179446128Y-47016310D01*
X179228394Y-46973000D01*
X179006394Y-46973000D01*
X178788660Y-47016310D01*
X178583559Y-47101266D01*
X178398973Y-47224602D01*
X178241996Y-47381579D01*
X178118660Y-47566165D01*
X178033704Y-47771266D01*
X177990394Y-47989000D01*
X171095056Y-47989000D01*
X171198734Y-47833835D01*
X171283690Y-47628734D01*
X171327000Y-47411000D01*
X171327000Y-47189000D01*
X171283690Y-46971266D01*
X171198734Y-46766165D01*
X171075398Y-46581579D01*
X170918421Y-46424602D01*
X170733835Y-46301266D01*
X170528734Y-46216310D01*
X170311000Y-46173000D01*
X170089000Y-46173000D01*
X169871266Y-46216310D01*
X169666165Y-46301266D01*
X169481579Y-46424602D01*
X169324602Y-46581579D01*
X169201266Y-46766165D01*
X169116310Y-46971266D01*
X169073000Y-47189000D01*
X126277000Y-47189000D01*
X126277000Y-45389000D01*
X135573000Y-45389000D01*
X135573000Y-45611000D01*
X135616310Y-45828734D01*
X135701266Y-46033835D01*
X135824602Y-46218421D01*
X135981579Y-46375398D01*
X136166165Y-46498734D01*
X136371266Y-46583690D01*
X136589000Y-46627000D01*
X136811000Y-46627000D01*
X137028734Y-46583690D01*
X137233835Y-46498734D01*
X137418421Y-46375398D01*
X137575398Y-46218421D01*
X137698734Y-46033835D01*
X137783690Y-45828734D01*
X137827000Y-45611000D01*
X137827000Y-45389000D01*
X137783690Y-45171266D01*
X137698734Y-44966165D01*
X137575398Y-44781579D01*
X137418421Y-44624602D01*
X137233835Y-44501266D01*
X137028734Y-44416310D01*
X136811000Y-44373000D01*
X136589000Y-44373000D01*
X136371266Y-44416310D01*
X136166165Y-44501266D01*
X135981579Y-44624602D01*
X135824602Y-44781579D01*
X135701266Y-44966165D01*
X135616310Y-45171266D01*
X135573000Y-45389000D01*
X126277000Y-45389000D01*
X126277000Y-42461834D01*
X126273735Y-42428689D01*
X126273778Y-42422595D01*
X126272719Y-42411798D01*
X126252318Y-42217701D01*
X126238160Y-42148732D01*
X126224962Y-42079544D01*
X126221826Y-42069157D01*
X126164115Y-41882720D01*
X126136830Y-41817812D01*
X126110444Y-41752504D01*
X126105351Y-41742925D01*
X126012526Y-41571248D01*
X125973118Y-41512823D01*
X125934582Y-41453935D01*
X125927726Y-41445527D01*
X125803322Y-41295149D01*
X125753343Y-41245518D01*
X125704080Y-41195213D01*
X125695721Y-41188297D01*
X125573971Y-41089000D01*
X169573000Y-41089000D01*
X169573000Y-41311000D01*
X169616310Y-41528734D01*
X169701266Y-41733835D01*
X169824602Y-41918421D01*
X169981579Y-42075398D01*
X170166165Y-42198734D01*
X170353699Y-42276413D01*
X170281579Y-42324602D01*
X170124602Y-42481579D01*
X170001266Y-42666165D01*
X169916310Y-42871266D01*
X169873000Y-43089000D01*
X169873000Y-43311000D01*
X169916310Y-43528734D01*
X170001266Y-43733835D01*
X170124602Y-43918421D01*
X170281579Y-44075398D01*
X170466165Y-44198734D01*
X170671266Y-44283690D01*
X170889000Y-44327000D01*
X171111000Y-44327000D01*
X171328734Y-44283690D01*
X171533835Y-44198734D01*
X171718421Y-44075398D01*
X171875398Y-43918421D01*
X171998734Y-43733835D01*
X172083690Y-43528734D01*
X172127000Y-43311000D01*
X172127000Y-43089000D01*
X172083690Y-42871266D01*
X171998734Y-42666165D01*
X171875398Y-42481579D01*
X171718421Y-42324602D01*
X171533835Y-42201266D01*
X171346301Y-42123587D01*
X171418421Y-42075398D01*
X171575398Y-41918421D01*
X171698734Y-41733835D01*
X171783690Y-41528734D01*
X171827000Y-41311000D01*
X171827000Y-41089000D01*
X171783690Y-40871266D01*
X171698734Y-40666165D01*
X171575398Y-40481579D01*
X171418421Y-40324602D01*
X171233835Y-40201266D01*
X171028734Y-40116310D01*
X170821055Y-40075000D01*
X181344483Y-40075000D01*
X181344483Y-41425000D01*
X181358520Y-41567517D01*
X181400090Y-41704557D01*
X181467597Y-41830853D01*
X181558446Y-41941554D01*
X181587876Y-41965707D01*
X181507563Y-42085904D01*
X181401878Y-42341052D01*
X181348000Y-42611915D01*
X181348000Y-42888085D01*
X181401878Y-43158948D01*
X181507563Y-43414096D01*
X181660995Y-43643723D01*
X181767272Y-43750000D01*
X181660995Y-43856277D01*
X181507563Y-44085904D01*
X181401878Y-44341052D01*
X181348000Y-44611915D01*
X181348000Y-44888085D01*
X181401878Y-45158948D01*
X181507563Y-45414096D01*
X181660995Y-45643723D01*
X181856277Y-45839005D01*
X182085904Y-45992437D01*
X182341052Y-46098122D01*
X182611915Y-46152000D01*
X182888085Y-46152000D01*
X183158948Y-46098122D01*
X183414096Y-45992437D01*
X183643723Y-45839005D01*
X183839005Y-45643723D01*
X183992437Y-45414096D01*
X184098122Y-45158948D01*
X184152000Y-44888085D01*
X184152000Y-44611915D01*
X184098122Y-44341052D01*
X183992437Y-44085904D01*
X183839005Y-43856277D01*
X183732728Y-43750000D01*
X183839005Y-43643723D01*
X183992437Y-43414096D01*
X184098122Y-43158948D01*
X184152000Y-42888085D01*
X184152000Y-42611915D01*
X184098122Y-42341052D01*
X183992437Y-42085904D01*
X183912124Y-41965707D01*
X183941554Y-41941554D01*
X184032403Y-41830853D01*
X184099910Y-41704557D01*
X184141480Y-41567517D01*
X184155517Y-41425000D01*
X184155517Y-40075000D01*
X184141480Y-39932483D01*
X184131627Y-39900000D01*
X187919483Y-39900000D01*
X187919483Y-41600000D01*
X187933520Y-41742517D01*
X187975090Y-41879557D01*
X188042597Y-42005853D01*
X188133446Y-42116554D01*
X188244147Y-42207403D01*
X188314681Y-42245104D01*
X188275064Y-42284721D01*
X188102481Y-42543011D01*
X187983604Y-42830006D01*
X187923000Y-43134679D01*
X187923000Y-43445321D01*
X187983604Y-43749994D01*
X188102481Y-44036989D01*
X188275064Y-44295279D01*
X188494721Y-44514936D01*
X188562164Y-44560000D01*
X188494721Y-44605064D01*
X188275064Y-44824721D01*
X188102481Y-45083011D01*
X187983604Y-45370006D01*
X187923000Y-45674679D01*
X187923000Y-45985321D01*
X187983604Y-46289994D01*
X188102481Y-46576989D01*
X188275064Y-46835279D01*
X188494721Y-47054936D01*
X188647986Y-47157344D01*
X188618645Y-47174822D01*
X188402412Y-47369731D01*
X188228359Y-47603080D01*
X188103175Y-47865901D01*
X188058524Y-48013110D01*
X188179845Y-48243000D01*
X189373000Y-48243000D01*
X189373000Y-48223000D01*
X189627000Y-48223000D01*
X189627000Y-48243000D01*
X190820155Y-48243000D01*
X190941476Y-48013110D01*
X190896825Y-47865901D01*
X190771641Y-47603080D01*
X190597588Y-47369731D01*
X190381355Y-47174822D01*
X190352014Y-47157344D01*
X190505279Y-47054936D01*
X190724936Y-46835279D01*
X190897519Y-46576989D01*
X191016396Y-46289994D01*
X191077000Y-45985321D01*
X191077000Y-45674679D01*
X191016396Y-45370006D01*
X190897519Y-45083011D01*
X190724936Y-44824721D01*
X190505279Y-44605064D01*
X190437836Y-44560000D01*
X190505279Y-44514936D01*
X190724936Y-44295279D01*
X190897519Y-44036989D01*
X191016396Y-43749994D01*
X191077000Y-43445321D01*
X191077000Y-43134679D01*
X192423000Y-43134679D01*
X192423000Y-43445321D01*
X192483604Y-43749994D01*
X192602481Y-44036989D01*
X192775064Y-44295279D01*
X192994721Y-44514936D01*
X193062164Y-44560000D01*
X192994721Y-44605064D01*
X192775064Y-44824721D01*
X192602481Y-45083011D01*
X192483604Y-45370006D01*
X192423000Y-45674679D01*
X192423000Y-45985321D01*
X192483604Y-46289994D01*
X192602481Y-46576989D01*
X192775064Y-46835279D01*
X192994721Y-47054936D01*
X193062164Y-47100000D01*
X192994721Y-47145064D01*
X192775064Y-47364721D01*
X192602481Y-47623011D01*
X192483604Y-47910006D01*
X192423000Y-48214679D01*
X192423000Y-48525321D01*
X192483604Y-48829994D01*
X192602481Y-49116989D01*
X192775064Y-49375279D01*
X192994721Y-49594936D01*
X193062164Y-49640000D01*
X192994721Y-49685064D01*
X192775064Y-49904721D01*
X192602481Y-50163011D01*
X192483604Y-50450006D01*
X192423000Y-50754679D01*
X192423000Y-51065321D01*
X192483604Y-51369994D01*
X192602481Y-51656989D01*
X192775064Y-51915279D01*
X192994721Y-52134936D01*
X193062164Y-52180000D01*
X192994721Y-52225064D01*
X192775064Y-52444721D01*
X192602481Y-52703011D01*
X192483604Y-52990006D01*
X192423000Y-53294679D01*
X192423000Y-53605321D01*
X192483604Y-53909994D01*
X192602481Y-54196989D01*
X192775064Y-54455279D01*
X192994721Y-54674936D01*
X193253011Y-54847519D01*
X193540006Y-54966396D01*
X193844679Y-55027000D01*
X194155321Y-55027000D01*
X194459994Y-54966396D01*
X194746989Y-54847519D01*
X195005279Y-54674936D01*
X195224936Y-54455279D01*
X195397519Y-54196989D01*
X195516396Y-53909994D01*
X195577000Y-53605321D01*
X195577000Y-53294679D01*
X195516396Y-52990006D01*
X195397519Y-52703011D01*
X195224936Y-52444721D01*
X195005279Y-52225064D01*
X194937836Y-52180000D01*
X195005279Y-52134936D01*
X195224936Y-51915279D01*
X195397519Y-51656989D01*
X195516396Y-51369994D01*
X195577000Y-51065321D01*
X195577000Y-50754679D01*
X195516396Y-50450006D01*
X195397519Y-50163011D01*
X195224936Y-49904721D01*
X195005279Y-49685064D01*
X194937836Y-49640000D01*
X195005279Y-49594936D01*
X195224936Y-49375279D01*
X195397519Y-49116989D01*
X195516396Y-48829994D01*
X195577000Y-48525321D01*
X195577000Y-48214679D01*
X195516396Y-47910006D01*
X195397519Y-47623011D01*
X195224936Y-47364721D01*
X195005279Y-47145064D01*
X194937836Y-47100000D01*
X195005279Y-47054936D01*
X195224936Y-46835279D01*
X195397519Y-46576989D01*
X195516396Y-46289994D01*
X195577000Y-45985321D01*
X195577000Y-45674679D01*
X195516396Y-45370006D01*
X195397519Y-45083011D01*
X195224936Y-44824721D01*
X195005279Y-44605064D01*
X194937836Y-44560000D01*
X195005279Y-44514936D01*
X195224936Y-44295279D01*
X195397519Y-44036989D01*
X195516396Y-43749994D01*
X195577000Y-43445321D01*
X195577000Y-43134679D01*
X195516396Y-42830006D01*
X195397519Y-42543011D01*
X195224936Y-42284721D01*
X195117338Y-42177123D01*
X195204494Y-42130537D01*
X195301185Y-42051185D01*
X195380537Y-41954494D01*
X195439502Y-41844180D01*
X195475812Y-41724482D01*
X195488072Y-41600000D01*
X195485000Y-41035750D01*
X195326250Y-40877000D01*
X194127000Y-40877000D01*
X194127000Y-40897000D01*
X193873000Y-40897000D01*
X193873000Y-40877000D01*
X192673750Y-40877000D01*
X192515000Y-41035750D01*
X192511928Y-41600000D01*
X192524188Y-41724482D01*
X192560498Y-41844180D01*
X192619463Y-41954494D01*
X192698815Y-42051185D01*
X192795506Y-42130537D01*
X192882662Y-42177123D01*
X192775064Y-42284721D01*
X192602481Y-42543011D01*
X192483604Y-42830006D01*
X192423000Y-43134679D01*
X191077000Y-43134679D01*
X191016396Y-42830006D01*
X190897519Y-42543011D01*
X190724936Y-42284721D01*
X190685319Y-42245104D01*
X190755853Y-42207403D01*
X190866554Y-42116554D01*
X190957403Y-42005853D01*
X191024910Y-41879557D01*
X191066480Y-41742517D01*
X191080517Y-41600000D01*
X191080517Y-39900000D01*
X192511928Y-39900000D01*
X192515000Y-40464250D01*
X192673750Y-40623000D01*
X193873000Y-40623000D01*
X193873000Y-39423750D01*
X194127000Y-39423750D01*
X194127000Y-40623000D01*
X195326250Y-40623000D01*
X195485000Y-40464250D01*
X195488072Y-39900000D01*
X195475812Y-39775518D01*
X195439502Y-39655820D01*
X195380537Y-39545506D01*
X195301185Y-39448815D01*
X195204494Y-39369463D01*
X195094180Y-39310498D01*
X194974482Y-39274188D01*
X194850000Y-39261928D01*
X194285750Y-39265000D01*
X194127000Y-39423750D01*
X193873000Y-39423750D01*
X193714250Y-39265000D01*
X193150000Y-39261928D01*
X193025518Y-39274188D01*
X192905820Y-39310498D01*
X192795506Y-39369463D01*
X192698815Y-39448815D01*
X192619463Y-39545506D01*
X192560498Y-39655820D01*
X192524188Y-39775518D01*
X192511928Y-39900000D01*
X191080517Y-39900000D01*
X191066480Y-39757483D01*
X191024910Y-39620443D01*
X190957403Y-39494147D01*
X190866554Y-39383446D01*
X190755853Y-39292597D01*
X190629557Y-39225090D01*
X190492517Y-39183520D01*
X190350000Y-39169483D01*
X188650000Y-39169483D01*
X188507483Y-39183520D01*
X188370443Y-39225090D01*
X188244147Y-39292597D01*
X188133446Y-39383446D01*
X188042597Y-39494147D01*
X187975090Y-39620443D01*
X187933520Y-39757483D01*
X187919483Y-39900000D01*
X184131627Y-39900000D01*
X184099910Y-39795443D01*
X184032403Y-39669147D01*
X183941554Y-39558446D01*
X183830853Y-39467597D01*
X183704557Y-39400090D01*
X183567517Y-39358520D01*
X183425000Y-39344483D01*
X182075000Y-39344483D01*
X181932483Y-39358520D01*
X181795443Y-39400090D01*
X181669147Y-39467597D01*
X181558446Y-39558446D01*
X181467597Y-39669147D01*
X181400090Y-39795443D01*
X181358520Y-39932483D01*
X181344483Y-40075000D01*
X170821055Y-40075000D01*
X170811000Y-40073000D01*
X170589000Y-40073000D01*
X170371266Y-40116310D01*
X170166165Y-40201266D01*
X169981579Y-40324602D01*
X169824602Y-40481579D01*
X169701266Y-40666165D01*
X169616310Y-40871266D01*
X169573000Y-41089000D01*
X125573971Y-41089000D01*
X125544479Y-41064947D01*
X125485804Y-41025964D01*
X125427714Y-40986189D01*
X125418171Y-40981029D01*
X125245849Y-40889403D01*
X125180753Y-40862573D01*
X125116012Y-40834825D01*
X125105648Y-40831617D01*
X124918811Y-40775208D01*
X124849706Y-40761525D01*
X124780846Y-40746888D01*
X124770056Y-40745753D01*
X124575823Y-40726708D01*
X124575814Y-40726708D01*
X124538166Y-40723000D01*
X121538005Y-40723000D01*
X121457407Y-40715097D01*
X121416442Y-40702729D01*
X121378656Y-40682638D01*
X121345492Y-40655590D01*
X121318214Y-40622616D01*
X121297859Y-40584971D01*
X121285204Y-40544089D01*
X121277000Y-40466033D01*
X121277000Y-39578531D01*
X123315074Y-39578531D01*
X123425921Y-39855714D01*
X123736840Y-40009089D01*
X124071705Y-40098860D01*
X124417650Y-40121576D01*
X124761380Y-40076366D01*
X125089685Y-39964966D01*
X125294079Y-39855714D01*
X125404926Y-39578531D01*
X128395074Y-39578531D01*
X128505921Y-39855714D01*
X128816840Y-40009089D01*
X129151705Y-40098860D01*
X129497650Y-40121576D01*
X129841380Y-40076366D01*
X130169685Y-39964966D01*
X130374079Y-39855714D01*
X130484926Y-39578531D01*
X129440000Y-38533605D01*
X128395074Y-39578531D01*
X125404926Y-39578531D01*
X124360000Y-38533605D01*
X123315074Y-39578531D01*
X121277000Y-39578531D01*
X121277000Y-38411650D01*
X122592424Y-38411650D01*
X122637634Y-38755380D01*
X122749034Y-39083685D01*
X122858286Y-39288079D01*
X123135469Y-39398926D01*
X124180395Y-38354000D01*
X123135469Y-37309074D01*
X122858286Y-37419921D01*
X122704911Y-37730840D01*
X122615140Y-38065705D01*
X122592424Y-38411650D01*
X121277000Y-38411650D01*
X121277000Y-34498531D01*
X123315074Y-34498531D01*
X123425921Y-34775714D01*
X123736840Y-34929089D01*
X124071705Y-35018860D01*
X124417650Y-35041576D01*
X124761380Y-34996366D01*
X124807629Y-34980673D01*
X124734544Y-35157116D01*
X124648000Y-35592197D01*
X124648000Y-36035803D01*
X124734544Y-36470884D01*
X124809738Y-36652420D01*
X124648295Y-36609140D01*
X124302350Y-36586424D01*
X123958620Y-36631634D01*
X123630315Y-36743034D01*
X123425921Y-36852286D01*
X123315074Y-37129469D01*
X124360000Y-38174395D01*
X124374143Y-38160253D01*
X124553748Y-38339858D01*
X124539605Y-38354000D01*
X125584531Y-39398926D01*
X125861714Y-39288079D01*
X126015089Y-38977160D01*
X126104860Y-38642295D01*
X126127576Y-38296350D01*
X126082366Y-37952620D01*
X126066673Y-37906371D01*
X126243116Y-37979456D01*
X126678197Y-38066000D01*
X127121803Y-38066000D01*
X127556884Y-37979456D01*
X127738420Y-37904262D01*
X127695140Y-38065705D01*
X127672424Y-38411650D01*
X127717634Y-38755380D01*
X127829034Y-39083685D01*
X127938286Y-39288079D01*
X128215469Y-39398926D01*
X129260395Y-38354000D01*
X129619605Y-38354000D01*
X130664531Y-39398926D01*
X130941714Y-39288079D01*
X131095089Y-38977160D01*
X131184860Y-38642295D01*
X131207576Y-38296350D01*
X131162366Y-37952620D01*
X131050966Y-37624315D01*
X130941714Y-37419921D01*
X130664531Y-37309074D01*
X129619605Y-38354000D01*
X129260395Y-38354000D01*
X129246253Y-38339858D01*
X129425858Y-38160253D01*
X129440000Y-38174395D01*
X130484926Y-37129469D01*
X130374079Y-36852286D01*
X130063160Y-36698911D01*
X129728295Y-36609140D01*
X129382350Y-36586424D01*
X129038620Y-36631634D01*
X128992371Y-36647327D01*
X129065456Y-36470884D01*
X129081743Y-36389000D01*
X167123000Y-36389000D01*
X167123000Y-36611000D01*
X167166310Y-36828734D01*
X167251266Y-37033835D01*
X167312180Y-37125000D01*
X167251266Y-37216165D01*
X167166310Y-37421266D01*
X167123000Y-37639000D01*
X167123000Y-37861000D01*
X167166310Y-38078734D01*
X167251266Y-38283835D01*
X167312180Y-38375000D01*
X167251266Y-38466165D01*
X167166310Y-38671266D01*
X167123000Y-38889000D01*
X167123000Y-39111000D01*
X167166310Y-39328734D01*
X167251266Y-39533835D01*
X167374602Y-39718421D01*
X167531579Y-39875398D01*
X167716165Y-39998734D01*
X167921266Y-40083690D01*
X168139000Y-40127000D01*
X168361000Y-40127000D01*
X168578734Y-40083690D01*
X168783835Y-39998734D01*
X168968421Y-39875398D01*
X169125398Y-39718421D01*
X169248734Y-39533835D01*
X169333690Y-39328734D01*
X169377000Y-39111000D01*
X169377000Y-38889000D01*
X169333690Y-38671266D01*
X169248734Y-38466165D01*
X169187820Y-38375000D01*
X169248734Y-38283835D01*
X169333690Y-38078734D01*
X169377000Y-37861000D01*
X169377000Y-37639000D01*
X169333690Y-37421266D01*
X169248734Y-37216165D01*
X169187820Y-37125000D01*
X169225000Y-37069356D01*
X169324602Y-37218421D01*
X169481579Y-37375398D01*
X169666165Y-37498734D01*
X169871266Y-37583690D01*
X170089000Y-37627000D01*
X170311000Y-37627000D01*
X170528734Y-37583690D01*
X170733835Y-37498734D01*
X170918421Y-37375398D01*
X171075398Y-37218421D01*
X171198734Y-37033835D01*
X171283690Y-36828734D01*
X171327000Y-36611000D01*
X171327000Y-36389000D01*
X171283690Y-36171266D01*
X171198734Y-35966165D01*
X171075398Y-35781579D01*
X170918421Y-35624602D01*
X170733835Y-35501266D01*
X170528734Y-35416310D01*
X170311000Y-35373000D01*
X170089000Y-35373000D01*
X169871266Y-35416310D01*
X169666165Y-35501266D01*
X169481579Y-35624602D01*
X169324602Y-35781579D01*
X169225000Y-35930644D01*
X169125398Y-35781579D01*
X168968421Y-35624602D01*
X168783835Y-35501266D01*
X168578734Y-35416310D01*
X168361000Y-35373000D01*
X168139000Y-35373000D01*
X167921266Y-35416310D01*
X167716165Y-35501266D01*
X167531579Y-35624602D01*
X167374602Y-35781579D01*
X167251266Y-35966165D01*
X167166310Y-36171266D01*
X167123000Y-36389000D01*
X129081743Y-36389000D01*
X129152000Y-36035803D01*
X129152000Y-35592197D01*
X129065456Y-35157116D01*
X128990262Y-34975580D01*
X129151705Y-35018860D01*
X129497650Y-35041576D01*
X129841380Y-34996366D01*
X130169685Y-34884966D01*
X130374079Y-34775714D01*
X130484926Y-34498531D01*
X129440000Y-33453605D01*
X129425858Y-33467748D01*
X129246253Y-33288143D01*
X129260395Y-33274000D01*
X129619605Y-33274000D01*
X130664531Y-34318926D01*
X130941714Y-34208079D01*
X131095089Y-33897160D01*
X131184860Y-33562295D01*
X131207576Y-33216350D01*
X131197403Y-33139000D01*
X190873000Y-33139000D01*
X190873000Y-33361000D01*
X190916310Y-33578734D01*
X191001266Y-33783835D01*
X191124602Y-33968421D01*
X191281579Y-34125398D01*
X191466165Y-34248734D01*
X191671266Y-34333690D01*
X191889000Y-34377000D01*
X192111000Y-34377000D01*
X192328734Y-34333690D01*
X192533835Y-34248734D01*
X192718421Y-34125398D01*
X192875398Y-33968421D01*
X192998734Y-33783835D01*
X193083690Y-33578734D01*
X193111458Y-33439133D01*
X200527972Y-33439133D01*
X200590465Y-33675450D01*
X200833178Y-33788850D01*
X201093349Y-33852719D01*
X201360982Y-33864604D01*
X201625791Y-33824048D01*
X201643523Y-33817609D01*
X202444038Y-33817609D01*
X202447909Y-33855282D01*
X202540079Y-34080533D01*
X202674422Y-34283474D01*
X202845775Y-34456307D01*
X203047554Y-34592390D01*
X203272004Y-34686493D01*
X203510500Y-34735000D01*
X203860500Y-34735000D01*
X203860500Y-33627000D01*
X202568769Y-33627000D01*
X202444038Y-33817609D01*
X201643523Y-33817609D01*
X201877600Y-33732609D01*
X201984535Y-33675450D01*
X202047028Y-33439133D01*
X201287500Y-32679605D01*
X200527972Y-33439133D01*
X193111458Y-33439133D01*
X193127000Y-33361000D01*
X193127000Y-33139000D01*
X193083690Y-32921266D01*
X192998734Y-32716165D01*
X192903397Y-32573482D01*
X199922896Y-32573482D01*
X199963452Y-32838291D01*
X200054891Y-33090100D01*
X200112050Y-33197035D01*
X200348367Y-33259528D01*
X201107895Y-32500000D01*
X201467105Y-32500000D01*
X202226633Y-33259528D01*
X202454997Y-33199138D01*
X202568769Y-33373000D01*
X203860500Y-33373000D01*
X203860500Y-32265000D01*
X203510500Y-32265000D01*
X203272004Y-32313507D01*
X203047554Y-32407610D01*
X202845775Y-32543693D01*
X202674422Y-32716526D01*
X202611329Y-32811836D01*
X202640219Y-32694151D01*
X202652104Y-32426518D01*
X202611548Y-32161709D01*
X202520109Y-31909900D01*
X202462950Y-31802965D01*
X202226633Y-31740472D01*
X201467105Y-32500000D01*
X201107895Y-32500000D01*
X200348367Y-31740472D01*
X200112050Y-31802965D01*
X199998650Y-32045678D01*
X199934781Y-32305849D01*
X199922896Y-32573482D01*
X192903397Y-32573482D01*
X192875398Y-32531579D01*
X192718421Y-32374602D01*
X192533835Y-32251266D01*
X192328734Y-32166310D01*
X192111000Y-32123000D01*
X191889000Y-32123000D01*
X191671266Y-32166310D01*
X191466165Y-32251266D01*
X191281579Y-32374602D01*
X191124602Y-32531579D01*
X191001266Y-32716165D01*
X190916310Y-32921266D01*
X190873000Y-33139000D01*
X131197403Y-33139000D01*
X131162366Y-32872620D01*
X131050966Y-32544315D01*
X130941714Y-32339921D01*
X130664531Y-32229074D01*
X129619605Y-33274000D01*
X129260395Y-33274000D01*
X128215469Y-32229074D01*
X127938286Y-32339921D01*
X127784911Y-32650840D01*
X127695140Y-32985705D01*
X127672424Y-33331650D01*
X127717634Y-33675380D01*
X127733327Y-33721629D01*
X127556884Y-33648544D01*
X127121803Y-33562000D01*
X126678197Y-33562000D01*
X126243116Y-33648544D01*
X126061580Y-33723738D01*
X126104860Y-33562295D01*
X126127576Y-33216350D01*
X126082366Y-32872620D01*
X125970966Y-32544315D01*
X125861714Y-32339921D01*
X125584531Y-32229074D01*
X124539605Y-33274000D01*
X124553748Y-33288143D01*
X124374143Y-33467748D01*
X124360000Y-33453605D01*
X123315074Y-34498531D01*
X121277000Y-34498531D01*
X121277000Y-33331650D01*
X122592424Y-33331650D01*
X122637634Y-33675380D01*
X122749034Y-34003685D01*
X122858286Y-34208079D01*
X123135469Y-34318926D01*
X124180395Y-33274000D01*
X123135469Y-32229074D01*
X122858286Y-32339921D01*
X122704911Y-32650840D01*
X122615140Y-32985705D01*
X122592424Y-33331650D01*
X121277000Y-33331650D01*
X121277000Y-32049469D01*
X123315074Y-32049469D01*
X124360000Y-33094395D01*
X125404926Y-32049469D01*
X128395074Y-32049469D01*
X129440000Y-33094395D01*
X130484926Y-32049469D01*
X130374079Y-31772286D01*
X130063160Y-31618911D01*
X129728295Y-31529140D01*
X129382350Y-31506424D01*
X129038620Y-31551634D01*
X128710315Y-31663034D01*
X128505921Y-31772286D01*
X128395074Y-32049469D01*
X125404926Y-32049469D01*
X125294079Y-31772286D01*
X124983160Y-31618911D01*
X124648295Y-31529140D01*
X124302350Y-31506424D01*
X123958620Y-31551634D01*
X123630315Y-31663034D01*
X123425921Y-31772286D01*
X123315074Y-32049469D01*
X121277000Y-32049469D01*
X121277000Y-30869000D01*
X157013000Y-30869000D01*
X157013000Y-31091000D01*
X157056310Y-31308734D01*
X157141266Y-31513835D01*
X157264602Y-31698421D01*
X157421579Y-31855398D01*
X157606165Y-31978734D01*
X157811266Y-32063690D01*
X158029000Y-32107000D01*
X158251000Y-32107000D01*
X158468734Y-32063690D01*
X158673835Y-31978734D01*
X158805000Y-31891093D01*
X158936165Y-31978734D01*
X159141266Y-32063690D01*
X159359000Y-32107000D01*
X159581000Y-32107000D01*
X159798734Y-32063690D01*
X160003835Y-31978734D01*
X160072517Y-31932842D01*
X160156165Y-31988734D01*
X160361266Y-32073690D01*
X160579000Y-32117000D01*
X160801000Y-32117000D01*
X161018734Y-32073690D01*
X161223835Y-31988734D01*
X161408421Y-31865398D01*
X161565398Y-31708421D01*
X161688734Y-31523835D01*
X161773690Y-31318734D01*
X161817000Y-31101000D01*
X161817000Y-30889000D01*
X162073000Y-30889000D01*
X162073000Y-31111000D01*
X162116310Y-31328734D01*
X162201266Y-31533835D01*
X162324602Y-31718421D01*
X162481579Y-31875398D01*
X162666165Y-31998734D01*
X162871266Y-32083690D01*
X163089000Y-32127000D01*
X163311000Y-32127000D01*
X163528734Y-32083690D01*
X163733835Y-31998734D01*
X163918421Y-31875398D01*
X164075398Y-31718421D01*
X164180671Y-31560867D01*
X200527972Y-31560867D01*
X201287500Y-32320395D01*
X202047028Y-31560867D01*
X201984535Y-31324550D01*
X201741822Y-31211150D01*
X201481651Y-31147281D01*
X201214018Y-31135396D01*
X200949209Y-31175952D01*
X200697400Y-31267391D01*
X200590465Y-31324550D01*
X200527972Y-31560867D01*
X164180671Y-31560867D01*
X164198734Y-31533835D01*
X164283690Y-31328734D01*
X164327000Y-31111000D01*
X164327000Y-30889000D01*
X164283690Y-30671266D01*
X164198734Y-30466165D01*
X164075398Y-30281579D01*
X163918421Y-30124602D01*
X163733835Y-30001266D01*
X163528734Y-29916310D01*
X163311000Y-29873000D01*
X163089000Y-29873000D01*
X162871266Y-29916310D01*
X162666165Y-30001266D01*
X162481579Y-30124602D01*
X162324602Y-30281579D01*
X162201266Y-30466165D01*
X162116310Y-30671266D01*
X162073000Y-30889000D01*
X161817000Y-30889000D01*
X161817000Y-30879000D01*
X161773690Y-30661266D01*
X161688734Y-30456165D01*
X161565398Y-30271579D01*
X161408421Y-30114602D01*
X161223835Y-29991266D01*
X161018734Y-29906310D01*
X160801000Y-29863000D01*
X160579000Y-29863000D01*
X160361266Y-29906310D01*
X160156165Y-29991266D01*
X160087483Y-30037158D01*
X160003835Y-29981266D01*
X159798734Y-29896310D01*
X159581000Y-29853000D01*
X159359000Y-29853000D01*
X159141266Y-29896310D01*
X158936165Y-29981266D01*
X158805000Y-30068907D01*
X158673835Y-29981266D01*
X158468734Y-29896310D01*
X158251000Y-29853000D01*
X158029000Y-29853000D01*
X157811266Y-29896310D01*
X157606165Y-29981266D01*
X157421579Y-30104602D01*
X157264602Y-30261579D01*
X157141266Y-30446165D01*
X157056310Y-30651266D01*
X157013000Y-30869000D01*
X121277000Y-30869000D01*
X121277000Y-29229150D01*
X174022999Y-29229150D01*
X174022999Y-29470848D01*
X174070152Y-29707902D01*
X174162646Y-29931201D01*
X174296926Y-30132166D01*
X174467832Y-30303072D01*
X174668797Y-30437352D01*
X174892096Y-30529846D01*
X175129150Y-30576999D01*
X175370848Y-30576999D01*
X175607902Y-30529846D01*
X175831201Y-30437352D01*
X176032166Y-30303072D01*
X176203072Y-30132166D01*
X176337352Y-29931201D01*
X176429846Y-29707902D01*
X176476999Y-29470848D01*
X176476999Y-29229150D01*
X176429846Y-28992096D01*
X176337352Y-28768797D01*
X176203072Y-28567832D01*
X176074373Y-28439133D01*
X200527972Y-28439133D01*
X200590465Y-28675450D01*
X200833178Y-28788850D01*
X201093349Y-28852719D01*
X201360982Y-28864604D01*
X201625791Y-28824048D01*
X201877600Y-28732609D01*
X201984535Y-28675450D01*
X202047028Y-28439133D01*
X201287500Y-27679605D01*
X200527972Y-28439133D01*
X176074373Y-28439133D01*
X176032166Y-28396926D01*
X175831201Y-28262646D01*
X175607902Y-28170152D01*
X175370848Y-28122999D01*
X175129150Y-28122999D01*
X174892096Y-28170152D01*
X174668797Y-28262646D01*
X174467832Y-28396926D01*
X174296926Y-28567832D01*
X174162646Y-28768797D01*
X174070152Y-28992096D01*
X174022999Y-29229150D01*
X121277000Y-29229150D01*
X121277000Y-25292462D01*
X121892834Y-25292462D01*
X121892834Y-25707538D01*
X121973811Y-26114638D01*
X122132653Y-26498118D01*
X122363257Y-26843240D01*
X122656760Y-27136743D01*
X123001882Y-27367347D01*
X123385362Y-27526189D01*
X123792462Y-27607166D01*
X124207538Y-27607166D01*
X124614638Y-27526189D01*
X124998118Y-27367347D01*
X125343240Y-27136743D01*
X125636743Y-26843240D01*
X125867347Y-26498118D01*
X126026189Y-26114638D01*
X126104687Y-25720000D01*
X127399483Y-25720000D01*
X127399483Y-27420000D01*
X127413520Y-27562517D01*
X127455090Y-27699557D01*
X127522597Y-27825853D01*
X127613446Y-27936554D01*
X127724147Y-28027403D01*
X127850443Y-28094910D01*
X127987483Y-28136480D01*
X128130000Y-28150517D01*
X129830000Y-28150517D01*
X129972517Y-28136480D01*
X130109557Y-28094910D01*
X130235853Y-28027403D01*
X130346554Y-27936554D01*
X130437403Y-27825853D01*
X130475104Y-27755319D01*
X130514721Y-27794936D01*
X130773011Y-27967519D01*
X131060006Y-28086396D01*
X131364679Y-28147000D01*
X131675321Y-28147000D01*
X131979994Y-28086396D01*
X132266989Y-27967519D01*
X132525279Y-27794936D01*
X132744936Y-27575279D01*
X132790000Y-27507836D01*
X132835064Y-27575279D01*
X133054721Y-27794936D01*
X133313011Y-27967519D01*
X133600006Y-28086396D01*
X133904679Y-28147000D01*
X134215321Y-28147000D01*
X134519994Y-28086396D01*
X134806989Y-27967519D01*
X135065279Y-27794936D01*
X135284936Y-27575279D01*
X135330000Y-27507836D01*
X135375064Y-27575279D01*
X135594721Y-27794936D01*
X135853011Y-27967519D01*
X136140006Y-28086396D01*
X136444679Y-28147000D01*
X136755321Y-28147000D01*
X137059994Y-28086396D01*
X137346989Y-27967519D01*
X137605279Y-27794936D01*
X137824936Y-27575279D01*
X137927344Y-27422014D01*
X137944822Y-27451355D01*
X138139731Y-27667588D01*
X138373080Y-27841641D01*
X138635901Y-27966825D01*
X138783110Y-28011476D01*
X139013000Y-27890155D01*
X139013000Y-26697000D01*
X138993000Y-26697000D01*
X138993000Y-26443000D01*
X139013000Y-26443000D01*
X139013000Y-26423000D01*
X139267000Y-26423000D01*
X139267000Y-26443000D01*
X139287000Y-26443000D01*
X139287000Y-26697000D01*
X139267000Y-26697000D01*
X139267000Y-27890155D01*
X139496890Y-28011476D01*
X139644099Y-27966825D01*
X139906920Y-27841641D01*
X140140269Y-27667588D01*
X140335178Y-27451355D01*
X140352656Y-27422014D01*
X140455064Y-27575279D01*
X140674721Y-27794936D01*
X140933011Y-27967519D01*
X141220006Y-28086396D01*
X141524679Y-28147000D01*
X141835321Y-28147000D01*
X142139994Y-28086396D01*
X142426989Y-27967519D01*
X142685279Y-27794936D01*
X142904936Y-27575279D01*
X142950000Y-27507836D01*
X142995064Y-27575279D01*
X143214721Y-27794936D01*
X143473011Y-27967519D01*
X143760006Y-28086396D01*
X144064679Y-28147000D01*
X144375321Y-28147000D01*
X144679994Y-28086396D01*
X144966989Y-27967519D01*
X145225279Y-27794936D01*
X145444936Y-27575279D01*
X145490000Y-27507836D01*
X145535064Y-27575279D01*
X145754721Y-27794936D01*
X146013011Y-27967519D01*
X146300006Y-28086396D01*
X146604679Y-28147000D01*
X146915321Y-28147000D01*
X147219994Y-28086396D01*
X147506989Y-27967519D01*
X147765279Y-27794936D01*
X147984936Y-27575279D01*
X148030000Y-27507836D01*
X148075064Y-27575279D01*
X148294721Y-27794936D01*
X148553011Y-27967519D01*
X148840006Y-28086396D01*
X149144679Y-28147000D01*
X149455321Y-28147000D01*
X149759994Y-28086396D01*
X150046989Y-27967519D01*
X150305279Y-27794936D01*
X150524936Y-27575279D01*
X150570000Y-27507836D01*
X150615064Y-27575279D01*
X150834721Y-27794936D01*
X151093011Y-27967519D01*
X151380006Y-28086396D01*
X151684679Y-28147000D01*
X151995321Y-28147000D01*
X152299994Y-28086396D01*
X152586989Y-27967519D01*
X152845279Y-27794936D01*
X153064936Y-27575279D01*
X153110000Y-27507836D01*
X153155064Y-27575279D01*
X153374721Y-27794936D01*
X153633011Y-27967519D01*
X153920006Y-28086396D01*
X154224679Y-28147000D01*
X154535321Y-28147000D01*
X154839994Y-28086396D01*
X155126989Y-27967519D01*
X155385279Y-27794936D01*
X155604936Y-27575279D01*
X155650000Y-27507836D01*
X155695064Y-27575279D01*
X155914721Y-27794936D01*
X156173011Y-27967519D01*
X156460006Y-28086396D01*
X156764679Y-28147000D01*
X157075321Y-28147000D01*
X157379994Y-28086396D01*
X157666989Y-27967519D01*
X157925279Y-27794936D01*
X158144936Y-27575279D01*
X158247344Y-27422014D01*
X158264822Y-27451355D01*
X158459731Y-27667588D01*
X158693080Y-27841641D01*
X158955901Y-27966825D01*
X159103110Y-28011476D01*
X159333000Y-27890155D01*
X159333000Y-26697000D01*
X159313000Y-26697000D01*
X159313000Y-26443000D01*
X159333000Y-26443000D01*
X159333000Y-26423000D01*
X159587000Y-26423000D01*
X159587000Y-26443000D01*
X159607000Y-26443000D01*
X159607000Y-26697000D01*
X159587000Y-26697000D01*
X159587000Y-27890155D01*
X159816890Y-28011476D01*
X159964099Y-27966825D01*
X160226920Y-27841641D01*
X160460269Y-27667588D01*
X160655178Y-27451355D01*
X160672656Y-27422014D01*
X160775064Y-27575279D01*
X160994721Y-27794936D01*
X161253011Y-27967519D01*
X161540006Y-28086396D01*
X161844679Y-28147000D01*
X162155321Y-28147000D01*
X162459994Y-28086396D01*
X162746989Y-27967519D01*
X163005279Y-27794936D01*
X163224936Y-27575279D01*
X163270000Y-27507836D01*
X163315064Y-27575279D01*
X163534721Y-27794936D01*
X163793011Y-27967519D01*
X164080006Y-28086396D01*
X164384679Y-28147000D01*
X164695321Y-28147000D01*
X164999994Y-28086396D01*
X165286989Y-27967519D01*
X165545279Y-27794936D01*
X165764936Y-27575279D01*
X165810000Y-27507836D01*
X165855064Y-27575279D01*
X166074721Y-27794936D01*
X166333011Y-27967519D01*
X166620006Y-28086396D01*
X166924679Y-28147000D01*
X167235321Y-28147000D01*
X167539994Y-28086396D01*
X167826989Y-27967519D01*
X168085279Y-27794936D01*
X168304936Y-27575279D01*
X168350000Y-27507836D01*
X168395064Y-27575279D01*
X168614721Y-27794936D01*
X168873011Y-27967519D01*
X169160006Y-28086396D01*
X169464679Y-28147000D01*
X169775321Y-28147000D01*
X170079994Y-28086396D01*
X170366989Y-27967519D01*
X170625279Y-27794936D01*
X170844936Y-27575279D01*
X170890000Y-27507836D01*
X170935064Y-27575279D01*
X171154721Y-27794936D01*
X171413011Y-27967519D01*
X171700006Y-28086396D01*
X172004679Y-28147000D01*
X172315321Y-28147000D01*
X172619994Y-28086396D01*
X172906989Y-27967519D01*
X173165279Y-27794936D01*
X173384936Y-27575279D01*
X173430000Y-27507836D01*
X173475064Y-27575279D01*
X173694721Y-27794936D01*
X173953011Y-27967519D01*
X174240006Y-28086396D01*
X174544679Y-28147000D01*
X174855321Y-28147000D01*
X175159994Y-28086396D01*
X175446989Y-27967519D01*
X175705279Y-27794936D01*
X175924936Y-27575279D01*
X176027344Y-27422014D01*
X176044822Y-27451355D01*
X176239731Y-27667588D01*
X176473080Y-27841641D01*
X176735901Y-27966825D01*
X176883110Y-28011476D01*
X177113000Y-27890155D01*
X177113000Y-26697000D01*
X177367000Y-26697000D01*
X177367000Y-27890155D01*
X177596890Y-28011476D01*
X177744099Y-27966825D01*
X178006920Y-27841641D01*
X178240269Y-27667588D01*
X178435178Y-27451355D01*
X178584157Y-27201252D01*
X178681481Y-26926891D01*
X178560814Y-26697000D01*
X177367000Y-26697000D01*
X177113000Y-26697000D01*
X177093000Y-26697000D01*
X177093000Y-26443000D01*
X177113000Y-26443000D01*
X177113000Y-26423000D01*
X177367000Y-26423000D01*
X177367000Y-26443000D01*
X178560814Y-26443000D01*
X178681481Y-26213109D01*
X178584157Y-25938748D01*
X178435178Y-25688645D01*
X178240269Y-25472412D01*
X178088842Y-25359464D01*
X178189117Y-25292462D01*
X179892834Y-25292462D01*
X179892834Y-25707538D01*
X179973811Y-26114638D01*
X180132653Y-26498118D01*
X180363257Y-26843240D01*
X180656760Y-27136743D01*
X181001882Y-27367347D01*
X181385362Y-27526189D01*
X181792462Y-27607166D01*
X182207538Y-27607166D01*
X182614638Y-27526189D01*
X182998118Y-27367347D01*
X183343240Y-27136743D01*
X183636743Y-26843240D01*
X183867347Y-26498118D01*
X184026189Y-26114638D01*
X184044510Y-26022531D01*
X186923000Y-26022531D01*
X186923000Y-26477468D01*
X186945818Y-26709145D01*
X187035993Y-27006411D01*
X187182428Y-27280372D01*
X187379497Y-27520503D01*
X187619627Y-27717572D01*
X187893588Y-27864007D01*
X188190854Y-27954182D01*
X188500000Y-27984630D01*
X188809145Y-27954182D01*
X189106411Y-27864007D01*
X189380372Y-27717572D01*
X189588574Y-27546706D01*
X189619463Y-27604494D01*
X189698815Y-27701185D01*
X189795506Y-27780537D01*
X189905820Y-27839502D01*
X190025518Y-27875812D01*
X190150000Y-27888072D01*
X190714250Y-27885000D01*
X190873000Y-27726250D01*
X190873000Y-26377000D01*
X191127000Y-26377000D01*
X191127000Y-27726250D01*
X191285750Y-27885000D01*
X191850000Y-27888072D01*
X191974482Y-27875812D01*
X192094180Y-27839502D01*
X192204494Y-27780537D01*
X192301185Y-27701185D01*
X192380537Y-27604494D01*
X192397113Y-27573482D01*
X199922896Y-27573482D01*
X199963452Y-27838291D01*
X200054891Y-28090100D01*
X200112050Y-28197035D01*
X200348367Y-28259528D01*
X201107895Y-27500000D01*
X201467105Y-27500000D01*
X202226633Y-28259528D01*
X202462950Y-28197035D01*
X202576350Y-27954322D01*
X202640219Y-27694151D01*
X202652104Y-27426518D01*
X202616885Y-27196558D01*
X202674422Y-27283474D01*
X202845775Y-27456307D01*
X203047554Y-27592390D01*
X203272004Y-27686493D01*
X203510500Y-27735000D01*
X203860500Y-27735000D01*
X203860500Y-26627000D01*
X202568769Y-26627000D01*
X202454997Y-26800862D01*
X202226633Y-26740472D01*
X201467105Y-27500000D01*
X201107895Y-27500000D01*
X200348367Y-26740472D01*
X200112050Y-26802965D01*
X199998650Y-27045678D01*
X199934781Y-27305849D01*
X199922896Y-27573482D01*
X192397113Y-27573482D01*
X192439502Y-27494180D01*
X192475812Y-27374482D01*
X192488072Y-27250000D01*
X192485109Y-26560867D01*
X200527972Y-26560867D01*
X201287500Y-27320395D01*
X202047028Y-26560867D01*
X201984535Y-26324550D01*
X201741822Y-26211150D01*
X201624672Y-26182391D01*
X202444038Y-26182391D01*
X202568769Y-26373000D01*
X203860500Y-26373000D01*
X203860500Y-25265000D01*
X203510500Y-25265000D01*
X203272004Y-25313507D01*
X203047554Y-25407610D01*
X202845775Y-25543693D01*
X202674422Y-25716526D01*
X202540079Y-25919467D01*
X202447909Y-26144718D01*
X202444038Y-26182391D01*
X201624672Y-26182391D01*
X201481651Y-26147281D01*
X201214018Y-26135396D01*
X200949209Y-26175952D01*
X200697400Y-26267391D01*
X200590465Y-26324550D01*
X200527972Y-26560867D01*
X192485109Y-26560867D01*
X192485000Y-26535750D01*
X192326250Y-26377000D01*
X191127000Y-26377000D01*
X190873000Y-26377000D01*
X190853000Y-26377000D01*
X190853000Y-26123000D01*
X190873000Y-26123000D01*
X190873000Y-24773750D01*
X191127000Y-24773750D01*
X191127000Y-26123000D01*
X192326250Y-26123000D01*
X192485000Y-25964250D01*
X192488072Y-25250000D01*
X192475812Y-25125518D01*
X192439502Y-25005820D01*
X192380537Y-24895506D01*
X192301185Y-24798815D01*
X192204494Y-24719463D01*
X192094180Y-24660498D01*
X191974482Y-24624188D01*
X191850000Y-24611928D01*
X191285750Y-24615000D01*
X191127000Y-24773750D01*
X190873000Y-24773750D01*
X190714250Y-24615000D01*
X190150000Y-24611928D01*
X190025518Y-24624188D01*
X189905820Y-24660498D01*
X189795506Y-24719463D01*
X189698815Y-24798815D01*
X189619463Y-24895506D01*
X189588574Y-24953294D01*
X189380373Y-24782428D01*
X189106412Y-24635993D01*
X188809146Y-24545818D01*
X188500000Y-24515370D01*
X188190855Y-24545818D01*
X187893589Y-24635993D01*
X187619628Y-24782428D01*
X187379497Y-24979497D01*
X187182428Y-25219627D01*
X187035993Y-25493588D01*
X186945818Y-25790854D01*
X186923000Y-26022531D01*
X184044510Y-26022531D01*
X184107166Y-25707538D01*
X184107166Y-25292462D01*
X184026189Y-24885362D01*
X183867347Y-24501882D01*
X183636743Y-24156760D01*
X183343240Y-23863257D01*
X182998118Y-23632653D01*
X182614638Y-23473811D01*
X182207538Y-23392834D01*
X181792462Y-23392834D01*
X181385362Y-23473811D01*
X181001882Y-23632653D01*
X180656760Y-23863257D01*
X180363257Y-24156760D01*
X180132653Y-24501882D01*
X179973811Y-24885362D01*
X179892834Y-25292462D01*
X178189117Y-25292462D01*
X178245279Y-25254936D01*
X178464936Y-25035279D01*
X178637519Y-24776989D01*
X178756396Y-24489994D01*
X178817000Y-24185321D01*
X178817000Y-23874679D01*
X178756396Y-23570006D01*
X178637519Y-23283011D01*
X178464936Y-23024721D01*
X178245279Y-22805064D01*
X177986989Y-22632481D01*
X177699994Y-22513604D01*
X177395321Y-22453000D01*
X177084679Y-22453000D01*
X176780006Y-22513604D01*
X176493011Y-22632481D01*
X176234721Y-22805064D01*
X176015064Y-23024721D01*
X175970000Y-23092164D01*
X175924936Y-23024721D01*
X175705279Y-22805064D01*
X175446989Y-22632481D01*
X175159994Y-22513604D01*
X174855321Y-22453000D01*
X174544679Y-22453000D01*
X174240006Y-22513604D01*
X173953011Y-22632481D01*
X173694721Y-22805064D01*
X173475064Y-23024721D01*
X173430000Y-23092164D01*
X173384936Y-23024721D01*
X173165279Y-22805064D01*
X172906989Y-22632481D01*
X172619994Y-22513604D01*
X172315321Y-22453000D01*
X172004679Y-22453000D01*
X171700006Y-22513604D01*
X171413011Y-22632481D01*
X171154721Y-22805064D01*
X170935064Y-23024721D01*
X170832656Y-23177986D01*
X170815178Y-23148645D01*
X170620269Y-22932412D01*
X170386920Y-22758359D01*
X170124099Y-22633175D01*
X169976890Y-22588524D01*
X169747000Y-22709845D01*
X169747000Y-23903000D01*
X169767000Y-23903000D01*
X169767000Y-24157000D01*
X169747000Y-24157000D01*
X169747000Y-24177000D01*
X169493000Y-24177000D01*
X169493000Y-24157000D01*
X169473000Y-24157000D01*
X169473000Y-23903000D01*
X169493000Y-23903000D01*
X169493000Y-22709845D01*
X169263110Y-22588524D01*
X169115901Y-22633175D01*
X168853080Y-22758359D01*
X168619731Y-22932412D01*
X168424822Y-23148645D01*
X168407344Y-23177986D01*
X168304936Y-23024721D01*
X168085279Y-22805064D01*
X167826989Y-22632481D01*
X167539994Y-22513604D01*
X167235321Y-22453000D01*
X166924679Y-22453000D01*
X166620006Y-22513604D01*
X166333011Y-22632481D01*
X166074721Y-22805064D01*
X165855064Y-23024721D01*
X165752656Y-23177986D01*
X165735178Y-23148645D01*
X165540269Y-22932412D01*
X165306920Y-22758359D01*
X165044099Y-22633175D01*
X164896890Y-22588524D01*
X164667000Y-22709845D01*
X164667000Y-23903000D01*
X164687000Y-23903000D01*
X164687000Y-24157000D01*
X164667000Y-24157000D01*
X164667000Y-24177000D01*
X164413000Y-24177000D01*
X164413000Y-24157000D01*
X164393000Y-24157000D01*
X164393000Y-23903000D01*
X164413000Y-23903000D01*
X164413000Y-22709845D01*
X164183110Y-22588524D01*
X164035901Y-22633175D01*
X163773080Y-22758359D01*
X163539731Y-22932412D01*
X163344822Y-23148645D01*
X163327344Y-23177986D01*
X163224936Y-23024721D01*
X163005279Y-22805064D01*
X162746989Y-22632481D01*
X162459994Y-22513604D01*
X162155321Y-22453000D01*
X161844679Y-22453000D01*
X161540006Y-22513604D01*
X161253011Y-22632481D01*
X160994721Y-22805064D01*
X160775064Y-23024721D01*
X160730000Y-23092164D01*
X160684936Y-23024721D01*
X160465279Y-22805064D01*
X160206989Y-22632481D01*
X159919994Y-22513604D01*
X159615321Y-22453000D01*
X159304679Y-22453000D01*
X159000006Y-22513604D01*
X158713011Y-22632481D01*
X158454721Y-22805064D01*
X158235064Y-23024721D01*
X158190000Y-23092164D01*
X158144936Y-23024721D01*
X157925279Y-22805064D01*
X157666989Y-22632481D01*
X157379994Y-22513604D01*
X157075321Y-22453000D01*
X156764679Y-22453000D01*
X156460006Y-22513604D01*
X156173011Y-22632481D01*
X155914721Y-22805064D01*
X155695064Y-23024721D01*
X155650000Y-23092164D01*
X155604936Y-23024721D01*
X155385279Y-22805064D01*
X155126989Y-22632481D01*
X154839994Y-22513604D01*
X154535321Y-22453000D01*
X154224679Y-22453000D01*
X153920006Y-22513604D01*
X153633011Y-22632481D01*
X153374721Y-22805064D01*
X153155064Y-23024721D01*
X153052656Y-23177986D01*
X153035178Y-23148645D01*
X152840269Y-22932412D01*
X152606920Y-22758359D01*
X152344099Y-22633175D01*
X152196890Y-22588524D01*
X151967000Y-22709845D01*
X151967000Y-23903000D01*
X151987000Y-23903000D01*
X151987000Y-24157000D01*
X151967000Y-24157000D01*
X151967000Y-24177000D01*
X151713000Y-24177000D01*
X151713000Y-24157000D01*
X151693000Y-24157000D01*
X151693000Y-23903000D01*
X151713000Y-23903000D01*
X151713000Y-22709845D01*
X151483110Y-22588524D01*
X151335901Y-22633175D01*
X151073080Y-22758359D01*
X150839731Y-22932412D01*
X150644822Y-23148645D01*
X150627344Y-23177986D01*
X150524936Y-23024721D01*
X150305279Y-22805064D01*
X150046989Y-22632481D01*
X149759994Y-22513604D01*
X149455321Y-22453000D01*
X149144679Y-22453000D01*
X148840006Y-22513604D01*
X148553011Y-22632481D01*
X148294721Y-22805064D01*
X148075064Y-23024721D01*
X148030000Y-23092164D01*
X147984936Y-23024721D01*
X147765279Y-22805064D01*
X147506989Y-22632481D01*
X147219994Y-22513604D01*
X146915321Y-22453000D01*
X146604679Y-22453000D01*
X146300006Y-22513604D01*
X146013011Y-22632481D01*
X145754721Y-22805064D01*
X145535064Y-23024721D01*
X145432656Y-23177986D01*
X145415178Y-23148645D01*
X145220269Y-22932412D01*
X144986920Y-22758359D01*
X144724099Y-22633175D01*
X144576890Y-22588524D01*
X144347000Y-22709845D01*
X144347000Y-23903000D01*
X144367000Y-23903000D01*
X144367000Y-24157000D01*
X144347000Y-24157000D01*
X144347000Y-24177000D01*
X144093000Y-24177000D01*
X144093000Y-24157000D01*
X144073000Y-24157000D01*
X144073000Y-23903000D01*
X144093000Y-23903000D01*
X144093000Y-22709845D01*
X143863110Y-22588524D01*
X143715901Y-22633175D01*
X143453080Y-22758359D01*
X143219731Y-22932412D01*
X143024822Y-23148645D01*
X143007344Y-23177986D01*
X142904936Y-23024721D01*
X142685279Y-22805064D01*
X142426989Y-22632481D01*
X142139994Y-22513604D01*
X141835321Y-22453000D01*
X141524679Y-22453000D01*
X141220006Y-22513604D01*
X140933011Y-22632481D01*
X140674721Y-22805064D01*
X140455064Y-23024721D01*
X140410000Y-23092164D01*
X140364936Y-23024721D01*
X140145279Y-22805064D01*
X139886989Y-22632481D01*
X139599994Y-22513604D01*
X139295321Y-22453000D01*
X138984679Y-22453000D01*
X138680006Y-22513604D01*
X138393011Y-22632481D01*
X138134721Y-22805064D01*
X137915064Y-23024721D01*
X137870000Y-23092164D01*
X137824936Y-23024721D01*
X137605279Y-22805064D01*
X137346989Y-22632481D01*
X137059994Y-22513604D01*
X136755321Y-22453000D01*
X136444679Y-22453000D01*
X136140006Y-22513604D01*
X135853011Y-22632481D01*
X135594721Y-22805064D01*
X135375064Y-23024721D01*
X135272656Y-23177986D01*
X135255178Y-23148645D01*
X135060269Y-22932412D01*
X134826920Y-22758359D01*
X134564099Y-22633175D01*
X134416890Y-22588524D01*
X134187000Y-22709845D01*
X134187000Y-23903000D01*
X134207000Y-23903000D01*
X134207000Y-24157000D01*
X134187000Y-24157000D01*
X134187000Y-24177000D01*
X133933000Y-24177000D01*
X133933000Y-24157000D01*
X133913000Y-24157000D01*
X133913000Y-23903000D01*
X133933000Y-23903000D01*
X133933000Y-22709845D01*
X133703110Y-22588524D01*
X133555901Y-22633175D01*
X133293080Y-22758359D01*
X133059731Y-22932412D01*
X132864822Y-23148645D01*
X132847344Y-23177986D01*
X132744936Y-23024721D01*
X132525279Y-22805064D01*
X132266989Y-22632481D01*
X131979994Y-22513604D01*
X131675321Y-22453000D01*
X131364679Y-22453000D01*
X131060006Y-22513604D01*
X130773011Y-22632481D01*
X130514721Y-22805064D01*
X130295064Y-23024721D01*
X130250000Y-23092164D01*
X130204936Y-23024721D01*
X129985279Y-22805064D01*
X129726989Y-22632481D01*
X129439994Y-22513604D01*
X129135321Y-22453000D01*
X128824679Y-22453000D01*
X128520006Y-22513604D01*
X128233011Y-22632481D01*
X127974721Y-22805064D01*
X127755064Y-23024721D01*
X127582481Y-23283011D01*
X127463604Y-23570006D01*
X127403000Y-23874679D01*
X127403000Y-24185321D01*
X127463604Y-24489994D01*
X127582481Y-24776989D01*
X127755064Y-25035279D01*
X127794681Y-25074896D01*
X127724147Y-25112597D01*
X127613446Y-25203446D01*
X127522597Y-25314147D01*
X127455090Y-25440443D01*
X127413520Y-25577483D01*
X127399483Y-25720000D01*
X126104687Y-25720000D01*
X126107166Y-25707538D01*
X126107166Y-25292462D01*
X126026189Y-24885362D01*
X125867347Y-24501882D01*
X125636743Y-24156760D01*
X125343240Y-23863257D01*
X124998118Y-23632653D01*
X124614638Y-23473811D01*
X124207538Y-23392834D01*
X123792462Y-23392834D01*
X123385362Y-23473811D01*
X123001882Y-23632653D01*
X122656760Y-23863257D01*
X122363257Y-24156760D01*
X122132653Y-24501882D01*
X121973811Y-24885362D01*
X121892834Y-25292462D01*
X121277000Y-25292462D01*
X121277000Y-24538006D01*
X121322993Y-24068937D01*
X121448178Y-23654303D01*
X121651519Y-23271873D01*
X121925268Y-22936225D01*
X122259001Y-22660136D01*
X122639994Y-22454134D01*
X123053751Y-22326055D01*
X123520475Y-22277000D01*
X202461994Y-22277000D01*
X202931063Y-22322993D01*
M02*
