M48
; DRILL file {KiCad (5.1.6)-1} date 01/15/21 17:26:18
; FORMAT={-:-/ absolute / metric / decimal}
; #@! TF.CreationDate,2021-01-15T17:26:18+09:00
; #@! TF.GenerationSoftware,Kicad,Pcbnew,(5.1.6)-1
FMAT,2
METRIC
T1C0.400
T2C0.600
T3C0.800
T4C0.850
T5C0.900
T6C1.000
T7C1.100
T8C1.300
T9C1.500
T10C1.700
%
G90
G05
T1
X121.75Y-35.75
X121.85Y-30.95
X121.85Y-33.2
X121.85Y-38.4
X121.85Y-40.45
X121.85Y-64.2
X121.95Y-59.4
X121.95Y-61.65
X121.95Y-66.85
X121.95Y-68.9
X123.8Y-35.275
X123.825Y-36.225
X124.3Y-30.9
X124.3Y-40.55
X124.35Y-63.6
X124.35Y-64.85
X124.4Y-59.4
X124.4Y-69.0
X126.35Y-33.15
X126.4Y-38.5
X126.45Y-61.6
X126.5Y-66.95
X126.85Y-30.8
X126.95Y-40.55
X126.95Y-59.25
X127.05Y-69.0
X127.45Y-33.1
X127.5Y-38.5
X127.55Y-61.55
X127.6Y-66.95
X129.4Y-30.85
X129.45Y-40.55
X129.5Y-59.3
X129.55Y-69.0
X130.95Y-56.675
X131.4Y-43.3
X131.4Y-57.7
X131.4Y-59.35
X131.5Y-45.5
X131.5Y-47.6
X131.5Y-53.95
X131.55Y-30.9
X131.6Y-52.0
X131.65Y-38.35
X131.65Y-40.55
X131.75Y-66.8
X131.75Y-69.0
X132.25Y-32.2
X132.4Y-35.75
X132.7Y-39.9
X133.4Y-30.7
X133.45Y-34.4
X134.2Y-44.9
X134.2Y-46.2
X134.3Y-43.0
X134.3Y-54.1
X134.3Y-55.5
X134.4Y-49.9
X134.4Y-51.2
X134.4Y-52.7
X134.9Y-57.2
X135.2Y-59.2
X135.2Y-60.7
X135.2Y-62.1
X135.8Y-41.6
X135.9Y-39.3
X136.144Y-35.052
X136.5Y-69.0
X136.7Y-45.5
X136.75Y-30.45
X136.906Y-38.354
X137.45Y-32.85
X137.95Y-41.65
X137.95Y-55.6
X137.95Y-59.4
X138.0Y-34.0
X138.0Y-35.3
X138.0Y-36.55
X138.0Y-37.85
X138.0Y-39.1
X138.0Y-42.95
X138.0Y-50.55
X138.0Y-53.1
X138.05Y-49.3
X138.05Y-51.8
X138.05Y-54.35
X138.05Y-56.8
X138.1Y-58.15
X138.5Y-76.0
X139.1Y-63.1
X139.15Y-30.45
X139.15Y-32.825
X140.25Y-65.9
X140.45Y-63.1
X141.025Y-32.875
X141.3Y-30.45
X141.65Y-63.1
X141.65Y-66.5
X143.0Y-37.8
X143.0Y-46.8
X143.0Y-48.0
X143.0Y-49.2
X143.0Y-50.5
X143.0Y-51.8
X143.0Y-53.1
X143.0Y-54.3
X143.0Y-55.6
X143.0Y-56.9
X143.0Y-58.1
X143.1Y-39.1
X143.1Y-40.4
X143.1Y-41.7
X143.1Y-42.9
X143.1Y-44.2
X143.1Y-45.5
X143.2Y-31.4
X144.1Y-32.65
X144.3Y-37.8
X145.0Y-76.0
X145.6Y-37.8
X145.725Y-64.675
X146.3Y-41.1
X146.4Y-54.8
X146.7Y-58.3
X147.0Y-38.5
X147.4Y-63.05
X147.5Y-53.7
X147.6Y-41.9
X148.0Y-37.8
X148.0Y-58.3
X148.7Y-63.05
X149.3Y-58.3
X149.479Y-67.691
X151.5Y-76.0
X151.8Y-32.85
X151.8Y-64.05
X151.9Y-58.25
X152.8Y-65.1
X153.4Y-48.05
X153.725Y-38.0
X156.0Y-68.243
X156.9Y-37.85
X157.48Y-65.024
X157.9Y-39.05
X158.0Y-76.0
X158.14Y-30.98
X158.5Y-41.95
X158.7Y-53.5
X159.47Y-30.98
X159.5Y-58.15
X159.65Y-41.0
X159.8Y-54.7
X160.69Y-30.99
X160.7Y-63.1
X161.15Y-50.85
X161.9Y-30.99
X162.0Y-37.8
X162.25Y-64.0
X162.56Y-68.199
X162.85Y-44.2
X163.15Y-45.4
X163.2Y-31.0
X163.2Y-52.45
X163.2Y-53.7
X163.2Y-58.15
X163.25Y-56.3
X163.259Y-48.441
X163.3Y-37.8
X164.25Y-64.0
X164.55Y-32.95
X165.0Y-76.0
X165.8Y-32.9
X166.5Y-64.0
X166.624Y-65.405
X168.15Y-35.3
X168.25Y-36.5
X168.25Y-37.75
X168.25Y-39.0
X168.75Y-64.0
X170.053Y-61.87
X170.2Y-36.5
X170.2Y-47.3
X170.2Y-48.8
X170.2Y-50.1
X170.3Y-45.4
X170.5Y-32.6
X170.566Y-58.796
X170.7Y-41.2
X171.0Y-43.2
X171.0Y-64.0
X171.45Y-57.94
X171.5Y-55.75
X173.99Y-57.531
X173.99Y-68.072
X174.0Y-59.0
X174.0Y-62.0
X174.25Y-44.8
X175.225Y-55.025
X175.25Y-29.35
X175.4Y-57.4
X175.5Y-60.5
X175.799Y-54.08
X176.276Y-63.5
X176.33Y-53.08
X176.81Y-51.81
X177.0Y-55.8
X177.0Y-59.0
X177.5Y-71.75
X178.1Y-33.1
X178.5Y-57.5
X178.95Y-34.55
X179.117Y-48.1
X179.918Y-48.75
X180.25Y-55.75
X180.34Y-52.578
X180.721Y-63.881
X180.75Y-49.5
X181.737Y-58.166
X182.118Y-70.993
X182.2Y-50.6
X182.983Y-64.104
X183.134Y-52.832
X183.896Y-69.977
X184.404Y-37.465
X184.404Y-39.751
X184.404Y-42.291
X184.404Y-44.831
X184.404Y-46.99
X184.5Y-67.0
X184.531Y-35.433
X185.25Y-50.75
X185.801Y-34.29
X186.0Y-72.39
X186.436Y-52.705
X186.563Y-37.592
X186.563Y-39.751
X186.563Y-42.291
X186.563Y-44.45
X186.563Y-46.228
X187.452Y-36.068
X187.75Y-60.75
X187.75Y-72.5
X187.96Y-50.546
X188.214Y-32.131
X188.468Y-74.93
X189.23Y-34.544
X189.25Y-59.0
X189.611Y-30.607
X190.881Y-29.21
X191.0Y-67.35
X191.135Y-32.258
X192.0Y-33.25
X192.278Y-31.369
X193.04Y-75.438
X193.802Y-29.21
X194.25Y-58.25
X194.437Y-31.369
X196.75Y-28.0
X197.612Y-75.438
X198.0Y-58.25
X198.5Y-31.5
X198.75Y-29.0
X199.5Y-26.75
X199.75Y-34.25
X201.5Y-25.25
X202.565Y-75.184
X202.75Y-58.25
X203.25Y-35.5
T3
X128.6Y-48.775
X128.6Y-50.775
X128.6Y-52.775
X182.75Y-40.75
X182.75Y-42.75
X182.75Y-44.75
T4
X201.287Y-27.5
X201.287Y-32.5
T5
X153.5Y-76.0
X156.04Y-76.0
X134.0Y-76.0
X136.54Y-76.0
X140.5Y-76.0
X143.04Y-76.0
X160.0Y-76.0
X162.54Y-76.0
X147.0Y-76.0
X149.54Y-76.0
T6
X167.5Y-75.25
X172.0Y-75.25
X128.98Y-24.03
X128.98Y-26.57
X131.52Y-24.03
X131.52Y-26.57
X134.06Y-24.03
X134.06Y-26.57
X136.6Y-24.03
X136.6Y-26.57
X139.14Y-24.03
X139.14Y-26.57
X141.68Y-24.03
X141.68Y-26.57
X144.22Y-24.03
X144.22Y-26.57
X146.76Y-24.03
X146.76Y-26.57
X149.3Y-24.03
X149.3Y-26.57
X151.84Y-24.03
X151.84Y-26.57
X154.38Y-24.03
X154.38Y-26.57
X156.92Y-24.03
X156.92Y-26.57
X159.46Y-24.03
X159.46Y-26.57
X162.0Y-24.03
X162.0Y-26.57
X164.54Y-24.03
X164.54Y-26.57
X167.08Y-24.03
X167.08Y-26.57
X169.62Y-24.03
X169.62Y-26.57
X172.16Y-24.03
X172.16Y-26.57
X174.7Y-24.03
X174.7Y-26.57
X177.24Y-24.03
X177.24Y-26.57
X188.5Y-26.25
X191.0Y-26.25
T7
X189.5Y-40.75
X189.5Y-43.29
X189.5Y-45.83
X189.5Y-48.37
X194.0Y-40.75
X194.0Y-43.29
X194.0Y-45.83
X194.0Y-48.37
X194.0Y-50.91
X194.0Y-53.45
T8
X166.25Y-72.75
X173.25Y-72.75
T9
X126.9Y-35.814
X126.9Y-64.2
T10
X124.36Y-33.274
X124.36Y-38.354
X129.44Y-33.274
X129.44Y-38.354
X124.36Y-61.66
X124.36Y-66.74
X129.44Y-61.66
X129.44Y-66.74
T2
G00X203.637Y-26.5
M15
G01X204.337Y-26.5
M16
G05
G00X204.337Y-33.5
M15
G01X203.637Y-33.5
M16
G05
T0
M30
