G04 #@! TF.GenerationSoftware,KiCad,Pcbnew,(5.1.6)-1*
G04 #@! TF.CreationDate,2021-01-15T17:25:52+09:00*
G04 #@! TF.ProjectId,HATv2.0,48415476-322e-4302-9e6b-696361645f70,rev?*
G04 #@! TF.SameCoordinates,Original*
G04 #@! TF.FileFunction,Copper,L4,Bot*
G04 #@! TF.FilePolarity,Positive*
%FSLAX46Y46*%
G04 Gerber Fmt 4.6, Leading zero omitted, Abs format (unit mm)*
G04 Created by KiCad (PCBNEW (5.1.6)-1) date 2021-01-15 17:25:52*
%MOMM*%
%LPD*%
G01*
G04 APERTURE LIST*
G04 #@! TA.AperFunction,ComponentPad*
%ADD10C,1.800000*%
G04 #@! TD*
G04 #@! TA.AperFunction,ComponentPad*
%ADD11R,1.800000X1.800000*%
G04 #@! TD*
G04 #@! TA.AperFunction,ComponentPad*
%ADD12C,1.700000*%
G04 #@! TD*
G04 #@! TA.AperFunction,ComponentPad*
%ADD13C,2.200000*%
G04 #@! TD*
G04 #@! TA.AperFunction,ComponentPad*
%ADD14O,1.350000X1.350000*%
G04 #@! TD*
G04 #@! TA.AperFunction,ComponentPad*
%ADD15R,1.350000X1.350000*%
G04 #@! TD*
G04 #@! TA.AperFunction,ComponentPad*
%ADD16O,1.900000X1.200000*%
G04 #@! TD*
G04 #@! TA.AperFunction,ComponentPad*
%ADD17C,1.450000*%
G04 #@! TD*
G04 #@! TA.AperFunction,ComponentPad*
%ADD18O,1.700000X1.700000*%
G04 #@! TD*
G04 #@! TA.AperFunction,ComponentPad*
%ADD19R,1.700000X1.700000*%
G04 #@! TD*
G04 #@! TA.AperFunction,ComponentPad*
%ADD20C,2.250000*%
G04 #@! TD*
G04 #@! TA.AperFunction,ComponentPad*
%ADD21O,1.700000X2.000000*%
G04 #@! TD*
G04 #@! TA.AperFunction,ViaPad*
%ADD22C,0.800000*%
G04 #@! TD*
G04 #@! TA.AperFunction,ViaPad*
%ADD23C,1.000000*%
G04 #@! TD*
G04 #@! TA.AperFunction,Conductor*
%ADD24C,0.250000*%
G04 #@! TD*
G04 #@! TA.AperFunction,Conductor*
%ADD25C,0.500000*%
G04 #@! TD*
G04 #@! TA.AperFunction,Conductor*
%ADD26C,0.700000*%
G04 #@! TD*
G04 APERTURE END LIST*
D10*
X156040000Y-76000000D03*
D11*
X153500000Y-76000000D03*
D10*
X162540000Y-76000000D03*
D11*
X160000000Y-76000000D03*
D10*
X136540000Y-76000000D03*
D11*
X134000000Y-76000000D03*
D10*
X149540000Y-76000000D03*
D11*
X147000000Y-76000000D03*
D10*
X143040000Y-76000000D03*
D11*
X140500000Y-76000000D03*
D12*
X172000000Y-75250000D03*
X167500000Y-75250000D03*
D13*
X173250000Y-72750000D03*
X166250000Y-72750000D03*
D14*
X182750000Y-44750000D03*
X182750000Y-42750000D03*
D15*
X182750000Y-40750000D03*
D16*
X203987500Y-26500000D03*
X203987500Y-33500000D03*
D17*
X201287500Y-27500000D03*
X201287500Y-32500000D03*
D18*
X177240000Y-24030000D03*
X177240000Y-26570000D03*
X174700000Y-24030000D03*
X174700000Y-26570000D03*
X172160000Y-24030000D03*
X172160000Y-26570000D03*
X169620000Y-24030000D03*
X169620000Y-26570000D03*
X167080000Y-24030000D03*
X167080000Y-26570000D03*
X164540000Y-24030000D03*
X164540000Y-26570000D03*
X162000000Y-24030000D03*
X162000000Y-26570000D03*
X159460000Y-24030000D03*
X159460000Y-26570000D03*
X156920000Y-24030000D03*
X156920000Y-26570000D03*
X154380000Y-24030000D03*
X154380000Y-26570000D03*
X151840000Y-24030000D03*
X151840000Y-26570000D03*
X149300000Y-24030000D03*
X149300000Y-26570000D03*
X146760000Y-24030000D03*
X146760000Y-26570000D03*
X144220000Y-24030000D03*
X144220000Y-26570000D03*
X141680000Y-24030000D03*
X141680000Y-26570000D03*
X139140000Y-24030000D03*
X139140000Y-26570000D03*
X136600000Y-24030000D03*
X136600000Y-26570000D03*
X134060000Y-24030000D03*
X134060000Y-26570000D03*
X131520000Y-24030000D03*
X131520000Y-26570000D03*
X128980000Y-24030000D03*
D19*
X128980000Y-26570000D03*
D20*
X126900000Y-64200000D03*
X129440000Y-61660000D03*
X124360000Y-61660000D03*
X124360000Y-66740000D03*
X129440000Y-66740000D03*
D18*
X194000000Y-53450000D03*
X194000000Y-50910000D03*
X194000000Y-48370000D03*
X194000000Y-45830000D03*
X194000000Y-43290000D03*
D19*
X194000000Y-40750000D03*
D18*
X189500000Y-48370000D03*
X189500000Y-45830000D03*
X189500000Y-43290000D03*
D19*
X189500000Y-40750000D03*
D20*
X126900000Y-35814000D03*
X129440000Y-33274000D03*
X124360000Y-33274000D03*
X124360000Y-38354000D03*
X129440000Y-38354000D03*
D14*
X128600000Y-52775000D03*
X128600000Y-50775000D03*
D15*
X128600000Y-48775000D03*
G04 #@! TA.AperFunction,ComponentPad*
G36*
G01*
X191850000Y-25500000D02*
X191850000Y-27000000D01*
G75*
G02*
X191600000Y-27250000I-250000J0D01*
G01*
X190400000Y-27250000D01*
G75*
G02*
X190150000Y-27000000I0J250000D01*
G01*
X190150000Y-25500000D01*
G75*
G02*
X190400000Y-25250000I250000J0D01*
G01*
X191600000Y-25250000D01*
G75*
G02*
X191850000Y-25500000I0J-250000D01*
G01*
G37*
G04 #@! TD.AperFunction*
D21*
X188500000Y-26250000D03*
D22*
X161900000Y-30990000D03*
X144100000Y-32650000D03*
X139150000Y-32825000D03*
X139150000Y-30450000D03*
X141300000Y-30450000D03*
X143200000Y-31400000D03*
X136750000Y-30450000D03*
X137450000Y-32850000D03*
X121950000Y-61650000D03*
X121950000Y-66850000D03*
X121850000Y-64200000D03*
X121950000Y-59400000D03*
X121950000Y-68900000D03*
X124400000Y-69000000D03*
X126500000Y-66950000D03*
X127600000Y-66950000D03*
X124350000Y-64850000D03*
X124350000Y-63600000D03*
X126450000Y-61600000D03*
X127550000Y-61550000D03*
X124400000Y-59400000D03*
X126950000Y-59250000D03*
X129500000Y-59300000D03*
X131400000Y-59350000D03*
X127050000Y-69000000D03*
X129550000Y-69000000D03*
X131750000Y-69000000D03*
X131750000Y-66800000D03*
X121850000Y-33200000D03*
X121850000Y-40450000D03*
X121750000Y-35750000D03*
X121850000Y-38400000D03*
X121850000Y-30950000D03*
X123800000Y-35275000D03*
X124300000Y-30900000D03*
X127500000Y-38500000D03*
X127450000Y-33100000D03*
X131550000Y-30900000D03*
X126850000Y-30800000D03*
X129450000Y-40550000D03*
X131650000Y-38350000D03*
X126950000Y-40550000D03*
X131650000Y-40550000D03*
X126400000Y-38500000D03*
X129400000Y-30850000D03*
X126350000Y-33150000D03*
X124300000Y-40550000D03*
X123825000Y-36225000D03*
X134300000Y-43000000D03*
X134200000Y-44900000D03*
X131400000Y-43300000D03*
X131500000Y-45500000D03*
X131500000Y-47600000D03*
X134200000Y-46200000D03*
X134400000Y-49900000D03*
X134400000Y-51200000D03*
X134400000Y-52700000D03*
X134300000Y-54100000D03*
X134300000Y-55500000D03*
X131600000Y-52000000D03*
X131500000Y-53950000D03*
X131400000Y-57700000D03*
X135200000Y-62100000D03*
X135200000Y-59200000D03*
X134900000Y-57200000D03*
X132700000Y-39900000D03*
X135800000Y-41600000D03*
X135900000Y-39300000D03*
X133450000Y-34400000D03*
X146700000Y-58300000D03*
X148000000Y-58300000D03*
X149300000Y-58300000D03*
X143000000Y-58100000D03*
X143000000Y-56900000D03*
X143000000Y-55600000D03*
X143000000Y-54300000D03*
X143000000Y-53100000D03*
X143000000Y-51800000D03*
X143000000Y-50500000D03*
X143000000Y-49200000D03*
X143000000Y-48000000D03*
X143000000Y-46800000D03*
X143100000Y-45500000D03*
X143100000Y-44200000D03*
X143100000Y-42900000D03*
X143100000Y-41700000D03*
X143100000Y-40400000D03*
X143100000Y-39100000D03*
X143000000Y-37800000D03*
X144300000Y-37800000D03*
X145600000Y-37800000D03*
X147000000Y-38500000D03*
X162000000Y-37800000D03*
X163300000Y-37800000D03*
X146400000Y-54800000D03*
X146300000Y-41100000D03*
X159800000Y-54700000D03*
X147600000Y-41900000D03*
X147500000Y-53700000D03*
X158700000Y-53500000D03*
X145725000Y-64675000D03*
X151800000Y-32850000D03*
X170500000Y-32600000D03*
X133400000Y-30700000D03*
X170300000Y-45400000D03*
X174250000Y-44800000D03*
X136906000Y-38354000D03*
X136144000Y-35052000D03*
X138000000Y-34000000D03*
X178100000Y-33100000D03*
X140250000Y-65900000D03*
X153400000Y-48050000D03*
X151900000Y-58250000D03*
X151800000Y-64050000D03*
X148700000Y-63050000D03*
X147400000Y-63050000D03*
X138100000Y-58150000D03*
X138050000Y-56800000D03*
X137950000Y-55600000D03*
X138050000Y-54350000D03*
X138000000Y-53100000D03*
X138050000Y-51800000D03*
X138000000Y-50550000D03*
X138050000Y-49300000D03*
X138000000Y-42950000D03*
X137950000Y-41650000D03*
X138000000Y-39100000D03*
X138000000Y-37850000D03*
X138000000Y-36550000D03*
X138000000Y-35300000D03*
X141650000Y-63100000D03*
X140450000Y-63100000D03*
X139100000Y-63100000D03*
X137950000Y-59400000D03*
X164550000Y-32950000D03*
X165800000Y-32900000D03*
X168150000Y-35300000D03*
X160700000Y-63100000D03*
X141025000Y-32875000D03*
X132250000Y-32200000D03*
X159500000Y-58150000D03*
X163200000Y-58150000D03*
X163250000Y-56300000D03*
X163200000Y-53700000D03*
X163200000Y-52450000D03*
X156900000Y-37850000D03*
X157900000Y-39050000D03*
X158500000Y-41950000D03*
X159650000Y-41000000D03*
X163150000Y-45400000D03*
X162850000Y-44200000D03*
X164250000Y-64000000D03*
X132400000Y-35750000D03*
X166500000Y-64000000D03*
X162250000Y-64000000D03*
X130950000Y-56675000D03*
X153725000Y-38000000D03*
X148000000Y-37800000D03*
X178950000Y-34550000D03*
X135200000Y-60700000D03*
X138500000Y-76000000D03*
X145000000Y-76000000D03*
X151500000Y-76000000D03*
X158000000Y-76000000D03*
X165000000Y-76000000D03*
X187750000Y-60750000D03*
X187750000Y-72500000D03*
X202750000Y-58250000D03*
X198000000Y-58250000D03*
X194250000Y-58250000D03*
X189250000Y-59000000D03*
X198500000Y-31500000D03*
X203250000Y-35500000D03*
X199500000Y-26750000D03*
X199750000Y-34250000D03*
X201500000Y-25250000D03*
X198750000Y-29000000D03*
X196750000Y-28000000D03*
X163258660Y-48441340D03*
X168750000Y-64000000D03*
X171000000Y-64000000D03*
X174000000Y-62000000D03*
X175500000Y-60500000D03*
X177000000Y-59000000D03*
X178500000Y-57500000D03*
X180250000Y-55750000D03*
X182200000Y-50600000D03*
X185250000Y-50750000D03*
X174000000Y-59000000D03*
X175400000Y-57400000D03*
X177000000Y-55800000D03*
X184404000Y-46990000D03*
X184404000Y-44831000D03*
X184404000Y-42291000D03*
X184404000Y-39751000D03*
X184404000Y-37465000D03*
X184531000Y-35433000D03*
X188214000Y-32131000D03*
X189611000Y-30607000D03*
X190881000Y-29210000D03*
X193802000Y-29210000D03*
X194437000Y-31369000D03*
X192278000Y-31369000D03*
X191135000Y-32258000D03*
X189230000Y-34544000D03*
X187452000Y-36068000D03*
X186563000Y-37592000D03*
X186563000Y-39751000D03*
X186563000Y-42291000D03*
X186563000Y-44450000D03*
X186563000Y-46228000D03*
X183134000Y-52832000D03*
X180340000Y-52578000D03*
X185801000Y-34290000D03*
X170565660Y-58796340D03*
X176276000Y-63500000D03*
X181737000Y-58166000D03*
X186436000Y-52705000D03*
X187960000Y-50546000D03*
X202565000Y-75184000D03*
X197612000Y-75438000D03*
X193040000Y-75438000D03*
X188468000Y-74930000D03*
X173990000Y-68072000D03*
X180721000Y-63881000D03*
X182118000Y-70993000D03*
X157480000Y-65024000D03*
X136500000Y-69000000D03*
X170700000Y-41200000D03*
X141650000Y-66500000D03*
X191000000Y-67350000D03*
X170200000Y-36500000D03*
X182982616Y-64103926D03*
X177500000Y-71750000D03*
X173990000Y-57531000D03*
X136700000Y-45500000D03*
X163200000Y-31000000D03*
X171000000Y-43200000D03*
X175224997Y-55025003D03*
X176330016Y-53080000D03*
D23*
X175249999Y-29349999D03*
D22*
X192000000Y-33250000D03*
X176810010Y-51810000D03*
X175799088Y-54079534D03*
X156000000Y-68243000D03*
X179117394Y-48100000D03*
X179917948Y-48750000D03*
X180750000Y-49500000D03*
X166624000Y-65405000D03*
X149479000Y-67691000D03*
X170200000Y-50100000D03*
X158140000Y-30980000D03*
X170200000Y-48800000D03*
X159470000Y-30980000D03*
X170200000Y-47300000D03*
X160690000Y-30990000D03*
X171500000Y-55750004D03*
X171450000Y-57940000D03*
X152800000Y-65100000D03*
X168250000Y-36500000D03*
X184500000Y-67000000D03*
X168250000Y-37750000D03*
X183896000Y-69977000D03*
X168250000Y-39000000D03*
X186000000Y-72390000D03*
X170053000Y-61870001D03*
X162560000Y-68199000D03*
X161150000Y-50850000D03*
D24*
X129680000Y-61600000D02*
X129540000Y-61460000D01*
D25*
X131425000Y-50775000D02*
X136700000Y-45500000D01*
X128600000Y-50775000D02*
X131425000Y-50775000D01*
D24*
X163200000Y-35400000D02*
X171000000Y-43200000D01*
X163200000Y-35400000D02*
X163200000Y-31000000D01*
X175225001Y-55024999D02*
X175224997Y-55025003D01*
X194475001Y-55024999D02*
X175225001Y-55024999D01*
X194000000Y-48370000D02*
X195500000Y-49870000D01*
X195500000Y-54000000D02*
X194475001Y-55024999D01*
X195500000Y-49870000D02*
X195500000Y-54000000D01*
X177225016Y-53975000D02*
X176330016Y-53080000D01*
X194000000Y-50910000D02*
X190935000Y-53975000D01*
X190935000Y-53975000D02*
X177225016Y-53975000D01*
D26*
X192000000Y-33250000D02*
X183750000Y-33250000D01*
X179849999Y-29349999D02*
X175249999Y-29349999D01*
X183750000Y-33250000D02*
X179849999Y-29349999D01*
X168038000Y-70104000D02*
X141605000Y-70104000D01*
X132350001Y-60849001D02*
X132350001Y-56525001D01*
X196734010Y-37984010D02*
X196734010Y-53720598D01*
X181119000Y-57023000D02*
X168038000Y-70104000D01*
X192000000Y-33250000D02*
X196734010Y-37984010D01*
X132350001Y-56525001D02*
X128600000Y-52775000D01*
X196734010Y-53720598D02*
X193431608Y-57023000D01*
X141605000Y-70104000D02*
X132350001Y-60849001D01*
X193431608Y-57023000D02*
X181119000Y-57023000D01*
X179959000Y-42913594D02*
X179959000Y-37041000D01*
X179959000Y-37041000D02*
X183750000Y-33250000D01*
X182750000Y-44750000D02*
X181795406Y-44750000D01*
X181795406Y-44750000D02*
X179959000Y-42913594D01*
D24*
X177058010Y-51562000D02*
X176810010Y-51810000D01*
X191250000Y-48500000D02*
X188188000Y-51562000D01*
X194000000Y-43290000D02*
X191250000Y-46040000D01*
X188188000Y-51562000D02*
X177058010Y-51562000D01*
X191250000Y-46040000D02*
X191250000Y-48500000D01*
X176202554Y-54483000D02*
X175799088Y-54079534D01*
X194000000Y-53450000D02*
X192967000Y-54483000D01*
X192967000Y-54483000D02*
X176202554Y-54483000D01*
X169212000Y-28702000D02*
X172714002Y-28702000D01*
X167080000Y-26570000D02*
X169212000Y-28702000D01*
X156718000Y-68961000D02*
X156000000Y-68243000D01*
X167789000Y-68961000D02*
X156718000Y-68961000D01*
X173225001Y-63524999D02*
X167789000Y-68961000D01*
X173225001Y-29212999D02*
X173225001Y-63524999D01*
X172714002Y-28702000D02*
X173225001Y-29212999D01*
X179844946Y-47750000D02*
X186113590Y-47750000D01*
X179117394Y-48100000D02*
X179494946Y-48100000D01*
X179494946Y-48100000D02*
X179844946Y-47750000D01*
X187799990Y-42450010D02*
X189500000Y-40750000D01*
X187799990Y-46063600D02*
X187799990Y-42450010D01*
X186113590Y-47750000D02*
X187799990Y-46063600D01*
X189500000Y-43770000D02*
X189500000Y-43290000D01*
X188250000Y-46250000D02*
X188250000Y-44540000D01*
X179917948Y-48750000D02*
X185750000Y-48750000D01*
X188250000Y-44540000D02*
X189500000Y-43290000D01*
X185750000Y-48750000D02*
X188250000Y-46250000D01*
X185830000Y-49500000D02*
X189500000Y-45830000D01*
X180750000Y-49500000D02*
X185830000Y-49500000D01*
X151003000Y-66167000D02*
X149479000Y-67691000D01*
X166624000Y-65405000D02*
X165862000Y-66167000D01*
X165862000Y-66167000D02*
X151003000Y-66167000D01*
X158100000Y-38000000D02*
X170200000Y-50100000D01*
X158140000Y-30980000D02*
X158100000Y-31020000D01*
X158100000Y-31020000D02*
X158100000Y-38000000D01*
X159400000Y-38000000D02*
X170200000Y-48800000D01*
X159470000Y-30980000D02*
X159400000Y-31050000D01*
X159400000Y-31050000D02*
X159400000Y-38000000D01*
X160700000Y-37800000D02*
X170200000Y-47300000D01*
X160690000Y-30990000D02*
X160700000Y-31000000D01*
X160700000Y-31000000D02*
X160700000Y-37800000D01*
D26*
X194000000Y-46000000D02*
X194000000Y-45830000D01*
X194080000Y-45830000D02*
X194000000Y-45830000D01*
X195834000Y-39893998D02*
X195834000Y-43996000D01*
X195834000Y-43996000D02*
X194000000Y-45830000D01*
X194548002Y-38608000D02*
X195834000Y-39893998D01*
X182750000Y-42750000D02*
X181795406Y-42750000D01*
X181102000Y-42056594D02*
X181102000Y-40057998D01*
X181102000Y-40057998D02*
X182551998Y-38608000D01*
X181795406Y-42750000D02*
X181102000Y-42056594D01*
X182551998Y-38608000D02*
X194548002Y-38608000D01*
D24*
X170817996Y-55750004D02*
X171500000Y-55750004D01*
X140315001Y-26944003D02*
X141495988Y-28124990D01*
X145274990Y-28124990D02*
X146150000Y-29000000D01*
X140315001Y-25205001D02*
X140315001Y-26944003D01*
X169434319Y-55750004D02*
X171500000Y-55750004D01*
X146150000Y-29000000D02*
X146150000Y-32465685D01*
X141495988Y-28124990D02*
X145274990Y-28124990D01*
X139140000Y-24030000D02*
X140315001Y-25205001D01*
X146150000Y-32465685D02*
X169434319Y-55750004D01*
X145200000Y-33236410D02*
X169903590Y-57940000D01*
X136600000Y-24030000D02*
X137775001Y-25205001D01*
X137775001Y-25205001D02*
X137775001Y-27725001D01*
X169903590Y-57940000D02*
X171450000Y-57940000D01*
X145200000Y-33236410D02*
X145200000Y-29650000D01*
X144125000Y-28575000D02*
X138625000Y-28575000D01*
X145200000Y-29650000D02*
X144125000Y-28575000D01*
X137775001Y-27725001D02*
X138625000Y-28575000D01*
X167434000Y-29464000D02*
X164540000Y-26570000D01*
X172475002Y-58374998D02*
X172475002Y-55151998D01*
X172212000Y-31496000D02*
X170180000Y-29464000D01*
X152800000Y-65100000D02*
X158210000Y-59690000D01*
X172212000Y-54888996D02*
X172212000Y-31496000D01*
X170180000Y-29464000D02*
X167434000Y-29464000D01*
X158210000Y-59690000D02*
X171160000Y-59690000D01*
X171160000Y-59690000D02*
X172475002Y-58374998D01*
X172475002Y-55151998D02*
X172212000Y-54888996D01*
X166116000Y-68199000D02*
X162560000Y-68199000D01*
X170053000Y-61870001D02*
X170053000Y-64262000D01*
X170053000Y-64262000D02*
X166116000Y-68199000D01*
D25*
G36*
X202946085Y-22247096D02*
G01*
X203375182Y-22376648D01*
X203770943Y-22587077D01*
X204118295Y-22870370D01*
X204404005Y-23215734D01*
X204617189Y-23610011D01*
X204749736Y-24038200D01*
X204800000Y-24516432D01*
X204800000Y-25228288D01*
X204607337Y-25169069D01*
X204342500Y-25142000D01*
X203992500Y-25142000D01*
X203992500Y-26495000D01*
X204012500Y-26495000D01*
X204012500Y-26505000D01*
X203992500Y-26505000D01*
X203992500Y-27858000D01*
X204342500Y-27858000D01*
X204607337Y-27830931D01*
X204800000Y-27771712D01*
X204800000Y-32228288D01*
X204607337Y-32169069D01*
X204342500Y-32142000D01*
X203992500Y-32142000D01*
X203992500Y-33495000D01*
X204012500Y-33495000D01*
X204012500Y-33505000D01*
X203992500Y-33505000D01*
X203992500Y-34858000D01*
X204342500Y-34858000D01*
X204607337Y-34830931D01*
X204800000Y-34771712D01*
X204800001Y-74965756D01*
X204752904Y-75446085D01*
X204623351Y-75875185D01*
X204412922Y-76270944D01*
X204129630Y-76618295D01*
X203784266Y-76904005D01*
X203389989Y-77117189D01*
X202961801Y-77249736D01*
X202483567Y-77300000D01*
X163384339Y-77300000D01*
X163528068Y-77203964D01*
X163743964Y-76988068D01*
X163913592Y-76734200D01*
X164030435Y-76452118D01*
X164068239Y-76262061D01*
X166495010Y-76262061D01*
X166554318Y-76560126D01*
X166828082Y-76719446D01*
X167127667Y-76822296D01*
X167441561Y-76864723D01*
X167757701Y-76845097D01*
X168063937Y-76764173D01*
X168348502Y-76625060D01*
X168445682Y-76560126D01*
X168504990Y-76262061D01*
X167500000Y-75257071D01*
X166495010Y-76262061D01*
X164068239Y-76262061D01*
X164090000Y-76152662D01*
X164090000Y-75847338D01*
X164030435Y-75547882D01*
X163913592Y-75265800D01*
X163743964Y-75011932D01*
X163528068Y-74796036D01*
X163274200Y-74626408D01*
X162992118Y-74509565D01*
X162692662Y-74450000D01*
X162387338Y-74450000D01*
X162087882Y-74509565D01*
X161805800Y-74626408D01*
X161585151Y-74773840D01*
X161533304Y-74676840D01*
X161438581Y-74561419D01*
X161323160Y-74466696D01*
X161191478Y-74396311D01*
X161048594Y-74352967D01*
X160900000Y-74338332D01*
X160194500Y-74342000D01*
X160005000Y-74531500D01*
X160005000Y-75995000D01*
X160025000Y-75995000D01*
X160025000Y-76005000D01*
X160005000Y-76005000D01*
X160005000Y-76025000D01*
X159995000Y-76025000D01*
X159995000Y-76005000D01*
X158531500Y-76005000D01*
X158342000Y-76194500D01*
X158338332Y-76900000D01*
X158352967Y-77048594D01*
X158396311Y-77191478D01*
X158454317Y-77300000D01*
X156884339Y-77300000D01*
X157028068Y-77203964D01*
X157243964Y-76988068D01*
X157413592Y-76734200D01*
X157530435Y-76452118D01*
X157590000Y-76152662D01*
X157590000Y-75847338D01*
X157530435Y-75547882D01*
X157413592Y-75265800D01*
X157302809Y-75100000D01*
X158338332Y-75100000D01*
X158342000Y-75805500D01*
X158531500Y-75995000D01*
X159995000Y-75995000D01*
X159995000Y-74531500D01*
X159805500Y-74342000D01*
X159100000Y-74338332D01*
X158951406Y-74352967D01*
X158808522Y-74396311D01*
X158676840Y-74466696D01*
X158561419Y-74561419D01*
X158466696Y-74676840D01*
X158396311Y-74808522D01*
X158352967Y-74951406D01*
X158338332Y-75100000D01*
X157302809Y-75100000D01*
X157243964Y-75011932D01*
X157028068Y-74796036D01*
X156774200Y-74626408D01*
X156492118Y-74509565D01*
X156192662Y-74450000D01*
X155887338Y-74450000D01*
X155587882Y-74509565D01*
X155305800Y-74626408D01*
X155085151Y-74773840D01*
X155033304Y-74676840D01*
X154938581Y-74561419D01*
X154823160Y-74466696D01*
X154691478Y-74396311D01*
X154548594Y-74352967D01*
X154400000Y-74338332D01*
X153694500Y-74342000D01*
X153505000Y-74531500D01*
X153505000Y-75995000D01*
X153525000Y-75995000D01*
X153525000Y-76005000D01*
X153505000Y-76005000D01*
X153505000Y-76025000D01*
X153495000Y-76025000D01*
X153495000Y-76005000D01*
X152031500Y-76005000D01*
X151842000Y-76194500D01*
X151838332Y-76900000D01*
X151852967Y-77048594D01*
X151896311Y-77191478D01*
X151954317Y-77300000D01*
X150384339Y-77300000D01*
X150528068Y-77203964D01*
X150743964Y-76988068D01*
X150913592Y-76734200D01*
X151030435Y-76452118D01*
X151090000Y-76152662D01*
X151090000Y-75847338D01*
X151030435Y-75547882D01*
X150913592Y-75265800D01*
X150802809Y-75100000D01*
X151838332Y-75100000D01*
X151842000Y-75805500D01*
X152031500Y-75995000D01*
X153495000Y-75995000D01*
X153495000Y-74531500D01*
X153305500Y-74342000D01*
X152600000Y-74338332D01*
X152451406Y-74352967D01*
X152308522Y-74396311D01*
X152176840Y-74466696D01*
X152061419Y-74561419D01*
X151966696Y-74676840D01*
X151896311Y-74808522D01*
X151852967Y-74951406D01*
X151838332Y-75100000D01*
X150802809Y-75100000D01*
X150743964Y-75011932D01*
X150528068Y-74796036D01*
X150274200Y-74626408D01*
X149992118Y-74509565D01*
X149692662Y-74450000D01*
X149387338Y-74450000D01*
X149087882Y-74509565D01*
X148805800Y-74626408D01*
X148585151Y-74773840D01*
X148533304Y-74676840D01*
X148438581Y-74561419D01*
X148323160Y-74466696D01*
X148191478Y-74396311D01*
X148048594Y-74352967D01*
X147900000Y-74338332D01*
X147194500Y-74342000D01*
X147005000Y-74531500D01*
X147005000Y-75995000D01*
X147025000Y-75995000D01*
X147025000Y-76005000D01*
X147005000Y-76005000D01*
X147005000Y-76025000D01*
X146995000Y-76025000D01*
X146995000Y-76005000D01*
X145531500Y-76005000D01*
X145342000Y-76194500D01*
X145338332Y-76900000D01*
X145352967Y-77048594D01*
X145396311Y-77191478D01*
X145454317Y-77300000D01*
X143884339Y-77300000D01*
X144028068Y-77203964D01*
X144243964Y-76988068D01*
X144413592Y-76734200D01*
X144530435Y-76452118D01*
X144590000Y-76152662D01*
X144590000Y-75847338D01*
X144530435Y-75547882D01*
X144413592Y-75265800D01*
X144302809Y-75100000D01*
X145338332Y-75100000D01*
X145342000Y-75805500D01*
X145531500Y-75995000D01*
X146995000Y-75995000D01*
X146995000Y-74531500D01*
X146805500Y-74342000D01*
X146100000Y-74338332D01*
X145951406Y-74352967D01*
X145808522Y-74396311D01*
X145676840Y-74466696D01*
X145561419Y-74561419D01*
X145466696Y-74676840D01*
X145396311Y-74808522D01*
X145352967Y-74951406D01*
X145338332Y-75100000D01*
X144302809Y-75100000D01*
X144243964Y-75011932D01*
X144028068Y-74796036D01*
X143774200Y-74626408D01*
X143492118Y-74509565D01*
X143192662Y-74450000D01*
X142887338Y-74450000D01*
X142587882Y-74509565D01*
X142305800Y-74626408D01*
X142085151Y-74773840D01*
X142033304Y-74676840D01*
X141938581Y-74561419D01*
X141823160Y-74466696D01*
X141691478Y-74396311D01*
X141548594Y-74352967D01*
X141400000Y-74338332D01*
X140694500Y-74342000D01*
X140505000Y-74531500D01*
X140505000Y-75995000D01*
X140525000Y-75995000D01*
X140525000Y-76005000D01*
X140505000Y-76005000D01*
X140505000Y-76025000D01*
X140495000Y-76025000D01*
X140495000Y-76005000D01*
X139031500Y-76005000D01*
X138842000Y-76194500D01*
X138838332Y-76900000D01*
X138852967Y-77048594D01*
X138896311Y-77191478D01*
X138954317Y-77300000D01*
X137384339Y-77300000D01*
X137528068Y-77203964D01*
X137743964Y-76988068D01*
X137913592Y-76734200D01*
X138030435Y-76452118D01*
X138090000Y-76152662D01*
X138090000Y-75847338D01*
X138030435Y-75547882D01*
X137913592Y-75265800D01*
X137802809Y-75100000D01*
X138838332Y-75100000D01*
X138842000Y-75805500D01*
X139031500Y-75995000D01*
X140495000Y-75995000D01*
X140495000Y-74531500D01*
X140305500Y-74342000D01*
X139600000Y-74338332D01*
X139451406Y-74352967D01*
X139308522Y-74396311D01*
X139176840Y-74466696D01*
X139061419Y-74561419D01*
X138966696Y-74676840D01*
X138896311Y-74808522D01*
X138852967Y-74951406D01*
X138838332Y-75100000D01*
X137802809Y-75100000D01*
X137743964Y-75011932D01*
X137528068Y-74796036D01*
X137274200Y-74626408D01*
X136992118Y-74509565D01*
X136692662Y-74450000D01*
X136387338Y-74450000D01*
X136087882Y-74509565D01*
X135805800Y-74626408D01*
X135585151Y-74773840D01*
X135533304Y-74676840D01*
X135438581Y-74561419D01*
X135323160Y-74466696D01*
X135191478Y-74396311D01*
X135048594Y-74352967D01*
X134900000Y-74338332D01*
X134194500Y-74342000D01*
X134005000Y-74531500D01*
X134005000Y-75995000D01*
X134025000Y-75995000D01*
X134025000Y-76005000D01*
X134005000Y-76005000D01*
X134005000Y-76025000D01*
X133995000Y-76025000D01*
X133995000Y-76005000D01*
X132531500Y-76005000D01*
X132342000Y-76194500D01*
X132338332Y-76900000D01*
X132352967Y-77048594D01*
X132396311Y-77191478D01*
X132454317Y-77300000D01*
X123534234Y-77300000D01*
X123053915Y-77252904D01*
X122624815Y-77123351D01*
X122229056Y-76912922D01*
X121881705Y-76629630D01*
X121595995Y-76284266D01*
X121382811Y-75889989D01*
X121250264Y-75461801D01*
X121200000Y-74983567D01*
X121200000Y-74254648D01*
X121969463Y-74254648D01*
X121969463Y-74654628D01*
X122047495Y-75046924D01*
X122200561Y-75416458D01*
X122422779Y-75749030D01*
X122705608Y-76031859D01*
X123038180Y-76254077D01*
X123407714Y-76407143D01*
X123800010Y-76485175D01*
X124199990Y-76485175D01*
X124592286Y-76407143D01*
X124961820Y-76254077D01*
X125294392Y-76031859D01*
X125577221Y-75749030D01*
X125799439Y-75416458D01*
X125930520Y-75100000D01*
X132338332Y-75100000D01*
X132342000Y-75805500D01*
X132531500Y-75995000D01*
X133995000Y-75995000D01*
X133995000Y-74531500D01*
X133805500Y-74342000D01*
X133100000Y-74338332D01*
X132951406Y-74352967D01*
X132808522Y-74396311D01*
X132676840Y-74466696D01*
X132561419Y-74561419D01*
X132466696Y-74676840D01*
X132396311Y-74808522D01*
X132352967Y-74951406D01*
X132338332Y-75100000D01*
X125930520Y-75100000D01*
X125952505Y-75046924D01*
X126030537Y-74654628D01*
X126030537Y-74254648D01*
X125952505Y-73862352D01*
X125799439Y-73492818D01*
X125577221Y-73160246D01*
X125294392Y-72877417D01*
X124961820Y-72655199D01*
X124592286Y-72502133D01*
X124199990Y-72424101D01*
X123800010Y-72424101D01*
X123407714Y-72502133D01*
X123038180Y-72655199D01*
X122705608Y-72877417D01*
X122422779Y-73160246D01*
X122200561Y-73492818D01*
X122047495Y-73862352D01*
X121969463Y-74254648D01*
X121200000Y-74254648D01*
X121200000Y-68896584D01*
X135450000Y-68896584D01*
X135450000Y-69103416D01*
X135490350Y-69306274D01*
X135569502Y-69497362D01*
X135684411Y-69669336D01*
X135830664Y-69815589D01*
X136002638Y-69930498D01*
X136193726Y-70009650D01*
X136396584Y-70050000D01*
X136603416Y-70050000D01*
X136806274Y-70009650D01*
X136997362Y-69930498D01*
X137169336Y-69815589D01*
X137315589Y-69669336D01*
X137430498Y-69497362D01*
X137509650Y-69306274D01*
X137550000Y-69103416D01*
X137550000Y-68896584D01*
X137509650Y-68693726D01*
X137430498Y-68502638D01*
X137315589Y-68330664D01*
X137169336Y-68184411D01*
X136997362Y-68069502D01*
X136806274Y-67990350D01*
X136603416Y-67950000D01*
X136396584Y-67950000D01*
X136193726Y-67990350D01*
X136002638Y-68069502D01*
X135830664Y-68184411D01*
X135684411Y-68330664D01*
X135569502Y-68502638D01*
X135490350Y-68693726D01*
X135450000Y-68896584D01*
X121200000Y-68896584D01*
X121200000Y-67947458D01*
X123159613Y-67947458D01*
X123251894Y-68273683D01*
X123572393Y-68460395D01*
X123923159Y-68580992D01*
X124290713Y-68630841D01*
X124660929Y-68608026D01*
X125019581Y-68513424D01*
X125352885Y-68350670D01*
X125468106Y-68273683D01*
X125560387Y-67947458D01*
X128239613Y-67947458D01*
X128331894Y-68273683D01*
X128652393Y-68460395D01*
X129003159Y-68580992D01*
X129370713Y-68630841D01*
X129740929Y-68608026D01*
X130099581Y-68513424D01*
X130432885Y-68350670D01*
X130548106Y-68273683D01*
X130640387Y-67947458D01*
X129440000Y-66747071D01*
X128239613Y-67947458D01*
X125560387Y-67947458D01*
X124360000Y-66747071D01*
X123159613Y-67947458D01*
X121200000Y-67947458D01*
X121200000Y-66670713D01*
X122469159Y-66670713D01*
X122491974Y-67040929D01*
X122586576Y-67399581D01*
X122749330Y-67732885D01*
X122826317Y-67848106D01*
X123152542Y-67940387D01*
X124352929Y-66740000D01*
X123152542Y-65539613D01*
X122826317Y-65631894D01*
X122639605Y-65952393D01*
X122519008Y-66303159D01*
X122469159Y-66670713D01*
X121200000Y-66670713D01*
X121200000Y-62867458D01*
X123159613Y-62867458D01*
X123251894Y-63193683D01*
X123572393Y-63380395D01*
X123923159Y-63500992D01*
X124290713Y-63550841D01*
X124611529Y-63531070D01*
X124525000Y-63966083D01*
X124525000Y-64433917D01*
X124612540Y-64874012D01*
X124429287Y-64849159D01*
X124059071Y-64871974D01*
X123700419Y-64966576D01*
X123367115Y-65129330D01*
X123251894Y-65206317D01*
X123159613Y-65532542D01*
X124360000Y-66732929D01*
X124374143Y-66718787D01*
X124381214Y-66725858D01*
X124367071Y-66740000D01*
X125567458Y-67940387D01*
X125893683Y-67848106D01*
X126080395Y-67527607D01*
X126200992Y-67176841D01*
X126250841Y-66809287D01*
X126231070Y-66488471D01*
X126666083Y-66575000D01*
X127133917Y-66575000D01*
X127574012Y-66487460D01*
X127549159Y-66670713D01*
X127571974Y-67040929D01*
X127666576Y-67399581D01*
X127829330Y-67732885D01*
X127906317Y-67848106D01*
X128232542Y-67940387D01*
X129432929Y-66740000D01*
X129447071Y-66740000D01*
X130647458Y-67940387D01*
X130973683Y-67848106D01*
X131160395Y-67527607D01*
X131280992Y-67176841D01*
X131330841Y-66809287D01*
X131308026Y-66439071D01*
X131213424Y-66080419D01*
X131050670Y-65747115D01*
X130973683Y-65631894D01*
X130647458Y-65539613D01*
X129447071Y-66740000D01*
X129432929Y-66740000D01*
X129418787Y-66725858D01*
X129425858Y-66718787D01*
X129440000Y-66732929D01*
X130640387Y-65532542D01*
X130548106Y-65206317D01*
X130227607Y-65019605D01*
X129876841Y-64899008D01*
X129509287Y-64849159D01*
X129188471Y-64868930D01*
X129275000Y-64433917D01*
X129275000Y-63966083D01*
X129187460Y-63525988D01*
X129370713Y-63550841D01*
X129740929Y-63528026D01*
X130099581Y-63433424D01*
X130432885Y-63270670D01*
X130548106Y-63193683D01*
X130640387Y-62867458D01*
X129440000Y-61667071D01*
X129425858Y-61681214D01*
X129418787Y-61674143D01*
X129432929Y-61660000D01*
X129447071Y-61660000D01*
X130647458Y-62860387D01*
X130973683Y-62768106D01*
X131160395Y-62447607D01*
X131280992Y-62096841D01*
X131330841Y-61729287D01*
X131308026Y-61359071D01*
X131213424Y-61000419D01*
X131050670Y-60667115D01*
X130973683Y-60551894D01*
X130647458Y-60459613D01*
X129447071Y-61660000D01*
X129432929Y-61660000D01*
X128232542Y-60459613D01*
X127906317Y-60551894D01*
X127719605Y-60872393D01*
X127599008Y-61223159D01*
X127549159Y-61590713D01*
X127568930Y-61911529D01*
X127133917Y-61825000D01*
X126666083Y-61825000D01*
X126225988Y-61912540D01*
X126250841Y-61729287D01*
X126228026Y-61359071D01*
X126133424Y-61000419D01*
X125970670Y-60667115D01*
X125893683Y-60551894D01*
X125567458Y-60459613D01*
X124367071Y-61660000D01*
X124381214Y-61674143D01*
X124374143Y-61681214D01*
X124360000Y-61667071D01*
X123159613Y-62867458D01*
X121200000Y-62867458D01*
X121200000Y-61590713D01*
X122469159Y-61590713D01*
X122491974Y-61960929D01*
X122586576Y-62319581D01*
X122749330Y-62652885D01*
X122826317Y-62768106D01*
X123152542Y-62860387D01*
X124352929Y-61660000D01*
X123152542Y-60459613D01*
X122826317Y-60551894D01*
X122639605Y-60872393D01*
X122519008Y-61223159D01*
X122469159Y-61590713D01*
X121200000Y-61590713D01*
X121200000Y-60452542D01*
X123159613Y-60452542D01*
X124360000Y-61652929D01*
X125560387Y-60452542D01*
X128239613Y-60452542D01*
X129440000Y-61652929D01*
X130640387Y-60452542D01*
X130548106Y-60126317D01*
X130227607Y-59939605D01*
X129876841Y-59819008D01*
X129509287Y-59769159D01*
X129139071Y-59791974D01*
X128780419Y-59886576D01*
X128447115Y-60049330D01*
X128331894Y-60126317D01*
X128239613Y-60452542D01*
X125560387Y-60452542D01*
X125468106Y-60126317D01*
X125147607Y-59939605D01*
X124796841Y-59819008D01*
X124429287Y-59769159D01*
X124059071Y-59791974D01*
X123700419Y-59886576D01*
X123367115Y-60049330D01*
X123251894Y-60126317D01*
X123159613Y-60452542D01*
X121200000Y-60452542D01*
X121200000Y-59534235D01*
X121209006Y-59442384D01*
X121225740Y-59386957D01*
X121252920Y-59335840D01*
X121289511Y-59290974D01*
X121334119Y-59254072D01*
X121385047Y-59226535D01*
X121440352Y-59209416D01*
X121529933Y-59200000D01*
X124534390Y-59200000D01*
X124564319Y-59197052D01*
X124570425Y-59197095D01*
X124580153Y-59196141D01*
X124774250Y-59175740D01*
X124836420Y-59162978D01*
X124898716Y-59151095D01*
X124908069Y-59148271D01*
X124908075Y-59148270D01*
X124908081Y-59148268D01*
X125094511Y-59090558D01*
X125152985Y-59065978D01*
X125211822Y-59042207D01*
X125220452Y-59037618D01*
X125392129Y-58944793D01*
X125444757Y-58909295D01*
X125497817Y-58874574D01*
X125505379Y-58868406D01*
X125505389Y-58868399D01*
X125505396Y-58868391D01*
X125655769Y-58743993D01*
X125700507Y-58698942D01*
X125745802Y-58654586D01*
X125752032Y-58647055D01*
X125875382Y-58495813D01*
X125910521Y-58442924D01*
X125946336Y-58390619D01*
X125950982Y-58382026D01*
X125950985Y-58382022D01*
X125950987Y-58382018D01*
X126042610Y-58209699D01*
X126066779Y-58151061D01*
X126091780Y-58092729D01*
X126094670Y-58083392D01*
X126151079Y-57896556D01*
X126163408Y-57834291D01*
X126176593Y-57772263D01*
X126177613Y-57762552D01*
X126177615Y-57762542D01*
X126177615Y-57762533D01*
X126196659Y-57568309D01*
X126200000Y-57534390D01*
X126200000Y-48100000D01*
X127271855Y-48100000D01*
X127271855Y-49450000D01*
X127284405Y-49577422D01*
X127321573Y-49699948D01*
X127381930Y-49812868D01*
X127463157Y-49911843D01*
X127540672Y-49975459D01*
X127425800Y-50147377D01*
X127325919Y-50388512D01*
X127275000Y-50644499D01*
X127275000Y-50905501D01*
X127325919Y-51161488D01*
X127425800Y-51402623D01*
X127570805Y-51619638D01*
X127726167Y-51775000D01*
X127570805Y-51930362D01*
X127425800Y-52147377D01*
X127325919Y-52388512D01*
X127275000Y-52644499D01*
X127275000Y-52905501D01*
X127325919Y-53161488D01*
X127425800Y-53402623D01*
X127570805Y-53619638D01*
X127755362Y-53804195D01*
X127972377Y-53949200D01*
X128213512Y-54049081D01*
X128469499Y-54100000D01*
X128510788Y-54100000D01*
X131350002Y-56939215D01*
X131350001Y-60799881D01*
X131345163Y-60849001D01*
X131364471Y-61045035D01*
X131378491Y-61091252D01*
X131421652Y-61233535D01*
X131514509Y-61407259D01*
X131639473Y-61559529D01*
X131677638Y-61590850D01*
X140863155Y-70776368D01*
X140894472Y-70814528D01*
X141046742Y-70939492D01*
X141210458Y-71027000D01*
X141220465Y-71032349D01*
X141408965Y-71089530D01*
X141604999Y-71108838D01*
X141654119Y-71104000D01*
X165650824Y-71104000D01*
X165421064Y-71199170D01*
X165134440Y-71390686D01*
X164890686Y-71634440D01*
X164699170Y-71921064D01*
X164567251Y-72239544D01*
X164500000Y-72577640D01*
X164500000Y-72922360D01*
X164567251Y-73260456D01*
X164699170Y-73578936D01*
X164890686Y-73865560D01*
X165134440Y-74109314D01*
X165421064Y-74300830D01*
X165739544Y-74432749D01*
X166076165Y-74499707D01*
X166030554Y-74578082D01*
X165927704Y-74877667D01*
X165885277Y-75191561D01*
X165904903Y-75507701D01*
X165985827Y-75813937D01*
X166124940Y-76098502D01*
X166189874Y-76195682D01*
X166487939Y-76254990D01*
X167492929Y-75250000D01*
X167507071Y-75250000D01*
X168512061Y-76254990D01*
X168810126Y-76195682D01*
X168969446Y-75921918D01*
X169072296Y-75622333D01*
X169114723Y-75308439D01*
X169101924Y-75102263D01*
X170500000Y-75102263D01*
X170500000Y-75397737D01*
X170557644Y-75687534D01*
X170670717Y-75960517D01*
X170834874Y-76206194D01*
X171043806Y-76415126D01*
X171289483Y-76579283D01*
X171562466Y-76692356D01*
X171852263Y-76750000D01*
X172147737Y-76750000D01*
X172437534Y-76692356D01*
X172710517Y-76579283D01*
X172956194Y-76415126D01*
X173165126Y-76206194D01*
X173329283Y-75960517D01*
X173442356Y-75687534D01*
X173500000Y-75397737D01*
X173500000Y-75102263D01*
X173442356Y-74812466D01*
X173329283Y-74539483D01*
X173302901Y-74500000D01*
X173422360Y-74500000D01*
X173760456Y-74432749D01*
X174078936Y-74300830D01*
X174080163Y-74300010D01*
X180014825Y-74300010D01*
X180014825Y-74699990D01*
X180092857Y-75092286D01*
X180245923Y-75461820D01*
X180468141Y-75794392D01*
X180750970Y-76077221D01*
X181083542Y-76299439D01*
X181453076Y-76452505D01*
X181845372Y-76530537D01*
X182245352Y-76530537D01*
X182637648Y-76452505D01*
X183007182Y-76299439D01*
X183339754Y-76077221D01*
X183622583Y-75794392D01*
X183844801Y-75461820D01*
X183997867Y-75092286D01*
X184075899Y-74699990D01*
X184075899Y-74300010D01*
X183997867Y-73907714D01*
X183844801Y-73538180D01*
X183622583Y-73205608D01*
X183339754Y-72922779D01*
X183007182Y-72700561D01*
X182637648Y-72547495D01*
X182245352Y-72469463D01*
X181845372Y-72469463D01*
X181453076Y-72547495D01*
X181083542Y-72700561D01*
X180750970Y-72922779D01*
X180468141Y-73205608D01*
X180245923Y-73538180D01*
X180092857Y-73907714D01*
X180014825Y-74300010D01*
X174080163Y-74300010D01*
X174365560Y-74109314D01*
X174609314Y-73865560D01*
X174800830Y-73578936D01*
X174932749Y-73260456D01*
X175000000Y-72922360D01*
X175000000Y-72577640D01*
X174932749Y-72239544D01*
X174800830Y-71921064D01*
X174617429Y-71646584D01*
X176450000Y-71646584D01*
X176450000Y-71853416D01*
X176490350Y-72056274D01*
X176569502Y-72247362D01*
X176684411Y-72419336D01*
X176830664Y-72565589D01*
X177002638Y-72680498D01*
X177193726Y-72759650D01*
X177396584Y-72800000D01*
X177603416Y-72800000D01*
X177806274Y-72759650D01*
X177997362Y-72680498D01*
X178169336Y-72565589D01*
X178315589Y-72419336D01*
X178404290Y-72286584D01*
X184950000Y-72286584D01*
X184950000Y-72493416D01*
X184990350Y-72696274D01*
X185069502Y-72887362D01*
X185184411Y-73059336D01*
X185330664Y-73205589D01*
X185502638Y-73320498D01*
X185693726Y-73399650D01*
X185896584Y-73440000D01*
X186103416Y-73440000D01*
X186306274Y-73399650D01*
X186497362Y-73320498D01*
X186669336Y-73205589D01*
X186815589Y-73059336D01*
X186930498Y-72887362D01*
X187009650Y-72696274D01*
X187050000Y-72493416D01*
X187050000Y-72286584D01*
X187009650Y-72083726D01*
X186930498Y-71892638D01*
X186815589Y-71720664D01*
X186669336Y-71574411D01*
X186497362Y-71459502D01*
X186306274Y-71380350D01*
X186103416Y-71340000D01*
X185896584Y-71340000D01*
X185693726Y-71380350D01*
X185502638Y-71459502D01*
X185330664Y-71574411D01*
X185184411Y-71720664D01*
X185069502Y-71892638D01*
X184990350Y-72083726D01*
X184950000Y-72286584D01*
X178404290Y-72286584D01*
X178430498Y-72247362D01*
X178509650Y-72056274D01*
X178550000Y-71853416D01*
X178550000Y-71646584D01*
X178509650Y-71443726D01*
X178430498Y-71252638D01*
X178315589Y-71080664D01*
X178169336Y-70934411D01*
X177997362Y-70819502D01*
X177806274Y-70740350D01*
X177603416Y-70700000D01*
X177396584Y-70700000D01*
X177193726Y-70740350D01*
X177002638Y-70819502D01*
X176830664Y-70934411D01*
X176684411Y-71080664D01*
X176569502Y-71252638D01*
X176490350Y-71443726D01*
X176450000Y-71646584D01*
X174617429Y-71646584D01*
X174609314Y-71634440D01*
X174365560Y-71390686D01*
X174078936Y-71199170D01*
X173760456Y-71067251D01*
X173422360Y-71000000D01*
X173077640Y-71000000D01*
X172739544Y-71067251D01*
X172421064Y-71199170D01*
X172134440Y-71390686D01*
X171890686Y-71634440D01*
X171699170Y-71921064D01*
X171567251Y-72239544D01*
X171500000Y-72577640D01*
X171500000Y-72922360D01*
X171567251Y-73260456D01*
X171699170Y-73578936D01*
X171818022Y-73756811D01*
X171562466Y-73807644D01*
X171289483Y-73920717D01*
X171043806Y-74084874D01*
X170834874Y-74293806D01*
X170670717Y-74539483D01*
X170557644Y-74812466D01*
X170500000Y-75102263D01*
X169101924Y-75102263D01*
X169095097Y-74992299D01*
X169014173Y-74686063D01*
X168875060Y-74401498D01*
X168810126Y-74304318D01*
X168512061Y-74245010D01*
X167507071Y-75250000D01*
X167492929Y-75250000D01*
X167478787Y-75235858D01*
X167485858Y-75228787D01*
X167500000Y-75242929D01*
X168504990Y-74237939D01*
X168445682Y-73939874D01*
X168171918Y-73780554D01*
X167872333Y-73677704D01*
X167746225Y-73660659D01*
X167800830Y-73578936D01*
X167932749Y-73260456D01*
X168000000Y-72922360D01*
X168000000Y-72577640D01*
X167932749Y-72239544D01*
X167800830Y-71921064D01*
X167609314Y-71634440D01*
X167365560Y-71390686D01*
X167078936Y-71199170D01*
X166849176Y-71104000D01*
X167988880Y-71104000D01*
X168038000Y-71108838D01*
X168087120Y-71104000D01*
X168234034Y-71089530D01*
X168422535Y-71032349D01*
X168596258Y-70939492D01*
X168748528Y-70814528D01*
X168779849Y-70776363D01*
X169682628Y-69873584D01*
X182846000Y-69873584D01*
X182846000Y-70080416D01*
X182886350Y-70283274D01*
X182965502Y-70474362D01*
X183080411Y-70646336D01*
X183226664Y-70792589D01*
X183398638Y-70907498D01*
X183589726Y-70986650D01*
X183792584Y-71027000D01*
X183999416Y-71027000D01*
X184202274Y-70986650D01*
X184393362Y-70907498D01*
X184565336Y-70792589D01*
X184711589Y-70646336D01*
X184826498Y-70474362D01*
X184905650Y-70283274D01*
X184946000Y-70080416D01*
X184946000Y-69873584D01*
X184905650Y-69670726D01*
X184826498Y-69479638D01*
X184711589Y-69307664D01*
X184565336Y-69161411D01*
X184393362Y-69046502D01*
X184202274Y-68967350D01*
X183999416Y-68927000D01*
X183792584Y-68927000D01*
X183589726Y-68967350D01*
X183398638Y-69046502D01*
X183226664Y-69161411D01*
X183080411Y-69307664D01*
X182965502Y-69479638D01*
X182886350Y-69670726D01*
X182846000Y-69873584D01*
X169682628Y-69873584D01*
X172659628Y-66896584D01*
X183450000Y-66896584D01*
X183450000Y-67103416D01*
X183490350Y-67306274D01*
X183569502Y-67497362D01*
X183684411Y-67669336D01*
X183830664Y-67815589D01*
X184002638Y-67930498D01*
X184193726Y-68009650D01*
X184396584Y-68050000D01*
X184603416Y-68050000D01*
X184806274Y-68009650D01*
X184997362Y-67930498D01*
X185169336Y-67815589D01*
X185315589Y-67669336D01*
X185430498Y-67497362D01*
X185509650Y-67306274D01*
X185521522Y-67246584D01*
X189950000Y-67246584D01*
X189950000Y-67453416D01*
X189990350Y-67656274D01*
X190069502Y-67847362D01*
X190184411Y-68019336D01*
X190330664Y-68165589D01*
X190502638Y-68280498D01*
X190693726Y-68359650D01*
X190896584Y-68400000D01*
X191103416Y-68400000D01*
X191306274Y-68359650D01*
X191497362Y-68280498D01*
X191669336Y-68165589D01*
X191815589Y-68019336D01*
X191930498Y-67847362D01*
X192009650Y-67656274D01*
X192050000Y-67453416D01*
X192050000Y-67246584D01*
X192009650Y-67043726D01*
X191930498Y-66852638D01*
X191815589Y-66680664D01*
X191669336Y-66534411D01*
X191497362Y-66419502D01*
X191306274Y-66340350D01*
X191103416Y-66300000D01*
X190896584Y-66300000D01*
X190693726Y-66340350D01*
X190502638Y-66419502D01*
X190330664Y-66534411D01*
X190184411Y-66680664D01*
X190069502Y-66852638D01*
X189990350Y-67043726D01*
X189950000Y-67246584D01*
X185521522Y-67246584D01*
X185550000Y-67103416D01*
X185550000Y-66896584D01*
X185509650Y-66693726D01*
X185430498Y-66502638D01*
X185315589Y-66330664D01*
X185169336Y-66184411D01*
X184997362Y-66069502D01*
X184806274Y-65990350D01*
X184603416Y-65950000D01*
X184396584Y-65950000D01*
X184193726Y-65990350D01*
X184002638Y-66069502D01*
X183830664Y-66184411D01*
X183684411Y-66330664D01*
X183569502Y-66502638D01*
X183490350Y-66693726D01*
X183450000Y-66896584D01*
X172659628Y-66896584D01*
X175555703Y-64000510D01*
X181932616Y-64000510D01*
X181932616Y-64207342D01*
X181972966Y-64410200D01*
X182052118Y-64601288D01*
X182167027Y-64773262D01*
X182313280Y-64919515D01*
X182485254Y-65034424D01*
X182676342Y-65113576D01*
X182879200Y-65153926D01*
X183086032Y-65153926D01*
X183288890Y-65113576D01*
X183479978Y-65034424D01*
X183651952Y-64919515D01*
X183798205Y-64773262D01*
X183913114Y-64601288D01*
X183992266Y-64410200D01*
X184032616Y-64207342D01*
X184032616Y-64000510D01*
X183992266Y-63797652D01*
X183913114Y-63606564D01*
X183798205Y-63434590D01*
X183651952Y-63288337D01*
X183479978Y-63173428D01*
X183288890Y-63094276D01*
X183086032Y-63053926D01*
X182879200Y-63053926D01*
X182676342Y-63094276D01*
X182485254Y-63173428D01*
X182313280Y-63288337D01*
X182167027Y-63434590D01*
X182052118Y-63606564D01*
X181972966Y-63797652D01*
X181932616Y-64000510D01*
X175555703Y-64000510D01*
X181533214Y-58023000D01*
X193382488Y-58023000D01*
X193431608Y-58027838D01*
X193480728Y-58023000D01*
X193627642Y-58008530D01*
X193816143Y-57951349D01*
X193989866Y-57858492D01*
X194142136Y-57733528D01*
X194173457Y-57695363D01*
X197406384Y-54462438D01*
X197444538Y-54431126D01*
X197569502Y-54278856D01*
X197662359Y-54105133D01*
X197719540Y-53916632D01*
X197734010Y-53769718D01*
X197738848Y-53720598D01*
X197734010Y-53671478D01*
X197734010Y-38033127D01*
X197738848Y-37984009D01*
X197732415Y-37918698D01*
X197719540Y-37787976D01*
X197662359Y-37599475D01*
X197569502Y-37425752D01*
X197444538Y-37273482D01*
X197406378Y-37242165D01*
X193587458Y-33423245D01*
X200371326Y-33423245D01*
X200415647Y-33708510D01*
X200668167Y-33855379D01*
X200944488Y-33950161D01*
X201233992Y-33989215D01*
X201525551Y-33971039D01*
X201807962Y-33896332D01*
X202070373Y-33767965D01*
X202146085Y-33717375D01*
X202297010Y-33717375D01*
X202304618Y-33760029D01*
X202380958Y-34015065D01*
X202505586Y-34250307D01*
X202673713Y-34456716D01*
X202878878Y-34626358D01*
X203113196Y-34752715D01*
X203367663Y-34830931D01*
X203632500Y-34858000D01*
X203982500Y-34858000D01*
X203982500Y-33505000D01*
X202469011Y-33505000D01*
X202297010Y-33717375D01*
X202146085Y-33717375D01*
X202159353Y-33708510D01*
X202203674Y-33423245D01*
X201287500Y-32507071D01*
X200371326Y-33423245D01*
X193587458Y-33423245D01*
X192940149Y-32775937D01*
X192930498Y-32752638D01*
X192815589Y-32580664D01*
X192681417Y-32446492D01*
X199798285Y-32446492D01*
X199816461Y-32738051D01*
X199891168Y-33020462D01*
X200019535Y-33282873D01*
X200078990Y-33371853D01*
X200364255Y-33416174D01*
X201280429Y-32500000D01*
X201294571Y-32500000D01*
X202210745Y-33416174D01*
X202383440Y-33389343D01*
X202469011Y-33495000D01*
X203982500Y-33495000D01*
X203982500Y-32142000D01*
X203632500Y-32142000D01*
X203367663Y-32169069D01*
X203113196Y-32247285D01*
X202878878Y-32373642D01*
X202771060Y-32462792D01*
X202758539Y-32261949D01*
X202683832Y-31979538D01*
X202555465Y-31717127D01*
X202496010Y-31628147D01*
X202210745Y-31583826D01*
X201294571Y-32500000D01*
X201280429Y-32500000D01*
X200364255Y-31583826D01*
X200078990Y-31628147D01*
X199932121Y-31880667D01*
X199837339Y-32156988D01*
X199798285Y-32446492D01*
X192681417Y-32446492D01*
X192669336Y-32434411D01*
X192497362Y-32319502D01*
X192306274Y-32240350D01*
X192103416Y-32200000D01*
X191896584Y-32200000D01*
X191693726Y-32240350D01*
X191670429Y-32250000D01*
X184164213Y-32250000D01*
X183490968Y-31576755D01*
X200371326Y-31576755D01*
X201287500Y-32492929D01*
X202203674Y-31576755D01*
X202159353Y-31291490D01*
X201906833Y-31144621D01*
X201630512Y-31049839D01*
X201341008Y-31010785D01*
X201049449Y-31028961D01*
X200767038Y-31103668D01*
X200504627Y-31232035D01*
X200415647Y-31291490D01*
X200371326Y-31576755D01*
X183490968Y-31576755D01*
X180591848Y-28677636D01*
X180560527Y-28639471D01*
X180408257Y-28514507D01*
X180237519Y-28423245D01*
X200371326Y-28423245D01*
X200415647Y-28708510D01*
X200668167Y-28855379D01*
X200944488Y-28950161D01*
X201233992Y-28989215D01*
X201525551Y-28971039D01*
X201807962Y-28896332D01*
X202070373Y-28767965D01*
X202159353Y-28708510D01*
X202203674Y-28423245D01*
X201287500Y-27507071D01*
X200371326Y-28423245D01*
X180237519Y-28423245D01*
X180234534Y-28421650D01*
X180046033Y-28364469D01*
X179899119Y-28349999D01*
X179849999Y-28345161D01*
X179800879Y-28349999D01*
X175823337Y-28349999D01*
X175794728Y-28330883D01*
X175585442Y-28244193D01*
X175363264Y-28199999D01*
X175136734Y-28199999D01*
X174914556Y-28244193D01*
X174705270Y-28330883D01*
X174516917Y-28456736D01*
X174356736Y-28616917D01*
X174230883Y-28805270D01*
X174144193Y-29014556D01*
X174099999Y-29236734D01*
X174099999Y-29463264D01*
X174144193Y-29685442D01*
X174230883Y-29894728D01*
X174356736Y-30083081D01*
X174516917Y-30243262D01*
X174705270Y-30369115D01*
X174914556Y-30455805D01*
X175136734Y-30499999D01*
X175363264Y-30499999D01*
X175585442Y-30455805D01*
X175794728Y-30369115D01*
X175823337Y-30349999D01*
X179435787Y-30349999D01*
X182335787Y-33250000D01*
X179286632Y-36299156D01*
X179248473Y-36330472D01*
X179123509Y-36482742D01*
X179073875Y-36575600D01*
X179030651Y-36656466D01*
X178973470Y-36844966D01*
X178954162Y-37041000D01*
X178959001Y-37090130D01*
X178959000Y-42864474D01*
X178954162Y-42913594D01*
X178973470Y-43109628D01*
X179016639Y-43251936D01*
X179030651Y-43298128D01*
X179123508Y-43471852D01*
X179248472Y-43624122D01*
X179286637Y-43655443D01*
X181053561Y-45422368D01*
X181084878Y-45460528D01*
X181237148Y-45585492D01*
X181410871Y-45678349D01*
X181599372Y-45735530D01*
X181746286Y-45750000D01*
X181746287Y-45750000D01*
X181795405Y-45754838D01*
X181844523Y-45750000D01*
X181876167Y-45750000D01*
X181905362Y-45779195D01*
X182122377Y-45924200D01*
X182363512Y-46024081D01*
X182619499Y-46075000D01*
X182880501Y-46075000D01*
X183136488Y-46024081D01*
X183377623Y-45924200D01*
X183594638Y-45779195D01*
X183779195Y-45594638D01*
X183924200Y-45377623D01*
X184024081Y-45136488D01*
X184075000Y-44880501D01*
X184075000Y-44619499D01*
X184024081Y-44363512D01*
X183924200Y-44122377D01*
X183779195Y-43905362D01*
X183623833Y-43750000D01*
X183779195Y-43594638D01*
X183924200Y-43377623D01*
X184024081Y-43136488D01*
X184075000Y-42880501D01*
X184075000Y-42619499D01*
X184024081Y-42363512D01*
X183924200Y-42122377D01*
X183809328Y-41950459D01*
X183886843Y-41886843D01*
X183968070Y-41787868D01*
X184028427Y-41674948D01*
X184065595Y-41552422D01*
X184078145Y-41425000D01*
X184078145Y-40075000D01*
X184065595Y-39947578D01*
X184028427Y-39825052D01*
X183968070Y-39712132D01*
X183886843Y-39613157D01*
X183880559Y-39608000D01*
X188069050Y-39608000D01*
X188046573Y-39650052D01*
X188009405Y-39772578D01*
X187996855Y-39900000D01*
X187996855Y-41157131D01*
X187278904Y-41875082D01*
X187249332Y-41899351D01*
X187197205Y-41962868D01*
X187152484Y-42017360D01*
X187080521Y-42151996D01*
X187036205Y-42298084D01*
X187021241Y-42450010D01*
X187024991Y-42488083D01*
X187024990Y-45742585D01*
X185792576Y-46975000D01*
X179883009Y-46975000D01*
X179844946Y-46971251D01*
X179806883Y-46975000D01*
X179806881Y-46975000D01*
X179693020Y-46986214D01*
X179602129Y-47013786D01*
X179546931Y-47030530D01*
X179435016Y-47090350D01*
X179430061Y-47092998D01*
X179423668Y-47090350D01*
X179220810Y-47050000D01*
X179013978Y-47050000D01*
X178811120Y-47090350D01*
X178620032Y-47169502D01*
X178448058Y-47284411D01*
X178301805Y-47430664D01*
X178186896Y-47602638D01*
X178107744Y-47793726D01*
X178067394Y-47996584D01*
X178067394Y-48203416D01*
X178107744Y-48406274D01*
X178186896Y-48597362D01*
X178301805Y-48769336D01*
X178448058Y-48915589D01*
X178620032Y-49030498D01*
X178811120Y-49109650D01*
X178941118Y-49135508D01*
X178987450Y-49247362D01*
X179102359Y-49419336D01*
X179248612Y-49565589D01*
X179420586Y-49680498D01*
X179611674Y-49759650D01*
X179735995Y-49784378D01*
X179740350Y-49806274D01*
X179819502Y-49997362D01*
X179934411Y-50169336D01*
X180080664Y-50315589D01*
X180252638Y-50430498D01*
X180443726Y-50509650D01*
X180646584Y-50550000D01*
X180853416Y-50550000D01*
X181056274Y-50509650D01*
X181247362Y-50430498D01*
X181419336Y-50315589D01*
X181459925Y-50275000D01*
X185791937Y-50275000D01*
X185830000Y-50278749D01*
X185868063Y-50275000D01*
X185868065Y-50275000D01*
X185981926Y-50263786D01*
X186128014Y-50219470D01*
X186262650Y-50147506D01*
X186380659Y-50050659D01*
X186404932Y-50021082D01*
X188051012Y-48375002D01*
X188081508Y-48375002D01*
X187912587Y-48626484D01*
X187935270Y-48740517D01*
X188037620Y-49038661D01*
X188196168Y-49311109D01*
X188404822Y-49547391D01*
X188655563Y-49738426D01*
X188830188Y-49823797D01*
X187866986Y-50787000D01*
X177096073Y-50787000D01*
X177058010Y-50783251D01*
X177039490Y-50785075D01*
X176913426Y-50760000D01*
X176706594Y-50760000D01*
X176503736Y-50800350D01*
X176312648Y-50879502D01*
X176140674Y-50994411D01*
X175994421Y-51140664D01*
X175879512Y-51312638D01*
X175800360Y-51503726D01*
X175760010Y-51706584D01*
X175760010Y-51913416D01*
X175800360Y-52116274D01*
X175818141Y-52159200D01*
X175660680Y-52264411D01*
X175514427Y-52410664D01*
X175399518Y-52582638D01*
X175320366Y-52773726D01*
X175280016Y-52976584D01*
X175280016Y-53163542D01*
X175129752Y-53263945D01*
X174983499Y-53410198D01*
X174868590Y-53582172D01*
X174789438Y-53773260D01*
X174749088Y-53976118D01*
X174749088Y-54085619D01*
X174727635Y-54094505D01*
X174555661Y-54209414D01*
X174409408Y-54355667D01*
X174294499Y-54527641D01*
X174215347Y-54718729D01*
X174174997Y-54921587D01*
X174174997Y-55128419D01*
X174215347Y-55331277D01*
X174294499Y-55522365D01*
X174409408Y-55694339D01*
X174555661Y-55840592D01*
X174727635Y-55955501D01*
X174918723Y-56034653D01*
X175121581Y-56075003D01*
X175328413Y-56075003D01*
X175531271Y-56034653D01*
X175722359Y-55955501D01*
X175894333Y-55840592D01*
X175934926Y-55799999D01*
X193240397Y-55799999D01*
X193017396Y-56023000D01*
X181168120Y-56023000D01*
X181119000Y-56018162D01*
X181069880Y-56023000D01*
X180922966Y-56037470D01*
X180734465Y-56094651D01*
X180560742Y-56187508D01*
X180408472Y-56312472D01*
X180377160Y-56350626D01*
X174000001Y-62727786D01*
X174000001Y-58581000D01*
X174093416Y-58581000D01*
X174296274Y-58540650D01*
X174487362Y-58461498D01*
X174659336Y-58346589D01*
X174805589Y-58200336D01*
X174920498Y-58028362D01*
X174999650Y-57837274D01*
X175040000Y-57634416D01*
X175040000Y-57427584D01*
X174999650Y-57224726D01*
X174920498Y-57033638D01*
X174805589Y-56861664D01*
X174659336Y-56715411D01*
X174487362Y-56600502D01*
X174296274Y-56521350D01*
X174093416Y-56481000D01*
X174000001Y-56481000D01*
X174000001Y-29251062D01*
X174003750Y-29212999D01*
X174000001Y-29174934D01*
X173988787Y-29061073D01*
X173954785Y-28948986D01*
X173944471Y-28914984D01*
X173872507Y-28780348D01*
X173843111Y-28744530D01*
X173775660Y-28662340D01*
X173746084Y-28638068D01*
X173288935Y-28180919D01*
X173264661Y-28151341D01*
X173146652Y-28054494D01*
X173012016Y-27982530D01*
X172865928Y-27938214D01*
X172793702Y-27931101D01*
X172870517Y-27899283D01*
X173116194Y-27735126D01*
X173325126Y-27526194D01*
X173430000Y-27369240D01*
X173534874Y-27526194D01*
X173743806Y-27735126D01*
X173989483Y-27899283D01*
X174262466Y-28012356D01*
X174552263Y-28070000D01*
X174847737Y-28070000D01*
X175137534Y-28012356D01*
X175410517Y-27899283D01*
X175656194Y-27735126D01*
X175865126Y-27526194D01*
X175907922Y-27462145D01*
X176062609Y-27665178D01*
X176298891Y-27873832D01*
X176571339Y-28032380D01*
X176869483Y-28134730D01*
X176983516Y-28157413D01*
X177235000Y-27988491D01*
X177235000Y-26575000D01*
X177245000Y-26575000D01*
X177245000Y-27988491D01*
X177496484Y-28157413D01*
X177610517Y-28134730D01*
X177908661Y-28032380D01*
X178181109Y-27873832D01*
X178417391Y-27665178D01*
X178608426Y-27414437D01*
X178746874Y-27131245D01*
X178827413Y-26826484D01*
X178658492Y-26575000D01*
X177245000Y-26575000D01*
X177235000Y-26575000D01*
X177215000Y-26575000D01*
X177215000Y-26565000D01*
X177235000Y-26565000D01*
X177235000Y-26545000D01*
X177245000Y-26545000D01*
X177245000Y-26565000D01*
X178658492Y-26565000D01*
X178827413Y-26313516D01*
X178746874Y-26008755D01*
X178608426Y-25725563D01*
X178417391Y-25474822D01*
X178219433Y-25300010D01*
X179969463Y-25300010D01*
X179969463Y-25699990D01*
X180047495Y-26092286D01*
X180200561Y-26461820D01*
X180422779Y-26794392D01*
X180705608Y-27077221D01*
X181038180Y-27299439D01*
X181407714Y-27452505D01*
X181800010Y-27530537D01*
X182199990Y-27530537D01*
X182592286Y-27452505D01*
X182961820Y-27299439D01*
X183294392Y-27077221D01*
X183577221Y-26794392D01*
X183799439Y-26461820D01*
X183952505Y-26092286D01*
X183965626Y-26026320D01*
X187000000Y-26026320D01*
X187000000Y-26473679D01*
X187021705Y-26694050D01*
X187107476Y-26976801D01*
X187246762Y-27237386D01*
X187434208Y-27465792D01*
X187662613Y-27653238D01*
X187923198Y-27792524D01*
X188205949Y-27878295D01*
X188500000Y-27907257D01*
X188794050Y-27878295D01*
X189076801Y-27792524D01*
X189337386Y-27653238D01*
X189454622Y-27557026D01*
X189516696Y-27673160D01*
X189611419Y-27788581D01*
X189726840Y-27883304D01*
X189858522Y-27953689D01*
X190001406Y-27997033D01*
X190150000Y-28011668D01*
X190805500Y-28008000D01*
X190995000Y-27818500D01*
X190995000Y-26255000D01*
X191005000Y-26255000D01*
X191005000Y-27818500D01*
X191194500Y-28008000D01*
X191850000Y-28011668D01*
X191998594Y-27997033D01*
X192141478Y-27953689D01*
X192273160Y-27883304D01*
X192388581Y-27788581D01*
X192483304Y-27673160D01*
X192553689Y-27541478D01*
X192582503Y-27446492D01*
X199798285Y-27446492D01*
X199816461Y-27738051D01*
X199891168Y-28020462D01*
X200019535Y-28282873D01*
X200078990Y-28371853D01*
X200364255Y-28416174D01*
X201280429Y-27500000D01*
X201294571Y-27500000D01*
X202210745Y-28416174D01*
X202496010Y-28371853D01*
X202642879Y-28119333D01*
X202737661Y-27843012D01*
X202776715Y-27553508D01*
X202775951Y-27541252D01*
X202878878Y-27626358D01*
X203113196Y-27752715D01*
X203367663Y-27830931D01*
X203632500Y-27858000D01*
X203982500Y-27858000D01*
X203982500Y-26505000D01*
X202469011Y-26505000D01*
X202383440Y-26610657D01*
X202210745Y-26583826D01*
X201294571Y-27500000D01*
X201280429Y-27500000D01*
X200364255Y-26583826D01*
X200078990Y-26628147D01*
X199932121Y-26880667D01*
X199837339Y-27156988D01*
X199798285Y-27446492D01*
X192582503Y-27446492D01*
X192597033Y-27398594D01*
X192611668Y-27250000D01*
X192608603Y-26576755D01*
X200371326Y-26576755D01*
X201287500Y-27492929D01*
X202203674Y-26576755D01*
X202159353Y-26291490D01*
X202144111Y-26282625D01*
X202297010Y-26282625D01*
X202469011Y-26495000D01*
X203982500Y-26495000D01*
X203982500Y-25142000D01*
X203632500Y-25142000D01*
X203367663Y-25169069D01*
X203113196Y-25247285D01*
X202878878Y-25373642D01*
X202673713Y-25543284D01*
X202505586Y-25749693D01*
X202380958Y-25984935D01*
X202304618Y-26239971D01*
X202297010Y-26282625D01*
X202144111Y-26282625D01*
X201906833Y-26144621D01*
X201630512Y-26049839D01*
X201341008Y-26010785D01*
X201049449Y-26028961D01*
X200767038Y-26103668D01*
X200504627Y-26232035D01*
X200415647Y-26291490D01*
X200371326Y-26576755D01*
X192608603Y-26576755D01*
X192608000Y-26444500D01*
X192418500Y-26255000D01*
X191005000Y-26255000D01*
X190995000Y-26255000D01*
X190975000Y-26255000D01*
X190975000Y-26245000D01*
X190995000Y-26245000D01*
X190995000Y-24681500D01*
X191005000Y-24681500D01*
X191005000Y-26245000D01*
X192418500Y-26245000D01*
X192608000Y-26055500D01*
X192611668Y-25250000D01*
X192597033Y-25101406D01*
X192553689Y-24958522D01*
X192483304Y-24826840D01*
X192388581Y-24711419D01*
X192273160Y-24616696D01*
X192141478Y-24546311D01*
X191998594Y-24502967D01*
X191850000Y-24488332D01*
X191194500Y-24492000D01*
X191005000Y-24681500D01*
X190995000Y-24681500D01*
X190805500Y-24492000D01*
X190150000Y-24488332D01*
X190001406Y-24502967D01*
X189858522Y-24546311D01*
X189726840Y-24616696D01*
X189611419Y-24711419D01*
X189516696Y-24826840D01*
X189454622Y-24942974D01*
X189337387Y-24846762D01*
X189076802Y-24707476D01*
X188794051Y-24621705D01*
X188500000Y-24592743D01*
X188205950Y-24621705D01*
X187923199Y-24707476D01*
X187662614Y-24846762D01*
X187434208Y-25034208D01*
X187246762Y-25262613D01*
X187107476Y-25523198D01*
X187021705Y-25805949D01*
X187000000Y-26026320D01*
X183965626Y-26026320D01*
X184030537Y-25699990D01*
X184030537Y-25300010D01*
X183952505Y-24907714D01*
X183799439Y-24538180D01*
X183577221Y-24205608D01*
X183294392Y-23922779D01*
X182961820Y-23700561D01*
X182592286Y-23547495D01*
X182199990Y-23469463D01*
X181800010Y-23469463D01*
X181407714Y-23547495D01*
X181038180Y-23700561D01*
X180705608Y-23922779D01*
X180422779Y-24205608D01*
X180200561Y-24538180D01*
X180047495Y-24907714D01*
X179969463Y-25300010D01*
X178219433Y-25300010D01*
X178181109Y-25266168D01*
X178132344Y-25237790D01*
X178196194Y-25195126D01*
X178405126Y-24986194D01*
X178569283Y-24740517D01*
X178682356Y-24467534D01*
X178740000Y-24177737D01*
X178740000Y-23882263D01*
X178682356Y-23592466D01*
X178569283Y-23319483D01*
X178405126Y-23073806D01*
X178196194Y-22864874D01*
X177950517Y-22700717D01*
X177677534Y-22587644D01*
X177387737Y-22530000D01*
X177092263Y-22530000D01*
X176802466Y-22587644D01*
X176529483Y-22700717D01*
X176283806Y-22864874D01*
X176074874Y-23073806D01*
X175970000Y-23230760D01*
X175865126Y-23073806D01*
X175656194Y-22864874D01*
X175410517Y-22700717D01*
X175137534Y-22587644D01*
X174847737Y-22530000D01*
X174552263Y-22530000D01*
X174262466Y-22587644D01*
X173989483Y-22700717D01*
X173743806Y-22864874D01*
X173534874Y-23073806D01*
X173430000Y-23230760D01*
X173325126Y-23073806D01*
X173116194Y-22864874D01*
X172870517Y-22700717D01*
X172597534Y-22587644D01*
X172307737Y-22530000D01*
X172012263Y-22530000D01*
X171722466Y-22587644D01*
X171449483Y-22700717D01*
X171203806Y-22864874D01*
X170994874Y-23073806D01*
X170952078Y-23137855D01*
X170797391Y-22934822D01*
X170561109Y-22726168D01*
X170288661Y-22567620D01*
X169990517Y-22465270D01*
X169876484Y-22442587D01*
X169625000Y-22611509D01*
X169625000Y-24025000D01*
X169645000Y-24025000D01*
X169645000Y-24035000D01*
X169625000Y-24035000D01*
X169625000Y-24055000D01*
X169615000Y-24055000D01*
X169615000Y-24035000D01*
X169595000Y-24035000D01*
X169595000Y-24025000D01*
X169615000Y-24025000D01*
X169615000Y-22611509D01*
X169363516Y-22442587D01*
X169249483Y-22465270D01*
X168951339Y-22567620D01*
X168678891Y-22726168D01*
X168442609Y-22934822D01*
X168287922Y-23137855D01*
X168245126Y-23073806D01*
X168036194Y-22864874D01*
X167790517Y-22700717D01*
X167517534Y-22587644D01*
X167227737Y-22530000D01*
X166932263Y-22530000D01*
X166642466Y-22587644D01*
X166369483Y-22700717D01*
X166123806Y-22864874D01*
X165914874Y-23073806D01*
X165872078Y-23137855D01*
X165717391Y-22934822D01*
X165481109Y-22726168D01*
X165208661Y-22567620D01*
X164910517Y-22465270D01*
X164796484Y-22442587D01*
X164545000Y-22611509D01*
X164545000Y-24025000D01*
X164565000Y-24025000D01*
X164565000Y-24035000D01*
X164545000Y-24035000D01*
X164545000Y-24055000D01*
X164535000Y-24055000D01*
X164535000Y-24035000D01*
X164515000Y-24035000D01*
X164515000Y-24025000D01*
X164535000Y-24025000D01*
X164535000Y-22611509D01*
X164283516Y-22442587D01*
X164169483Y-22465270D01*
X163871339Y-22567620D01*
X163598891Y-22726168D01*
X163362609Y-22934822D01*
X163207922Y-23137855D01*
X163165126Y-23073806D01*
X162956194Y-22864874D01*
X162710517Y-22700717D01*
X162437534Y-22587644D01*
X162147737Y-22530000D01*
X161852263Y-22530000D01*
X161562466Y-22587644D01*
X161289483Y-22700717D01*
X161043806Y-22864874D01*
X160834874Y-23073806D01*
X160730000Y-23230760D01*
X160625126Y-23073806D01*
X160416194Y-22864874D01*
X160170517Y-22700717D01*
X159897534Y-22587644D01*
X159607737Y-22530000D01*
X159312263Y-22530000D01*
X159022466Y-22587644D01*
X158749483Y-22700717D01*
X158503806Y-22864874D01*
X158294874Y-23073806D01*
X158190000Y-23230760D01*
X158085126Y-23073806D01*
X157876194Y-22864874D01*
X157630517Y-22700717D01*
X157357534Y-22587644D01*
X157067737Y-22530000D01*
X156772263Y-22530000D01*
X156482466Y-22587644D01*
X156209483Y-22700717D01*
X155963806Y-22864874D01*
X155754874Y-23073806D01*
X155650000Y-23230760D01*
X155545126Y-23073806D01*
X155336194Y-22864874D01*
X155090517Y-22700717D01*
X154817534Y-22587644D01*
X154527737Y-22530000D01*
X154232263Y-22530000D01*
X153942466Y-22587644D01*
X153669483Y-22700717D01*
X153423806Y-22864874D01*
X153214874Y-23073806D01*
X153172078Y-23137855D01*
X153017391Y-22934822D01*
X152781109Y-22726168D01*
X152508661Y-22567620D01*
X152210517Y-22465270D01*
X152096484Y-22442587D01*
X151845000Y-22611509D01*
X151845000Y-24025000D01*
X151865000Y-24025000D01*
X151865000Y-24035000D01*
X151845000Y-24035000D01*
X151845000Y-24055000D01*
X151835000Y-24055000D01*
X151835000Y-24035000D01*
X151815000Y-24035000D01*
X151815000Y-24025000D01*
X151835000Y-24025000D01*
X151835000Y-22611509D01*
X151583516Y-22442587D01*
X151469483Y-22465270D01*
X151171339Y-22567620D01*
X150898891Y-22726168D01*
X150662609Y-22934822D01*
X150507922Y-23137855D01*
X150465126Y-23073806D01*
X150256194Y-22864874D01*
X150010517Y-22700717D01*
X149737534Y-22587644D01*
X149447737Y-22530000D01*
X149152263Y-22530000D01*
X148862466Y-22587644D01*
X148589483Y-22700717D01*
X148343806Y-22864874D01*
X148134874Y-23073806D01*
X148030000Y-23230760D01*
X147925126Y-23073806D01*
X147716194Y-22864874D01*
X147470517Y-22700717D01*
X147197534Y-22587644D01*
X146907737Y-22530000D01*
X146612263Y-22530000D01*
X146322466Y-22587644D01*
X146049483Y-22700717D01*
X145803806Y-22864874D01*
X145594874Y-23073806D01*
X145552078Y-23137855D01*
X145397391Y-22934822D01*
X145161109Y-22726168D01*
X144888661Y-22567620D01*
X144590517Y-22465270D01*
X144476484Y-22442587D01*
X144225000Y-22611509D01*
X144225000Y-24025000D01*
X144245000Y-24025000D01*
X144245000Y-24035000D01*
X144225000Y-24035000D01*
X144225000Y-24055000D01*
X144215000Y-24055000D01*
X144215000Y-24035000D01*
X144195000Y-24035000D01*
X144195000Y-24025000D01*
X144215000Y-24025000D01*
X144215000Y-22611509D01*
X143963516Y-22442587D01*
X143849483Y-22465270D01*
X143551339Y-22567620D01*
X143278891Y-22726168D01*
X143042609Y-22934822D01*
X142887922Y-23137855D01*
X142845126Y-23073806D01*
X142636194Y-22864874D01*
X142390517Y-22700717D01*
X142117534Y-22587644D01*
X141827737Y-22530000D01*
X141532263Y-22530000D01*
X141242466Y-22587644D01*
X140969483Y-22700717D01*
X140723806Y-22864874D01*
X140514874Y-23073806D01*
X140410000Y-23230760D01*
X140305126Y-23073806D01*
X140096194Y-22864874D01*
X139850517Y-22700717D01*
X139577534Y-22587644D01*
X139287737Y-22530000D01*
X138992263Y-22530000D01*
X138702466Y-22587644D01*
X138429483Y-22700717D01*
X138183806Y-22864874D01*
X137974874Y-23073806D01*
X137870000Y-23230760D01*
X137765126Y-23073806D01*
X137556194Y-22864874D01*
X137310517Y-22700717D01*
X137037534Y-22587644D01*
X136747737Y-22530000D01*
X136452263Y-22530000D01*
X136162466Y-22587644D01*
X135889483Y-22700717D01*
X135643806Y-22864874D01*
X135434874Y-23073806D01*
X135392078Y-23137855D01*
X135237391Y-22934822D01*
X135001109Y-22726168D01*
X134728661Y-22567620D01*
X134430517Y-22465270D01*
X134316484Y-22442587D01*
X134065000Y-22611509D01*
X134065000Y-24025000D01*
X134085000Y-24025000D01*
X134085000Y-24035000D01*
X134065000Y-24035000D01*
X134065000Y-24055000D01*
X134055000Y-24055000D01*
X134055000Y-24035000D01*
X134035000Y-24035000D01*
X134035000Y-24025000D01*
X134055000Y-24025000D01*
X134055000Y-22611509D01*
X133803516Y-22442587D01*
X133689483Y-22465270D01*
X133391339Y-22567620D01*
X133118891Y-22726168D01*
X132882609Y-22934822D01*
X132727922Y-23137855D01*
X132685126Y-23073806D01*
X132476194Y-22864874D01*
X132230517Y-22700717D01*
X131957534Y-22587644D01*
X131667737Y-22530000D01*
X131372263Y-22530000D01*
X131082466Y-22587644D01*
X130809483Y-22700717D01*
X130563806Y-22864874D01*
X130354874Y-23073806D01*
X130250000Y-23230760D01*
X130145126Y-23073806D01*
X129936194Y-22864874D01*
X129690517Y-22700717D01*
X129417534Y-22587644D01*
X129127737Y-22530000D01*
X128832263Y-22530000D01*
X128542466Y-22587644D01*
X128269483Y-22700717D01*
X128023806Y-22864874D01*
X127814874Y-23073806D01*
X127650717Y-23319483D01*
X127537644Y-23592466D01*
X127480000Y-23882263D01*
X127480000Y-24177737D01*
X127537644Y-24467534D01*
X127650717Y-24740517D01*
X127814874Y-24986194D01*
X127930078Y-25101398D01*
X127880052Y-25116573D01*
X127767132Y-25176930D01*
X127668157Y-25258157D01*
X127586930Y-25357132D01*
X127526573Y-25470052D01*
X127489405Y-25592578D01*
X127476855Y-25720000D01*
X127476855Y-27420000D01*
X127489405Y-27547422D01*
X127526573Y-27669948D01*
X127586930Y-27782868D01*
X127668157Y-27881843D01*
X127767132Y-27963070D01*
X127880052Y-28023427D01*
X128002578Y-28060595D01*
X128130000Y-28073145D01*
X129830000Y-28073145D01*
X129957422Y-28060595D01*
X130079948Y-28023427D01*
X130192868Y-27963070D01*
X130291843Y-27881843D01*
X130373070Y-27782868D01*
X130433427Y-27669948D01*
X130448602Y-27619922D01*
X130563806Y-27735126D01*
X130809483Y-27899283D01*
X131082466Y-28012356D01*
X131372263Y-28070000D01*
X131667737Y-28070000D01*
X131957534Y-28012356D01*
X132230517Y-27899283D01*
X132476194Y-27735126D01*
X132685126Y-27526194D01*
X132790000Y-27369240D01*
X132894874Y-27526194D01*
X133103806Y-27735126D01*
X133349483Y-27899283D01*
X133622466Y-28012356D01*
X133912263Y-28070000D01*
X134207737Y-28070000D01*
X134497534Y-28012356D01*
X134770517Y-27899283D01*
X135016194Y-27735126D01*
X135225126Y-27526194D01*
X135330000Y-27369240D01*
X135434874Y-27526194D01*
X135643806Y-27735126D01*
X135889483Y-27899283D01*
X136162466Y-28012356D01*
X136452263Y-28070000D01*
X136747737Y-28070000D01*
X137037534Y-28012356D01*
X137050650Y-28006923D01*
X137055532Y-28023015D01*
X137127495Y-28157651D01*
X137146582Y-28180908D01*
X137224343Y-28275660D01*
X137253915Y-28299929D01*
X138050072Y-29096087D01*
X138074341Y-29125659D01*
X138149888Y-29187658D01*
X138192349Y-29222506D01*
X138264313Y-29260971D01*
X138326986Y-29294470D01*
X138473074Y-29338786D01*
X138586935Y-29350000D01*
X138586936Y-29350000D01*
X138624999Y-29353749D01*
X138663062Y-29350000D01*
X143803986Y-29350000D01*
X144425001Y-29971016D01*
X144425000Y-33198347D01*
X144421251Y-33236410D01*
X144425000Y-33274473D01*
X144425000Y-33274474D01*
X144436214Y-33388335D01*
X144480530Y-33534423D01*
X144480531Y-33534424D01*
X144552494Y-33669060D01*
X144578121Y-33700285D01*
X144649341Y-33787069D01*
X144678919Y-33811343D01*
X160747701Y-49880125D01*
X160652638Y-49919502D01*
X160480664Y-50034411D01*
X160334411Y-50180664D01*
X160219502Y-50352638D01*
X160140350Y-50543726D01*
X160100000Y-50746584D01*
X160100000Y-50953416D01*
X160140350Y-51156274D01*
X160219502Y-51347362D01*
X160334411Y-51519336D01*
X160480664Y-51665589D01*
X160652638Y-51780498D01*
X160843726Y-51859650D01*
X161046584Y-51900000D01*
X161253416Y-51900000D01*
X161456274Y-51859650D01*
X161647362Y-51780498D01*
X161819336Y-51665589D01*
X161965589Y-51519336D01*
X162080498Y-51347362D01*
X162119875Y-51252299D01*
X169328662Y-58461087D01*
X169352931Y-58490659D01*
X169404846Y-58533264D01*
X169470939Y-58587506D01*
X169527949Y-58617978D01*
X169605576Y-58659470D01*
X169751664Y-58703786D01*
X169865525Y-58715000D01*
X169865526Y-58715000D01*
X169903589Y-58718749D01*
X169941652Y-58715000D01*
X170740075Y-58715000D01*
X170780664Y-58755589D01*
X170911185Y-58842800D01*
X170838986Y-58915000D01*
X158248062Y-58915000D01*
X158209999Y-58911251D01*
X158171936Y-58915000D01*
X158171935Y-58915000D01*
X158058074Y-58926214D01*
X157911986Y-58970530D01*
X157777350Y-59042494D01*
X157659341Y-59139341D01*
X157635072Y-59168913D01*
X152753986Y-64050000D01*
X152696584Y-64050000D01*
X152493726Y-64090350D01*
X152302638Y-64169502D01*
X152130664Y-64284411D01*
X151984411Y-64430664D01*
X151869502Y-64602638D01*
X151790350Y-64793726D01*
X151750000Y-64996584D01*
X151750000Y-65203416D01*
X151787511Y-65392000D01*
X151041062Y-65392000D01*
X151002999Y-65388251D01*
X150964936Y-65392000D01*
X150964935Y-65392000D01*
X150851074Y-65403214D01*
X150704986Y-65447530D01*
X150570350Y-65519494D01*
X150452341Y-65616341D01*
X150428076Y-65645908D01*
X149432985Y-66641000D01*
X149375584Y-66641000D01*
X149172726Y-66681350D01*
X148981638Y-66760502D01*
X148809664Y-66875411D01*
X148663411Y-67021664D01*
X148548502Y-67193638D01*
X148469350Y-67384726D01*
X148429000Y-67587584D01*
X148429000Y-67794416D01*
X148469350Y-67997274D01*
X148548502Y-68188362D01*
X148663411Y-68360336D01*
X148809664Y-68506589D01*
X148981638Y-68621498D01*
X149172726Y-68700650D01*
X149375584Y-68741000D01*
X149582416Y-68741000D01*
X149785274Y-68700650D01*
X149976362Y-68621498D01*
X150148336Y-68506589D01*
X150294589Y-68360336D01*
X150409498Y-68188362D01*
X150488650Y-67997274D01*
X150529000Y-67794416D01*
X150529000Y-67737015D01*
X151324016Y-66942000D01*
X165823937Y-66942000D01*
X165862000Y-66945749D01*
X165900063Y-66942000D01*
X165900065Y-66942000D01*
X166013926Y-66930786D01*
X166160014Y-66886470D01*
X166294650Y-66814506D01*
X166412659Y-66717659D01*
X166436932Y-66688082D01*
X166670014Y-66455000D01*
X166727416Y-66455000D01*
X166773066Y-66445920D01*
X165794986Y-67424000D01*
X163269925Y-67424000D01*
X163229336Y-67383411D01*
X163057362Y-67268502D01*
X162866274Y-67189350D01*
X162663416Y-67149000D01*
X162456584Y-67149000D01*
X162253726Y-67189350D01*
X162062638Y-67268502D01*
X161890664Y-67383411D01*
X161744411Y-67529664D01*
X161629502Y-67701638D01*
X161550350Y-67892726D01*
X161510000Y-68095584D01*
X161510000Y-68186000D01*
X157050000Y-68186000D01*
X157050000Y-68139584D01*
X157009650Y-67936726D01*
X156930498Y-67745638D01*
X156815589Y-67573664D01*
X156669336Y-67427411D01*
X156497362Y-67312502D01*
X156306274Y-67233350D01*
X156103416Y-67193000D01*
X155896584Y-67193000D01*
X155693726Y-67233350D01*
X155502638Y-67312502D01*
X155330664Y-67427411D01*
X155184411Y-67573664D01*
X155069502Y-67745638D01*
X154990350Y-67936726D01*
X154950000Y-68139584D01*
X154950000Y-68346416D01*
X154990350Y-68549274D01*
X155069502Y-68740362D01*
X155184411Y-68912336D01*
X155330664Y-69058589D01*
X155398627Y-69104000D01*
X142019213Y-69104000D01*
X139311797Y-66396584D01*
X140600000Y-66396584D01*
X140600000Y-66603416D01*
X140640350Y-66806274D01*
X140719502Y-66997362D01*
X140834411Y-67169336D01*
X140980664Y-67315589D01*
X141152638Y-67430498D01*
X141343726Y-67509650D01*
X141546584Y-67550000D01*
X141753416Y-67550000D01*
X141956274Y-67509650D01*
X142147362Y-67430498D01*
X142319336Y-67315589D01*
X142465589Y-67169336D01*
X142580498Y-66997362D01*
X142659650Y-66806274D01*
X142700000Y-66603416D01*
X142700000Y-66396584D01*
X142659650Y-66193726D01*
X142580498Y-66002638D01*
X142465589Y-65830664D01*
X142319336Y-65684411D01*
X142147362Y-65569502D01*
X141956274Y-65490350D01*
X141753416Y-65450000D01*
X141546584Y-65450000D01*
X141343726Y-65490350D01*
X141152638Y-65569502D01*
X140980664Y-65684411D01*
X140834411Y-65830664D01*
X140719502Y-66002638D01*
X140640350Y-66193726D01*
X140600000Y-66396584D01*
X139311797Y-66396584D01*
X133350001Y-60434789D01*
X133350001Y-56574118D01*
X133354839Y-56525000D01*
X133344432Y-56419340D01*
X133335531Y-56328967D01*
X133278350Y-56140466D01*
X133185493Y-55966743D01*
X133060529Y-55814473D01*
X133022369Y-55783156D01*
X129925000Y-52685788D01*
X129925000Y-52644499D01*
X129874081Y-52388512D01*
X129774200Y-52147377D01*
X129629195Y-51930362D01*
X129473833Y-51775000D01*
X129573833Y-51675000D01*
X131380794Y-51675000D01*
X131425000Y-51679354D01*
X131469206Y-51675000D01*
X131469207Y-51675000D01*
X131601431Y-51661977D01*
X131771081Y-51610514D01*
X131927432Y-51526943D01*
X132064475Y-51414475D01*
X132092657Y-51380135D01*
X136952433Y-46520359D01*
X137006274Y-46509650D01*
X137197362Y-46430498D01*
X137369336Y-46315589D01*
X137515589Y-46169336D01*
X137630498Y-45997362D01*
X137709650Y-45806274D01*
X137750000Y-45603416D01*
X137750000Y-45396584D01*
X137709650Y-45193726D01*
X137630498Y-45002638D01*
X137515589Y-44830664D01*
X137369336Y-44684411D01*
X137197362Y-44569502D01*
X137006274Y-44490350D01*
X136803416Y-44450000D01*
X136596584Y-44450000D01*
X136393726Y-44490350D01*
X136202638Y-44569502D01*
X136030664Y-44684411D01*
X135884411Y-44830664D01*
X135769502Y-45002638D01*
X135690350Y-45193726D01*
X135679641Y-45247567D01*
X131052208Y-49875000D01*
X129767079Y-49875000D01*
X129818070Y-49812868D01*
X129878427Y-49699948D01*
X129915595Y-49577422D01*
X129928145Y-49450000D01*
X129928145Y-48100000D01*
X129915595Y-47972578D01*
X129878427Y-47850052D01*
X129818070Y-47737132D01*
X129736843Y-47638157D01*
X129637868Y-47556930D01*
X129524948Y-47496573D01*
X129402422Y-47459405D01*
X129275000Y-47446855D01*
X127925000Y-47446855D01*
X127797578Y-47459405D01*
X127675052Y-47496573D01*
X127562132Y-47556930D01*
X127463157Y-47638157D01*
X127381930Y-47737132D01*
X127321573Y-47850052D01*
X127284405Y-47972578D01*
X127271855Y-48100000D01*
X126200000Y-48100000D01*
X126200000Y-42465610D01*
X126197052Y-42435681D01*
X126197095Y-42429574D01*
X126196141Y-42419847D01*
X126175740Y-42225750D01*
X126162977Y-42163573D01*
X126151095Y-42101284D01*
X126148271Y-42091929D01*
X126148270Y-42091924D01*
X126148266Y-42091916D01*
X126090558Y-41905489D01*
X126065965Y-41846983D01*
X126042206Y-41788178D01*
X126037622Y-41779557D01*
X126037618Y-41779548D01*
X126037613Y-41779541D01*
X125944793Y-41607871D01*
X125909305Y-41555258D01*
X125874574Y-41502183D01*
X125868396Y-41494609D01*
X125743992Y-41344231D01*
X125698961Y-41299513D01*
X125654586Y-41254198D01*
X125647055Y-41247968D01*
X125495813Y-41124618D01*
X125442958Y-41089501D01*
X125390620Y-41053664D01*
X125382030Y-41049020D01*
X125382022Y-41049015D01*
X125382014Y-41049012D01*
X125209699Y-40957390D01*
X125151049Y-40933216D01*
X125092729Y-40908220D01*
X125083392Y-40905330D01*
X124896556Y-40848921D01*
X124834291Y-40836592D01*
X124772263Y-40823407D01*
X124762553Y-40822387D01*
X124762542Y-40822385D01*
X124762532Y-40822385D01*
X124569128Y-40803421D01*
X124534390Y-40800000D01*
X121534234Y-40800000D01*
X121442384Y-40790994D01*
X121386956Y-40774259D01*
X121335841Y-40747081D01*
X121290973Y-40710488D01*
X121254071Y-40665881D01*
X121226536Y-40614954D01*
X121209416Y-40559648D01*
X121200000Y-40470067D01*
X121200000Y-39561458D01*
X123159613Y-39561458D01*
X123251894Y-39887683D01*
X123572393Y-40074395D01*
X123923159Y-40194992D01*
X124290713Y-40244841D01*
X124660929Y-40222026D01*
X125019581Y-40127424D01*
X125352885Y-39964670D01*
X125468106Y-39887683D01*
X125560387Y-39561458D01*
X128239613Y-39561458D01*
X128331894Y-39887683D01*
X128652393Y-40074395D01*
X129003159Y-40194992D01*
X129370713Y-40244841D01*
X129740929Y-40222026D01*
X130099581Y-40127424D01*
X130432885Y-39964670D01*
X130548106Y-39887683D01*
X130640387Y-39561458D01*
X129440000Y-38361071D01*
X128239613Y-39561458D01*
X125560387Y-39561458D01*
X124360000Y-38361071D01*
X123159613Y-39561458D01*
X121200000Y-39561458D01*
X121200000Y-38284713D01*
X122469159Y-38284713D01*
X122491974Y-38654929D01*
X122586576Y-39013581D01*
X122749330Y-39346885D01*
X122826317Y-39462106D01*
X123152542Y-39554387D01*
X124352929Y-38354000D01*
X123152542Y-37153613D01*
X122826317Y-37245894D01*
X122639605Y-37566393D01*
X122519008Y-37917159D01*
X122469159Y-38284713D01*
X121200000Y-38284713D01*
X121200000Y-34481458D01*
X123159613Y-34481458D01*
X123251894Y-34807683D01*
X123572393Y-34994395D01*
X123923159Y-35114992D01*
X124290713Y-35164841D01*
X124611529Y-35145070D01*
X124525000Y-35580083D01*
X124525000Y-36047917D01*
X124612540Y-36488012D01*
X124429287Y-36463159D01*
X124059071Y-36485974D01*
X123700419Y-36580576D01*
X123367115Y-36743330D01*
X123251894Y-36820317D01*
X123159613Y-37146542D01*
X124360000Y-38346929D01*
X124374143Y-38332787D01*
X124381214Y-38339858D01*
X124367071Y-38354000D01*
X125567458Y-39554387D01*
X125893683Y-39462106D01*
X126080395Y-39141607D01*
X126200992Y-38790841D01*
X126250841Y-38423287D01*
X126231070Y-38102471D01*
X126666083Y-38189000D01*
X127133917Y-38189000D01*
X127574012Y-38101460D01*
X127549159Y-38284713D01*
X127571974Y-38654929D01*
X127666576Y-39013581D01*
X127829330Y-39346885D01*
X127906317Y-39462106D01*
X128232542Y-39554387D01*
X129432929Y-38354000D01*
X129447071Y-38354000D01*
X130647458Y-39554387D01*
X130973683Y-39462106D01*
X131160395Y-39141607D01*
X131280992Y-38790841D01*
X131330841Y-38423287D01*
X131308026Y-38053071D01*
X131213424Y-37694419D01*
X131050670Y-37361115D01*
X130973683Y-37245894D01*
X130647458Y-37153613D01*
X129447071Y-38354000D01*
X129432929Y-38354000D01*
X129418787Y-38339858D01*
X129425858Y-38332787D01*
X129440000Y-38346929D01*
X130640387Y-37146542D01*
X130548106Y-36820317D01*
X130227607Y-36633605D01*
X129876841Y-36513008D01*
X129509287Y-36463159D01*
X129188471Y-36482930D01*
X129275000Y-36047917D01*
X129275000Y-35580083D01*
X129187460Y-35139988D01*
X129370713Y-35164841D01*
X129740929Y-35142026D01*
X130099581Y-35047424D01*
X130432885Y-34884670D01*
X130548106Y-34807683D01*
X130640387Y-34481458D01*
X129440000Y-33281071D01*
X129425858Y-33295214D01*
X129418787Y-33288143D01*
X129432929Y-33274000D01*
X129447071Y-33274000D01*
X130647458Y-34474387D01*
X130973683Y-34382106D01*
X131160395Y-34061607D01*
X131280992Y-33710841D01*
X131330841Y-33343287D01*
X131308026Y-32973071D01*
X131213424Y-32614419D01*
X131050670Y-32281115D01*
X130973683Y-32165894D01*
X130647458Y-32073613D01*
X129447071Y-33274000D01*
X129432929Y-33274000D01*
X128232542Y-32073613D01*
X127906317Y-32165894D01*
X127719605Y-32486393D01*
X127599008Y-32837159D01*
X127549159Y-33204713D01*
X127568930Y-33525529D01*
X127133917Y-33439000D01*
X126666083Y-33439000D01*
X126225988Y-33526540D01*
X126250841Y-33343287D01*
X126228026Y-32973071D01*
X126133424Y-32614419D01*
X125970670Y-32281115D01*
X125893683Y-32165894D01*
X125567458Y-32073613D01*
X124367071Y-33274000D01*
X124381214Y-33288143D01*
X124374143Y-33295214D01*
X124360000Y-33281071D01*
X123159613Y-34481458D01*
X121200000Y-34481458D01*
X121200000Y-33204713D01*
X122469159Y-33204713D01*
X122491974Y-33574929D01*
X122586576Y-33933581D01*
X122749330Y-34266885D01*
X122826317Y-34382106D01*
X123152542Y-34474387D01*
X124352929Y-33274000D01*
X123152542Y-32073613D01*
X122826317Y-32165894D01*
X122639605Y-32486393D01*
X122519008Y-32837159D01*
X122469159Y-33204713D01*
X121200000Y-33204713D01*
X121200000Y-32066542D01*
X123159613Y-32066542D01*
X124360000Y-33266929D01*
X125560387Y-32066542D01*
X128239613Y-32066542D01*
X129440000Y-33266929D01*
X130640387Y-32066542D01*
X130548106Y-31740317D01*
X130227607Y-31553605D01*
X129876841Y-31433008D01*
X129509287Y-31383159D01*
X129139071Y-31405974D01*
X128780419Y-31500576D01*
X128447115Y-31663330D01*
X128331894Y-31740317D01*
X128239613Y-32066542D01*
X125560387Y-32066542D01*
X125468106Y-31740317D01*
X125147607Y-31553605D01*
X124796841Y-31433008D01*
X124429287Y-31383159D01*
X124059071Y-31405974D01*
X123700419Y-31500576D01*
X123367115Y-31663330D01*
X123251894Y-31740317D01*
X123159613Y-32066542D01*
X121200000Y-32066542D01*
X121200000Y-25300010D01*
X121969463Y-25300010D01*
X121969463Y-25699990D01*
X122047495Y-26092286D01*
X122200561Y-26461820D01*
X122422779Y-26794392D01*
X122705608Y-27077221D01*
X123038180Y-27299439D01*
X123407714Y-27452505D01*
X123800010Y-27530537D01*
X124199990Y-27530537D01*
X124592286Y-27452505D01*
X124961820Y-27299439D01*
X125294392Y-27077221D01*
X125577221Y-26794392D01*
X125799439Y-26461820D01*
X125952505Y-26092286D01*
X126030537Y-25699990D01*
X126030537Y-25300010D01*
X125952505Y-24907714D01*
X125799439Y-24538180D01*
X125577221Y-24205608D01*
X125294392Y-23922779D01*
X124961820Y-23700561D01*
X124592286Y-23547495D01*
X124199990Y-23469463D01*
X123800010Y-23469463D01*
X123407714Y-23547495D01*
X123038180Y-23700561D01*
X122705608Y-23922779D01*
X122422779Y-24205608D01*
X122200561Y-24538180D01*
X122047495Y-24907714D01*
X121969463Y-25300010D01*
X121200000Y-25300010D01*
X121200000Y-24534235D01*
X121247096Y-24053915D01*
X121376648Y-23624818D01*
X121587077Y-23229057D01*
X121870370Y-22881705D01*
X122215734Y-22595995D01*
X122610011Y-22382811D01*
X123038200Y-22250264D01*
X123516432Y-22200000D01*
X202465765Y-22200000D01*
X202946085Y-22247096D01*
G37*
X202946085Y-22247096D02*
X203375182Y-22376648D01*
X203770943Y-22587077D01*
X204118295Y-22870370D01*
X204404005Y-23215734D01*
X204617189Y-23610011D01*
X204749736Y-24038200D01*
X204800000Y-24516432D01*
X204800000Y-25228288D01*
X204607337Y-25169069D01*
X204342500Y-25142000D01*
X203992500Y-25142000D01*
X203992500Y-26495000D01*
X204012500Y-26495000D01*
X204012500Y-26505000D01*
X203992500Y-26505000D01*
X203992500Y-27858000D01*
X204342500Y-27858000D01*
X204607337Y-27830931D01*
X204800000Y-27771712D01*
X204800000Y-32228288D01*
X204607337Y-32169069D01*
X204342500Y-32142000D01*
X203992500Y-32142000D01*
X203992500Y-33495000D01*
X204012500Y-33495000D01*
X204012500Y-33505000D01*
X203992500Y-33505000D01*
X203992500Y-34858000D01*
X204342500Y-34858000D01*
X204607337Y-34830931D01*
X204800000Y-34771712D01*
X204800001Y-74965756D01*
X204752904Y-75446085D01*
X204623351Y-75875185D01*
X204412922Y-76270944D01*
X204129630Y-76618295D01*
X203784266Y-76904005D01*
X203389989Y-77117189D01*
X202961801Y-77249736D01*
X202483567Y-77300000D01*
X163384339Y-77300000D01*
X163528068Y-77203964D01*
X163743964Y-76988068D01*
X163913592Y-76734200D01*
X164030435Y-76452118D01*
X164068239Y-76262061D01*
X166495010Y-76262061D01*
X166554318Y-76560126D01*
X166828082Y-76719446D01*
X167127667Y-76822296D01*
X167441561Y-76864723D01*
X167757701Y-76845097D01*
X168063937Y-76764173D01*
X168348502Y-76625060D01*
X168445682Y-76560126D01*
X168504990Y-76262061D01*
X167500000Y-75257071D01*
X166495010Y-76262061D01*
X164068239Y-76262061D01*
X164090000Y-76152662D01*
X164090000Y-75847338D01*
X164030435Y-75547882D01*
X163913592Y-75265800D01*
X163743964Y-75011932D01*
X163528068Y-74796036D01*
X163274200Y-74626408D01*
X162992118Y-74509565D01*
X162692662Y-74450000D01*
X162387338Y-74450000D01*
X162087882Y-74509565D01*
X161805800Y-74626408D01*
X161585151Y-74773840D01*
X161533304Y-74676840D01*
X161438581Y-74561419D01*
X161323160Y-74466696D01*
X161191478Y-74396311D01*
X161048594Y-74352967D01*
X160900000Y-74338332D01*
X160194500Y-74342000D01*
X160005000Y-74531500D01*
X160005000Y-75995000D01*
X160025000Y-75995000D01*
X160025000Y-76005000D01*
X160005000Y-76005000D01*
X160005000Y-76025000D01*
X159995000Y-76025000D01*
X159995000Y-76005000D01*
X158531500Y-76005000D01*
X158342000Y-76194500D01*
X158338332Y-76900000D01*
X158352967Y-77048594D01*
X158396311Y-77191478D01*
X158454317Y-77300000D01*
X156884339Y-77300000D01*
X157028068Y-77203964D01*
X157243964Y-76988068D01*
X157413592Y-76734200D01*
X157530435Y-76452118D01*
X157590000Y-76152662D01*
X157590000Y-75847338D01*
X157530435Y-75547882D01*
X157413592Y-75265800D01*
X157302809Y-75100000D01*
X158338332Y-75100000D01*
X158342000Y-75805500D01*
X158531500Y-75995000D01*
X159995000Y-75995000D01*
X159995000Y-74531500D01*
X159805500Y-74342000D01*
X159100000Y-74338332D01*
X158951406Y-74352967D01*
X158808522Y-74396311D01*
X158676840Y-74466696D01*
X158561419Y-74561419D01*
X158466696Y-74676840D01*
X158396311Y-74808522D01*
X158352967Y-74951406D01*
X158338332Y-75100000D01*
X157302809Y-75100000D01*
X157243964Y-75011932D01*
X157028068Y-74796036D01*
X156774200Y-74626408D01*
X156492118Y-74509565D01*
X156192662Y-74450000D01*
X155887338Y-74450000D01*
X155587882Y-74509565D01*
X155305800Y-74626408D01*
X155085151Y-74773840D01*
X155033304Y-74676840D01*
X154938581Y-74561419D01*
X154823160Y-74466696D01*
X154691478Y-74396311D01*
X154548594Y-74352967D01*
X154400000Y-74338332D01*
X153694500Y-74342000D01*
X153505000Y-74531500D01*
X153505000Y-75995000D01*
X153525000Y-75995000D01*
X153525000Y-76005000D01*
X153505000Y-76005000D01*
X153505000Y-76025000D01*
X153495000Y-76025000D01*
X153495000Y-76005000D01*
X152031500Y-76005000D01*
X151842000Y-76194500D01*
X151838332Y-76900000D01*
X151852967Y-77048594D01*
X151896311Y-77191478D01*
X151954317Y-77300000D01*
X150384339Y-77300000D01*
X150528068Y-77203964D01*
X150743964Y-76988068D01*
X150913592Y-76734200D01*
X151030435Y-76452118D01*
X151090000Y-76152662D01*
X151090000Y-75847338D01*
X151030435Y-75547882D01*
X150913592Y-75265800D01*
X150802809Y-75100000D01*
X151838332Y-75100000D01*
X151842000Y-75805500D01*
X152031500Y-75995000D01*
X153495000Y-75995000D01*
X153495000Y-74531500D01*
X153305500Y-74342000D01*
X152600000Y-74338332D01*
X152451406Y-74352967D01*
X152308522Y-74396311D01*
X152176840Y-74466696D01*
X152061419Y-74561419D01*
X151966696Y-74676840D01*
X151896311Y-74808522D01*
X151852967Y-74951406D01*
X151838332Y-75100000D01*
X150802809Y-75100000D01*
X150743964Y-75011932D01*
X150528068Y-74796036D01*
X150274200Y-74626408D01*
X149992118Y-74509565D01*
X149692662Y-74450000D01*
X149387338Y-74450000D01*
X149087882Y-74509565D01*
X148805800Y-74626408D01*
X148585151Y-74773840D01*
X148533304Y-74676840D01*
X148438581Y-74561419D01*
X148323160Y-74466696D01*
X148191478Y-74396311D01*
X148048594Y-74352967D01*
X147900000Y-74338332D01*
X147194500Y-74342000D01*
X147005000Y-74531500D01*
X147005000Y-75995000D01*
X147025000Y-75995000D01*
X147025000Y-76005000D01*
X147005000Y-76005000D01*
X147005000Y-76025000D01*
X146995000Y-76025000D01*
X146995000Y-76005000D01*
X145531500Y-76005000D01*
X145342000Y-76194500D01*
X145338332Y-76900000D01*
X145352967Y-77048594D01*
X145396311Y-77191478D01*
X145454317Y-77300000D01*
X143884339Y-77300000D01*
X144028068Y-77203964D01*
X144243964Y-76988068D01*
X144413592Y-76734200D01*
X144530435Y-76452118D01*
X144590000Y-76152662D01*
X144590000Y-75847338D01*
X144530435Y-75547882D01*
X144413592Y-75265800D01*
X144302809Y-75100000D01*
X145338332Y-75100000D01*
X145342000Y-75805500D01*
X145531500Y-75995000D01*
X146995000Y-75995000D01*
X146995000Y-74531500D01*
X146805500Y-74342000D01*
X146100000Y-74338332D01*
X145951406Y-74352967D01*
X145808522Y-74396311D01*
X145676840Y-74466696D01*
X145561419Y-74561419D01*
X145466696Y-74676840D01*
X145396311Y-74808522D01*
X145352967Y-74951406D01*
X145338332Y-75100000D01*
X144302809Y-75100000D01*
X144243964Y-75011932D01*
X144028068Y-74796036D01*
X143774200Y-74626408D01*
X143492118Y-74509565D01*
X143192662Y-74450000D01*
X142887338Y-74450000D01*
X142587882Y-74509565D01*
X142305800Y-74626408D01*
X142085151Y-74773840D01*
X142033304Y-74676840D01*
X141938581Y-74561419D01*
X141823160Y-74466696D01*
X141691478Y-74396311D01*
X141548594Y-74352967D01*
X141400000Y-74338332D01*
X140694500Y-74342000D01*
X140505000Y-74531500D01*
X140505000Y-75995000D01*
X140525000Y-75995000D01*
X140525000Y-76005000D01*
X140505000Y-76005000D01*
X140505000Y-76025000D01*
X140495000Y-76025000D01*
X140495000Y-76005000D01*
X139031500Y-76005000D01*
X138842000Y-76194500D01*
X138838332Y-76900000D01*
X138852967Y-77048594D01*
X138896311Y-77191478D01*
X138954317Y-77300000D01*
X137384339Y-77300000D01*
X137528068Y-77203964D01*
X137743964Y-76988068D01*
X137913592Y-76734200D01*
X138030435Y-76452118D01*
X138090000Y-76152662D01*
X138090000Y-75847338D01*
X138030435Y-75547882D01*
X137913592Y-75265800D01*
X137802809Y-75100000D01*
X138838332Y-75100000D01*
X138842000Y-75805500D01*
X139031500Y-75995000D01*
X140495000Y-75995000D01*
X140495000Y-74531500D01*
X140305500Y-74342000D01*
X139600000Y-74338332D01*
X139451406Y-74352967D01*
X139308522Y-74396311D01*
X139176840Y-74466696D01*
X139061419Y-74561419D01*
X138966696Y-74676840D01*
X138896311Y-74808522D01*
X138852967Y-74951406D01*
X138838332Y-75100000D01*
X137802809Y-75100000D01*
X137743964Y-75011932D01*
X137528068Y-74796036D01*
X137274200Y-74626408D01*
X136992118Y-74509565D01*
X136692662Y-74450000D01*
X136387338Y-74450000D01*
X136087882Y-74509565D01*
X135805800Y-74626408D01*
X135585151Y-74773840D01*
X135533304Y-74676840D01*
X135438581Y-74561419D01*
X135323160Y-74466696D01*
X135191478Y-74396311D01*
X135048594Y-74352967D01*
X134900000Y-74338332D01*
X134194500Y-74342000D01*
X134005000Y-74531500D01*
X134005000Y-75995000D01*
X134025000Y-75995000D01*
X134025000Y-76005000D01*
X134005000Y-76005000D01*
X134005000Y-76025000D01*
X133995000Y-76025000D01*
X133995000Y-76005000D01*
X132531500Y-76005000D01*
X132342000Y-76194500D01*
X132338332Y-76900000D01*
X132352967Y-77048594D01*
X132396311Y-77191478D01*
X132454317Y-77300000D01*
X123534234Y-77300000D01*
X123053915Y-77252904D01*
X122624815Y-77123351D01*
X122229056Y-76912922D01*
X121881705Y-76629630D01*
X121595995Y-76284266D01*
X121382811Y-75889989D01*
X121250264Y-75461801D01*
X121200000Y-74983567D01*
X121200000Y-74254648D01*
X121969463Y-74254648D01*
X121969463Y-74654628D01*
X122047495Y-75046924D01*
X122200561Y-75416458D01*
X122422779Y-75749030D01*
X122705608Y-76031859D01*
X123038180Y-76254077D01*
X123407714Y-76407143D01*
X123800010Y-76485175D01*
X124199990Y-76485175D01*
X124592286Y-76407143D01*
X124961820Y-76254077D01*
X125294392Y-76031859D01*
X125577221Y-75749030D01*
X125799439Y-75416458D01*
X125930520Y-75100000D01*
X132338332Y-75100000D01*
X132342000Y-75805500D01*
X132531500Y-75995000D01*
X133995000Y-75995000D01*
X133995000Y-74531500D01*
X133805500Y-74342000D01*
X133100000Y-74338332D01*
X132951406Y-74352967D01*
X132808522Y-74396311D01*
X132676840Y-74466696D01*
X132561419Y-74561419D01*
X132466696Y-74676840D01*
X132396311Y-74808522D01*
X132352967Y-74951406D01*
X132338332Y-75100000D01*
X125930520Y-75100000D01*
X125952505Y-75046924D01*
X126030537Y-74654628D01*
X126030537Y-74254648D01*
X125952505Y-73862352D01*
X125799439Y-73492818D01*
X125577221Y-73160246D01*
X125294392Y-72877417D01*
X124961820Y-72655199D01*
X124592286Y-72502133D01*
X124199990Y-72424101D01*
X123800010Y-72424101D01*
X123407714Y-72502133D01*
X123038180Y-72655199D01*
X122705608Y-72877417D01*
X122422779Y-73160246D01*
X122200561Y-73492818D01*
X122047495Y-73862352D01*
X121969463Y-74254648D01*
X121200000Y-74254648D01*
X121200000Y-68896584D01*
X135450000Y-68896584D01*
X135450000Y-69103416D01*
X135490350Y-69306274D01*
X135569502Y-69497362D01*
X135684411Y-69669336D01*
X135830664Y-69815589D01*
X136002638Y-69930498D01*
X136193726Y-70009650D01*
X136396584Y-70050000D01*
X136603416Y-70050000D01*
X136806274Y-70009650D01*
X136997362Y-69930498D01*
X137169336Y-69815589D01*
X137315589Y-69669336D01*
X137430498Y-69497362D01*
X137509650Y-69306274D01*
X137550000Y-69103416D01*
X137550000Y-68896584D01*
X137509650Y-68693726D01*
X137430498Y-68502638D01*
X137315589Y-68330664D01*
X137169336Y-68184411D01*
X136997362Y-68069502D01*
X136806274Y-67990350D01*
X136603416Y-67950000D01*
X136396584Y-67950000D01*
X136193726Y-67990350D01*
X136002638Y-68069502D01*
X135830664Y-68184411D01*
X135684411Y-68330664D01*
X135569502Y-68502638D01*
X135490350Y-68693726D01*
X135450000Y-68896584D01*
X121200000Y-68896584D01*
X121200000Y-67947458D01*
X123159613Y-67947458D01*
X123251894Y-68273683D01*
X123572393Y-68460395D01*
X123923159Y-68580992D01*
X124290713Y-68630841D01*
X124660929Y-68608026D01*
X125019581Y-68513424D01*
X125352885Y-68350670D01*
X125468106Y-68273683D01*
X125560387Y-67947458D01*
X128239613Y-67947458D01*
X128331894Y-68273683D01*
X128652393Y-68460395D01*
X129003159Y-68580992D01*
X129370713Y-68630841D01*
X129740929Y-68608026D01*
X130099581Y-68513424D01*
X130432885Y-68350670D01*
X130548106Y-68273683D01*
X130640387Y-67947458D01*
X129440000Y-66747071D01*
X128239613Y-67947458D01*
X125560387Y-67947458D01*
X124360000Y-66747071D01*
X123159613Y-67947458D01*
X121200000Y-67947458D01*
X121200000Y-66670713D01*
X122469159Y-66670713D01*
X122491974Y-67040929D01*
X122586576Y-67399581D01*
X122749330Y-67732885D01*
X122826317Y-67848106D01*
X123152542Y-67940387D01*
X124352929Y-66740000D01*
X123152542Y-65539613D01*
X122826317Y-65631894D01*
X122639605Y-65952393D01*
X122519008Y-66303159D01*
X122469159Y-66670713D01*
X121200000Y-66670713D01*
X121200000Y-62867458D01*
X123159613Y-62867458D01*
X123251894Y-63193683D01*
X123572393Y-63380395D01*
X123923159Y-63500992D01*
X124290713Y-63550841D01*
X124611529Y-63531070D01*
X124525000Y-63966083D01*
X124525000Y-64433917D01*
X124612540Y-64874012D01*
X124429287Y-64849159D01*
X124059071Y-64871974D01*
X123700419Y-64966576D01*
X123367115Y-65129330D01*
X123251894Y-65206317D01*
X123159613Y-65532542D01*
X124360000Y-66732929D01*
X124374143Y-66718787D01*
X124381214Y-66725858D01*
X124367071Y-66740000D01*
X125567458Y-67940387D01*
X125893683Y-67848106D01*
X126080395Y-67527607D01*
X126200992Y-67176841D01*
X126250841Y-66809287D01*
X126231070Y-66488471D01*
X126666083Y-66575000D01*
X127133917Y-66575000D01*
X127574012Y-66487460D01*
X127549159Y-66670713D01*
X127571974Y-67040929D01*
X127666576Y-67399581D01*
X127829330Y-67732885D01*
X127906317Y-67848106D01*
X128232542Y-67940387D01*
X129432929Y-66740000D01*
X129447071Y-66740000D01*
X130647458Y-67940387D01*
X130973683Y-67848106D01*
X131160395Y-67527607D01*
X131280992Y-67176841D01*
X131330841Y-66809287D01*
X131308026Y-66439071D01*
X131213424Y-66080419D01*
X131050670Y-65747115D01*
X130973683Y-65631894D01*
X130647458Y-65539613D01*
X129447071Y-66740000D01*
X129432929Y-66740000D01*
X129418787Y-66725858D01*
X129425858Y-66718787D01*
X129440000Y-66732929D01*
X130640387Y-65532542D01*
X130548106Y-65206317D01*
X130227607Y-65019605D01*
X129876841Y-64899008D01*
X129509287Y-64849159D01*
X129188471Y-64868930D01*
X129275000Y-64433917D01*
X129275000Y-63966083D01*
X129187460Y-63525988D01*
X129370713Y-63550841D01*
X129740929Y-63528026D01*
X130099581Y-63433424D01*
X130432885Y-63270670D01*
X130548106Y-63193683D01*
X130640387Y-62867458D01*
X129440000Y-61667071D01*
X129425858Y-61681214D01*
X129418787Y-61674143D01*
X129432929Y-61660000D01*
X129447071Y-61660000D01*
X130647458Y-62860387D01*
X130973683Y-62768106D01*
X131160395Y-62447607D01*
X131280992Y-62096841D01*
X131330841Y-61729287D01*
X131308026Y-61359071D01*
X131213424Y-61000419D01*
X131050670Y-60667115D01*
X130973683Y-60551894D01*
X130647458Y-60459613D01*
X129447071Y-61660000D01*
X129432929Y-61660000D01*
X128232542Y-60459613D01*
X127906317Y-60551894D01*
X127719605Y-60872393D01*
X127599008Y-61223159D01*
X127549159Y-61590713D01*
X127568930Y-61911529D01*
X127133917Y-61825000D01*
X126666083Y-61825000D01*
X126225988Y-61912540D01*
X126250841Y-61729287D01*
X126228026Y-61359071D01*
X126133424Y-61000419D01*
X125970670Y-60667115D01*
X125893683Y-60551894D01*
X125567458Y-60459613D01*
X124367071Y-61660000D01*
X124381214Y-61674143D01*
X124374143Y-61681214D01*
X124360000Y-61667071D01*
X123159613Y-62867458D01*
X121200000Y-62867458D01*
X121200000Y-61590713D01*
X122469159Y-61590713D01*
X122491974Y-61960929D01*
X122586576Y-62319581D01*
X122749330Y-62652885D01*
X122826317Y-62768106D01*
X123152542Y-62860387D01*
X124352929Y-61660000D01*
X123152542Y-60459613D01*
X122826317Y-60551894D01*
X122639605Y-60872393D01*
X122519008Y-61223159D01*
X122469159Y-61590713D01*
X121200000Y-61590713D01*
X121200000Y-60452542D01*
X123159613Y-60452542D01*
X124360000Y-61652929D01*
X125560387Y-60452542D01*
X128239613Y-60452542D01*
X129440000Y-61652929D01*
X130640387Y-60452542D01*
X130548106Y-60126317D01*
X130227607Y-59939605D01*
X129876841Y-59819008D01*
X129509287Y-59769159D01*
X129139071Y-59791974D01*
X128780419Y-59886576D01*
X128447115Y-60049330D01*
X128331894Y-60126317D01*
X128239613Y-60452542D01*
X125560387Y-60452542D01*
X125468106Y-60126317D01*
X125147607Y-59939605D01*
X124796841Y-59819008D01*
X124429287Y-59769159D01*
X124059071Y-59791974D01*
X123700419Y-59886576D01*
X123367115Y-60049330D01*
X123251894Y-60126317D01*
X123159613Y-60452542D01*
X121200000Y-60452542D01*
X121200000Y-59534235D01*
X121209006Y-59442384D01*
X121225740Y-59386957D01*
X121252920Y-59335840D01*
X121289511Y-59290974D01*
X121334119Y-59254072D01*
X121385047Y-59226535D01*
X121440352Y-59209416D01*
X121529933Y-59200000D01*
X124534390Y-59200000D01*
X124564319Y-59197052D01*
X124570425Y-59197095D01*
X124580153Y-59196141D01*
X124774250Y-59175740D01*
X124836420Y-59162978D01*
X124898716Y-59151095D01*
X124908069Y-59148271D01*
X124908075Y-59148270D01*
X124908081Y-59148268D01*
X125094511Y-59090558D01*
X125152985Y-59065978D01*
X125211822Y-59042207D01*
X125220452Y-59037618D01*
X125392129Y-58944793D01*
X125444757Y-58909295D01*
X125497817Y-58874574D01*
X125505379Y-58868406D01*
X125505389Y-58868399D01*
X125505396Y-58868391D01*
X125655769Y-58743993D01*
X125700507Y-58698942D01*
X125745802Y-58654586D01*
X125752032Y-58647055D01*
X125875382Y-58495813D01*
X125910521Y-58442924D01*
X125946336Y-58390619D01*
X125950982Y-58382026D01*
X125950985Y-58382022D01*
X125950987Y-58382018D01*
X126042610Y-58209699D01*
X126066779Y-58151061D01*
X126091780Y-58092729D01*
X126094670Y-58083392D01*
X126151079Y-57896556D01*
X126163408Y-57834291D01*
X126176593Y-57772263D01*
X126177613Y-57762552D01*
X126177615Y-57762542D01*
X126177615Y-57762533D01*
X126196659Y-57568309D01*
X126200000Y-57534390D01*
X126200000Y-48100000D01*
X127271855Y-48100000D01*
X127271855Y-49450000D01*
X127284405Y-49577422D01*
X127321573Y-49699948D01*
X127381930Y-49812868D01*
X127463157Y-49911843D01*
X127540672Y-49975459D01*
X127425800Y-50147377D01*
X127325919Y-50388512D01*
X127275000Y-50644499D01*
X127275000Y-50905501D01*
X127325919Y-51161488D01*
X127425800Y-51402623D01*
X127570805Y-51619638D01*
X127726167Y-51775000D01*
X127570805Y-51930362D01*
X127425800Y-52147377D01*
X127325919Y-52388512D01*
X127275000Y-52644499D01*
X127275000Y-52905501D01*
X127325919Y-53161488D01*
X127425800Y-53402623D01*
X127570805Y-53619638D01*
X127755362Y-53804195D01*
X127972377Y-53949200D01*
X128213512Y-54049081D01*
X128469499Y-54100000D01*
X128510788Y-54100000D01*
X131350002Y-56939215D01*
X131350001Y-60799881D01*
X131345163Y-60849001D01*
X131364471Y-61045035D01*
X131378491Y-61091252D01*
X131421652Y-61233535D01*
X131514509Y-61407259D01*
X131639473Y-61559529D01*
X131677638Y-61590850D01*
X140863155Y-70776368D01*
X140894472Y-70814528D01*
X141046742Y-70939492D01*
X141210458Y-71027000D01*
X141220465Y-71032349D01*
X141408965Y-71089530D01*
X141604999Y-71108838D01*
X141654119Y-71104000D01*
X165650824Y-71104000D01*
X165421064Y-71199170D01*
X165134440Y-71390686D01*
X164890686Y-71634440D01*
X164699170Y-71921064D01*
X164567251Y-72239544D01*
X164500000Y-72577640D01*
X164500000Y-72922360D01*
X164567251Y-73260456D01*
X164699170Y-73578936D01*
X164890686Y-73865560D01*
X165134440Y-74109314D01*
X165421064Y-74300830D01*
X165739544Y-74432749D01*
X166076165Y-74499707D01*
X166030554Y-74578082D01*
X165927704Y-74877667D01*
X165885277Y-75191561D01*
X165904903Y-75507701D01*
X165985827Y-75813937D01*
X166124940Y-76098502D01*
X166189874Y-76195682D01*
X166487939Y-76254990D01*
X167492929Y-75250000D01*
X167507071Y-75250000D01*
X168512061Y-76254990D01*
X168810126Y-76195682D01*
X168969446Y-75921918D01*
X169072296Y-75622333D01*
X169114723Y-75308439D01*
X169101924Y-75102263D01*
X170500000Y-75102263D01*
X170500000Y-75397737D01*
X170557644Y-75687534D01*
X170670717Y-75960517D01*
X170834874Y-76206194D01*
X171043806Y-76415126D01*
X171289483Y-76579283D01*
X171562466Y-76692356D01*
X171852263Y-76750000D01*
X172147737Y-76750000D01*
X172437534Y-76692356D01*
X172710517Y-76579283D01*
X172956194Y-76415126D01*
X173165126Y-76206194D01*
X173329283Y-75960517D01*
X173442356Y-75687534D01*
X173500000Y-75397737D01*
X173500000Y-75102263D01*
X173442356Y-74812466D01*
X173329283Y-74539483D01*
X173302901Y-74500000D01*
X173422360Y-74500000D01*
X173760456Y-74432749D01*
X174078936Y-74300830D01*
X174080163Y-74300010D01*
X180014825Y-74300010D01*
X180014825Y-74699990D01*
X180092857Y-75092286D01*
X180245923Y-75461820D01*
X180468141Y-75794392D01*
X180750970Y-76077221D01*
X181083542Y-76299439D01*
X181453076Y-76452505D01*
X181845372Y-76530537D01*
X182245352Y-76530537D01*
X182637648Y-76452505D01*
X183007182Y-76299439D01*
X183339754Y-76077221D01*
X183622583Y-75794392D01*
X183844801Y-75461820D01*
X183997867Y-75092286D01*
X184075899Y-74699990D01*
X184075899Y-74300010D01*
X183997867Y-73907714D01*
X183844801Y-73538180D01*
X183622583Y-73205608D01*
X183339754Y-72922779D01*
X183007182Y-72700561D01*
X182637648Y-72547495D01*
X182245352Y-72469463D01*
X181845372Y-72469463D01*
X181453076Y-72547495D01*
X181083542Y-72700561D01*
X180750970Y-72922779D01*
X180468141Y-73205608D01*
X180245923Y-73538180D01*
X180092857Y-73907714D01*
X180014825Y-74300010D01*
X174080163Y-74300010D01*
X174365560Y-74109314D01*
X174609314Y-73865560D01*
X174800830Y-73578936D01*
X174932749Y-73260456D01*
X175000000Y-72922360D01*
X175000000Y-72577640D01*
X174932749Y-72239544D01*
X174800830Y-71921064D01*
X174617429Y-71646584D01*
X176450000Y-71646584D01*
X176450000Y-71853416D01*
X176490350Y-72056274D01*
X176569502Y-72247362D01*
X176684411Y-72419336D01*
X176830664Y-72565589D01*
X177002638Y-72680498D01*
X177193726Y-72759650D01*
X177396584Y-72800000D01*
X177603416Y-72800000D01*
X177806274Y-72759650D01*
X177997362Y-72680498D01*
X178169336Y-72565589D01*
X178315589Y-72419336D01*
X178404290Y-72286584D01*
X184950000Y-72286584D01*
X184950000Y-72493416D01*
X184990350Y-72696274D01*
X185069502Y-72887362D01*
X185184411Y-73059336D01*
X185330664Y-73205589D01*
X185502638Y-73320498D01*
X185693726Y-73399650D01*
X185896584Y-73440000D01*
X186103416Y-73440000D01*
X186306274Y-73399650D01*
X186497362Y-73320498D01*
X186669336Y-73205589D01*
X186815589Y-73059336D01*
X186930498Y-72887362D01*
X187009650Y-72696274D01*
X187050000Y-72493416D01*
X187050000Y-72286584D01*
X187009650Y-72083726D01*
X186930498Y-71892638D01*
X186815589Y-71720664D01*
X186669336Y-71574411D01*
X186497362Y-71459502D01*
X186306274Y-71380350D01*
X186103416Y-71340000D01*
X185896584Y-71340000D01*
X185693726Y-71380350D01*
X185502638Y-71459502D01*
X185330664Y-71574411D01*
X185184411Y-71720664D01*
X185069502Y-71892638D01*
X184990350Y-72083726D01*
X184950000Y-72286584D01*
X178404290Y-72286584D01*
X178430498Y-72247362D01*
X178509650Y-72056274D01*
X178550000Y-71853416D01*
X178550000Y-71646584D01*
X178509650Y-71443726D01*
X178430498Y-71252638D01*
X178315589Y-71080664D01*
X178169336Y-70934411D01*
X177997362Y-70819502D01*
X177806274Y-70740350D01*
X177603416Y-70700000D01*
X177396584Y-70700000D01*
X177193726Y-70740350D01*
X177002638Y-70819502D01*
X176830664Y-70934411D01*
X176684411Y-71080664D01*
X176569502Y-71252638D01*
X176490350Y-71443726D01*
X176450000Y-71646584D01*
X174617429Y-71646584D01*
X174609314Y-71634440D01*
X174365560Y-71390686D01*
X174078936Y-71199170D01*
X173760456Y-71067251D01*
X173422360Y-71000000D01*
X173077640Y-71000000D01*
X172739544Y-71067251D01*
X172421064Y-71199170D01*
X172134440Y-71390686D01*
X171890686Y-71634440D01*
X171699170Y-71921064D01*
X171567251Y-72239544D01*
X171500000Y-72577640D01*
X171500000Y-72922360D01*
X171567251Y-73260456D01*
X171699170Y-73578936D01*
X171818022Y-73756811D01*
X171562466Y-73807644D01*
X171289483Y-73920717D01*
X171043806Y-74084874D01*
X170834874Y-74293806D01*
X170670717Y-74539483D01*
X170557644Y-74812466D01*
X170500000Y-75102263D01*
X169101924Y-75102263D01*
X169095097Y-74992299D01*
X169014173Y-74686063D01*
X168875060Y-74401498D01*
X168810126Y-74304318D01*
X168512061Y-74245010D01*
X167507071Y-75250000D01*
X167492929Y-75250000D01*
X167478787Y-75235858D01*
X167485858Y-75228787D01*
X167500000Y-75242929D01*
X168504990Y-74237939D01*
X168445682Y-73939874D01*
X168171918Y-73780554D01*
X167872333Y-73677704D01*
X167746225Y-73660659D01*
X167800830Y-73578936D01*
X167932749Y-73260456D01*
X168000000Y-72922360D01*
X168000000Y-72577640D01*
X167932749Y-72239544D01*
X167800830Y-71921064D01*
X167609314Y-71634440D01*
X167365560Y-71390686D01*
X167078936Y-71199170D01*
X166849176Y-71104000D01*
X167988880Y-71104000D01*
X168038000Y-71108838D01*
X168087120Y-71104000D01*
X168234034Y-71089530D01*
X168422535Y-71032349D01*
X168596258Y-70939492D01*
X168748528Y-70814528D01*
X168779849Y-70776363D01*
X169682628Y-69873584D01*
X182846000Y-69873584D01*
X182846000Y-70080416D01*
X182886350Y-70283274D01*
X182965502Y-70474362D01*
X183080411Y-70646336D01*
X183226664Y-70792589D01*
X183398638Y-70907498D01*
X183589726Y-70986650D01*
X183792584Y-71027000D01*
X183999416Y-71027000D01*
X184202274Y-70986650D01*
X184393362Y-70907498D01*
X184565336Y-70792589D01*
X184711589Y-70646336D01*
X184826498Y-70474362D01*
X184905650Y-70283274D01*
X184946000Y-70080416D01*
X184946000Y-69873584D01*
X184905650Y-69670726D01*
X184826498Y-69479638D01*
X184711589Y-69307664D01*
X184565336Y-69161411D01*
X184393362Y-69046502D01*
X184202274Y-68967350D01*
X183999416Y-68927000D01*
X183792584Y-68927000D01*
X183589726Y-68967350D01*
X183398638Y-69046502D01*
X183226664Y-69161411D01*
X183080411Y-69307664D01*
X182965502Y-69479638D01*
X182886350Y-69670726D01*
X182846000Y-69873584D01*
X169682628Y-69873584D01*
X172659628Y-66896584D01*
X183450000Y-66896584D01*
X183450000Y-67103416D01*
X183490350Y-67306274D01*
X183569502Y-67497362D01*
X183684411Y-67669336D01*
X183830664Y-67815589D01*
X184002638Y-67930498D01*
X184193726Y-68009650D01*
X184396584Y-68050000D01*
X184603416Y-68050000D01*
X184806274Y-68009650D01*
X184997362Y-67930498D01*
X185169336Y-67815589D01*
X185315589Y-67669336D01*
X185430498Y-67497362D01*
X185509650Y-67306274D01*
X185521522Y-67246584D01*
X189950000Y-67246584D01*
X189950000Y-67453416D01*
X189990350Y-67656274D01*
X190069502Y-67847362D01*
X190184411Y-68019336D01*
X190330664Y-68165589D01*
X190502638Y-68280498D01*
X190693726Y-68359650D01*
X190896584Y-68400000D01*
X191103416Y-68400000D01*
X191306274Y-68359650D01*
X191497362Y-68280498D01*
X191669336Y-68165589D01*
X191815589Y-68019336D01*
X191930498Y-67847362D01*
X192009650Y-67656274D01*
X192050000Y-67453416D01*
X192050000Y-67246584D01*
X192009650Y-67043726D01*
X191930498Y-66852638D01*
X191815589Y-66680664D01*
X191669336Y-66534411D01*
X191497362Y-66419502D01*
X191306274Y-66340350D01*
X191103416Y-66300000D01*
X190896584Y-66300000D01*
X190693726Y-66340350D01*
X190502638Y-66419502D01*
X190330664Y-66534411D01*
X190184411Y-66680664D01*
X190069502Y-66852638D01*
X189990350Y-67043726D01*
X189950000Y-67246584D01*
X185521522Y-67246584D01*
X185550000Y-67103416D01*
X185550000Y-66896584D01*
X185509650Y-66693726D01*
X185430498Y-66502638D01*
X185315589Y-66330664D01*
X185169336Y-66184411D01*
X184997362Y-66069502D01*
X184806274Y-65990350D01*
X184603416Y-65950000D01*
X184396584Y-65950000D01*
X184193726Y-65990350D01*
X184002638Y-66069502D01*
X183830664Y-66184411D01*
X183684411Y-66330664D01*
X183569502Y-66502638D01*
X183490350Y-66693726D01*
X183450000Y-66896584D01*
X172659628Y-66896584D01*
X175555703Y-64000510D01*
X181932616Y-64000510D01*
X181932616Y-64207342D01*
X181972966Y-64410200D01*
X182052118Y-64601288D01*
X182167027Y-64773262D01*
X182313280Y-64919515D01*
X182485254Y-65034424D01*
X182676342Y-65113576D01*
X182879200Y-65153926D01*
X183086032Y-65153926D01*
X183288890Y-65113576D01*
X183479978Y-65034424D01*
X183651952Y-64919515D01*
X183798205Y-64773262D01*
X183913114Y-64601288D01*
X183992266Y-64410200D01*
X184032616Y-64207342D01*
X184032616Y-64000510D01*
X183992266Y-63797652D01*
X183913114Y-63606564D01*
X183798205Y-63434590D01*
X183651952Y-63288337D01*
X183479978Y-63173428D01*
X183288890Y-63094276D01*
X183086032Y-63053926D01*
X182879200Y-63053926D01*
X182676342Y-63094276D01*
X182485254Y-63173428D01*
X182313280Y-63288337D01*
X182167027Y-63434590D01*
X182052118Y-63606564D01*
X181972966Y-63797652D01*
X181932616Y-64000510D01*
X175555703Y-64000510D01*
X181533214Y-58023000D01*
X193382488Y-58023000D01*
X193431608Y-58027838D01*
X193480728Y-58023000D01*
X193627642Y-58008530D01*
X193816143Y-57951349D01*
X193989866Y-57858492D01*
X194142136Y-57733528D01*
X194173457Y-57695363D01*
X197406384Y-54462438D01*
X197444538Y-54431126D01*
X197569502Y-54278856D01*
X197662359Y-54105133D01*
X197719540Y-53916632D01*
X197734010Y-53769718D01*
X197738848Y-53720598D01*
X197734010Y-53671478D01*
X197734010Y-38033127D01*
X197738848Y-37984009D01*
X197732415Y-37918698D01*
X197719540Y-37787976D01*
X197662359Y-37599475D01*
X197569502Y-37425752D01*
X197444538Y-37273482D01*
X197406378Y-37242165D01*
X193587458Y-33423245D01*
X200371326Y-33423245D01*
X200415647Y-33708510D01*
X200668167Y-33855379D01*
X200944488Y-33950161D01*
X201233992Y-33989215D01*
X201525551Y-33971039D01*
X201807962Y-33896332D01*
X202070373Y-33767965D01*
X202146085Y-33717375D01*
X202297010Y-33717375D01*
X202304618Y-33760029D01*
X202380958Y-34015065D01*
X202505586Y-34250307D01*
X202673713Y-34456716D01*
X202878878Y-34626358D01*
X203113196Y-34752715D01*
X203367663Y-34830931D01*
X203632500Y-34858000D01*
X203982500Y-34858000D01*
X203982500Y-33505000D01*
X202469011Y-33505000D01*
X202297010Y-33717375D01*
X202146085Y-33717375D01*
X202159353Y-33708510D01*
X202203674Y-33423245D01*
X201287500Y-32507071D01*
X200371326Y-33423245D01*
X193587458Y-33423245D01*
X192940149Y-32775937D01*
X192930498Y-32752638D01*
X192815589Y-32580664D01*
X192681417Y-32446492D01*
X199798285Y-32446492D01*
X199816461Y-32738051D01*
X199891168Y-33020462D01*
X200019535Y-33282873D01*
X200078990Y-33371853D01*
X200364255Y-33416174D01*
X201280429Y-32500000D01*
X201294571Y-32500000D01*
X202210745Y-33416174D01*
X202383440Y-33389343D01*
X202469011Y-33495000D01*
X203982500Y-33495000D01*
X203982500Y-32142000D01*
X203632500Y-32142000D01*
X203367663Y-32169069D01*
X203113196Y-32247285D01*
X202878878Y-32373642D01*
X202771060Y-32462792D01*
X202758539Y-32261949D01*
X202683832Y-31979538D01*
X202555465Y-31717127D01*
X202496010Y-31628147D01*
X202210745Y-31583826D01*
X201294571Y-32500000D01*
X201280429Y-32500000D01*
X200364255Y-31583826D01*
X200078990Y-31628147D01*
X199932121Y-31880667D01*
X199837339Y-32156988D01*
X199798285Y-32446492D01*
X192681417Y-32446492D01*
X192669336Y-32434411D01*
X192497362Y-32319502D01*
X192306274Y-32240350D01*
X192103416Y-32200000D01*
X191896584Y-32200000D01*
X191693726Y-32240350D01*
X191670429Y-32250000D01*
X184164213Y-32250000D01*
X183490968Y-31576755D01*
X200371326Y-31576755D01*
X201287500Y-32492929D01*
X202203674Y-31576755D01*
X202159353Y-31291490D01*
X201906833Y-31144621D01*
X201630512Y-31049839D01*
X201341008Y-31010785D01*
X201049449Y-31028961D01*
X200767038Y-31103668D01*
X200504627Y-31232035D01*
X200415647Y-31291490D01*
X200371326Y-31576755D01*
X183490968Y-31576755D01*
X180591848Y-28677636D01*
X180560527Y-28639471D01*
X180408257Y-28514507D01*
X180237519Y-28423245D01*
X200371326Y-28423245D01*
X200415647Y-28708510D01*
X200668167Y-28855379D01*
X200944488Y-28950161D01*
X201233992Y-28989215D01*
X201525551Y-28971039D01*
X201807962Y-28896332D01*
X202070373Y-28767965D01*
X202159353Y-28708510D01*
X202203674Y-28423245D01*
X201287500Y-27507071D01*
X200371326Y-28423245D01*
X180237519Y-28423245D01*
X180234534Y-28421650D01*
X180046033Y-28364469D01*
X179899119Y-28349999D01*
X179849999Y-28345161D01*
X179800879Y-28349999D01*
X175823337Y-28349999D01*
X175794728Y-28330883D01*
X175585442Y-28244193D01*
X175363264Y-28199999D01*
X175136734Y-28199999D01*
X174914556Y-28244193D01*
X174705270Y-28330883D01*
X174516917Y-28456736D01*
X174356736Y-28616917D01*
X174230883Y-28805270D01*
X174144193Y-29014556D01*
X174099999Y-29236734D01*
X174099999Y-29463264D01*
X174144193Y-29685442D01*
X174230883Y-29894728D01*
X174356736Y-30083081D01*
X174516917Y-30243262D01*
X174705270Y-30369115D01*
X174914556Y-30455805D01*
X175136734Y-30499999D01*
X175363264Y-30499999D01*
X175585442Y-30455805D01*
X175794728Y-30369115D01*
X175823337Y-30349999D01*
X179435787Y-30349999D01*
X182335787Y-33250000D01*
X179286632Y-36299156D01*
X179248473Y-36330472D01*
X179123509Y-36482742D01*
X179073875Y-36575600D01*
X179030651Y-36656466D01*
X178973470Y-36844966D01*
X178954162Y-37041000D01*
X178959001Y-37090130D01*
X178959000Y-42864474D01*
X178954162Y-42913594D01*
X178973470Y-43109628D01*
X179016639Y-43251936D01*
X179030651Y-43298128D01*
X179123508Y-43471852D01*
X179248472Y-43624122D01*
X179286637Y-43655443D01*
X181053561Y-45422368D01*
X181084878Y-45460528D01*
X181237148Y-45585492D01*
X181410871Y-45678349D01*
X181599372Y-45735530D01*
X181746286Y-45750000D01*
X181746287Y-45750000D01*
X181795405Y-45754838D01*
X181844523Y-45750000D01*
X181876167Y-45750000D01*
X181905362Y-45779195D01*
X182122377Y-45924200D01*
X182363512Y-46024081D01*
X182619499Y-46075000D01*
X182880501Y-46075000D01*
X183136488Y-46024081D01*
X183377623Y-45924200D01*
X183594638Y-45779195D01*
X183779195Y-45594638D01*
X183924200Y-45377623D01*
X184024081Y-45136488D01*
X184075000Y-44880501D01*
X184075000Y-44619499D01*
X184024081Y-44363512D01*
X183924200Y-44122377D01*
X183779195Y-43905362D01*
X183623833Y-43750000D01*
X183779195Y-43594638D01*
X183924200Y-43377623D01*
X184024081Y-43136488D01*
X184075000Y-42880501D01*
X184075000Y-42619499D01*
X184024081Y-42363512D01*
X183924200Y-42122377D01*
X183809328Y-41950459D01*
X183886843Y-41886843D01*
X183968070Y-41787868D01*
X184028427Y-41674948D01*
X184065595Y-41552422D01*
X184078145Y-41425000D01*
X184078145Y-40075000D01*
X184065595Y-39947578D01*
X184028427Y-39825052D01*
X183968070Y-39712132D01*
X183886843Y-39613157D01*
X183880559Y-39608000D01*
X188069050Y-39608000D01*
X188046573Y-39650052D01*
X188009405Y-39772578D01*
X187996855Y-39900000D01*
X187996855Y-41157131D01*
X187278904Y-41875082D01*
X187249332Y-41899351D01*
X187197205Y-41962868D01*
X187152484Y-42017360D01*
X187080521Y-42151996D01*
X187036205Y-42298084D01*
X187021241Y-42450010D01*
X187024991Y-42488083D01*
X187024990Y-45742585D01*
X185792576Y-46975000D01*
X179883009Y-46975000D01*
X179844946Y-46971251D01*
X179806883Y-46975000D01*
X179806881Y-46975000D01*
X179693020Y-46986214D01*
X179602129Y-47013786D01*
X179546931Y-47030530D01*
X179435016Y-47090350D01*
X179430061Y-47092998D01*
X179423668Y-47090350D01*
X179220810Y-47050000D01*
X179013978Y-47050000D01*
X178811120Y-47090350D01*
X178620032Y-47169502D01*
X178448058Y-47284411D01*
X178301805Y-47430664D01*
X178186896Y-47602638D01*
X178107744Y-47793726D01*
X178067394Y-47996584D01*
X178067394Y-48203416D01*
X178107744Y-48406274D01*
X178186896Y-48597362D01*
X178301805Y-48769336D01*
X178448058Y-48915589D01*
X178620032Y-49030498D01*
X178811120Y-49109650D01*
X178941118Y-49135508D01*
X178987450Y-49247362D01*
X179102359Y-49419336D01*
X179248612Y-49565589D01*
X179420586Y-49680498D01*
X179611674Y-49759650D01*
X179735995Y-49784378D01*
X179740350Y-49806274D01*
X179819502Y-49997362D01*
X179934411Y-50169336D01*
X180080664Y-50315589D01*
X180252638Y-50430498D01*
X180443726Y-50509650D01*
X180646584Y-50550000D01*
X180853416Y-50550000D01*
X181056274Y-50509650D01*
X181247362Y-50430498D01*
X181419336Y-50315589D01*
X181459925Y-50275000D01*
X185791937Y-50275000D01*
X185830000Y-50278749D01*
X185868063Y-50275000D01*
X185868065Y-50275000D01*
X185981926Y-50263786D01*
X186128014Y-50219470D01*
X186262650Y-50147506D01*
X186380659Y-50050659D01*
X186404932Y-50021082D01*
X188051012Y-48375002D01*
X188081508Y-48375002D01*
X187912587Y-48626484D01*
X187935270Y-48740517D01*
X188037620Y-49038661D01*
X188196168Y-49311109D01*
X188404822Y-49547391D01*
X188655563Y-49738426D01*
X188830188Y-49823797D01*
X187866986Y-50787000D01*
X177096073Y-50787000D01*
X177058010Y-50783251D01*
X177039490Y-50785075D01*
X176913426Y-50760000D01*
X176706594Y-50760000D01*
X176503736Y-50800350D01*
X176312648Y-50879502D01*
X176140674Y-50994411D01*
X175994421Y-51140664D01*
X175879512Y-51312638D01*
X175800360Y-51503726D01*
X175760010Y-51706584D01*
X175760010Y-51913416D01*
X175800360Y-52116274D01*
X175818141Y-52159200D01*
X175660680Y-52264411D01*
X175514427Y-52410664D01*
X175399518Y-52582638D01*
X175320366Y-52773726D01*
X175280016Y-52976584D01*
X175280016Y-53163542D01*
X175129752Y-53263945D01*
X174983499Y-53410198D01*
X174868590Y-53582172D01*
X174789438Y-53773260D01*
X174749088Y-53976118D01*
X174749088Y-54085619D01*
X174727635Y-54094505D01*
X174555661Y-54209414D01*
X174409408Y-54355667D01*
X174294499Y-54527641D01*
X174215347Y-54718729D01*
X174174997Y-54921587D01*
X174174997Y-55128419D01*
X174215347Y-55331277D01*
X174294499Y-55522365D01*
X174409408Y-55694339D01*
X174555661Y-55840592D01*
X174727635Y-55955501D01*
X174918723Y-56034653D01*
X175121581Y-56075003D01*
X175328413Y-56075003D01*
X175531271Y-56034653D01*
X175722359Y-55955501D01*
X175894333Y-55840592D01*
X175934926Y-55799999D01*
X193240397Y-55799999D01*
X193017396Y-56023000D01*
X181168120Y-56023000D01*
X181119000Y-56018162D01*
X181069880Y-56023000D01*
X180922966Y-56037470D01*
X180734465Y-56094651D01*
X180560742Y-56187508D01*
X180408472Y-56312472D01*
X180377160Y-56350626D01*
X174000001Y-62727786D01*
X174000001Y-58581000D01*
X174093416Y-58581000D01*
X174296274Y-58540650D01*
X174487362Y-58461498D01*
X174659336Y-58346589D01*
X174805589Y-58200336D01*
X174920498Y-58028362D01*
X174999650Y-57837274D01*
X175040000Y-57634416D01*
X175040000Y-57427584D01*
X174999650Y-57224726D01*
X174920498Y-57033638D01*
X174805589Y-56861664D01*
X174659336Y-56715411D01*
X174487362Y-56600502D01*
X174296274Y-56521350D01*
X174093416Y-56481000D01*
X174000001Y-56481000D01*
X174000001Y-29251062D01*
X174003750Y-29212999D01*
X174000001Y-29174934D01*
X173988787Y-29061073D01*
X173954785Y-28948986D01*
X173944471Y-28914984D01*
X173872507Y-28780348D01*
X173843111Y-28744530D01*
X173775660Y-28662340D01*
X173746084Y-28638068D01*
X173288935Y-28180919D01*
X173264661Y-28151341D01*
X173146652Y-28054494D01*
X173012016Y-27982530D01*
X172865928Y-27938214D01*
X172793702Y-27931101D01*
X172870517Y-27899283D01*
X173116194Y-27735126D01*
X173325126Y-27526194D01*
X173430000Y-27369240D01*
X173534874Y-27526194D01*
X173743806Y-27735126D01*
X173989483Y-27899283D01*
X174262466Y-28012356D01*
X174552263Y-28070000D01*
X174847737Y-28070000D01*
X175137534Y-28012356D01*
X175410517Y-27899283D01*
X175656194Y-27735126D01*
X175865126Y-27526194D01*
X175907922Y-27462145D01*
X176062609Y-27665178D01*
X176298891Y-27873832D01*
X176571339Y-28032380D01*
X176869483Y-28134730D01*
X176983516Y-28157413D01*
X177235000Y-27988491D01*
X177235000Y-26575000D01*
X177245000Y-26575000D01*
X177245000Y-27988491D01*
X177496484Y-28157413D01*
X177610517Y-28134730D01*
X177908661Y-28032380D01*
X178181109Y-27873832D01*
X178417391Y-27665178D01*
X178608426Y-27414437D01*
X178746874Y-27131245D01*
X178827413Y-26826484D01*
X178658492Y-26575000D01*
X177245000Y-26575000D01*
X177235000Y-26575000D01*
X177215000Y-26575000D01*
X177215000Y-26565000D01*
X177235000Y-26565000D01*
X177235000Y-26545000D01*
X177245000Y-26545000D01*
X177245000Y-26565000D01*
X178658492Y-26565000D01*
X178827413Y-26313516D01*
X178746874Y-26008755D01*
X178608426Y-25725563D01*
X178417391Y-25474822D01*
X178219433Y-25300010D01*
X179969463Y-25300010D01*
X179969463Y-25699990D01*
X180047495Y-26092286D01*
X180200561Y-26461820D01*
X180422779Y-26794392D01*
X180705608Y-27077221D01*
X181038180Y-27299439D01*
X181407714Y-27452505D01*
X181800010Y-27530537D01*
X182199990Y-27530537D01*
X182592286Y-27452505D01*
X182961820Y-27299439D01*
X183294392Y-27077221D01*
X183577221Y-26794392D01*
X183799439Y-26461820D01*
X183952505Y-26092286D01*
X183965626Y-26026320D01*
X187000000Y-26026320D01*
X187000000Y-26473679D01*
X187021705Y-26694050D01*
X187107476Y-26976801D01*
X187246762Y-27237386D01*
X187434208Y-27465792D01*
X187662613Y-27653238D01*
X187923198Y-27792524D01*
X188205949Y-27878295D01*
X188500000Y-27907257D01*
X188794050Y-27878295D01*
X189076801Y-27792524D01*
X189337386Y-27653238D01*
X189454622Y-27557026D01*
X189516696Y-27673160D01*
X189611419Y-27788581D01*
X189726840Y-27883304D01*
X189858522Y-27953689D01*
X190001406Y-27997033D01*
X190150000Y-28011668D01*
X190805500Y-28008000D01*
X190995000Y-27818500D01*
X190995000Y-26255000D01*
X191005000Y-26255000D01*
X191005000Y-27818500D01*
X191194500Y-28008000D01*
X191850000Y-28011668D01*
X191998594Y-27997033D01*
X192141478Y-27953689D01*
X192273160Y-27883304D01*
X192388581Y-27788581D01*
X192483304Y-27673160D01*
X192553689Y-27541478D01*
X192582503Y-27446492D01*
X199798285Y-27446492D01*
X199816461Y-27738051D01*
X199891168Y-28020462D01*
X200019535Y-28282873D01*
X200078990Y-28371853D01*
X200364255Y-28416174D01*
X201280429Y-27500000D01*
X201294571Y-27500000D01*
X202210745Y-28416174D01*
X202496010Y-28371853D01*
X202642879Y-28119333D01*
X202737661Y-27843012D01*
X202776715Y-27553508D01*
X202775951Y-27541252D01*
X202878878Y-27626358D01*
X203113196Y-27752715D01*
X203367663Y-27830931D01*
X203632500Y-27858000D01*
X203982500Y-27858000D01*
X203982500Y-26505000D01*
X202469011Y-26505000D01*
X202383440Y-26610657D01*
X202210745Y-26583826D01*
X201294571Y-27500000D01*
X201280429Y-27500000D01*
X200364255Y-26583826D01*
X200078990Y-26628147D01*
X199932121Y-26880667D01*
X199837339Y-27156988D01*
X199798285Y-27446492D01*
X192582503Y-27446492D01*
X192597033Y-27398594D01*
X192611668Y-27250000D01*
X192608603Y-26576755D01*
X200371326Y-26576755D01*
X201287500Y-27492929D01*
X202203674Y-26576755D01*
X202159353Y-26291490D01*
X202144111Y-26282625D01*
X202297010Y-26282625D01*
X202469011Y-26495000D01*
X203982500Y-26495000D01*
X203982500Y-25142000D01*
X203632500Y-25142000D01*
X203367663Y-25169069D01*
X203113196Y-25247285D01*
X202878878Y-25373642D01*
X202673713Y-25543284D01*
X202505586Y-25749693D01*
X202380958Y-25984935D01*
X202304618Y-26239971D01*
X202297010Y-26282625D01*
X202144111Y-26282625D01*
X201906833Y-26144621D01*
X201630512Y-26049839D01*
X201341008Y-26010785D01*
X201049449Y-26028961D01*
X200767038Y-26103668D01*
X200504627Y-26232035D01*
X200415647Y-26291490D01*
X200371326Y-26576755D01*
X192608603Y-26576755D01*
X192608000Y-26444500D01*
X192418500Y-26255000D01*
X191005000Y-26255000D01*
X190995000Y-26255000D01*
X190975000Y-26255000D01*
X190975000Y-26245000D01*
X190995000Y-26245000D01*
X190995000Y-24681500D01*
X191005000Y-24681500D01*
X191005000Y-26245000D01*
X192418500Y-26245000D01*
X192608000Y-26055500D01*
X192611668Y-25250000D01*
X192597033Y-25101406D01*
X192553689Y-24958522D01*
X192483304Y-24826840D01*
X192388581Y-24711419D01*
X192273160Y-24616696D01*
X192141478Y-24546311D01*
X191998594Y-24502967D01*
X191850000Y-24488332D01*
X191194500Y-24492000D01*
X191005000Y-24681500D01*
X190995000Y-24681500D01*
X190805500Y-24492000D01*
X190150000Y-24488332D01*
X190001406Y-24502967D01*
X189858522Y-24546311D01*
X189726840Y-24616696D01*
X189611419Y-24711419D01*
X189516696Y-24826840D01*
X189454622Y-24942974D01*
X189337387Y-24846762D01*
X189076802Y-24707476D01*
X188794051Y-24621705D01*
X188500000Y-24592743D01*
X188205950Y-24621705D01*
X187923199Y-24707476D01*
X187662614Y-24846762D01*
X187434208Y-25034208D01*
X187246762Y-25262613D01*
X187107476Y-25523198D01*
X187021705Y-25805949D01*
X187000000Y-26026320D01*
X183965626Y-26026320D01*
X184030537Y-25699990D01*
X184030537Y-25300010D01*
X183952505Y-24907714D01*
X183799439Y-24538180D01*
X183577221Y-24205608D01*
X183294392Y-23922779D01*
X182961820Y-23700561D01*
X182592286Y-23547495D01*
X182199990Y-23469463D01*
X181800010Y-23469463D01*
X181407714Y-23547495D01*
X181038180Y-23700561D01*
X180705608Y-23922779D01*
X180422779Y-24205608D01*
X180200561Y-24538180D01*
X180047495Y-24907714D01*
X179969463Y-25300010D01*
X178219433Y-25300010D01*
X178181109Y-25266168D01*
X178132344Y-25237790D01*
X178196194Y-25195126D01*
X178405126Y-24986194D01*
X178569283Y-24740517D01*
X178682356Y-24467534D01*
X178740000Y-24177737D01*
X178740000Y-23882263D01*
X178682356Y-23592466D01*
X178569283Y-23319483D01*
X178405126Y-23073806D01*
X178196194Y-22864874D01*
X177950517Y-22700717D01*
X177677534Y-22587644D01*
X177387737Y-22530000D01*
X177092263Y-22530000D01*
X176802466Y-22587644D01*
X176529483Y-22700717D01*
X176283806Y-22864874D01*
X176074874Y-23073806D01*
X175970000Y-23230760D01*
X175865126Y-23073806D01*
X175656194Y-22864874D01*
X175410517Y-22700717D01*
X175137534Y-22587644D01*
X174847737Y-22530000D01*
X174552263Y-22530000D01*
X174262466Y-22587644D01*
X173989483Y-22700717D01*
X173743806Y-22864874D01*
X173534874Y-23073806D01*
X173430000Y-23230760D01*
X173325126Y-23073806D01*
X173116194Y-22864874D01*
X172870517Y-22700717D01*
X172597534Y-22587644D01*
X172307737Y-22530000D01*
X172012263Y-22530000D01*
X171722466Y-22587644D01*
X171449483Y-22700717D01*
X171203806Y-22864874D01*
X170994874Y-23073806D01*
X170952078Y-23137855D01*
X170797391Y-22934822D01*
X170561109Y-22726168D01*
X170288661Y-22567620D01*
X169990517Y-22465270D01*
X169876484Y-22442587D01*
X169625000Y-22611509D01*
X169625000Y-24025000D01*
X169645000Y-24025000D01*
X169645000Y-24035000D01*
X169625000Y-24035000D01*
X169625000Y-24055000D01*
X169615000Y-24055000D01*
X169615000Y-24035000D01*
X169595000Y-24035000D01*
X169595000Y-24025000D01*
X169615000Y-24025000D01*
X169615000Y-22611509D01*
X169363516Y-22442587D01*
X169249483Y-22465270D01*
X168951339Y-22567620D01*
X168678891Y-22726168D01*
X168442609Y-22934822D01*
X168287922Y-23137855D01*
X168245126Y-23073806D01*
X168036194Y-22864874D01*
X167790517Y-22700717D01*
X167517534Y-22587644D01*
X167227737Y-22530000D01*
X166932263Y-22530000D01*
X166642466Y-22587644D01*
X166369483Y-22700717D01*
X166123806Y-22864874D01*
X165914874Y-23073806D01*
X165872078Y-23137855D01*
X165717391Y-22934822D01*
X165481109Y-22726168D01*
X165208661Y-22567620D01*
X164910517Y-22465270D01*
X164796484Y-22442587D01*
X164545000Y-22611509D01*
X164545000Y-24025000D01*
X164565000Y-24025000D01*
X164565000Y-24035000D01*
X164545000Y-24035000D01*
X164545000Y-24055000D01*
X164535000Y-24055000D01*
X164535000Y-24035000D01*
X164515000Y-24035000D01*
X164515000Y-24025000D01*
X164535000Y-24025000D01*
X164535000Y-22611509D01*
X164283516Y-22442587D01*
X164169483Y-22465270D01*
X163871339Y-22567620D01*
X163598891Y-22726168D01*
X163362609Y-22934822D01*
X163207922Y-23137855D01*
X163165126Y-23073806D01*
X162956194Y-22864874D01*
X162710517Y-22700717D01*
X162437534Y-22587644D01*
X162147737Y-22530000D01*
X161852263Y-22530000D01*
X161562466Y-22587644D01*
X161289483Y-22700717D01*
X161043806Y-22864874D01*
X160834874Y-23073806D01*
X160730000Y-23230760D01*
X160625126Y-23073806D01*
X160416194Y-22864874D01*
X160170517Y-22700717D01*
X159897534Y-22587644D01*
X159607737Y-22530000D01*
X159312263Y-22530000D01*
X159022466Y-22587644D01*
X158749483Y-22700717D01*
X158503806Y-22864874D01*
X158294874Y-23073806D01*
X158190000Y-23230760D01*
X158085126Y-23073806D01*
X157876194Y-22864874D01*
X157630517Y-22700717D01*
X157357534Y-22587644D01*
X157067737Y-22530000D01*
X156772263Y-22530000D01*
X156482466Y-22587644D01*
X156209483Y-22700717D01*
X155963806Y-22864874D01*
X155754874Y-23073806D01*
X155650000Y-23230760D01*
X155545126Y-23073806D01*
X155336194Y-22864874D01*
X155090517Y-22700717D01*
X154817534Y-22587644D01*
X154527737Y-22530000D01*
X154232263Y-22530000D01*
X153942466Y-22587644D01*
X153669483Y-22700717D01*
X153423806Y-22864874D01*
X153214874Y-23073806D01*
X153172078Y-23137855D01*
X153017391Y-22934822D01*
X152781109Y-22726168D01*
X152508661Y-22567620D01*
X152210517Y-22465270D01*
X152096484Y-22442587D01*
X151845000Y-22611509D01*
X151845000Y-24025000D01*
X151865000Y-24025000D01*
X151865000Y-24035000D01*
X151845000Y-24035000D01*
X151845000Y-24055000D01*
X151835000Y-24055000D01*
X151835000Y-24035000D01*
X151815000Y-24035000D01*
X151815000Y-24025000D01*
X151835000Y-24025000D01*
X151835000Y-22611509D01*
X151583516Y-22442587D01*
X151469483Y-22465270D01*
X151171339Y-22567620D01*
X150898891Y-22726168D01*
X150662609Y-22934822D01*
X150507922Y-23137855D01*
X150465126Y-23073806D01*
X150256194Y-22864874D01*
X150010517Y-22700717D01*
X149737534Y-22587644D01*
X149447737Y-22530000D01*
X149152263Y-22530000D01*
X148862466Y-22587644D01*
X148589483Y-22700717D01*
X148343806Y-22864874D01*
X148134874Y-23073806D01*
X148030000Y-23230760D01*
X147925126Y-23073806D01*
X147716194Y-22864874D01*
X147470517Y-22700717D01*
X147197534Y-22587644D01*
X146907737Y-22530000D01*
X146612263Y-22530000D01*
X146322466Y-22587644D01*
X146049483Y-22700717D01*
X145803806Y-22864874D01*
X145594874Y-23073806D01*
X145552078Y-23137855D01*
X145397391Y-22934822D01*
X145161109Y-22726168D01*
X144888661Y-22567620D01*
X144590517Y-22465270D01*
X144476484Y-22442587D01*
X144225000Y-22611509D01*
X144225000Y-24025000D01*
X144245000Y-24025000D01*
X144245000Y-24035000D01*
X144225000Y-24035000D01*
X144225000Y-24055000D01*
X144215000Y-24055000D01*
X144215000Y-24035000D01*
X144195000Y-24035000D01*
X144195000Y-24025000D01*
X144215000Y-24025000D01*
X144215000Y-22611509D01*
X143963516Y-22442587D01*
X143849483Y-22465270D01*
X143551339Y-22567620D01*
X143278891Y-22726168D01*
X143042609Y-22934822D01*
X142887922Y-23137855D01*
X142845126Y-23073806D01*
X142636194Y-22864874D01*
X142390517Y-22700717D01*
X142117534Y-22587644D01*
X141827737Y-22530000D01*
X141532263Y-22530000D01*
X141242466Y-22587644D01*
X140969483Y-22700717D01*
X140723806Y-22864874D01*
X140514874Y-23073806D01*
X140410000Y-23230760D01*
X140305126Y-23073806D01*
X140096194Y-22864874D01*
X139850517Y-22700717D01*
X139577534Y-22587644D01*
X139287737Y-22530000D01*
X138992263Y-22530000D01*
X138702466Y-22587644D01*
X138429483Y-22700717D01*
X138183806Y-22864874D01*
X137974874Y-23073806D01*
X137870000Y-23230760D01*
X137765126Y-23073806D01*
X137556194Y-22864874D01*
X137310517Y-22700717D01*
X137037534Y-22587644D01*
X136747737Y-22530000D01*
X136452263Y-22530000D01*
X136162466Y-22587644D01*
X135889483Y-22700717D01*
X135643806Y-22864874D01*
X135434874Y-23073806D01*
X135392078Y-23137855D01*
X135237391Y-22934822D01*
X135001109Y-22726168D01*
X134728661Y-22567620D01*
X134430517Y-22465270D01*
X134316484Y-22442587D01*
X134065000Y-22611509D01*
X134065000Y-24025000D01*
X134085000Y-24025000D01*
X134085000Y-24035000D01*
X134065000Y-24035000D01*
X134065000Y-24055000D01*
X134055000Y-24055000D01*
X134055000Y-24035000D01*
X134035000Y-24035000D01*
X134035000Y-24025000D01*
X134055000Y-24025000D01*
X134055000Y-22611509D01*
X133803516Y-22442587D01*
X133689483Y-22465270D01*
X133391339Y-22567620D01*
X133118891Y-22726168D01*
X132882609Y-22934822D01*
X132727922Y-23137855D01*
X132685126Y-23073806D01*
X132476194Y-22864874D01*
X132230517Y-22700717D01*
X131957534Y-22587644D01*
X131667737Y-22530000D01*
X131372263Y-22530000D01*
X131082466Y-22587644D01*
X130809483Y-22700717D01*
X130563806Y-22864874D01*
X130354874Y-23073806D01*
X130250000Y-23230760D01*
X130145126Y-23073806D01*
X129936194Y-22864874D01*
X129690517Y-22700717D01*
X129417534Y-22587644D01*
X129127737Y-22530000D01*
X128832263Y-22530000D01*
X128542466Y-22587644D01*
X128269483Y-22700717D01*
X128023806Y-22864874D01*
X127814874Y-23073806D01*
X127650717Y-23319483D01*
X127537644Y-23592466D01*
X127480000Y-23882263D01*
X127480000Y-24177737D01*
X127537644Y-24467534D01*
X127650717Y-24740517D01*
X127814874Y-24986194D01*
X127930078Y-25101398D01*
X127880052Y-25116573D01*
X127767132Y-25176930D01*
X127668157Y-25258157D01*
X127586930Y-25357132D01*
X127526573Y-25470052D01*
X127489405Y-25592578D01*
X127476855Y-25720000D01*
X127476855Y-27420000D01*
X127489405Y-27547422D01*
X127526573Y-27669948D01*
X127586930Y-27782868D01*
X127668157Y-27881843D01*
X127767132Y-27963070D01*
X127880052Y-28023427D01*
X128002578Y-28060595D01*
X128130000Y-28073145D01*
X129830000Y-28073145D01*
X129957422Y-28060595D01*
X130079948Y-28023427D01*
X130192868Y-27963070D01*
X130291843Y-27881843D01*
X130373070Y-27782868D01*
X130433427Y-27669948D01*
X130448602Y-27619922D01*
X130563806Y-27735126D01*
X130809483Y-27899283D01*
X131082466Y-28012356D01*
X131372263Y-28070000D01*
X131667737Y-28070000D01*
X131957534Y-28012356D01*
X132230517Y-27899283D01*
X132476194Y-27735126D01*
X132685126Y-27526194D01*
X132790000Y-27369240D01*
X132894874Y-27526194D01*
X133103806Y-27735126D01*
X133349483Y-27899283D01*
X133622466Y-28012356D01*
X133912263Y-28070000D01*
X134207737Y-28070000D01*
X134497534Y-28012356D01*
X134770517Y-27899283D01*
X135016194Y-27735126D01*
X135225126Y-27526194D01*
X135330000Y-27369240D01*
X135434874Y-27526194D01*
X135643806Y-27735126D01*
X135889483Y-27899283D01*
X136162466Y-28012356D01*
X136452263Y-28070000D01*
X136747737Y-28070000D01*
X137037534Y-28012356D01*
X137050650Y-28006923D01*
X137055532Y-28023015D01*
X137127495Y-28157651D01*
X137146582Y-28180908D01*
X137224343Y-28275660D01*
X137253915Y-28299929D01*
X138050072Y-29096087D01*
X138074341Y-29125659D01*
X138149888Y-29187658D01*
X138192349Y-29222506D01*
X138264313Y-29260971D01*
X138326986Y-29294470D01*
X138473074Y-29338786D01*
X138586935Y-29350000D01*
X138586936Y-29350000D01*
X138624999Y-29353749D01*
X138663062Y-29350000D01*
X143803986Y-29350000D01*
X144425001Y-29971016D01*
X144425000Y-33198347D01*
X144421251Y-33236410D01*
X144425000Y-33274473D01*
X144425000Y-33274474D01*
X144436214Y-33388335D01*
X144480530Y-33534423D01*
X144480531Y-33534424D01*
X144552494Y-33669060D01*
X144578121Y-33700285D01*
X144649341Y-33787069D01*
X144678919Y-33811343D01*
X160747701Y-49880125D01*
X160652638Y-49919502D01*
X160480664Y-50034411D01*
X160334411Y-50180664D01*
X160219502Y-50352638D01*
X160140350Y-50543726D01*
X160100000Y-50746584D01*
X160100000Y-50953416D01*
X160140350Y-51156274D01*
X160219502Y-51347362D01*
X160334411Y-51519336D01*
X160480664Y-51665589D01*
X160652638Y-51780498D01*
X160843726Y-51859650D01*
X161046584Y-51900000D01*
X161253416Y-51900000D01*
X161456274Y-51859650D01*
X161647362Y-51780498D01*
X161819336Y-51665589D01*
X161965589Y-51519336D01*
X162080498Y-51347362D01*
X162119875Y-51252299D01*
X169328662Y-58461087D01*
X169352931Y-58490659D01*
X169404846Y-58533264D01*
X169470939Y-58587506D01*
X169527949Y-58617978D01*
X169605576Y-58659470D01*
X169751664Y-58703786D01*
X169865525Y-58715000D01*
X169865526Y-58715000D01*
X169903589Y-58718749D01*
X169941652Y-58715000D01*
X170740075Y-58715000D01*
X170780664Y-58755589D01*
X170911185Y-58842800D01*
X170838986Y-58915000D01*
X158248062Y-58915000D01*
X158209999Y-58911251D01*
X158171936Y-58915000D01*
X158171935Y-58915000D01*
X158058074Y-58926214D01*
X157911986Y-58970530D01*
X157777350Y-59042494D01*
X157659341Y-59139341D01*
X157635072Y-59168913D01*
X152753986Y-64050000D01*
X152696584Y-64050000D01*
X152493726Y-64090350D01*
X152302638Y-64169502D01*
X152130664Y-64284411D01*
X151984411Y-64430664D01*
X151869502Y-64602638D01*
X151790350Y-64793726D01*
X151750000Y-64996584D01*
X151750000Y-65203416D01*
X151787511Y-65392000D01*
X151041062Y-65392000D01*
X151002999Y-65388251D01*
X150964936Y-65392000D01*
X150964935Y-65392000D01*
X150851074Y-65403214D01*
X150704986Y-65447530D01*
X150570350Y-65519494D01*
X150452341Y-65616341D01*
X150428076Y-65645908D01*
X149432985Y-66641000D01*
X149375584Y-66641000D01*
X149172726Y-66681350D01*
X148981638Y-66760502D01*
X148809664Y-66875411D01*
X148663411Y-67021664D01*
X148548502Y-67193638D01*
X148469350Y-67384726D01*
X148429000Y-67587584D01*
X148429000Y-67794416D01*
X148469350Y-67997274D01*
X148548502Y-68188362D01*
X148663411Y-68360336D01*
X148809664Y-68506589D01*
X148981638Y-68621498D01*
X149172726Y-68700650D01*
X149375584Y-68741000D01*
X149582416Y-68741000D01*
X149785274Y-68700650D01*
X149976362Y-68621498D01*
X150148336Y-68506589D01*
X150294589Y-68360336D01*
X150409498Y-68188362D01*
X150488650Y-67997274D01*
X150529000Y-67794416D01*
X150529000Y-67737015D01*
X151324016Y-66942000D01*
X165823937Y-66942000D01*
X165862000Y-66945749D01*
X165900063Y-66942000D01*
X165900065Y-66942000D01*
X166013926Y-66930786D01*
X166160014Y-66886470D01*
X166294650Y-66814506D01*
X166412659Y-66717659D01*
X166436932Y-66688082D01*
X166670014Y-66455000D01*
X166727416Y-66455000D01*
X166773066Y-66445920D01*
X165794986Y-67424000D01*
X163269925Y-67424000D01*
X163229336Y-67383411D01*
X163057362Y-67268502D01*
X162866274Y-67189350D01*
X162663416Y-67149000D01*
X162456584Y-67149000D01*
X162253726Y-67189350D01*
X162062638Y-67268502D01*
X161890664Y-67383411D01*
X161744411Y-67529664D01*
X161629502Y-67701638D01*
X161550350Y-67892726D01*
X161510000Y-68095584D01*
X161510000Y-68186000D01*
X157050000Y-68186000D01*
X157050000Y-68139584D01*
X157009650Y-67936726D01*
X156930498Y-67745638D01*
X156815589Y-67573664D01*
X156669336Y-67427411D01*
X156497362Y-67312502D01*
X156306274Y-67233350D01*
X156103416Y-67193000D01*
X155896584Y-67193000D01*
X155693726Y-67233350D01*
X155502638Y-67312502D01*
X155330664Y-67427411D01*
X155184411Y-67573664D01*
X155069502Y-67745638D01*
X154990350Y-67936726D01*
X154950000Y-68139584D01*
X154950000Y-68346416D01*
X154990350Y-68549274D01*
X155069502Y-68740362D01*
X155184411Y-68912336D01*
X155330664Y-69058589D01*
X155398627Y-69104000D01*
X142019213Y-69104000D01*
X139311797Y-66396584D01*
X140600000Y-66396584D01*
X140600000Y-66603416D01*
X140640350Y-66806274D01*
X140719502Y-66997362D01*
X140834411Y-67169336D01*
X140980664Y-67315589D01*
X141152638Y-67430498D01*
X141343726Y-67509650D01*
X141546584Y-67550000D01*
X141753416Y-67550000D01*
X141956274Y-67509650D01*
X142147362Y-67430498D01*
X142319336Y-67315589D01*
X142465589Y-67169336D01*
X142580498Y-66997362D01*
X142659650Y-66806274D01*
X142700000Y-66603416D01*
X142700000Y-66396584D01*
X142659650Y-66193726D01*
X142580498Y-66002638D01*
X142465589Y-65830664D01*
X142319336Y-65684411D01*
X142147362Y-65569502D01*
X141956274Y-65490350D01*
X141753416Y-65450000D01*
X141546584Y-65450000D01*
X141343726Y-65490350D01*
X141152638Y-65569502D01*
X140980664Y-65684411D01*
X140834411Y-65830664D01*
X140719502Y-66002638D01*
X140640350Y-66193726D01*
X140600000Y-66396584D01*
X139311797Y-66396584D01*
X133350001Y-60434789D01*
X133350001Y-56574118D01*
X133354839Y-56525000D01*
X133344432Y-56419340D01*
X133335531Y-56328967D01*
X133278350Y-56140466D01*
X133185493Y-55966743D01*
X133060529Y-55814473D01*
X133022369Y-55783156D01*
X129925000Y-52685788D01*
X129925000Y-52644499D01*
X129874081Y-52388512D01*
X129774200Y-52147377D01*
X129629195Y-51930362D01*
X129473833Y-51775000D01*
X129573833Y-51675000D01*
X131380794Y-51675000D01*
X131425000Y-51679354D01*
X131469206Y-51675000D01*
X131469207Y-51675000D01*
X131601431Y-51661977D01*
X131771081Y-51610514D01*
X131927432Y-51526943D01*
X132064475Y-51414475D01*
X132092657Y-51380135D01*
X136952433Y-46520359D01*
X137006274Y-46509650D01*
X137197362Y-46430498D01*
X137369336Y-46315589D01*
X137515589Y-46169336D01*
X137630498Y-45997362D01*
X137709650Y-45806274D01*
X137750000Y-45603416D01*
X137750000Y-45396584D01*
X137709650Y-45193726D01*
X137630498Y-45002638D01*
X137515589Y-44830664D01*
X137369336Y-44684411D01*
X137197362Y-44569502D01*
X137006274Y-44490350D01*
X136803416Y-44450000D01*
X136596584Y-44450000D01*
X136393726Y-44490350D01*
X136202638Y-44569502D01*
X136030664Y-44684411D01*
X135884411Y-44830664D01*
X135769502Y-45002638D01*
X135690350Y-45193726D01*
X135679641Y-45247567D01*
X131052208Y-49875000D01*
X129767079Y-49875000D01*
X129818070Y-49812868D01*
X129878427Y-49699948D01*
X129915595Y-49577422D01*
X129928145Y-49450000D01*
X129928145Y-48100000D01*
X129915595Y-47972578D01*
X129878427Y-47850052D01*
X129818070Y-47737132D01*
X129736843Y-47638157D01*
X129637868Y-47556930D01*
X129524948Y-47496573D01*
X129402422Y-47459405D01*
X129275000Y-47446855D01*
X127925000Y-47446855D01*
X127797578Y-47459405D01*
X127675052Y-47496573D01*
X127562132Y-47556930D01*
X127463157Y-47638157D01*
X127381930Y-47737132D01*
X127321573Y-47850052D01*
X127284405Y-47972578D01*
X127271855Y-48100000D01*
X126200000Y-48100000D01*
X126200000Y-42465610D01*
X126197052Y-42435681D01*
X126197095Y-42429574D01*
X126196141Y-42419847D01*
X126175740Y-42225750D01*
X126162977Y-42163573D01*
X126151095Y-42101284D01*
X126148271Y-42091929D01*
X126148270Y-42091924D01*
X126148266Y-42091916D01*
X126090558Y-41905489D01*
X126065965Y-41846983D01*
X126042206Y-41788178D01*
X126037622Y-41779557D01*
X126037618Y-41779548D01*
X126037613Y-41779541D01*
X125944793Y-41607871D01*
X125909305Y-41555258D01*
X125874574Y-41502183D01*
X125868396Y-41494609D01*
X125743992Y-41344231D01*
X125698961Y-41299513D01*
X125654586Y-41254198D01*
X125647055Y-41247968D01*
X125495813Y-41124618D01*
X125442958Y-41089501D01*
X125390620Y-41053664D01*
X125382030Y-41049020D01*
X125382022Y-41049015D01*
X125382014Y-41049012D01*
X125209699Y-40957390D01*
X125151049Y-40933216D01*
X125092729Y-40908220D01*
X125083392Y-40905330D01*
X124896556Y-40848921D01*
X124834291Y-40836592D01*
X124772263Y-40823407D01*
X124762553Y-40822387D01*
X124762542Y-40822385D01*
X124762532Y-40822385D01*
X124569128Y-40803421D01*
X124534390Y-40800000D01*
X121534234Y-40800000D01*
X121442384Y-40790994D01*
X121386956Y-40774259D01*
X121335841Y-40747081D01*
X121290973Y-40710488D01*
X121254071Y-40665881D01*
X121226536Y-40614954D01*
X121209416Y-40559648D01*
X121200000Y-40470067D01*
X121200000Y-39561458D01*
X123159613Y-39561458D01*
X123251894Y-39887683D01*
X123572393Y-40074395D01*
X123923159Y-40194992D01*
X124290713Y-40244841D01*
X124660929Y-40222026D01*
X125019581Y-40127424D01*
X125352885Y-39964670D01*
X125468106Y-39887683D01*
X125560387Y-39561458D01*
X128239613Y-39561458D01*
X128331894Y-39887683D01*
X128652393Y-40074395D01*
X129003159Y-40194992D01*
X129370713Y-40244841D01*
X129740929Y-40222026D01*
X130099581Y-40127424D01*
X130432885Y-39964670D01*
X130548106Y-39887683D01*
X130640387Y-39561458D01*
X129440000Y-38361071D01*
X128239613Y-39561458D01*
X125560387Y-39561458D01*
X124360000Y-38361071D01*
X123159613Y-39561458D01*
X121200000Y-39561458D01*
X121200000Y-38284713D01*
X122469159Y-38284713D01*
X122491974Y-38654929D01*
X122586576Y-39013581D01*
X122749330Y-39346885D01*
X122826317Y-39462106D01*
X123152542Y-39554387D01*
X124352929Y-38354000D01*
X123152542Y-37153613D01*
X122826317Y-37245894D01*
X122639605Y-37566393D01*
X122519008Y-37917159D01*
X122469159Y-38284713D01*
X121200000Y-38284713D01*
X121200000Y-34481458D01*
X123159613Y-34481458D01*
X123251894Y-34807683D01*
X123572393Y-34994395D01*
X123923159Y-35114992D01*
X124290713Y-35164841D01*
X124611529Y-35145070D01*
X124525000Y-35580083D01*
X124525000Y-36047917D01*
X124612540Y-36488012D01*
X124429287Y-36463159D01*
X124059071Y-36485974D01*
X123700419Y-36580576D01*
X123367115Y-36743330D01*
X123251894Y-36820317D01*
X123159613Y-37146542D01*
X124360000Y-38346929D01*
X124374143Y-38332787D01*
X124381214Y-38339858D01*
X124367071Y-38354000D01*
X125567458Y-39554387D01*
X125893683Y-39462106D01*
X126080395Y-39141607D01*
X126200992Y-38790841D01*
X126250841Y-38423287D01*
X126231070Y-38102471D01*
X126666083Y-38189000D01*
X127133917Y-38189000D01*
X127574012Y-38101460D01*
X127549159Y-38284713D01*
X127571974Y-38654929D01*
X127666576Y-39013581D01*
X127829330Y-39346885D01*
X127906317Y-39462106D01*
X128232542Y-39554387D01*
X129432929Y-38354000D01*
X129447071Y-38354000D01*
X130647458Y-39554387D01*
X130973683Y-39462106D01*
X131160395Y-39141607D01*
X131280992Y-38790841D01*
X131330841Y-38423287D01*
X131308026Y-38053071D01*
X131213424Y-37694419D01*
X131050670Y-37361115D01*
X130973683Y-37245894D01*
X130647458Y-37153613D01*
X129447071Y-38354000D01*
X129432929Y-38354000D01*
X129418787Y-38339858D01*
X129425858Y-38332787D01*
X129440000Y-38346929D01*
X130640387Y-37146542D01*
X130548106Y-36820317D01*
X130227607Y-36633605D01*
X129876841Y-36513008D01*
X129509287Y-36463159D01*
X129188471Y-36482930D01*
X129275000Y-36047917D01*
X129275000Y-35580083D01*
X129187460Y-35139988D01*
X129370713Y-35164841D01*
X129740929Y-35142026D01*
X130099581Y-35047424D01*
X130432885Y-34884670D01*
X130548106Y-34807683D01*
X130640387Y-34481458D01*
X129440000Y-33281071D01*
X129425858Y-33295214D01*
X129418787Y-33288143D01*
X129432929Y-33274000D01*
X129447071Y-33274000D01*
X130647458Y-34474387D01*
X130973683Y-34382106D01*
X131160395Y-34061607D01*
X131280992Y-33710841D01*
X131330841Y-33343287D01*
X131308026Y-32973071D01*
X131213424Y-32614419D01*
X131050670Y-32281115D01*
X130973683Y-32165894D01*
X130647458Y-32073613D01*
X129447071Y-33274000D01*
X129432929Y-33274000D01*
X128232542Y-32073613D01*
X127906317Y-32165894D01*
X127719605Y-32486393D01*
X127599008Y-32837159D01*
X127549159Y-33204713D01*
X127568930Y-33525529D01*
X127133917Y-33439000D01*
X126666083Y-33439000D01*
X126225988Y-33526540D01*
X126250841Y-33343287D01*
X126228026Y-32973071D01*
X126133424Y-32614419D01*
X125970670Y-32281115D01*
X125893683Y-32165894D01*
X125567458Y-32073613D01*
X124367071Y-33274000D01*
X124381214Y-33288143D01*
X124374143Y-33295214D01*
X124360000Y-33281071D01*
X123159613Y-34481458D01*
X121200000Y-34481458D01*
X121200000Y-33204713D01*
X122469159Y-33204713D01*
X122491974Y-33574929D01*
X122586576Y-33933581D01*
X122749330Y-34266885D01*
X122826317Y-34382106D01*
X123152542Y-34474387D01*
X124352929Y-33274000D01*
X123152542Y-32073613D01*
X122826317Y-32165894D01*
X122639605Y-32486393D01*
X122519008Y-32837159D01*
X122469159Y-33204713D01*
X121200000Y-33204713D01*
X121200000Y-32066542D01*
X123159613Y-32066542D01*
X124360000Y-33266929D01*
X125560387Y-32066542D01*
X128239613Y-32066542D01*
X129440000Y-33266929D01*
X130640387Y-32066542D01*
X130548106Y-31740317D01*
X130227607Y-31553605D01*
X129876841Y-31433008D01*
X129509287Y-31383159D01*
X129139071Y-31405974D01*
X128780419Y-31500576D01*
X128447115Y-31663330D01*
X128331894Y-31740317D01*
X128239613Y-32066542D01*
X125560387Y-32066542D01*
X125468106Y-31740317D01*
X125147607Y-31553605D01*
X124796841Y-31433008D01*
X124429287Y-31383159D01*
X124059071Y-31405974D01*
X123700419Y-31500576D01*
X123367115Y-31663330D01*
X123251894Y-31740317D01*
X123159613Y-32066542D01*
X121200000Y-32066542D01*
X121200000Y-25300010D01*
X121969463Y-25300010D01*
X121969463Y-25699990D01*
X122047495Y-26092286D01*
X122200561Y-26461820D01*
X122422779Y-26794392D01*
X122705608Y-27077221D01*
X123038180Y-27299439D01*
X123407714Y-27452505D01*
X123800010Y-27530537D01*
X124199990Y-27530537D01*
X124592286Y-27452505D01*
X124961820Y-27299439D01*
X125294392Y-27077221D01*
X125577221Y-26794392D01*
X125799439Y-26461820D01*
X125952505Y-26092286D01*
X126030537Y-25699990D01*
X126030537Y-25300010D01*
X125952505Y-24907714D01*
X125799439Y-24538180D01*
X125577221Y-24205608D01*
X125294392Y-23922779D01*
X124961820Y-23700561D01*
X124592286Y-23547495D01*
X124199990Y-23469463D01*
X123800010Y-23469463D01*
X123407714Y-23547495D01*
X123038180Y-23700561D01*
X122705608Y-23922779D01*
X122422779Y-24205608D01*
X122200561Y-24538180D01*
X122047495Y-24907714D01*
X121969463Y-25300010D01*
X121200000Y-25300010D01*
X121200000Y-24534235D01*
X121247096Y-24053915D01*
X121376648Y-23624818D01*
X121587077Y-23229057D01*
X121870370Y-22881705D01*
X122215734Y-22595995D01*
X122610011Y-22382811D01*
X123038200Y-22250264D01*
X123516432Y-22200000D01*
X202465765Y-22200000D01*
X202946085Y-22247096D01*
G36*
X172450002Y-63203983D02*
G01*
X167467986Y-68186000D01*
X167225014Y-68186000D01*
X170574087Y-64836928D01*
X170603659Y-64812659D01*
X170681568Y-64717726D01*
X170700506Y-64694651D01*
X170772469Y-64560015D01*
X170772470Y-64560014D01*
X170816786Y-64413926D01*
X170828000Y-64300065D01*
X170828000Y-64300063D01*
X170831749Y-64262000D01*
X170828000Y-64223937D01*
X170828000Y-62579926D01*
X170868589Y-62539337D01*
X170983498Y-62367363D01*
X171062650Y-62176275D01*
X171103000Y-61973417D01*
X171103000Y-61766585D01*
X171062650Y-61563727D01*
X170983498Y-61372639D01*
X170868589Y-61200665D01*
X170722336Y-61054412D01*
X170550362Y-60939503D01*
X170359274Y-60860351D01*
X170156416Y-60820001D01*
X169949584Y-60820001D01*
X169746726Y-60860351D01*
X169555638Y-60939503D01*
X169383664Y-61054412D01*
X169237411Y-61200665D01*
X169122502Y-61372639D01*
X169043350Y-61563727D01*
X169003000Y-61766585D01*
X169003000Y-61973417D01*
X169043350Y-62176275D01*
X169122502Y-62367363D01*
X169237411Y-62539337D01*
X169278000Y-62579926D01*
X169278001Y-63940984D01*
X167664920Y-65554066D01*
X167674000Y-65508416D01*
X167674000Y-65301584D01*
X167633650Y-65098726D01*
X167554498Y-64907638D01*
X167439589Y-64735664D01*
X167293336Y-64589411D01*
X167121362Y-64474502D01*
X166930274Y-64395350D01*
X166727416Y-64355000D01*
X166520584Y-64355000D01*
X166317726Y-64395350D01*
X166126638Y-64474502D01*
X165954664Y-64589411D01*
X165808411Y-64735664D01*
X165693502Y-64907638D01*
X165614350Y-65098726D01*
X165574000Y-65301584D01*
X165574000Y-65358986D01*
X165540986Y-65392000D01*
X158464082Y-65392000D01*
X158489650Y-65330274D01*
X158530000Y-65127416D01*
X158530000Y-64920584D01*
X158489650Y-64717726D01*
X158410498Y-64526638D01*
X158295589Y-64354664D01*
X158149336Y-64208411D01*
X157977362Y-64093502D01*
X157786274Y-64014350D01*
X157583416Y-63974000D01*
X157376584Y-63974000D01*
X157173726Y-64014350D01*
X156982638Y-64093502D01*
X156810664Y-64208411D01*
X156664411Y-64354664D01*
X156549502Y-64526638D01*
X156470350Y-64717726D01*
X156430000Y-64920584D01*
X156430000Y-65127416D01*
X156470350Y-65330274D01*
X156495918Y-65392000D01*
X153812489Y-65392000D01*
X153850000Y-65203416D01*
X153850000Y-65146014D01*
X158531015Y-60465000D01*
X171121937Y-60465000D01*
X171160000Y-60468749D01*
X171198063Y-60465000D01*
X171198065Y-60465000D01*
X171311926Y-60453786D01*
X171458014Y-60409470D01*
X171592650Y-60337506D01*
X171710659Y-60240659D01*
X171734932Y-60211082D01*
X172450002Y-59496013D01*
X172450002Y-63203983D01*
G37*
X172450002Y-63203983D02*
X167467986Y-68186000D01*
X167225014Y-68186000D01*
X170574087Y-64836928D01*
X170603659Y-64812659D01*
X170681568Y-64717726D01*
X170700506Y-64694651D01*
X170772469Y-64560015D01*
X170772470Y-64560014D01*
X170816786Y-64413926D01*
X170828000Y-64300065D01*
X170828000Y-64300063D01*
X170831749Y-64262000D01*
X170828000Y-64223937D01*
X170828000Y-62579926D01*
X170868589Y-62539337D01*
X170983498Y-62367363D01*
X171062650Y-62176275D01*
X171103000Y-61973417D01*
X171103000Y-61766585D01*
X171062650Y-61563727D01*
X170983498Y-61372639D01*
X170868589Y-61200665D01*
X170722336Y-61054412D01*
X170550362Y-60939503D01*
X170359274Y-60860351D01*
X170156416Y-60820001D01*
X169949584Y-60820001D01*
X169746726Y-60860351D01*
X169555638Y-60939503D01*
X169383664Y-61054412D01*
X169237411Y-61200665D01*
X169122502Y-61372639D01*
X169043350Y-61563727D01*
X169003000Y-61766585D01*
X169003000Y-61973417D01*
X169043350Y-62176275D01*
X169122502Y-62367363D01*
X169237411Y-62539337D01*
X169278000Y-62579926D01*
X169278001Y-63940984D01*
X167664920Y-65554066D01*
X167674000Y-65508416D01*
X167674000Y-65301584D01*
X167633650Y-65098726D01*
X167554498Y-64907638D01*
X167439589Y-64735664D01*
X167293336Y-64589411D01*
X167121362Y-64474502D01*
X166930274Y-64395350D01*
X166727416Y-64355000D01*
X166520584Y-64355000D01*
X166317726Y-64395350D01*
X166126638Y-64474502D01*
X165954664Y-64589411D01*
X165808411Y-64735664D01*
X165693502Y-64907638D01*
X165614350Y-65098726D01*
X165574000Y-65301584D01*
X165574000Y-65358986D01*
X165540986Y-65392000D01*
X158464082Y-65392000D01*
X158489650Y-65330274D01*
X158530000Y-65127416D01*
X158530000Y-64920584D01*
X158489650Y-64717726D01*
X158410498Y-64526638D01*
X158295589Y-64354664D01*
X158149336Y-64208411D01*
X157977362Y-64093502D01*
X157786274Y-64014350D01*
X157583416Y-63974000D01*
X157376584Y-63974000D01*
X157173726Y-64014350D01*
X156982638Y-64093502D01*
X156810664Y-64208411D01*
X156664411Y-64354664D01*
X156549502Y-64526638D01*
X156470350Y-64717726D01*
X156430000Y-64920584D01*
X156430000Y-65127416D01*
X156470350Y-65330274D01*
X156495918Y-65392000D01*
X153812489Y-65392000D01*
X153850000Y-65203416D01*
X153850000Y-65146014D01*
X158531015Y-60465000D01*
X171121937Y-60465000D01*
X171160000Y-60468749D01*
X171198063Y-60465000D01*
X171198065Y-60465000D01*
X171311926Y-60453786D01*
X171458014Y-60409470D01*
X171592650Y-60337506D01*
X171710659Y-60240659D01*
X171734932Y-60211082D01*
X172450002Y-59496013D01*
X172450002Y-63203983D01*
G36*
X159465000Y-26565000D02*
G01*
X159485000Y-26565000D01*
X159485000Y-26575000D01*
X159465000Y-26575000D01*
X159465000Y-27988491D01*
X159716484Y-28157413D01*
X159830517Y-28134730D01*
X160128661Y-28032380D01*
X160401109Y-27873832D01*
X160637391Y-27665178D01*
X160792078Y-27462145D01*
X160834874Y-27526194D01*
X161043806Y-27735126D01*
X161289483Y-27899283D01*
X161562466Y-28012356D01*
X161852263Y-28070000D01*
X162147737Y-28070000D01*
X162437534Y-28012356D01*
X162710517Y-27899283D01*
X162956194Y-27735126D01*
X163165126Y-27526194D01*
X163270000Y-27369240D01*
X163374874Y-27526194D01*
X163583806Y-27735126D01*
X163829483Y-27899283D01*
X164102466Y-28012356D01*
X164392263Y-28070000D01*
X164687737Y-28070000D01*
X164901471Y-28027486D01*
X166859072Y-29985087D01*
X166883341Y-30014659D01*
X166925798Y-30049502D01*
X167001349Y-30111506D01*
X167073313Y-30149971D01*
X167135986Y-30183470D01*
X167282074Y-30227786D01*
X167395935Y-30239000D01*
X167395936Y-30239000D01*
X167433999Y-30242749D01*
X167472062Y-30239000D01*
X169858986Y-30239000D01*
X171437001Y-31817016D01*
X171437001Y-40452076D01*
X171369336Y-40384411D01*
X171197362Y-40269502D01*
X171006274Y-40190350D01*
X170803416Y-40150000D01*
X170596584Y-40150000D01*
X170393726Y-40190350D01*
X170202638Y-40269502D01*
X170030664Y-40384411D01*
X169884411Y-40530664D01*
X169769502Y-40702638D01*
X169719461Y-40823446D01*
X168794809Y-39898795D01*
X168919336Y-39815589D01*
X169065589Y-39669336D01*
X169180498Y-39497362D01*
X169259650Y-39306274D01*
X169300000Y-39103416D01*
X169300000Y-38896584D01*
X169259650Y-38693726D01*
X169180498Y-38502638D01*
X169095213Y-38375000D01*
X169180498Y-38247362D01*
X169259650Y-38056274D01*
X169300000Y-37853416D01*
X169300000Y-37646584D01*
X169259650Y-37443726D01*
X169180498Y-37252638D01*
X169095213Y-37125000D01*
X169180498Y-36997362D01*
X169225000Y-36889926D01*
X169269502Y-36997362D01*
X169384411Y-37169336D01*
X169530664Y-37315589D01*
X169702638Y-37430498D01*
X169893726Y-37509650D01*
X170096584Y-37550000D01*
X170303416Y-37550000D01*
X170506274Y-37509650D01*
X170697362Y-37430498D01*
X170869336Y-37315589D01*
X171015589Y-37169336D01*
X171130498Y-36997362D01*
X171209650Y-36806274D01*
X171250000Y-36603416D01*
X171250000Y-36396584D01*
X171209650Y-36193726D01*
X171130498Y-36002638D01*
X171015589Y-35830664D01*
X170869336Y-35684411D01*
X170697362Y-35569502D01*
X170506274Y-35490350D01*
X170303416Y-35450000D01*
X170096584Y-35450000D01*
X169893726Y-35490350D01*
X169702638Y-35569502D01*
X169530664Y-35684411D01*
X169384411Y-35830664D01*
X169269502Y-36002638D01*
X169225000Y-36110074D01*
X169180498Y-36002638D01*
X169065589Y-35830664D01*
X168919336Y-35684411D01*
X168747362Y-35569502D01*
X168556274Y-35490350D01*
X168353416Y-35450000D01*
X168146584Y-35450000D01*
X167943726Y-35490350D01*
X167752638Y-35569502D01*
X167580664Y-35684411D01*
X167434411Y-35830664D01*
X167319502Y-36002638D01*
X167240350Y-36193726D01*
X167200000Y-36396584D01*
X167200000Y-36603416D01*
X167240350Y-36806274D01*
X167319502Y-36997362D01*
X167404787Y-37125000D01*
X167319502Y-37252638D01*
X167240350Y-37443726D01*
X167200000Y-37646584D01*
X167200000Y-37853416D01*
X167240350Y-38056274D01*
X167319502Y-38247362D01*
X167404787Y-38375000D01*
X167351205Y-38455191D01*
X163975000Y-35078986D01*
X163975000Y-31709925D01*
X164015589Y-31669336D01*
X164130498Y-31497362D01*
X164209650Y-31306274D01*
X164250000Y-31103416D01*
X164250000Y-30896584D01*
X164209650Y-30693726D01*
X164130498Y-30502638D01*
X164015589Y-30330664D01*
X163869336Y-30184411D01*
X163697362Y-30069502D01*
X163506274Y-29990350D01*
X163303416Y-29950000D01*
X163096584Y-29950000D01*
X162893726Y-29990350D01*
X162702638Y-30069502D01*
X162530664Y-30184411D01*
X162384411Y-30330664D01*
X162269502Y-30502638D01*
X162190350Y-30693726D01*
X162150000Y-30896584D01*
X162150000Y-31103416D01*
X162190350Y-31306274D01*
X162269502Y-31497362D01*
X162384411Y-31669336D01*
X162425001Y-31709926D01*
X162425000Y-35361937D01*
X162421251Y-35400000D01*
X162425000Y-35438063D01*
X162425000Y-35438064D01*
X162436214Y-35551925D01*
X162480530Y-35698013D01*
X162480531Y-35698014D01*
X162552494Y-35832650D01*
X162578121Y-35863875D01*
X162649341Y-35950659D01*
X162678918Y-35974933D01*
X169950000Y-43246015D01*
X169950000Y-43303416D01*
X169990350Y-43506274D01*
X170069502Y-43697362D01*
X170184411Y-43869336D01*
X170330664Y-44015589D01*
X170502638Y-44130498D01*
X170693726Y-44209650D01*
X170896584Y-44250000D01*
X171103416Y-44250000D01*
X171306274Y-44209650D01*
X171437000Y-44155501D01*
X171437000Y-54700004D01*
X171396584Y-54700004D01*
X171193726Y-54740354D01*
X171002638Y-54819506D01*
X170830664Y-54934415D01*
X170790075Y-54975004D01*
X169755334Y-54975004D01*
X146925000Y-32144671D01*
X146925000Y-30876584D01*
X157090000Y-30876584D01*
X157090000Y-31083416D01*
X157130350Y-31286274D01*
X157209502Y-31477362D01*
X157324411Y-31649336D01*
X157325000Y-31649925D01*
X157325001Y-37961927D01*
X157321251Y-38000000D01*
X157336215Y-38151926D01*
X157380531Y-38298014D01*
X157452494Y-38432650D01*
X157494956Y-38484389D01*
X157549342Y-38550659D01*
X157578914Y-38574928D01*
X169150000Y-50146015D01*
X169150000Y-50203416D01*
X169190350Y-50406274D01*
X169269502Y-50597362D01*
X169384411Y-50769336D01*
X169530664Y-50915589D01*
X169702638Y-51030498D01*
X169893726Y-51109650D01*
X170096584Y-51150000D01*
X170303416Y-51150000D01*
X170506274Y-51109650D01*
X170697362Y-51030498D01*
X170869336Y-50915589D01*
X171015589Y-50769336D01*
X171130498Y-50597362D01*
X171209650Y-50406274D01*
X171250000Y-50203416D01*
X171250000Y-49996584D01*
X171209650Y-49793726D01*
X171130498Y-49602638D01*
X171028509Y-49450000D01*
X171130498Y-49297362D01*
X171209650Y-49106274D01*
X171250000Y-48903416D01*
X171250000Y-48696584D01*
X171209650Y-48493726D01*
X171130498Y-48302638D01*
X171015589Y-48130664D01*
X170934925Y-48050000D01*
X171015589Y-47969336D01*
X171130498Y-47797362D01*
X171209650Y-47606274D01*
X171250000Y-47403416D01*
X171250000Y-47196584D01*
X171209650Y-46993726D01*
X171130498Y-46802638D01*
X171015589Y-46630664D01*
X170869336Y-46484411D01*
X170697362Y-46369502D01*
X170506274Y-46290350D01*
X170303416Y-46250000D01*
X170246015Y-46250000D01*
X161475000Y-37478986D01*
X161475000Y-31689925D01*
X161505589Y-31659336D01*
X161620498Y-31487362D01*
X161699650Y-31296274D01*
X161740000Y-31093416D01*
X161740000Y-30886584D01*
X161699650Y-30683726D01*
X161620498Y-30492638D01*
X161505589Y-30320664D01*
X161359336Y-30174411D01*
X161187362Y-30059502D01*
X160996274Y-29980350D01*
X160793416Y-29940000D01*
X160586584Y-29940000D01*
X160383726Y-29980350D01*
X160192638Y-30059502D01*
X160087483Y-30129764D01*
X159967362Y-30049502D01*
X159776274Y-29970350D01*
X159573416Y-29930000D01*
X159366584Y-29930000D01*
X159163726Y-29970350D01*
X158972638Y-30049502D01*
X158805000Y-30161514D01*
X158637362Y-30049502D01*
X158446274Y-29970350D01*
X158243416Y-29930000D01*
X158036584Y-29930000D01*
X157833726Y-29970350D01*
X157642638Y-30049502D01*
X157470664Y-30164411D01*
X157324411Y-30310664D01*
X157209502Y-30482638D01*
X157130350Y-30673726D01*
X157090000Y-30876584D01*
X146925000Y-30876584D01*
X146925000Y-29038062D01*
X146928749Y-28999999D01*
X146920376Y-28914985D01*
X146913786Y-28848074D01*
X146869470Y-28701986D01*
X146801595Y-28575000D01*
X146797506Y-28567349D01*
X146745311Y-28503750D01*
X146700659Y-28449341D01*
X146671088Y-28425073D01*
X146213048Y-27967034D01*
X146322466Y-28012356D01*
X146612263Y-28070000D01*
X146907737Y-28070000D01*
X147197534Y-28012356D01*
X147470517Y-27899283D01*
X147716194Y-27735126D01*
X147925126Y-27526194D01*
X148030000Y-27369240D01*
X148134874Y-27526194D01*
X148343806Y-27735126D01*
X148589483Y-27899283D01*
X148862466Y-28012356D01*
X149152263Y-28070000D01*
X149447737Y-28070000D01*
X149737534Y-28012356D01*
X150010517Y-27899283D01*
X150256194Y-27735126D01*
X150465126Y-27526194D01*
X150570000Y-27369240D01*
X150674874Y-27526194D01*
X150883806Y-27735126D01*
X151129483Y-27899283D01*
X151402466Y-28012356D01*
X151692263Y-28070000D01*
X151987737Y-28070000D01*
X152277534Y-28012356D01*
X152550517Y-27899283D01*
X152796194Y-27735126D01*
X153005126Y-27526194D01*
X153110000Y-27369240D01*
X153214874Y-27526194D01*
X153423806Y-27735126D01*
X153669483Y-27899283D01*
X153942466Y-28012356D01*
X154232263Y-28070000D01*
X154527737Y-28070000D01*
X154817534Y-28012356D01*
X155090517Y-27899283D01*
X155336194Y-27735126D01*
X155545126Y-27526194D01*
X155650000Y-27369240D01*
X155754874Y-27526194D01*
X155963806Y-27735126D01*
X156209483Y-27899283D01*
X156482466Y-28012356D01*
X156772263Y-28070000D01*
X157067737Y-28070000D01*
X157357534Y-28012356D01*
X157630517Y-27899283D01*
X157876194Y-27735126D01*
X158085126Y-27526194D01*
X158127922Y-27462145D01*
X158282609Y-27665178D01*
X158518891Y-27873832D01*
X158791339Y-28032380D01*
X159089483Y-28134730D01*
X159203516Y-28157413D01*
X159455000Y-27988491D01*
X159455000Y-26575000D01*
X159435000Y-26575000D01*
X159435000Y-26565000D01*
X159455000Y-26565000D01*
X159455000Y-26545000D01*
X159465000Y-26545000D01*
X159465000Y-26565000D01*
G37*
X159465000Y-26565000D02*
X159485000Y-26565000D01*
X159485000Y-26575000D01*
X159465000Y-26575000D01*
X159465000Y-27988491D01*
X159716484Y-28157413D01*
X159830517Y-28134730D01*
X160128661Y-28032380D01*
X160401109Y-27873832D01*
X160637391Y-27665178D01*
X160792078Y-27462145D01*
X160834874Y-27526194D01*
X161043806Y-27735126D01*
X161289483Y-27899283D01*
X161562466Y-28012356D01*
X161852263Y-28070000D01*
X162147737Y-28070000D01*
X162437534Y-28012356D01*
X162710517Y-27899283D01*
X162956194Y-27735126D01*
X163165126Y-27526194D01*
X163270000Y-27369240D01*
X163374874Y-27526194D01*
X163583806Y-27735126D01*
X163829483Y-27899283D01*
X164102466Y-28012356D01*
X164392263Y-28070000D01*
X164687737Y-28070000D01*
X164901471Y-28027486D01*
X166859072Y-29985087D01*
X166883341Y-30014659D01*
X166925798Y-30049502D01*
X167001349Y-30111506D01*
X167073313Y-30149971D01*
X167135986Y-30183470D01*
X167282074Y-30227786D01*
X167395935Y-30239000D01*
X167395936Y-30239000D01*
X167433999Y-30242749D01*
X167472062Y-30239000D01*
X169858986Y-30239000D01*
X171437001Y-31817016D01*
X171437001Y-40452076D01*
X171369336Y-40384411D01*
X171197362Y-40269502D01*
X171006274Y-40190350D01*
X170803416Y-40150000D01*
X170596584Y-40150000D01*
X170393726Y-40190350D01*
X170202638Y-40269502D01*
X170030664Y-40384411D01*
X169884411Y-40530664D01*
X169769502Y-40702638D01*
X169719461Y-40823446D01*
X168794809Y-39898795D01*
X168919336Y-39815589D01*
X169065589Y-39669336D01*
X169180498Y-39497362D01*
X169259650Y-39306274D01*
X169300000Y-39103416D01*
X169300000Y-38896584D01*
X169259650Y-38693726D01*
X169180498Y-38502638D01*
X169095213Y-38375000D01*
X169180498Y-38247362D01*
X169259650Y-38056274D01*
X169300000Y-37853416D01*
X169300000Y-37646584D01*
X169259650Y-37443726D01*
X169180498Y-37252638D01*
X169095213Y-37125000D01*
X169180498Y-36997362D01*
X169225000Y-36889926D01*
X169269502Y-36997362D01*
X169384411Y-37169336D01*
X169530664Y-37315589D01*
X169702638Y-37430498D01*
X169893726Y-37509650D01*
X170096584Y-37550000D01*
X170303416Y-37550000D01*
X170506274Y-37509650D01*
X170697362Y-37430498D01*
X170869336Y-37315589D01*
X171015589Y-37169336D01*
X171130498Y-36997362D01*
X171209650Y-36806274D01*
X171250000Y-36603416D01*
X171250000Y-36396584D01*
X171209650Y-36193726D01*
X171130498Y-36002638D01*
X171015589Y-35830664D01*
X170869336Y-35684411D01*
X170697362Y-35569502D01*
X170506274Y-35490350D01*
X170303416Y-35450000D01*
X170096584Y-35450000D01*
X169893726Y-35490350D01*
X169702638Y-35569502D01*
X169530664Y-35684411D01*
X169384411Y-35830664D01*
X169269502Y-36002638D01*
X169225000Y-36110074D01*
X169180498Y-36002638D01*
X169065589Y-35830664D01*
X168919336Y-35684411D01*
X168747362Y-35569502D01*
X168556274Y-35490350D01*
X168353416Y-35450000D01*
X168146584Y-35450000D01*
X167943726Y-35490350D01*
X167752638Y-35569502D01*
X167580664Y-35684411D01*
X167434411Y-35830664D01*
X167319502Y-36002638D01*
X167240350Y-36193726D01*
X167200000Y-36396584D01*
X167200000Y-36603416D01*
X167240350Y-36806274D01*
X167319502Y-36997362D01*
X167404787Y-37125000D01*
X167319502Y-37252638D01*
X167240350Y-37443726D01*
X167200000Y-37646584D01*
X167200000Y-37853416D01*
X167240350Y-38056274D01*
X167319502Y-38247362D01*
X167404787Y-38375000D01*
X167351205Y-38455191D01*
X163975000Y-35078986D01*
X163975000Y-31709925D01*
X164015589Y-31669336D01*
X164130498Y-31497362D01*
X164209650Y-31306274D01*
X164250000Y-31103416D01*
X164250000Y-30896584D01*
X164209650Y-30693726D01*
X164130498Y-30502638D01*
X164015589Y-30330664D01*
X163869336Y-30184411D01*
X163697362Y-30069502D01*
X163506274Y-29990350D01*
X163303416Y-29950000D01*
X163096584Y-29950000D01*
X162893726Y-29990350D01*
X162702638Y-30069502D01*
X162530664Y-30184411D01*
X162384411Y-30330664D01*
X162269502Y-30502638D01*
X162190350Y-30693726D01*
X162150000Y-30896584D01*
X162150000Y-31103416D01*
X162190350Y-31306274D01*
X162269502Y-31497362D01*
X162384411Y-31669336D01*
X162425001Y-31709926D01*
X162425000Y-35361937D01*
X162421251Y-35400000D01*
X162425000Y-35438063D01*
X162425000Y-35438064D01*
X162436214Y-35551925D01*
X162480530Y-35698013D01*
X162480531Y-35698014D01*
X162552494Y-35832650D01*
X162578121Y-35863875D01*
X162649341Y-35950659D01*
X162678918Y-35974933D01*
X169950000Y-43246015D01*
X169950000Y-43303416D01*
X169990350Y-43506274D01*
X170069502Y-43697362D01*
X170184411Y-43869336D01*
X170330664Y-44015589D01*
X170502638Y-44130498D01*
X170693726Y-44209650D01*
X170896584Y-44250000D01*
X171103416Y-44250000D01*
X171306274Y-44209650D01*
X171437000Y-44155501D01*
X171437000Y-54700004D01*
X171396584Y-54700004D01*
X171193726Y-54740354D01*
X171002638Y-54819506D01*
X170830664Y-54934415D01*
X170790075Y-54975004D01*
X169755334Y-54975004D01*
X146925000Y-32144671D01*
X146925000Y-30876584D01*
X157090000Y-30876584D01*
X157090000Y-31083416D01*
X157130350Y-31286274D01*
X157209502Y-31477362D01*
X157324411Y-31649336D01*
X157325000Y-31649925D01*
X157325001Y-37961927D01*
X157321251Y-38000000D01*
X157336215Y-38151926D01*
X157380531Y-38298014D01*
X157452494Y-38432650D01*
X157494956Y-38484389D01*
X157549342Y-38550659D01*
X157578914Y-38574928D01*
X169150000Y-50146015D01*
X169150000Y-50203416D01*
X169190350Y-50406274D01*
X169269502Y-50597362D01*
X169384411Y-50769336D01*
X169530664Y-50915589D01*
X169702638Y-51030498D01*
X169893726Y-51109650D01*
X170096584Y-51150000D01*
X170303416Y-51150000D01*
X170506274Y-51109650D01*
X170697362Y-51030498D01*
X170869336Y-50915589D01*
X171015589Y-50769336D01*
X171130498Y-50597362D01*
X171209650Y-50406274D01*
X171250000Y-50203416D01*
X171250000Y-49996584D01*
X171209650Y-49793726D01*
X171130498Y-49602638D01*
X171028509Y-49450000D01*
X171130498Y-49297362D01*
X171209650Y-49106274D01*
X171250000Y-48903416D01*
X171250000Y-48696584D01*
X171209650Y-48493726D01*
X171130498Y-48302638D01*
X171015589Y-48130664D01*
X170934925Y-48050000D01*
X171015589Y-47969336D01*
X171130498Y-47797362D01*
X171209650Y-47606274D01*
X171250000Y-47403416D01*
X171250000Y-47196584D01*
X171209650Y-46993726D01*
X171130498Y-46802638D01*
X171015589Y-46630664D01*
X170869336Y-46484411D01*
X170697362Y-46369502D01*
X170506274Y-46290350D01*
X170303416Y-46250000D01*
X170246015Y-46250000D01*
X161475000Y-37478986D01*
X161475000Y-31689925D01*
X161505589Y-31659336D01*
X161620498Y-31487362D01*
X161699650Y-31296274D01*
X161740000Y-31093416D01*
X161740000Y-30886584D01*
X161699650Y-30683726D01*
X161620498Y-30492638D01*
X161505589Y-30320664D01*
X161359336Y-30174411D01*
X161187362Y-30059502D01*
X160996274Y-29980350D01*
X160793416Y-29940000D01*
X160586584Y-29940000D01*
X160383726Y-29980350D01*
X160192638Y-30059502D01*
X160087483Y-30129764D01*
X159967362Y-30049502D01*
X159776274Y-29970350D01*
X159573416Y-29930000D01*
X159366584Y-29930000D01*
X159163726Y-29970350D01*
X158972638Y-30049502D01*
X158805000Y-30161514D01*
X158637362Y-30049502D01*
X158446274Y-29970350D01*
X158243416Y-29930000D01*
X158036584Y-29930000D01*
X157833726Y-29970350D01*
X157642638Y-30049502D01*
X157470664Y-30164411D01*
X157324411Y-30310664D01*
X157209502Y-30482638D01*
X157130350Y-30673726D01*
X157090000Y-30876584D01*
X146925000Y-30876584D01*
X146925000Y-29038062D01*
X146928749Y-28999999D01*
X146920376Y-28914985D01*
X146913786Y-28848074D01*
X146869470Y-28701986D01*
X146801595Y-28575000D01*
X146797506Y-28567349D01*
X146745311Y-28503750D01*
X146700659Y-28449341D01*
X146671088Y-28425073D01*
X146213048Y-27967034D01*
X146322466Y-28012356D01*
X146612263Y-28070000D01*
X146907737Y-28070000D01*
X147197534Y-28012356D01*
X147470517Y-27899283D01*
X147716194Y-27735126D01*
X147925126Y-27526194D01*
X148030000Y-27369240D01*
X148134874Y-27526194D01*
X148343806Y-27735126D01*
X148589483Y-27899283D01*
X148862466Y-28012356D01*
X149152263Y-28070000D01*
X149447737Y-28070000D01*
X149737534Y-28012356D01*
X150010517Y-27899283D01*
X150256194Y-27735126D01*
X150465126Y-27526194D01*
X150570000Y-27369240D01*
X150674874Y-27526194D01*
X150883806Y-27735126D01*
X151129483Y-27899283D01*
X151402466Y-28012356D01*
X151692263Y-28070000D01*
X151987737Y-28070000D01*
X152277534Y-28012356D01*
X152550517Y-27899283D01*
X152796194Y-27735126D01*
X153005126Y-27526194D01*
X153110000Y-27369240D01*
X153214874Y-27526194D01*
X153423806Y-27735126D01*
X153669483Y-27899283D01*
X153942466Y-28012356D01*
X154232263Y-28070000D01*
X154527737Y-28070000D01*
X154817534Y-28012356D01*
X155090517Y-27899283D01*
X155336194Y-27735126D01*
X155545126Y-27526194D01*
X155650000Y-27369240D01*
X155754874Y-27526194D01*
X155963806Y-27735126D01*
X156209483Y-27899283D01*
X156482466Y-28012356D01*
X156772263Y-28070000D01*
X157067737Y-28070000D01*
X157357534Y-28012356D01*
X157630517Y-27899283D01*
X157876194Y-27735126D01*
X158085126Y-27526194D01*
X158127922Y-27462145D01*
X158282609Y-27665178D01*
X158518891Y-27873832D01*
X158791339Y-28032380D01*
X159089483Y-28134730D01*
X159203516Y-28157413D01*
X159455000Y-27988491D01*
X159455000Y-26575000D01*
X159435000Y-26575000D01*
X159435000Y-26565000D01*
X159455000Y-26565000D01*
X159455000Y-26545000D01*
X159465000Y-26545000D01*
X159465000Y-26565000D01*
G36*
X192500000Y-45977737D02*
G01*
X192557644Y-46267534D01*
X192670717Y-46540517D01*
X192834874Y-46786194D01*
X193043806Y-46995126D01*
X193200760Y-47100000D01*
X193043806Y-47204874D01*
X192834874Y-47413806D01*
X192670717Y-47659483D01*
X192557644Y-47932466D01*
X192500000Y-48222263D01*
X192500000Y-48517737D01*
X192557644Y-48807534D01*
X192670717Y-49080517D01*
X192834874Y-49326194D01*
X193043806Y-49535126D01*
X193200760Y-49640000D01*
X193043806Y-49744874D01*
X192834874Y-49953806D01*
X192670717Y-50199483D01*
X192557644Y-50472466D01*
X192500000Y-50762263D01*
X192500000Y-51057737D01*
X192542514Y-51271471D01*
X190613986Y-53200000D01*
X177546031Y-53200000D01*
X177380016Y-53033985D01*
X177380016Y-52976584D01*
X177339666Y-52773726D01*
X177321885Y-52730800D01*
X177479346Y-52625589D01*
X177625599Y-52479336D01*
X177720705Y-52337000D01*
X188149937Y-52337000D01*
X188188000Y-52340749D01*
X188226063Y-52337000D01*
X188226065Y-52337000D01*
X188339926Y-52325786D01*
X188486014Y-52281470D01*
X188620650Y-52209506D01*
X188738659Y-52112659D01*
X188762932Y-52083082D01*
X191771087Y-49074928D01*
X191800659Y-49050659D01*
X191862658Y-48975112D01*
X191897506Y-48932651D01*
X191952018Y-48830664D01*
X191969470Y-48798014D01*
X192013786Y-48651926D01*
X192025000Y-48538065D01*
X192025000Y-48538063D01*
X192028749Y-48500000D01*
X192025000Y-48461937D01*
X192025000Y-46361014D01*
X192500000Y-45886014D01*
X192500000Y-45977737D01*
G37*
X192500000Y-45977737D02*
X192557644Y-46267534D01*
X192670717Y-46540517D01*
X192834874Y-46786194D01*
X193043806Y-46995126D01*
X193200760Y-47100000D01*
X193043806Y-47204874D01*
X192834874Y-47413806D01*
X192670717Y-47659483D01*
X192557644Y-47932466D01*
X192500000Y-48222263D01*
X192500000Y-48517737D01*
X192557644Y-48807534D01*
X192670717Y-49080517D01*
X192834874Y-49326194D01*
X193043806Y-49535126D01*
X193200760Y-49640000D01*
X193043806Y-49744874D01*
X192834874Y-49953806D01*
X192670717Y-50199483D01*
X192557644Y-50472466D01*
X192500000Y-50762263D01*
X192500000Y-51057737D01*
X192542514Y-51271471D01*
X190613986Y-53200000D01*
X177546031Y-53200000D01*
X177380016Y-53033985D01*
X177380016Y-52976584D01*
X177339666Y-52773726D01*
X177321885Y-52730800D01*
X177479346Y-52625589D01*
X177625599Y-52479336D01*
X177720705Y-52337000D01*
X188149937Y-52337000D01*
X188188000Y-52340749D01*
X188226063Y-52337000D01*
X188226065Y-52337000D01*
X188339926Y-52325786D01*
X188486014Y-52281470D01*
X188620650Y-52209506D01*
X188738659Y-52112659D01*
X188762932Y-52083082D01*
X191771087Y-49074928D01*
X191800659Y-49050659D01*
X191862658Y-48975112D01*
X191897506Y-48932651D01*
X191952018Y-48830664D01*
X191969470Y-48798014D01*
X192013786Y-48651926D01*
X192025000Y-48538065D01*
X192025000Y-48538063D01*
X192028749Y-48500000D01*
X192025000Y-48461937D01*
X192025000Y-46361014D01*
X192500000Y-45886014D01*
X192500000Y-45977737D01*
G36*
X189505000Y-48365000D02*
G01*
X189525000Y-48365000D01*
X189525000Y-48375000D01*
X189505000Y-48375000D01*
X189505000Y-48395000D01*
X189495000Y-48395000D01*
X189495000Y-48375000D01*
X189475000Y-48375000D01*
X189475000Y-48365000D01*
X189495000Y-48365000D01*
X189495000Y-48345000D01*
X189505000Y-48345000D01*
X189505000Y-48365000D01*
G37*
X189505000Y-48365000D02*
X189525000Y-48365000D01*
X189525000Y-48375000D01*
X189505000Y-48375000D01*
X189505000Y-48395000D01*
X189495000Y-48395000D01*
X189495000Y-48375000D01*
X189475000Y-48375000D01*
X189475000Y-48365000D01*
X189495000Y-48365000D01*
X189495000Y-48345000D01*
X189505000Y-48345000D01*
X189505000Y-48365000D01*
G36*
X192446311Y-39608522D02*
G01*
X192402967Y-39751406D01*
X192388332Y-39900000D01*
X192392000Y-40555500D01*
X192581500Y-40745000D01*
X193995000Y-40745000D01*
X193995000Y-40725000D01*
X194005000Y-40725000D01*
X194005000Y-40745000D01*
X194025000Y-40745000D01*
X194025000Y-40755000D01*
X194005000Y-40755000D01*
X194005000Y-40775000D01*
X193995000Y-40775000D01*
X193995000Y-40755000D01*
X192581500Y-40755000D01*
X192392000Y-40944500D01*
X192388332Y-41600000D01*
X192402967Y-41748594D01*
X192446311Y-41891478D01*
X192516696Y-42023160D01*
X192611419Y-42138581D01*
X192726840Y-42233304D01*
X192858522Y-42303689D01*
X192863485Y-42305195D01*
X192834874Y-42333806D01*
X192670717Y-42579483D01*
X192557644Y-42852466D01*
X192500000Y-43142263D01*
X192500000Y-43437737D01*
X192542514Y-43651471D01*
X190901106Y-45292880D01*
X190829283Y-45119483D01*
X190665126Y-44873806D01*
X190456194Y-44664874D01*
X190299240Y-44560000D01*
X190456194Y-44455126D01*
X190665126Y-44246194D01*
X190829283Y-44000517D01*
X190942356Y-43727534D01*
X191000000Y-43437737D01*
X191000000Y-43142263D01*
X190942356Y-42852466D01*
X190829283Y-42579483D01*
X190665126Y-42333806D01*
X190549922Y-42218602D01*
X190599948Y-42203427D01*
X190712868Y-42143070D01*
X190811843Y-42061843D01*
X190893070Y-41962868D01*
X190953427Y-41849948D01*
X190990595Y-41727422D01*
X191003145Y-41600000D01*
X191003145Y-39900000D01*
X190990595Y-39772578D01*
X190953427Y-39650052D01*
X190930950Y-39608000D01*
X192446590Y-39608000D01*
X192446311Y-39608522D01*
G37*
X192446311Y-39608522D02*
X192402967Y-39751406D01*
X192388332Y-39900000D01*
X192392000Y-40555500D01*
X192581500Y-40745000D01*
X193995000Y-40745000D01*
X193995000Y-40725000D01*
X194005000Y-40725000D01*
X194005000Y-40745000D01*
X194025000Y-40745000D01*
X194025000Y-40755000D01*
X194005000Y-40755000D01*
X194005000Y-40775000D01*
X193995000Y-40775000D01*
X193995000Y-40755000D01*
X192581500Y-40755000D01*
X192392000Y-40944500D01*
X192388332Y-41600000D01*
X192402967Y-41748594D01*
X192446311Y-41891478D01*
X192516696Y-42023160D01*
X192611419Y-42138581D01*
X192726840Y-42233304D01*
X192858522Y-42303689D01*
X192863485Y-42305195D01*
X192834874Y-42333806D01*
X192670717Y-42579483D01*
X192557644Y-42852466D01*
X192500000Y-43142263D01*
X192500000Y-43437737D01*
X192542514Y-43651471D01*
X190901106Y-45292880D01*
X190829283Y-45119483D01*
X190665126Y-44873806D01*
X190456194Y-44664874D01*
X190299240Y-44560000D01*
X190456194Y-44455126D01*
X190665126Y-44246194D01*
X190829283Y-44000517D01*
X190942356Y-43727534D01*
X191000000Y-43437737D01*
X191000000Y-43142263D01*
X190942356Y-42852466D01*
X190829283Y-42579483D01*
X190665126Y-42333806D01*
X190549922Y-42218602D01*
X190599948Y-42203427D01*
X190712868Y-42143070D01*
X190811843Y-42061843D01*
X190893070Y-41962868D01*
X190953427Y-41849948D01*
X190990595Y-41727422D01*
X191003145Y-41600000D01*
X191003145Y-39900000D01*
X190990595Y-39772578D01*
X190953427Y-39650052D01*
X190930950Y-39608000D01*
X192446590Y-39608000D01*
X192446311Y-39608522D01*
G36*
X195117609Y-37781822D02*
G01*
X195106260Y-37772508D01*
X194932537Y-37679651D01*
X194744036Y-37622470D01*
X194597122Y-37608000D01*
X194548002Y-37603162D01*
X194498882Y-37608000D01*
X182601118Y-37608000D01*
X182551998Y-37603162D01*
X182502878Y-37608000D01*
X182355964Y-37622470D01*
X182167463Y-37679651D01*
X181993740Y-37772508D01*
X181841470Y-37897472D01*
X181810153Y-37935632D01*
X180959000Y-38786786D01*
X180959000Y-37455212D01*
X184164214Y-34250000D01*
X191585788Y-34250000D01*
X195117609Y-37781822D01*
G37*
X195117609Y-37781822D02*
X195106260Y-37772508D01*
X194932537Y-37679651D01*
X194744036Y-37622470D01*
X194597122Y-37608000D01*
X194548002Y-37603162D01*
X194498882Y-37608000D01*
X182601118Y-37608000D01*
X182551998Y-37603162D01*
X182502878Y-37608000D01*
X182355964Y-37622470D01*
X182167463Y-37679651D01*
X181993740Y-37772508D01*
X181841470Y-37897472D01*
X181810153Y-37935632D01*
X180959000Y-38786786D01*
X180959000Y-37455212D01*
X184164214Y-34250000D01*
X191585788Y-34250000D01*
X195117609Y-37781822D01*
G36*
X139145000Y-26565000D02*
G01*
X139165000Y-26565000D01*
X139165000Y-26575000D01*
X139145000Y-26575000D01*
X139145000Y-26595000D01*
X139135000Y-26595000D01*
X139135000Y-26575000D01*
X139115000Y-26575000D01*
X139115000Y-26565000D01*
X139135000Y-26565000D01*
X139135000Y-26545000D01*
X139145000Y-26545000D01*
X139145000Y-26565000D01*
G37*
X139145000Y-26565000D02*
X139165000Y-26565000D01*
X139165000Y-26575000D01*
X139145000Y-26575000D01*
X139145000Y-26595000D01*
X139135000Y-26595000D01*
X139135000Y-26575000D01*
X139115000Y-26575000D01*
X139115000Y-26565000D01*
X139135000Y-26565000D01*
X139135000Y-26545000D01*
X139145000Y-26545000D01*
X139145000Y-26565000D01*
M02*
