G04 #@! TF.GenerationSoftware,KiCad,Pcbnew,(5.1.6)-1*
G04 #@! TF.CreationDate,2021-01-15T17:25:52+09:00*
G04 #@! TF.ProjectId,HATv2.0,48415476-322e-4302-9e6b-696361645f70,rev?*
G04 #@! TF.SameCoordinates,Original*
G04 #@! TF.FileFunction,Legend,Top*
G04 #@! TF.FilePolarity,Positive*
%FSLAX46Y46*%
G04 Gerber Fmt 4.6, Leading zero omitted, Abs format (unit mm)*
G04 Created by KiCad (PCBNEW (5.1.6)-1) date 2021-01-15 17:25:52*
%MOMM*%
%LPD*%
G01*
G04 APERTURE LIST*
%ADD10C,0.100000*%
%ADD11C,0.120000*%
%ADD12C,0.150000*%
%ADD13C,0.010000*%
%ADD14C,1.900000*%
%ADD15R,1.900000X1.900000*%
%ADD16C,1.800000*%
%ADD17C,2.300000*%
%ADD18R,2.000000X1.400000*%
%ADD19R,2.900000X1.100000*%
%ADD20R,0.900000X1.100000*%
%ADD21R,1.300000X1.100000*%
%ADD22R,1.300000X0.800000*%
%ADD23O,1.450000X1.450000*%
%ADD24R,1.450000X1.450000*%
%ADD25R,0.700000X0.350000*%
%ADD26R,2.000000X1.300000*%
%ADD27O,2.000000X1.300000*%
%ADD28R,2.000000X1.600000*%
%ADD29C,1.550000*%
%ADD30R,1.450000X0.500000*%
%ADD31R,1.000000X1.300000*%
%ADD32C,0.700000*%
%ADD33R,1.600000X2.100000*%
%ADD34R,3.900000X2.100000*%
%ADD35O,1.800000X1.800000*%
%ADD36R,1.800000X1.800000*%
%ADD37C,3.000000*%
%ADD38C,2.350000*%
%ADD39R,0.400000X0.550000*%
%ADD40R,1.300000X1.000000*%
%ADD41O,1.800000X2.100000*%
%ADD42C,0.900000*%
%ADD43C,1.100000*%
G04 APERTURE END LIST*
D10*
X140815285Y-65250190D02*
X140529571Y-65250190D01*
X140672428Y-65250190D02*
X140672428Y-64750190D01*
X140624809Y-64821619D01*
X140577190Y-64869238D01*
X140529571Y-64893047D01*
X141124809Y-64750190D02*
X141172428Y-64750190D01*
X141220047Y-64774000D01*
X141243857Y-64797809D01*
X141267666Y-64845428D01*
X141291476Y-64940666D01*
X141291476Y-65059714D01*
X141267666Y-65154952D01*
X141243857Y-65202571D01*
X141220047Y-65226380D01*
X141172428Y-65250190D01*
X141124809Y-65250190D01*
X141077190Y-65226380D01*
X141053380Y-65202571D01*
X141029571Y-65154952D01*
X141005761Y-65059714D01*
X141005761Y-64940666D01*
X141029571Y-64845428D01*
X141053380Y-64797809D01*
X141077190Y-64774000D01*
X141124809Y-64750190D01*
X141720047Y-64916857D02*
X141720047Y-65250190D01*
X141505761Y-64916857D02*
X141505761Y-65178761D01*
X141529571Y-65226380D01*
X141577190Y-65250190D01*
X141648619Y-65250190D01*
X141696238Y-65226380D01*
X141720047Y-65202571D01*
X142124809Y-64988285D02*
X141958142Y-64988285D01*
X141958142Y-65250190D02*
X141958142Y-64750190D01*
X142196238Y-64750190D01*
X175428571Y-68976190D02*
X175142857Y-68976190D01*
X175285714Y-68976190D02*
X175285714Y-68476190D01*
X175238095Y-68547619D01*
X175190476Y-68595238D01*
X175142857Y-68619047D01*
X175738095Y-68476190D02*
X175785714Y-68476190D01*
X175833333Y-68500000D01*
X175857142Y-68523809D01*
X175880952Y-68571428D01*
X175904761Y-68666666D01*
X175904761Y-68785714D01*
X175880952Y-68880952D01*
X175857142Y-68928571D01*
X175833333Y-68952380D01*
X175785714Y-68976190D01*
X175738095Y-68976190D01*
X175690476Y-68952380D01*
X175666666Y-68928571D01*
X175642857Y-68880952D01*
X175619047Y-68785714D01*
X175619047Y-68666666D01*
X175642857Y-68571428D01*
X175666666Y-68523809D01*
X175690476Y-68500000D01*
X175738095Y-68476190D01*
X176214285Y-68476190D02*
X176261904Y-68476190D01*
X176309523Y-68500000D01*
X176333333Y-68523809D01*
X176357142Y-68571428D01*
X176380952Y-68666666D01*
X176380952Y-68785714D01*
X176357142Y-68880952D01*
X176333333Y-68928571D01*
X176309523Y-68952380D01*
X176261904Y-68976190D01*
X176214285Y-68976190D01*
X176166666Y-68952380D01*
X176142857Y-68928571D01*
X176119047Y-68880952D01*
X176095238Y-68785714D01*
X176095238Y-68666666D01*
X176119047Y-68571428D01*
X176142857Y-68523809D01*
X176166666Y-68500000D01*
X176214285Y-68476190D01*
X176595238Y-68976190D02*
X176595238Y-68476190D01*
X176642857Y-68785714D02*
X176785714Y-68976190D01*
X176785714Y-68642857D02*
X176595238Y-68833333D01*
X176976190Y-68976190D02*
X177095238Y-68976190D01*
X177095238Y-68880952D01*
X177047619Y-68857142D01*
X177000000Y-68809523D01*
X176976190Y-68738095D01*
X176976190Y-68619047D01*
X177000000Y-68547619D01*
X177047619Y-68500000D01*
X177119047Y-68476190D01*
X177214285Y-68476190D01*
X177285714Y-68500000D01*
X177333333Y-68547619D01*
X177357142Y-68619047D01*
X177357142Y-68738095D01*
X177333333Y-68809523D01*
X177285714Y-68857142D01*
X177238095Y-68880952D01*
X177238095Y-68976190D01*
X177357142Y-68976190D01*
D11*
X173000000Y-46100000D02*
G75*
G03*
X173000000Y-46100000I-100000J0D01*
G01*
X195400000Y-29450000D02*
G75*
G03*
X195400000Y-29450000I-100000J0D01*
G01*
D10*
X182757142Y-62972190D02*
X183066666Y-62972190D01*
X182900000Y-63162666D01*
X182971428Y-63162666D01*
X183019047Y-63186476D01*
X183042857Y-63210285D01*
X183066666Y-63257904D01*
X183066666Y-63376952D01*
X183042857Y-63424571D01*
X183019047Y-63448380D01*
X182971428Y-63472190D01*
X182828571Y-63472190D01*
X182780952Y-63448380D01*
X182757142Y-63424571D01*
X183233333Y-62972190D02*
X183542857Y-62972190D01*
X183376190Y-63162666D01*
X183447619Y-63162666D01*
X183495238Y-63186476D01*
X183519047Y-63210285D01*
X183542857Y-63257904D01*
X183542857Y-63376952D01*
X183519047Y-63424571D01*
X183495238Y-63448380D01*
X183447619Y-63472190D01*
X183304761Y-63472190D01*
X183257142Y-63448380D01*
X183233333Y-63424571D01*
X183757142Y-63472190D02*
X183757142Y-62972190D01*
X183804761Y-63281714D02*
X183947619Y-63472190D01*
X183947619Y-63138857D02*
X183757142Y-63329333D01*
X184138095Y-63472190D02*
X184257142Y-63472190D01*
X184257142Y-63376952D01*
X184209523Y-63353142D01*
X184161904Y-63305523D01*
X184138095Y-63234095D01*
X184138095Y-63115047D01*
X184161904Y-63043619D01*
X184209523Y-62996000D01*
X184280952Y-62972190D01*
X184376190Y-62972190D01*
X184447619Y-62996000D01*
X184495238Y-63043619D01*
X184519047Y-63115047D01*
X184519047Y-63234095D01*
X184495238Y-63305523D01*
X184447619Y-63353142D01*
X184400000Y-63376952D01*
X184400000Y-63472190D01*
X184519047Y-63472190D01*
X182576190Y-61976190D02*
X182290476Y-61976190D01*
X182433333Y-61976190D02*
X182433333Y-61476190D01*
X182385714Y-61547619D01*
X182338095Y-61595238D01*
X182290476Y-61619047D01*
X182885714Y-61476190D02*
X182933333Y-61476190D01*
X182980952Y-61500000D01*
X183004761Y-61523809D01*
X183028571Y-61571428D01*
X183052380Y-61666666D01*
X183052380Y-61785714D01*
X183028571Y-61880952D01*
X183004761Y-61928571D01*
X182980952Y-61952380D01*
X182933333Y-61976190D01*
X182885714Y-61976190D01*
X182838095Y-61952380D01*
X182814285Y-61928571D01*
X182790476Y-61880952D01*
X182766666Y-61785714D01*
X182766666Y-61666666D01*
X182790476Y-61571428D01*
X182814285Y-61523809D01*
X182838095Y-61500000D01*
X182885714Y-61476190D01*
X183361904Y-61476190D02*
X183409523Y-61476190D01*
X183457142Y-61500000D01*
X183480952Y-61523809D01*
X183504761Y-61571428D01*
X183528571Y-61666666D01*
X183528571Y-61785714D01*
X183504761Y-61880952D01*
X183480952Y-61928571D01*
X183457142Y-61952380D01*
X183409523Y-61976190D01*
X183361904Y-61976190D01*
X183314285Y-61952380D01*
X183290476Y-61928571D01*
X183266666Y-61880952D01*
X183242857Y-61785714D01*
X183242857Y-61666666D01*
X183266666Y-61571428D01*
X183290476Y-61523809D01*
X183314285Y-61500000D01*
X183361904Y-61476190D01*
X183742857Y-61642857D02*
X183742857Y-61976190D01*
X183742857Y-61690476D02*
X183766666Y-61666666D01*
X183814285Y-61642857D01*
X183885714Y-61642857D01*
X183933333Y-61666666D01*
X183957142Y-61714285D01*
X183957142Y-61976190D01*
X184361904Y-61714285D02*
X184195238Y-61714285D01*
X184195238Y-61976190D02*
X184195238Y-61476190D01*
X184433333Y-61476190D01*
X184004761Y-65276190D02*
X184290476Y-65276190D01*
X184147619Y-65776190D02*
X184147619Y-65276190D01*
X184385714Y-65276190D02*
X184552380Y-65776190D01*
X184719047Y-65276190D01*
X184861904Y-65752380D02*
X184933333Y-65776190D01*
X185052380Y-65776190D01*
X185100000Y-65752380D01*
X185123809Y-65728571D01*
X185147619Y-65680952D01*
X185147619Y-65633333D01*
X185123809Y-65585714D01*
X185100000Y-65561904D01*
X185052380Y-65538095D01*
X184957142Y-65514285D01*
X184909523Y-65490476D01*
X184885714Y-65466666D01*
X184861904Y-65419047D01*
X184861904Y-65371428D01*
X184885714Y-65323809D01*
X184909523Y-65300000D01*
X184957142Y-65276190D01*
X185076190Y-65276190D01*
X185147619Y-65300000D01*
X175826190Y-44026190D02*
X175540476Y-44026190D01*
X175683333Y-44026190D02*
X175683333Y-43526190D01*
X175635714Y-43597619D01*
X175588095Y-43645238D01*
X175540476Y-43669047D01*
X176135714Y-43526190D02*
X176183333Y-43526190D01*
X176230952Y-43550000D01*
X176254761Y-43573809D01*
X176278571Y-43621428D01*
X176302380Y-43716666D01*
X176302380Y-43835714D01*
X176278571Y-43930952D01*
X176254761Y-43978571D01*
X176230952Y-44002380D01*
X176183333Y-44026190D01*
X176135714Y-44026190D01*
X176088095Y-44002380D01*
X176064285Y-43978571D01*
X176040476Y-43930952D01*
X176016666Y-43835714D01*
X176016666Y-43716666D01*
X176040476Y-43621428D01*
X176064285Y-43573809D01*
X176088095Y-43550000D01*
X176135714Y-43526190D01*
X176611904Y-43526190D02*
X176659523Y-43526190D01*
X176707142Y-43550000D01*
X176730952Y-43573809D01*
X176754761Y-43621428D01*
X176778571Y-43716666D01*
X176778571Y-43835714D01*
X176754761Y-43930952D01*
X176730952Y-43978571D01*
X176707142Y-44002380D01*
X176659523Y-44026190D01*
X176611904Y-44026190D01*
X176564285Y-44002380D01*
X176540476Y-43978571D01*
X176516666Y-43930952D01*
X176492857Y-43835714D01*
X176492857Y-43716666D01*
X176516666Y-43621428D01*
X176540476Y-43573809D01*
X176564285Y-43550000D01*
X176611904Y-43526190D01*
X176992857Y-43692857D02*
X176992857Y-44026190D01*
X176992857Y-43740476D02*
X177016666Y-43716666D01*
X177064285Y-43692857D01*
X177135714Y-43692857D01*
X177183333Y-43716666D01*
X177207142Y-43764285D01*
X177207142Y-44026190D01*
X177611904Y-43764285D02*
X177445238Y-43764285D01*
X177445238Y-44026190D02*
X177445238Y-43526190D01*
X177683333Y-43526190D01*
X171726190Y-43926190D02*
X171440476Y-43926190D01*
X171583333Y-43926190D02*
X171583333Y-43426190D01*
X171535714Y-43497619D01*
X171488095Y-43545238D01*
X171440476Y-43569047D01*
X172035714Y-43426190D02*
X172083333Y-43426190D01*
X172130952Y-43450000D01*
X172154761Y-43473809D01*
X172178571Y-43521428D01*
X172202380Y-43616666D01*
X172202380Y-43735714D01*
X172178571Y-43830952D01*
X172154761Y-43878571D01*
X172130952Y-43902380D01*
X172083333Y-43926190D01*
X172035714Y-43926190D01*
X171988095Y-43902380D01*
X171964285Y-43878571D01*
X171940476Y-43830952D01*
X171916666Y-43735714D01*
X171916666Y-43616666D01*
X171940476Y-43521428D01*
X171964285Y-43473809D01*
X171988095Y-43450000D01*
X172035714Y-43426190D01*
X172511904Y-43426190D02*
X172559523Y-43426190D01*
X172607142Y-43450000D01*
X172630952Y-43473809D01*
X172654761Y-43521428D01*
X172678571Y-43616666D01*
X172678571Y-43735714D01*
X172654761Y-43830952D01*
X172630952Y-43878571D01*
X172607142Y-43902380D01*
X172559523Y-43926190D01*
X172511904Y-43926190D01*
X172464285Y-43902380D01*
X172440476Y-43878571D01*
X172416666Y-43830952D01*
X172392857Y-43735714D01*
X172392857Y-43616666D01*
X172416666Y-43521428D01*
X172440476Y-43473809D01*
X172464285Y-43450000D01*
X172511904Y-43426190D01*
X172892857Y-43592857D02*
X172892857Y-43926190D01*
X172892857Y-43640476D02*
X172916666Y-43616666D01*
X172964285Y-43592857D01*
X173035714Y-43592857D01*
X173083333Y-43616666D01*
X173107142Y-43664285D01*
X173107142Y-43926190D01*
X173511904Y-43664285D02*
X173345238Y-43664285D01*
X173345238Y-43926190D02*
X173345238Y-43426190D01*
X173583333Y-43426190D01*
X195657142Y-35052380D02*
X195728571Y-35076190D01*
X195847619Y-35076190D01*
X195895238Y-35052380D01*
X195919047Y-35028571D01*
X195942857Y-34980952D01*
X195942857Y-34933333D01*
X195919047Y-34885714D01*
X195895238Y-34861904D01*
X195847619Y-34838095D01*
X195752380Y-34814285D01*
X195704761Y-34790476D01*
X195680952Y-34766666D01*
X195657142Y-34719047D01*
X195657142Y-34671428D01*
X195680952Y-34623809D01*
X195704761Y-34600000D01*
X195752380Y-34576190D01*
X195871428Y-34576190D01*
X195942857Y-34600000D01*
X196323809Y-34814285D02*
X196395238Y-34838095D01*
X196419047Y-34861904D01*
X196442857Y-34909523D01*
X196442857Y-34980952D01*
X196419047Y-35028571D01*
X196395238Y-35052380D01*
X196347619Y-35076190D01*
X196157142Y-35076190D01*
X196157142Y-34576190D01*
X196323809Y-34576190D01*
X196371428Y-34600000D01*
X196395238Y-34623809D01*
X196419047Y-34671428D01*
X196419047Y-34719047D01*
X196395238Y-34766666D01*
X196371428Y-34790476D01*
X196323809Y-34814285D01*
X196157142Y-34814285D01*
X196657142Y-35076190D02*
X196657142Y-34576190D01*
X196776190Y-34576190D01*
X196847619Y-34600000D01*
X196895238Y-34647619D01*
X196919047Y-34695238D01*
X196942857Y-34790476D01*
X196942857Y-34861904D01*
X196919047Y-34957142D01*
X196895238Y-35004761D01*
X196847619Y-35052380D01*
X196776190Y-35076190D01*
X196657142Y-35076190D01*
X180157142Y-30002380D02*
X180228571Y-30026190D01*
X180347619Y-30026190D01*
X180395238Y-30002380D01*
X180419047Y-29978571D01*
X180442857Y-29930952D01*
X180442857Y-29883333D01*
X180419047Y-29835714D01*
X180395238Y-29811904D01*
X180347619Y-29788095D01*
X180252380Y-29764285D01*
X180204761Y-29740476D01*
X180180952Y-29716666D01*
X180157142Y-29669047D01*
X180157142Y-29621428D01*
X180180952Y-29573809D01*
X180204761Y-29550000D01*
X180252380Y-29526190D01*
X180371428Y-29526190D01*
X180442857Y-29550000D01*
X180823809Y-29764285D02*
X180895238Y-29788095D01*
X180919047Y-29811904D01*
X180942857Y-29859523D01*
X180942857Y-29930952D01*
X180919047Y-29978571D01*
X180895238Y-30002380D01*
X180847619Y-30026190D01*
X180657142Y-30026190D01*
X180657142Y-29526190D01*
X180823809Y-29526190D01*
X180871428Y-29550000D01*
X180895238Y-29573809D01*
X180919047Y-29621428D01*
X180919047Y-29669047D01*
X180895238Y-29716666D01*
X180871428Y-29740476D01*
X180823809Y-29764285D01*
X180657142Y-29764285D01*
X181157142Y-30026190D02*
X181157142Y-29526190D01*
X181276190Y-29526190D01*
X181347619Y-29550000D01*
X181395238Y-29597619D01*
X181419047Y-29645238D01*
X181442857Y-29740476D01*
X181442857Y-29811904D01*
X181419047Y-29907142D01*
X181395238Y-29954761D01*
X181347619Y-30002380D01*
X181276190Y-30026190D01*
X181157142Y-30026190D01*
X178564285Y-41726190D02*
X178278571Y-41726190D01*
X178421428Y-41726190D02*
X178421428Y-41226190D01*
X178373809Y-41297619D01*
X178326190Y-41345238D01*
X178278571Y-41369047D01*
X178873809Y-41226190D02*
X178921428Y-41226190D01*
X178969047Y-41250000D01*
X178992857Y-41273809D01*
X179016666Y-41321428D01*
X179040476Y-41416666D01*
X179040476Y-41535714D01*
X179016666Y-41630952D01*
X178992857Y-41678571D01*
X178969047Y-41702380D01*
X178921428Y-41726190D01*
X178873809Y-41726190D01*
X178826190Y-41702380D01*
X178802380Y-41678571D01*
X178778571Y-41630952D01*
X178754761Y-41535714D01*
X178754761Y-41416666D01*
X178778571Y-41321428D01*
X178802380Y-41273809D01*
X178826190Y-41250000D01*
X178873809Y-41226190D01*
X179469047Y-41392857D02*
X179469047Y-41726190D01*
X179254761Y-41392857D02*
X179254761Y-41654761D01*
X179278571Y-41702380D01*
X179326190Y-41726190D01*
X179397619Y-41726190D01*
X179445238Y-41702380D01*
X179469047Y-41678571D01*
X179873809Y-41464285D02*
X179707142Y-41464285D01*
X179707142Y-41726190D02*
X179707142Y-41226190D01*
X179945238Y-41226190D01*
X171926190Y-31226190D02*
X171640476Y-31226190D01*
X171783333Y-31226190D02*
X171783333Y-30726190D01*
X171735714Y-30797619D01*
X171688095Y-30845238D01*
X171640476Y-30869047D01*
X172235714Y-30726190D02*
X172283333Y-30726190D01*
X172330952Y-30750000D01*
X172354761Y-30773809D01*
X172378571Y-30821428D01*
X172402380Y-30916666D01*
X172402380Y-31035714D01*
X172378571Y-31130952D01*
X172354761Y-31178571D01*
X172330952Y-31202380D01*
X172283333Y-31226190D01*
X172235714Y-31226190D01*
X172188095Y-31202380D01*
X172164285Y-31178571D01*
X172140476Y-31130952D01*
X172116666Y-31035714D01*
X172116666Y-30916666D01*
X172140476Y-30821428D01*
X172164285Y-30773809D01*
X172188095Y-30750000D01*
X172235714Y-30726190D01*
X172711904Y-30726190D02*
X172759523Y-30726190D01*
X172807142Y-30750000D01*
X172830952Y-30773809D01*
X172854761Y-30821428D01*
X172878571Y-30916666D01*
X172878571Y-31035714D01*
X172854761Y-31130952D01*
X172830952Y-31178571D01*
X172807142Y-31202380D01*
X172759523Y-31226190D01*
X172711904Y-31226190D01*
X172664285Y-31202380D01*
X172640476Y-31178571D01*
X172616666Y-31130952D01*
X172592857Y-31035714D01*
X172592857Y-30916666D01*
X172616666Y-30821428D01*
X172640476Y-30773809D01*
X172664285Y-30750000D01*
X172711904Y-30726190D01*
X173092857Y-30892857D02*
X173092857Y-31226190D01*
X173092857Y-30940476D02*
X173116666Y-30916666D01*
X173164285Y-30892857D01*
X173235714Y-30892857D01*
X173283333Y-30916666D01*
X173307142Y-30964285D01*
X173307142Y-31226190D01*
X173711904Y-30964285D02*
X173545238Y-30964285D01*
X173545238Y-31226190D02*
X173545238Y-30726190D01*
X173783333Y-30726190D01*
X132804761Y-59026190D02*
X133090476Y-59026190D01*
X132947619Y-59526190D02*
X132947619Y-59026190D01*
X133185714Y-59026190D02*
X133352380Y-59526190D01*
X133519047Y-59026190D01*
X133661904Y-59502380D02*
X133733333Y-59526190D01*
X133852380Y-59526190D01*
X133900000Y-59502380D01*
X133923809Y-59478571D01*
X133947619Y-59430952D01*
X133947619Y-59383333D01*
X133923809Y-59335714D01*
X133900000Y-59311904D01*
X133852380Y-59288095D01*
X133757142Y-59264285D01*
X133709523Y-59240476D01*
X133685714Y-59216666D01*
X133661904Y-59169047D01*
X133661904Y-59121428D01*
X133685714Y-59073809D01*
X133709523Y-59050000D01*
X133757142Y-59026190D01*
X133876190Y-59026190D01*
X133947619Y-59050000D01*
X133507142Y-41126190D02*
X133816666Y-41126190D01*
X133650000Y-41316666D01*
X133721428Y-41316666D01*
X133769047Y-41340476D01*
X133792857Y-41364285D01*
X133816666Y-41411904D01*
X133816666Y-41530952D01*
X133792857Y-41578571D01*
X133769047Y-41602380D01*
X133721428Y-41626190D01*
X133578571Y-41626190D01*
X133530952Y-41602380D01*
X133507142Y-41578571D01*
X134054761Y-41626190D02*
X134150000Y-41626190D01*
X134197619Y-41602380D01*
X134221428Y-41578571D01*
X134269047Y-41507142D01*
X134292857Y-41411904D01*
X134292857Y-41221428D01*
X134269047Y-41173809D01*
X134245238Y-41150000D01*
X134197619Y-41126190D01*
X134102380Y-41126190D01*
X134054761Y-41150000D01*
X134030952Y-41173809D01*
X134007142Y-41221428D01*
X134007142Y-41340476D01*
X134030952Y-41388095D01*
X134054761Y-41411904D01*
X134102380Y-41435714D01*
X134197619Y-41435714D01*
X134245238Y-41411904D01*
X134269047Y-41388095D01*
X134292857Y-41340476D01*
X134507142Y-41292857D02*
X134507142Y-41626190D01*
X134507142Y-41340476D02*
X134530952Y-41316666D01*
X134578571Y-41292857D01*
X134650000Y-41292857D01*
X134697619Y-41316666D01*
X134721428Y-41364285D01*
X134721428Y-41626190D01*
X134959523Y-41626190D02*
X134959523Y-41126190D01*
X134959523Y-41364285D02*
X135245238Y-41364285D01*
X135245238Y-41626190D02*
X135245238Y-41126190D01*
X134207142Y-30426190D02*
X134516666Y-30426190D01*
X134350000Y-30616666D01*
X134421428Y-30616666D01*
X134469047Y-30640476D01*
X134492857Y-30664285D01*
X134516666Y-30711904D01*
X134516666Y-30830952D01*
X134492857Y-30878571D01*
X134469047Y-30902380D01*
X134421428Y-30926190D01*
X134278571Y-30926190D01*
X134230952Y-30902380D01*
X134207142Y-30878571D01*
X134754761Y-30926190D02*
X134850000Y-30926190D01*
X134897619Y-30902380D01*
X134921428Y-30878571D01*
X134969047Y-30807142D01*
X134992857Y-30711904D01*
X134992857Y-30521428D01*
X134969047Y-30473809D01*
X134945238Y-30450000D01*
X134897619Y-30426190D01*
X134802380Y-30426190D01*
X134754761Y-30450000D01*
X134730952Y-30473809D01*
X134707142Y-30521428D01*
X134707142Y-30640476D01*
X134730952Y-30688095D01*
X134754761Y-30711904D01*
X134802380Y-30735714D01*
X134897619Y-30735714D01*
X134945238Y-30711904D01*
X134969047Y-30688095D01*
X134992857Y-30640476D01*
X135207142Y-30592857D02*
X135207142Y-30926190D01*
X135207142Y-30640476D02*
X135230952Y-30616666D01*
X135278571Y-30592857D01*
X135350000Y-30592857D01*
X135397619Y-30616666D01*
X135421428Y-30664285D01*
X135421428Y-30926190D01*
X135659523Y-30926190D02*
X135659523Y-30426190D01*
X135659523Y-30664285D02*
X135945238Y-30664285D01*
X135945238Y-30926190D02*
X135945238Y-30426190D01*
X133926190Y-36126190D02*
X133640476Y-36126190D01*
X133783333Y-36126190D02*
X133783333Y-35626190D01*
X133735714Y-35697619D01*
X133688095Y-35745238D01*
X133640476Y-35769047D01*
X134235714Y-35626190D02*
X134283333Y-35626190D01*
X134330952Y-35650000D01*
X134354761Y-35673809D01*
X134378571Y-35721428D01*
X134402380Y-35816666D01*
X134402380Y-35935714D01*
X134378571Y-36030952D01*
X134354761Y-36078571D01*
X134330952Y-36102380D01*
X134283333Y-36126190D01*
X134235714Y-36126190D01*
X134188095Y-36102380D01*
X134164285Y-36078571D01*
X134140476Y-36030952D01*
X134116666Y-35935714D01*
X134116666Y-35816666D01*
X134140476Y-35721428D01*
X134164285Y-35673809D01*
X134188095Y-35650000D01*
X134235714Y-35626190D01*
X134711904Y-35626190D02*
X134759523Y-35626190D01*
X134807142Y-35650000D01*
X134830952Y-35673809D01*
X134854761Y-35721428D01*
X134878571Y-35816666D01*
X134878571Y-35935714D01*
X134854761Y-36030952D01*
X134830952Y-36078571D01*
X134807142Y-36102380D01*
X134759523Y-36126190D01*
X134711904Y-36126190D01*
X134664285Y-36102380D01*
X134640476Y-36078571D01*
X134616666Y-36030952D01*
X134592857Y-35935714D01*
X134592857Y-35816666D01*
X134616666Y-35721428D01*
X134640476Y-35673809D01*
X134664285Y-35650000D01*
X134711904Y-35626190D01*
X135092857Y-35792857D02*
X135092857Y-36126190D01*
X135092857Y-35840476D02*
X135116666Y-35816666D01*
X135164285Y-35792857D01*
X135235714Y-35792857D01*
X135283333Y-35816666D01*
X135307142Y-35864285D01*
X135307142Y-36126190D01*
X135711904Y-35864285D02*
X135545238Y-35864285D01*
X135545238Y-36126190D02*
X135545238Y-35626190D01*
X135783333Y-35626190D01*
D12*
X187221428Y-29557142D02*
X187830952Y-29557142D01*
X187526190Y-29861904D02*
X187526190Y-29252380D01*
X188592857Y-29061904D02*
X188211904Y-29061904D01*
X188173809Y-29442857D01*
X188211904Y-29404761D01*
X188288095Y-29366666D01*
X188478571Y-29366666D01*
X188554761Y-29404761D01*
X188592857Y-29442857D01*
X188630952Y-29519047D01*
X188630952Y-29709523D01*
X188592857Y-29785714D01*
X188554761Y-29823809D01*
X188478571Y-29861904D01*
X188288095Y-29861904D01*
X188211904Y-29823809D01*
X188173809Y-29785714D01*
X188859523Y-29061904D02*
X189126190Y-29861904D01*
X189392857Y-29061904D01*
X190640476Y-29100000D02*
X190564285Y-29061904D01*
X190450000Y-29061904D01*
X190335714Y-29100000D01*
X190259523Y-29176190D01*
X190221428Y-29252380D01*
X190183333Y-29404761D01*
X190183333Y-29519047D01*
X190221428Y-29671428D01*
X190259523Y-29747619D01*
X190335714Y-29823809D01*
X190450000Y-29861904D01*
X190526190Y-29861904D01*
X190640476Y-29823809D01*
X190678571Y-29785714D01*
X190678571Y-29519047D01*
X190526190Y-29519047D01*
X191021428Y-29861904D02*
X191021428Y-29061904D01*
X191478571Y-29861904D01*
X191478571Y-29061904D01*
X191859523Y-29861904D02*
X191859523Y-29061904D01*
X192050000Y-29061904D01*
X192164285Y-29100000D01*
X192240476Y-29176190D01*
X192278571Y-29252380D01*
X192316666Y-29404761D01*
X192316666Y-29519047D01*
X192278571Y-29671428D01*
X192240476Y-29747619D01*
X192164285Y-29823809D01*
X192050000Y-29861904D01*
X191859523Y-29861904D01*
X168035714Y-71861904D02*
X167654761Y-71861904D01*
X167654761Y-71061904D01*
X168454761Y-71061904D02*
X168607142Y-71061904D01*
X168683333Y-71100000D01*
X168759523Y-71176190D01*
X168797619Y-71328571D01*
X168797619Y-71595238D01*
X168759523Y-71747619D01*
X168683333Y-71823809D01*
X168607142Y-71861904D01*
X168454761Y-71861904D01*
X168378571Y-71823809D01*
X168302380Y-71747619D01*
X168264285Y-71595238D01*
X168264285Y-71328571D01*
X168302380Y-71176190D01*
X168378571Y-71100000D01*
X168454761Y-71061904D01*
X169559523Y-71100000D02*
X169483333Y-71061904D01*
X169369047Y-71061904D01*
X169254761Y-71100000D01*
X169178571Y-71176190D01*
X169140476Y-71252380D01*
X169102380Y-71404761D01*
X169102380Y-71519047D01*
X169140476Y-71671428D01*
X169178571Y-71747619D01*
X169254761Y-71823809D01*
X169369047Y-71861904D01*
X169445238Y-71861904D01*
X169559523Y-71823809D01*
X169597619Y-71785714D01*
X169597619Y-71519047D01*
X169445238Y-71519047D01*
X170511904Y-71823809D02*
X170626190Y-71861904D01*
X170816666Y-71861904D01*
X170892857Y-71823809D01*
X170930952Y-71785714D01*
X170969047Y-71709523D01*
X170969047Y-71633333D01*
X170930952Y-71557142D01*
X170892857Y-71519047D01*
X170816666Y-71480952D01*
X170664285Y-71442857D01*
X170588095Y-71404761D01*
X170550000Y-71366666D01*
X170511904Y-71290476D01*
X170511904Y-71214285D01*
X170550000Y-71138095D01*
X170588095Y-71100000D01*
X170664285Y-71061904D01*
X170854761Y-71061904D01*
X170969047Y-71100000D01*
X171235714Y-71061904D02*
X171426190Y-71861904D01*
X171578571Y-71290476D01*
X171730952Y-71861904D01*
X171921428Y-71061904D01*
X190789714Y-56802380D02*
X190827809Y-56840476D01*
X190865904Y-56954761D01*
X190865904Y-57030952D01*
X190827809Y-57145238D01*
X190751619Y-57221428D01*
X190675428Y-57259523D01*
X190523047Y-57297619D01*
X190408761Y-57297619D01*
X190256380Y-57259523D01*
X190180190Y-57221428D01*
X190104000Y-57145238D01*
X190065904Y-57030952D01*
X190065904Y-56954761D01*
X190104000Y-56840476D01*
X190142095Y-56802380D01*
X190065904Y-56307142D02*
X190065904Y-56154761D01*
X190104000Y-56078571D01*
X190180190Y-56002380D01*
X190332571Y-55964285D01*
X190599238Y-55964285D01*
X190751619Y-56002380D01*
X190827809Y-56078571D01*
X190865904Y-56154761D01*
X190865904Y-56307142D01*
X190827809Y-56383333D01*
X190751619Y-56459523D01*
X190599238Y-56497619D01*
X190332571Y-56497619D01*
X190180190Y-56459523D01*
X190104000Y-56383333D01*
X190065904Y-56307142D01*
X190865904Y-55621428D02*
X190065904Y-55621428D01*
X190637333Y-55354761D01*
X190065904Y-55088095D01*
X190865904Y-55088095D01*
X190142095Y-54745238D02*
X190104000Y-54707142D01*
X190065904Y-54630952D01*
X190065904Y-54440476D01*
X190104000Y-54364285D01*
X190142095Y-54326190D01*
X190218285Y-54288095D01*
X190294476Y-54288095D01*
X190408761Y-54326190D01*
X190865904Y-54783333D01*
X190865904Y-54288095D01*
X190446857Y-53069047D02*
X190446857Y-53335714D01*
X190865904Y-53335714D02*
X190065904Y-53335714D01*
X190065904Y-52954761D01*
X190065904Y-52764285D02*
X190065904Y-52307142D01*
X190865904Y-52535714D02*
X190065904Y-52535714D01*
X190865904Y-52040476D02*
X190065904Y-52040476D01*
X190065904Y-51850000D01*
X190104000Y-51735714D01*
X190180190Y-51659523D01*
X190256380Y-51621428D01*
X190408761Y-51583333D01*
X190523047Y-51583333D01*
X190675428Y-51621428D01*
X190751619Y-51659523D01*
X190827809Y-51735714D01*
X190865904Y-51850000D01*
X190865904Y-52040476D01*
X190865904Y-51240476D02*
X190065904Y-51240476D01*
X200707904Y-52727714D02*
X200707904Y-52575333D01*
X200746000Y-52499142D01*
X200822190Y-52422952D01*
X200974571Y-52384857D01*
X201241238Y-52384857D01*
X201393619Y-52422952D01*
X201469809Y-52499142D01*
X201507904Y-52575333D01*
X201507904Y-52727714D01*
X201469809Y-52803904D01*
X201393619Y-52880095D01*
X201241238Y-52918190D01*
X200974571Y-52918190D01*
X200822190Y-52880095D01*
X200746000Y-52803904D01*
X200707904Y-52727714D01*
X200974571Y-52042000D02*
X201774571Y-52042000D01*
X201012666Y-52042000D02*
X200974571Y-51965809D01*
X200974571Y-51813428D01*
X201012666Y-51737238D01*
X201050761Y-51699142D01*
X201126952Y-51661047D01*
X201355523Y-51661047D01*
X201431714Y-51699142D01*
X201469809Y-51737238D01*
X201507904Y-51813428D01*
X201507904Y-51965809D01*
X201469809Y-52042000D01*
X201469809Y-51013428D02*
X201507904Y-51089619D01*
X201507904Y-51242000D01*
X201469809Y-51318190D01*
X201393619Y-51356285D01*
X201088857Y-51356285D01*
X201012666Y-51318190D01*
X200974571Y-51242000D01*
X200974571Y-51089619D01*
X201012666Y-51013428D01*
X201088857Y-50975333D01*
X201165047Y-50975333D01*
X201241238Y-51356285D01*
X200974571Y-50632476D02*
X201507904Y-50632476D01*
X201050761Y-50632476D02*
X201012666Y-50594380D01*
X200974571Y-50518190D01*
X200974571Y-50403904D01*
X201012666Y-50327714D01*
X201088857Y-50289619D01*
X201507904Y-50289619D01*
X201469809Y-49337238D02*
X201507904Y-49222952D01*
X201507904Y-49032476D01*
X201469809Y-48956285D01*
X201431714Y-48918190D01*
X201355523Y-48880095D01*
X201279333Y-48880095D01*
X201203142Y-48918190D01*
X201165047Y-48956285D01*
X201126952Y-49032476D01*
X201088857Y-49184857D01*
X201050761Y-49261047D01*
X201012666Y-49299142D01*
X200936476Y-49337238D01*
X200860285Y-49337238D01*
X200784095Y-49299142D01*
X200746000Y-49261047D01*
X200707904Y-49184857D01*
X200707904Y-48994380D01*
X200746000Y-48880095D01*
X201507904Y-48422952D02*
X201469809Y-48499142D01*
X201431714Y-48537238D01*
X201355523Y-48575333D01*
X201126952Y-48575333D01*
X201050761Y-48537238D01*
X201012666Y-48499142D01*
X200974571Y-48422952D01*
X200974571Y-48308666D01*
X201012666Y-48232476D01*
X201050761Y-48194380D01*
X201126952Y-48156285D01*
X201355523Y-48156285D01*
X201431714Y-48194380D01*
X201469809Y-48232476D01*
X201507904Y-48308666D01*
X201507904Y-48422952D01*
X200974571Y-47470571D02*
X201507904Y-47470571D01*
X200974571Y-47813428D02*
X201393619Y-47813428D01*
X201469809Y-47775333D01*
X201507904Y-47699142D01*
X201507904Y-47584857D01*
X201469809Y-47508666D01*
X201431714Y-47470571D01*
X201507904Y-47089619D02*
X200974571Y-47089619D01*
X201126952Y-47089619D02*
X201050761Y-47051523D01*
X201012666Y-47013428D01*
X200974571Y-46937238D01*
X200974571Y-46861047D01*
X201469809Y-46251523D02*
X201507904Y-46327714D01*
X201507904Y-46480095D01*
X201469809Y-46556285D01*
X201431714Y-46594380D01*
X201355523Y-46632476D01*
X201126952Y-46632476D01*
X201050761Y-46594380D01*
X201012666Y-46556285D01*
X200974571Y-46480095D01*
X200974571Y-46327714D01*
X201012666Y-46251523D01*
X201469809Y-45603904D02*
X201507904Y-45680095D01*
X201507904Y-45832476D01*
X201469809Y-45908666D01*
X201393619Y-45946761D01*
X201088857Y-45946761D01*
X201012666Y-45908666D01*
X200974571Y-45832476D01*
X200974571Y-45680095D01*
X201012666Y-45603904D01*
X201088857Y-45565809D01*
X201165047Y-45565809D01*
X201241238Y-45946761D01*
X202857904Y-54880095D02*
X202057904Y-54880095D01*
X202057904Y-54689619D01*
X202096000Y-54575333D01*
X202172190Y-54499142D01*
X202248380Y-54461047D01*
X202400761Y-54422952D01*
X202515047Y-54422952D01*
X202667428Y-54461047D01*
X202743619Y-54499142D01*
X202819809Y-54575333D01*
X202857904Y-54689619D01*
X202857904Y-54880095D01*
X202819809Y-53775333D02*
X202857904Y-53851523D01*
X202857904Y-54003904D01*
X202819809Y-54080095D01*
X202743619Y-54118190D01*
X202438857Y-54118190D01*
X202362666Y-54080095D01*
X202324571Y-54003904D01*
X202324571Y-53851523D01*
X202362666Y-53775333D01*
X202438857Y-53737238D01*
X202515047Y-53737238D01*
X202591238Y-54118190D01*
X202819809Y-53432476D02*
X202857904Y-53356285D01*
X202857904Y-53203904D01*
X202819809Y-53127714D01*
X202743619Y-53089619D01*
X202705523Y-53089619D01*
X202629333Y-53127714D01*
X202591238Y-53203904D01*
X202591238Y-53318190D01*
X202553142Y-53394380D01*
X202476952Y-53432476D01*
X202438857Y-53432476D01*
X202362666Y-53394380D01*
X202324571Y-53318190D01*
X202324571Y-53203904D01*
X202362666Y-53127714D01*
X202857904Y-52746761D02*
X202324571Y-52746761D01*
X202057904Y-52746761D02*
X202096000Y-52784857D01*
X202134095Y-52746761D01*
X202096000Y-52708666D01*
X202057904Y-52746761D01*
X202134095Y-52746761D01*
X202324571Y-52022952D02*
X202972190Y-52022952D01*
X203048380Y-52061047D01*
X203086476Y-52099142D01*
X203124571Y-52175333D01*
X203124571Y-52289619D01*
X203086476Y-52365809D01*
X202819809Y-52022952D02*
X202857904Y-52099142D01*
X202857904Y-52251523D01*
X202819809Y-52327714D01*
X202781714Y-52365809D01*
X202705523Y-52403904D01*
X202476952Y-52403904D01*
X202400761Y-52365809D01*
X202362666Y-52327714D01*
X202324571Y-52251523D01*
X202324571Y-52099142D01*
X202362666Y-52022952D01*
X202324571Y-51642000D02*
X202857904Y-51642000D01*
X202400761Y-51642000D02*
X202362666Y-51603904D01*
X202324571Y-51527714D01*
X202324571Y-51413428D01*
X202362666Y-51337238D01*
X202438857Y-51299142D01*
X202857904Y-51299142D01*
X202819809Y-50613428D02*
X202857904Y-50689619D01*
X202857904Y-50842000D01*
X202819809Y-50918190D01*
X202743619Y-50956285D01*
X202438857Y-50956285D01*
X202362666Y-50918190D01*
X202324571Y-50842000D01*
X202324571Y-50689619D01*
X202362666Y-50613428D01*
X202438857Y-50575333D01*
X202515047Y-50575333D01*
X202591238Y-50956285D01*
X202857904Y-49889619D02*
X202057904Y-49889619D01*
X202819809Y-49889619D02*
X202857904Y-49965809D01*
X202857904Y-50118190D01*
X202819809Y-50194380D01*
X202781714Y-50232476D01*
X202705523Y-50270571D01*
X202476952Y-50270571D01*
X202400761Y-50232476D01*
X202362666Y-50194380D01*
X202324571Y-50118190D01*
X202324571Y-49965809D01*
X202362666Y-49889619D01*
X202324571Y-48975333D02*
X202857904Y-48822952D01*
X202476952Y-48670571D01*
X202857904Y-48518190D01*
X202324571Y-48365809D01*
X202857904Y-48061047D02*
X202324571Y-48061047D01*
X202057904Y-48061047D02*
X202096000Y-48099142D01*
X202134095Y-48061047D01*
X202096000Y-48022952D01*
X202057904Y-48061047D01*
X202134095Y-48061047D01*
X202324571Y-47794380D02*
X202324571Y-47489619D01*
X202057904Y-47680095D02*
X202743619Y-47680095D01*
X202819809Y-47642000D01*
X202857904Y-47565809D01*
X202857904Y-47489619D01*
X202857904Y-47222952D02*
X202057904Y-47222952D01*
X202857904Y-46880095D02*
X202438857Y-46880095D01*
X202362666Y-46918190D01*
X202324571Y-46994380D01*
X202324571Y-47108666D01*
X202362666Y-47184857D01*
X202400761Y-47222952D01*
X202857904Y-45508666D02*
X202857904Y-45889619D01*
X202057904Y-45889619D01*
X202857904Y-45127714D02*
X202819809Y-45203904D01*
X202781714Y-45242000D01*
X202705523Y-45280095D01*
X202476952Y-45280095D01*
X202400761Y-45242000D01*
X202362666Y-45203904D01*
X202324571Y-45127714D01*
X202324571Y-45013428D01*
X202362666Y-44937238D01*
X202400761Y-44899142D01*
X202476952Y-44861047D01*
X202705523Y-44861047D01*
X202781714Y-44899142D01*
X202819809Y-44937238D01*
X202857904Y-45013428D01*
X202857904Y-45127714D01*
X202324571Y-44594380D02*
X202857904Y-44403904D01*
X202324571Y-44213428D01*
X202819809Y-43603904D02*
X202857904Y-43680095D01*
X202857904Y-43832476D01*
X202819809Y-43908666D01*
X202743619Y-43946761D01*
X202438857Y-43946761D01*
X202362666Y-43908666D01*
X202324571Y-43832476D01*
X202324571Y-43680095D01*
X202362666Y-43603904D01*
X202438857Y-43565809D01*
X202515047Y-43565809D01*
X202591238Y-43946761D01*
X204207904Y-55394380D02*
X204207904Y-55432476D01*
X204169809Y-55508666D01*
X204055523Y-55622952D01*
X203826952Y-55813428D01*
X203712666Y-55889619D01*
X203598380Y-55927714D01*
X203522190Y-55927714D01*
X203446000Y-55889619D01*
X203407904Y-55813428D01*
X203407904Y-55775333D01*
X203446000Y-55699142D01*
X203522190Y-55661047D01*
X203560285Y-55661047D01*
X203636476Y-55699142D01*
X203674571Y-55737238D01*
X203826952Y-55965809D01*
X203865047Y-56003904D01*
X203941238Y-56042000D01*
X204055523Y-56042000D01*
X204131714Y-56003904D01*
X204169809Y-55965809D01*
X204207904Y-55889619D01*
X204207904Y-55775333D01*
X204169809Y-55699142D01*
X204131714Y-55661047D01*
X203979333Y-55546761D01*
X203865047Y-55508666D01*
X203788857Y-55508666D01*
X203788857Y-54784857D02*
X203826952Y-54670571D01*
X203865047Y-54632476D01*
X203941238Y-54594380D01*
X204055523Y-54594380D01*
X204131714Y-54632476D01*
X204169809Y-54670571D01*
X204207904Y-54746761D01*
X204207904Y-55051523D01*
X203407904Y-55051523D01*
X203407904Y-54784857D01*
X203446000Y-54708666D01*
X203484095Y-54670571D01*
X203560285Y-54632476D01*
X203636476Y-54632476D01*
X203712666Y-54670571D01*
X203750761Y-54708666D01*
X203788857Y-54784857D01*
X203788857Y-55051523D01*
X204207904Y-53908666D02*
X203788857Y-53908666D01*
X203712666Y-53946761D01*
X203674571Y-54022952D01*
X203674571Y-54175333D01*
X203712666Y-54251523D01*
X204169809Y-53908666D02*
X204207904Y-53984857D01*
X204207904Y-54175333D01*
X204169809Y-54251523D01*
X204093619Y-54289619D01*
X204017428Y-54289619D01*
X203941238Y-54251523D01*
X203903142Y-54175333D01*
X203903142Y-53984857D01*
X203865047Y-53908666D01*
X204169809Y-53565809D02*
X204207904Y-53489619D01*
X204207904Y-53337238D01*
X204169809Y-53261047D01*
X204093619Y-53222952D01*
X204055523Y-53222952D01*
X203979333Y-53261047D01*
X203941238Y-53337238D01*
X203941238Y-53451523D01*
X203903142Y-53527714D01*
X203826952Y-53565809D01*
X203788857Y-53565809D01*
X203712666Y-53527714D01*
X203674571Y-53451523D01*
X203674571Y-53337238D01*
X203712666Y-53261047D01*
X204169809Y-52575333D02*
X204207904Y-52651523D01*
X204207904Y-52803904D01*
X204169809Y-52880095D01*
X204093619Y-52918190D01*
X203788857Y-52918190D01*
X203712666Y-52880095D01*
X203674571Y-52803904D01*
X203674571Y-52651523D01*
X203712666Y-52575333D01*
X203788857Y-52537238D01*
X203865047Y-52537238D01*
X203941238Y-52918190D01*
X204207904Y-51851523D02*
X203407904Y-51851523D01*
X204169809Y-51851523D02*
X204207904Y-51927714D01*
X204207904Y-52080095D01*
X204169809Y-52156285D01*
X204131714Y-52194380D01*
X204055523Y-52232476D01*
X203826952Y-52232476D01*
X203750761Y-52194380D01*
X203712666Y-52156285D01*
X203674571Y-52080095D01*
X203674571Y-51927714D01*
X203712666Y-51851523D01*
X204207904Y-50746761D02*
X204169809Y-50822952D01*
X204131714Y-50861047D01*
X204055523Y-50899142D01*
X203826952Y-50899142D01*
X203750761Y-50861047D01*
X203712666Y-50822952D01*
X203674571Y-50746761D01*
X203674571Y-50632476D01*
X203712666Y-50556285D01*
X203750761Y-50518190D01*
X203826952Y-50480095D01*
X204055523Y-50480095D01*
X204131714Y-50518190D01*
X204169809Y-50556285D01*
X204207904Y-50632476D01*
X204207904Y-50746761D01*
X203674571Y-50137238D02*
X204207904Y-50137238D01*
X203750761Y-50137238D02*
X203712666Y-50099142D01*
X203674571Y-50022952D01*
X203674571Y-49908666D01*
X203712666Y-49832476D01*
X203788857Y-49794380D01*
X204207904Y-49794380D01*
X204207904Y-48803904D02*
X203674571Y-48803904D01*
X203750761Y-48803904D02*
X203712666Y-48765809D01*
X203674571Y-48689619D01*
X203674571Y-48575333D01*
X203712666Y-48499142D01*
X203788857Y-48461047D01*
X204207904Y-48461047D01*
X203788857Y-48461047D02*
X203712666Y-48422952D01*
X203674571Y-48346761D01*
X203674571Y-48232476D01*
X203712666Y-48156285D01*
X203788857Y-48118190D01*
X204207904Y-48118190D01*
X204207904Y-47622952D02*
X204169809Y-47699142D01*
X204131714Y-47737238D01*
X204055523Y-47775333D01*
X203826952Y-47775333D01*
X203750761Y-47737238D01*
X203712666Y-47699142D01*
X203674571Y-47622952D01*
X203674571Y-47508666D01*
X203712666Y-47432476D01*
X203750761Y-47394380D01*
X203826952Y-47356285D01*
X204055523Y-47356285D01*
X204131714Y-47394380D01*
X204169809Y-47432476D01*
X204207904Y-47508666D01*
X204207904Y-47622952D01*
X204169809Y-47051523D02*
X204207904Y-46975333D01*
X204207904Y-46822952D01*
X204169809Y-46746761D01*
X204093619Y-46708666D01*
X204055523Y-46708666D01*
X203979333Y-46746761D01*
X203941238Y-46822952D01*
X203941238Y-46937238D01*
X203903142Y-47013428D01*
X203826952Y-47051523D01*
X203788857Y-47051523D01*
X203712666Y-47013428D01*
X203674571Y-46937238D01*
X203674571Y-46822952D01*
X203712666Y-46746761D01*
X204207904Y-46022952D02*
X203788857Y-46022952D01*
X203712666Y-46061047D01*
X203674571Y-46137238D01*
X203674571Y-46289619D01*
X203712666Y-46365809D01*
X204169809Y-46022952D02*
X204207904Y-46099142D01*
X204207904Y-46289619D01*
X204169809Y-46365809D01*
X204093619Y-46403904D01*
X204017428Y-46403904D01*
X203941238Y-46365809D01*
X203903142Y-46289619D01*
X203903142Y-46099142D01*
X203865047Y-46022952D01*
X204207904Y-45642000D02*
X203674571Y-45642000D01*
X203407904Y-45642000D02*
X203446000Y-45680095D01*
X203484095Y-45642000D01*
X203446000Y-45603904D01*
X203407904Y-45642000D01*
X203484095Y-45642000D01*
X204169809Y-44918190D02*
X204207904Y-44994380D01*
X204207904Y-45146761D01*
X204169809Y-45222952D01*
X204131714Y-45261047D01*
X204055523Y-45299142D01*
X203826952Y-45299142D01*
X203750761Y-45261047D01*
X203712666Y-45222952D01*
X203674571Y-45146761D01*
X203674571Y-44994380D01*
X203712666Y-44918190D01*
X203903142Y-44575333D02*
X203903142Y-43965809D01*
X203407904Y-43661047D02*
X204207904Y-43127714D01*
X203407904Y-43127714D02*
X204207904Y-43661047D01*
X203407904Y-42442000D02*
X203407904Y-42822952D01*
X203788857Y-42861047D01*
X203750761Y-42822952D01*
X203712666Y-42746761D01*
X203712666Y-42556285D01*
X203750761Y-42480095D01*
X203788857Y-42442000D01*
X203865047Y-42403904D01*
X204055523Y-42403904D01*
X204131714Y-42442000D01*
X204169809Y-42480095D01*
X204207904Y-42556285D01*
X204207904Y-42746761D01*
X204169809Y-42822952D01*
X204131714Y-42861047D01*
X179520857Y-51580571D02*
X179520857Y-51847238D01*
X179939904Y-51847238D02*
X179139904Y-51847238D01*
X179139904Y-51466285D01*
X179139904Y-51275809D02*
X179139904Y-50818666D01*
X179939904Y-51047238D02*
X179139904Y-51047238D01*
X179939904Y-50552000D02*
X179139904Y-50552000D01*
X179139904Y-50361523D01*
X179178000Y-50247238D01*
X179254190Y-50171047D01*
X179330380Y-50132952D01*
X179482761Y-50094857D01*
X179597047Y-50094857D01*
X179749428Y-50132952D01*
X179825619Y-50171047D01*
X179901809Y-50247238D01*
X179939904Y-50361523D01*
X179939904Y-50552000D01*
X179939904Y-49752000D02*
X179139904Y-49752000D01*
X179939904Y-48761523D02*
X179139904Y-48761523D01*
X179139904Y-48456761D01*
X179178000Y-48380571D01*
X179216095Y-48342476D01*
X179292285Y-48304380D01*
X179406571Y-48304380D01*
X179482761Y-48342476D01*
X179520857Y-48380571D01*
X179558952Y-48456761D01*
X179558952Y-48761523D01*
X179139904Y-48037714D02*
X179939904Y-47847238D01*
X179368476Y-47694857D01*
X179939904Y-47542476D01*
X179139904Y-47352000D01*
X179939904Y-46590095D02*
X179558952Y-46856761D01*
X179939904Y-47047238D02*
X179139904Y-47047238D01*
X179139904Y-46742476D01*
X179178000Y-46666285D01*
X179216095Y-46628190D01*
X179292285Y-46590095D01*
X179406571Y-46590095D01*
X179482761Y-46628190D01*
X179520857Y-46666285D01*
X179558952Y-46742476D01*
X179558952Y-47047238D01*
X179901809Y-45675809D02*
X179939904Y-45561523D01*
X179939904Y-45371047D01*
X179901809Y-45294857D01*
X179863714Y-45256761D01*
X179787523Y-45218666D01*
X179711333Y-45218666D01*
X179635142Y-45256761D01*
X179597047Y-45294857D01*
X179558952Y-45371047D01*
X179520857Y-45523428D01*
X179482761Y-45599619D01*
X179444666Y-45637714D01*
X179368476Y-45675809D01*
X179292285Y-45675809D01*
X179216095Y-45637714D01*
X179178000Y-45599619D01*
X179139904Y-45523428D01*
X179139904Y-45332952D01*
X179178000Y-45218666D01*
X179939904Y-44418666D02*
X179558952Y-44685333D01*
X179939904Y-44875809D02*
X179139904Y-44875809D01*
X179139904Y-44571047D01*
X179178000Y-44494857D01*
X179216095Y-44456761D01*
X179292285Y-44418666D01*
X179406571Y-44418666D01*
X179482761Y-44456761D01*
X179520857Y-44494857D01*
X179558952Y-44571047D01*
X179558952Y-44875809D01*
X179863714Y-43618666D02*
X179901809Y-43656761D01*
X179939904Y-43771047D01*
X179939904Y-43847238D01*
X179901809Y-43961523D01*
X179825619Y-44037714D01*
X179749428Y-44075809D01*
X179597047Y-44113904D01*
X179482761Y-44113904D01*
X179330380Y-44075809D01*
X179254190Y-44037714D01*
X179178000Y-43961523D01*
X179139904Y-43847238D01*
X179139904Y-43771047D01*
X179178000Y-43656761D01*
X179216095Y-43618666D01*
X126933333Y-54661904D02*
X126933333Y-54280952D01*
X127161904Y-54738095D02*
X126361904Y-54471428D01*
X127161904Y-54204761D01*
X127161904Y-53938095D02*
X126361904Y-53938095D01*
X127161904Y-53480952D01*
X126361904Y-53480952D01*
X126361904Y-53214285D02*
X126361904Y-52757142D01*
X127161904Y-52985714D02*
X126361904Y-52985714D01*
X127161904Y-51880952D02*
X126361904Y-51880952D01*
X126361904Y-51576190D01*
X126400000Y-51500000D01*
X126438095Y-51461904D01*
X126514285Y-51423809D01*
X126628571Y-51423809D01*
X126704761Y-51461904D01*
X126742857Y-51500000D01*
X126780952Y-51576190D01*
X126780952Y-51880952D01*
X126361904Y-51157142D02*
X127161904Y-50966666D01*
X126590476Y-50814285D01*
X127161904Y-50661904D01*
X126361904Y-50471428D01*
X127161904Y-49709523D02*
X126780952Y-49976190D01*
X127161904Y-50166666D02*
X126361904Y-50166666D01*
X126361904Y-49861904D01*
X126400000Y-49785714D01*
X126438095Y-49747619D01*
X126514285Y-49709523D01*
X126628571Y-49709523D01*
X126704761Y-49747619D01*
X126742857Y-49785714D01*
X126780952Y-49861904D01*
X126780952Y-50166666D01*
X127123809Y-48795238D02*
X127161904Y-48680952D01*
X127161904Y-48490476D01*
X127123809Y-48414285D01*
X127085714Y-48376190D01*
X127009523Y-48338095D01*
X126933333Y-48338095D01*
X126857142Y-48376190D01*
X126819047Y-48414285D01*
X126780952Y-48490476D01*
X126742857Y-48642857D01*
X126704761Y-48719047D01*
X126666666Y-48757142D01*
X126590476Y-48795238D01*
X126514285Y-48795238D01*
X126438095Y-48757142D01*
X126400000Y-48719047D01*
X126361904Y-48642857D01*
X126361904Y-48452380D01*
X126400000Y-48338095D01*
X127161904Y-47538095D02*
X126780952Y-47804761D01*
X127161904Y-47995238D02*
X126361904Y-47995238D01*
X126361904Y-47690476D01*
X126400000Y-47614285D01*
X126438095Y-47576190D01*
X126514285Y-47538095D01*
X126628571Y-47538095D01*
X126704761Y-47576190D01*
X126742857Y-47614285D01*
X126780952Y-47690476D01*
X126780952Y-47995238D01*
X127085714Y-46738095D02*
X127123809Y-46776190D01*
X127161904Y-46890476D01*
X127161904Y-46966666D01*
X127123809Y-47080952D01*
X127047619Y-47157142D01*
X126971428Y-47195238D01*
X126819047Y-47233333D01*
X126704761Y-47233333D01*
X126552380Y-47195238D01*
X126476190Y-47157142D01*
X126400000Y-47080952D01*
X126361904Y-46966666D01*
X126361904Y-46890476D01*
X126400000Y-46776190D01*
X126438095Y-46738095D01*
X192365904Y-48383333D02*
X191984952Y-48650000D01*
X192365904Y-48840476D02*
X191565904Y-48840476D01*
X191565904Y-48535714D01*
X191604000Y-48459523D01*
X191642095Y-48421428D01*
X191718285Y-48383333D01*
X191832571Y-48383333D01*
X191908761Y-48421428D01*
X191946857Y-48459523D01*
X191984952Y-48535714D01*
X191984952Y-48840476D01*
X191565904Y-48116666D02*
X192365904Y-47583333D01*
X191565904Y-47583333D02*
X192365904Y-48116666D01*
X191565904Y-46816666D02*
X192365904Y-46550000D01*
X191565904Y-46283333D01*
X192289714Y-45559523D02*
X192327809Y-45597619D01*
X192365904Y-45711904D01*
X192365904Y-45788095D01*
X192327809Y-45902380D01*
X192251619Y-45978571D01*
X192175428Y-46016666D01*
X192023047Y-46054761D01*
X191908761Y-46054761D01*
X191756380Y-46016666D01*
X191680190Y-45978571D01*
X191604000Y-45902380D01*
X191565904Y-45788095D01*
X191565904Y-45711904D01*
X191604000Y-45597619D01*
X191642095Y-45559523D01*
X192289714Y-44759523D02*
X192327809Y-44797619D01*
X192365904Y-44911904D01*
X192365904Y-44988095D01*
X192327809Y-45102380D01*
X192251619Y-45178571D01*
X192175428Y-45216666D01*
X192023047Y-45254761D01*
X191908761Y-45254761D01*
X191756380Y-45216666D01*
X191680190Y-45178571D01*
X191604000Y-45102380D01*
X191565904Y-44988095D01*
X191565904Y-44911904D01*
X191604000Y-44797619D01*
X191642095Y-44759523D01*
X180411904Y-44116666D02*
X181211904Y-43850000D01*
X180411904Y-43583333D01*
X181135714Y-42859523D02*
X181173809Y-42897619D01*
X181211904Y-43011904D01*
X181211904Y-43088095D01*
X181173809Y-43202380D01*
X181097619Y-43278571D01*
X181021428Y-43316666D01*
X180869047Y-43354761D01*
X180754761Y-43354761D01*
X180602380Y-43316666D01*
X180526190Y-43278571D01*
X180450000Y-43202380D01*
X180411904Y-43088095D01*
X180411904Y-43011904D01*
X180450000Y-42897619D01*
X180488095Y-42859523D01*
X181135714Y-42059523D02*
X181173809Y-42097619D01*
X181211904Y-42211904D01*
X181211904Y-42288095D01*
X181173809Y-42402380D01*
X181097619Y-42478571D01*
X181021428Y-42516666D01*
X180869047Y-42554761D01*
X180754761Y-42554761D01*
X180602380Y-42516666D01*
X180526190Y-42478571D01*
X180450000Y-42402380D01*
X180411904Y-42288095D01*
X180411904Y-42211904D01*
X180450000Y-42097619D01*
X180488095Y-42059523D01*
X180411904Y-41540476D02*
X180411904Y-41045238D01*
X180716666Y-41311904D01*
X180716666Y-41197619D01*
X180754761Y-41121428D01*
X180792857Y-41083333D01*
X180869047Y-41045238D01*
X181059523Y-41045238D01*
X181135714Y-41083333D01*
X181173809Y-41121428D01*
X181211904Y-41197619D01*
X181211904Y-41426190D01*
X181173809Y-41502380D01*
X181135714Y-41540476D01*
X180411904Y-40816666D02*
X181211904Y-40550000D01*
X180411904Y-40283333D01*
X180411904Y-40092857D02*
X180411904Y-39597619D01*
X180716666Y-39864285D01*
X180716666Y-39750000D01*
X180754761Y-39673809D01*
X180792857Y-39635714D01*
X180869047Y-39597619D01*
X181059523Y-39597619D01*
X181135714Y-39635714D01*
X181173809Y-39673809D01*
X181211904Y-39750000D01*
X181211904Y-39978571D01*
X181173809Y-40054761D01*
X181135714Y-40092857D01*
X180411904Y-45502380D02*
X180411904Y-45883333D01*
X180792857Y-45921428D01*
X180754761Y-45883333D01*
X180716666Y-45807142D01*
X180716666Y-45616666D01*
X180754761Y-45540476D01*
X180792857Y-45502380D01*
X180869047Y-45464285D01*
X181059523Y-45464285D01*
X181135714Y-45502380D01*
X181173809Y-45540476D01*
X181211904Y-45616666D01*
X181211904Y-45807142D01*
X181173809Y-45883333D01*
X181135714Y-45921428D01*
X180411904Y-45235714D02*
X181211904Y-44969047D01*
X180411904Y-44702380D01*
X160928571Y-74361904D02*
X160547619Y-74361904D01*
X160547619Y-73561904D01*
X161347619Y-73561904D02*
X161500000Y-73561904D01*
X161576190Y-73600000D01*
X161652380Y-73676190D01*
X161690476Y-73828571D01*
X161690476Y-74095238D01*
X161652380Y-74247619D01*
X161576190Y-74323809D01*
X161500000Y-74361904D01*
X161347619Y-74361904D01*
X161271428Y-74323809D01*
X161195238Y-74247619D01*
X161157142Y-74095238D01*
X161157142Y-73828571D01*
X161195238Y-73676190D01*
X161271428Y-73600000D01*
X161347619Y-73561904D01*
X162452380Y-73600000D02*
X162376190Y-73561904D01*
X162261904Y-73561904D01*
X162147619Y-73600000D01*
X162071428Y-73676190D01*
X162033333Y-73752380D01*
X161995238Y-73904761D01*
X161995238Y-74019047D01*
X162033333Y-74171428D01*
X162071428Y-74247619D01*
X162147619Y-74323809D01*
X162261904Y-74361904D01*
X162338095Y-74361904D01*
X162452380Y-74323809D01*
X162490476Y-74285714D01*
X162490476Y-74019047D01*
X162338095Y-74019047D01*
X154885714Y-73600000D02*
X154809523Y-73561904D01*
X154695238Y-73561904D01*
X154580952Y-73600000D01*
X154504761Y-73676190D01*
X154466666Y-73752380D01*
X154428571Y-73904761D01*
X154428571Y-74019047D01*
X154466666Y-74171428D01*
X154504761Y-74247619D01*
X154580952Y-74323809D01*
X154695238Y-74361904D01*
X154771428Y-74361904D01*
X154885714Y-74323809D01*
X154923809Y-74285714D01*
X154923809Y-74019047D01*
X154771428Y-74019047D01*
X155647619Y-74361904D02*
X155266666Y-74361904D01*
X155266666Y-73561904D01*
X130397619Y-52611904D02*
X130016666Y-52611904D01*
X129978571Y-52992857D01*
X130016666Y-52954761D01*
X130092857Y-52916666D01*
X130283333Y-52916666D01*
X130359523Y-52954761D01*
X130397619Y-52992857D01*
X130435714Y-53069047D01*
X130435714Y-53259523D01*
X130397619Y-53335714D01*
X130359523Y-53373809D01*
X130283333Y-53411904D01*
X130092857Y-53411904D01*
X130016666Y-53373809D01*
X129978571Y-53335714D01*
X130664285Y-52611904D02*
X130930952Y-53411904D01*
X131197619Y-52611904D01*
X129866666Y-50461904D02*
X130133333Y-51261904D01*
X130400000Y-50461904D01*
X130628571Y-51033333D02*
X131009523Y-51033333D01*
X130552380Y-51261904D02*
X130819047Y-50461904D01*
X131085714Y-51261904D01*
X131352380Y-51261904D02*
X131352380Y-50461904D01*
X131809523Y-51261904D01*
X131809523Y-50461904D01*
X132076190Y-50461904D02*
X132533333Y-50461904D01*
X132304761Y-51261904D02*
X132304761Y-50461904D01*
D10*
G36*
X169610000Y-62000000D02*
G01*
X168600000Y-62000000D01*
X168600000Y-61690000D01*
X169610000Y-61690000D01*
X169610000Y-62000000D01*
G37*
X169610000Y-62000000D02*
X168600000Y-62000000D01*
X168600000Y-61690000D01*
X169610000Y-61690000D01*
X169610000Y-62000000D01*
G36*
X167540000Y-64480000D02*
G01*
X166720000Y-64480000D01*
X166720000Y-63550000D01*
X167540000Y-63550000D01*
X167540000Y-64480000D01*
G37*
X167540000Y-64480000D02*
X166720000Y-64480000D01*
X166720000Y-63550000D01*
X167540000Y-63550000D01*
X167540000Y-64480000D01*
G36*
X168910000Y-64460000D02*
G01*
X167050000Y-64460000D01*
X167050000Y-63510000D01*
X168910000Y-63510000D01*
X168910000Y-64460000D01*
G37*
X168910000Y-64460000D02*
X167050000Y-64460000D01*
X167050000Y-63510000D01*
X168910000Y-63510000D01*
X168910000Y-64460000D01*
G36*
X169600000Y-64470000D02*
G01*
X168590000Y-64470000D01*
X168590000Y-61940000D01*
X169600000Y-61940000D01*
X169600000Y-64470000D01*
G37*
X169600000Y-64470000D02*
X168590000Y-64470000D01*
X168590000Y-61940000D01*
X169600000Y-61940000D01*
X169600000Y-64470000D01*
D12*
X136763333Y-46336666D02*
X137230000Y-46336666D01*
X137163333Y-46336666D02*
X137196666Y-46370000D01*
X137230000Y-46436666D01*
X137230000Y-46536666D01*
X137196666Y-46603333D01*
X137130000Y-46636666D01*
X136763333Y-46636666D01*
X137130000Y-46636666D02*
X137196666Y-46670000D01*
X137230000Y-46736666D01*
X137230000Y-46836666D01*
X137196666Y-46903333D01*
X137130000Y-46936666D01*
X136763333Y-46936666D01*
X136763333Y-47370000D02*
X136796666Y-47303333D01*
X136830000Y-47270000D01*
X136896666Y-47236666D01*
X137096666Y-47236666D01*
X137163333Y-47270000D01*
X137196666Y-47303333D01*
X137230000Y-47370000D01*
X137230000Y-47470000D01*
X137196666Y-47536666D01*
X137163333Y-47570000D01*
X137096666Y-47603333D01*
X136896666Y-47603333D01*
X136830000Y-47570000D01*
X136796666Y-47536666D01*
X136763333Y-47470000D01*
X136763333Y-47370000D01*
X136796666Y-47870000D02*
X136763333Y-47936666D01*
X136763333Y-48070000D01*
X136796666Y-48136666D01*
X136863333Y-48170000D01*
X136896666Y-48170000D01*
X136963333Y-48136666D01*
X136996666Y-48070000D01*
X136996666Y-47970000D01*
X137030000Y-47903333D01*
X137096666Y-47870000D01*
X137130000Y-47870000D01*
X137196666Y-47903333D01*
X137230000Y-47970000D01*
X137230000Y-48070000D01*
X137196666Y-48136666D01*
X136763333Y-48770000D02*
X137130000Y-48770000D01*
X137196666Y-48736666D01*
X137230000Y-48670000D01*
X137230000Y-48536666D01*
X137196666Y-48470000D01*
X136796666Y-48770000D02*
X136763333Y-48703333D01*
X136763333Y-48536666D01*
X136796666Y-48470000D01*
X136863333Y-48436666D01*
X136930000Y-48436666D01*
X136996666Y-48470000D01*
X137030000Y-48536666D01*
X137030000Y-48703333D01*
X137063333Y-48770000D01*
X136763333Y-49103333D02*
X137230000Y-49103333D01*
X137463333Y-49103333D02*
X137430000Y-49070000D01*
X137396666Y-49103333D01*
X137430000Y-49136666D01*
X137463333Y-49103333D01*
X137396666Y-49103333D01*
X136796666Y-49736666D02*
X136763333Y-49670000D01*
X136763333Y-49536666D01*
X136796666Y-49470000D01*
X136830000Y-49436666D01*
X136896666Y-49403333D01*
X137096666Y-49403333D01*
X137163333Y-49436666D01*
X137196666Y-49470000D01*
X137230000Y-49536666D01*
X137230000Y-49670000D01*
X137196666Y-49736666D01*
X154753333Y-31673333D02*
X154753333Y-32140000D01*
X154753333Y-32073333D02*
X154720000Y-32106666D01*
X154653333Y-32140000D01*
X154553333Y-32140000D01*
X154486666Y-32106666D01*
X154453333Y-32040000D01*
X154453333Y-31673333D01*
X154453333Y-32040000D02*
X154420000Y-32106666D01*
X154353333Y-32140000D01*
X154253333Y-32140000D01*
X154186666Y-32106666D01*
X154153333Y-32040000D01*
X154153333Y-31673333D01*
X153720000Y-31673333D02*
X153786666Y-31706666D01*
X153820000Y-31740000D01*
X153853333Y-31806666D01*
X153853333Y-32006666D01*
X153820000Y-32073333D01*
X153786666Y-32106666D01*
X153720000Y-32140000D01*
X153620000Y-32140000D01*
X153553333Y-32106666D01*
X153520000Y-32073333D01*
X153486666Y-32006666D01*
X153486666Y-31806666D01*
X153520000Y-31740000D01*
X153553333Y-31706666D01*
X153620000Y-31673333D01*
X153720000Y-31673333D01*
X153220000Y-31706666D02*
X153153333Y-31673333D01*
X153020000Y-31673333D01*
X152953333Y-31706666D01*
X152920000Y-31773333D01*
X152920000Y-31806666D01*
X152953333Y-31873333D01*
X153020000Y-31906666D01*
X153120000Y-31906666D01*
X153186666Y-31940000D01*
X153220000Y-32006666D01*
X153220000Y-32040000D01*
X153186666Y-32106666D01*
X153120000Y-32140000D01*
X153020000Y-32140000D01*
X152953333Y-32106666D01*
X152320000Y-31673333D02*
X152320000Y-32040000D01*
X152353333Y-32106666D01*
X152420000Y-32140000D01*
X152553333Y-32140000D01*
X152620000Y-32106666D01*
X152320000Y-31706666D02*
X152386666Y-31673333D01*
X152553333Y-31673333D01*
X152620000Y-31706666D01*
X152653333Y-31773333D01*
X152653333Y-31840000D01*
X152620000Y-31906666D01*
X152553333Y-31940000D01*
X152386666Y-31940000D01*
X152320000Y-31973333D01*
X151986666Y-31673333D02*
X151986666Y-32140000D01*
X151986666Y-32373333D02*
X152020000Y-32340000D01*
X151986666Y-32306666D01*
X151953333Y-32340000D01*
X151986666Y-32373333D01*
X151986666Y-32306666D01*
X151353333Y-31706666D02*
X151420000Y-31673333D01*
X151553333Y-31673333D01*
X151620000Y-31706666D01*
X151653333Y-31740000D01*
X151686666Y-31806666D01*
X151686666Y-32006666D01*
X151653333Y-32073333D01*
X151620000Y-32106666D01*
X151553333Y-32140000D01*
X151420000Y-32140000D01*
X151353333Y-32106666D01*
X169426666Y-49743333D02*
X168960000Y-49743333D01*
X169026666Y-49743333D02*
X168993333Y-49710000D01*
X168960000Y-49643333D01*
X168960000Y-49543333D01*
X168993333Y-49476666D01*
X169060000Y-49443333D01*
X169426666Y-49443333D01*
X169060000Y-49443333D02*
X168993333Y-49410000D01*
X168960000Y-49343333D01*
X168960000Y-49243333D01*
X168993333Y-49176666D01*
X169060000Y-49143333D01*
X169426666Y-49143333D01*
X169426666Y-48710000D02*
X169393333Y-48776666D01*
X169360000Y-48810000D01*
X169293333Y-48843333D01*
X169093333Y-48843333D01*
X169026666Y-48810000D01*
X168993333Y-48776666D01*
X168960000Y-48710000D01*
X168960000Y-48610000D01*
X168993333Y-48543333D01*
X169026666Y-48510000D01*
X169093333Y-48476666D01*
X169293333Y-48476666D01*
X169360000Y-48510000D01*
X169393333Y-48543333D01*
X169426666Y-48610000D01*
X169426666Y-48710000D01*
X169393333Y-48210000D02*
X169426666Y-48143333D01*
X169426666Y-48010000D01*
X169393333Y-47943333D01*
X169326666Y-47910000D01*
X169293333Y-47910000D01*
X169226666Y-47943333D01*
X169193333Y-48010000D01*
X169193333Y-48110000D01*
X169160000Y-48176666D01*
X169093333Y-48210000D01*
X169060000Y-48210000D01*
X168993333Y-48176666D01*
X168960000Y-48110000D01*
X168960000Y-48010000D01*
X168993333Y-47943333D01*
X169426666Y-47310000D02*
X169060000Y-47310000D01*
X168993333Y-47343333D01*
X168960000Y-47410000D01*
X168960000Y-47543333D01*
X168993333Y-47610000D01*
X169393333Y-47310000D02*
X169426666Y-47376666D01*
X169426666Y-47543333D01*
X169393333Y-47610000D01*
X169326666Y-47643333D01*
X169260000Y-47643333D01*
X169193333Y-47610000D01*
X169160000Y-47543333D01*
X169160000Y-47376666D01*
X169126666Y-47310000D01*
X169426666Y-46976666D02*
X168960000Y-46976666D01*
X168726666Y-46976666D02*
X168760000Y-47010000D01*
X168793333Y-46976666D01*
X168760000Y-46943333D01*
X168726666Y-46976666D01*
X168793333Y-46976666D01*
X169393333Y-46343333D02*
X169426666Y-46410000D01*
X169426666Y-46543333D01*
X169393333Y-46610000D01*
X169360000Y-46643333D01*
X169293333Y-46676666D01*
X169093333Y-46676666D01*
X169026666Y-46643333D01*
X168993333Y-46610000D01*
X168960000Y-46543333D01*
X168960000Y-46410000D01*
X168993333Y-46343333D01*
X129609523Y-48361904D02*
X130104761Y-48361904D01*
X129838095Y-48666666D01*
X129952380Y-48666666D01*
X130028571Y-48704761D01*
X130066666Y-48742857D01*
X130104761Y-48819047D01*
X130104761Y-49009523D01*
X130066666Y-49085714D01*
X130028571Y-49123809D01*
X129952380Y-49161904D01*
X129723809Y-49161904D01*
X129647619Y-49123809D01*
X129609523Y-49085714D01*
X130333333Y-48361904D02*
X130600000Y-49161904D01*
X130866666Y-48361904D01*
X131057142Y-48361904D02*
X131552380Y-48361904D01*
X131285714Y-48666666D01*
X131400000Y-48666666D01*
X131476190Y-48704761D01*
X131514285Y-48742857D01*
X131552380Y-48819047D01*
X131552380Y-49009523D01*
X131514285Y-49085714D01*
X131476190Y-49123809D01*
X131400000Y-49161904D01*
X131171428Y-49161904D01*
X131095238Y-49123809D01*
X131057142Y-49085714D01*
X187054000Y-41609523D02*
X187015904Y-41685714D01*
X187015904Y-41800000D01*
X187054000Y-41914285D01*
X187130190Y-41990476D01*
X187206380Y-42028571D01*
X187358761Y-42066666D01*
X187473047Y-42066666D01*
X187625428Y-42028571D01*
X187701619Y-41990476D01*
X187777809Y-41914285D01*
X187815904Y-41800000D01*
X187815904Y-41723809D01*
X187777809Y-41609523D01*
X187739714Y-41571428D01*
X187473047Y-41571428D01*
X187473047Y-41723809D01*
X187815904Y-41228571D02*
X187015904Y-41228571D01*
X187815904Y-40771428D01*
X187015904Y-40771428D01*
X187815904Y-40390476D02*
X187015904Y-40390476D01*
X187015904Y-40200000D01*
X187054000Y-40085714D01*
X187130190Y-40009523D01*
X187206380Y-39971428D01*
X187358761Y-39933333D01*
X187473047Y-39933333D01*
X187625428Y-39971428D01*
X187701619Y-40009523D01*
X187777809Y-40085714D01*
X187815904Y-40200000D01*
X187815904Y-40390476D01*
X187815904Y-44590476D02*
X187015904Y-44590476D01*
X187015904Y-44285714D01*
X187054000Y-44209523D01*
X187092095Y-44171428D01*
X187168285Y-44133333D01*
X187282571Y-44133333D01*
X187358761Y-44171428D01*
X187396857Y-44209523D01*
X187434952Y-44285714D01*
X187434952Y-44590476D01*
X187815904Y-43790476D02*
X187015904Y-43790476D01*
X187015904Y-43485714D01*
X187054000Y-43409523D01*
X187092095Y-43371428D01*
X187168285Y-43333333D01*
X187282571Y-43333333D01*
X187358761Y-43371428D01*
X187396857Y-43409523D01*
X187434952Y-43485714D01*
X187434952Y-43790476D01*
X187777809Y-43028571D02*
X187815904Y-42914285D01*
X187815904Y-42723809D01*
X187777809Y-42647619D01*
X187739714Y-42609523D01*
X187663523Y-42571428D01*
X187587333Y-42571428D01*
X187511142Y-42609523D01*
X187473047Y-42647619D01*
X187434952Y-42723809D01*
X187396857Y-42876190D01*
X187358761Y-42952380D01*
X187320666Y-42990476D01*
X187244476Y-43028571D01*
X187168285Y-43028571D01*
X187092095Y-42990476D01*
X187054000Y-42952380D01*
X187015904Y-42876190D01*
X187015904Y-42685714D01*
X187054000Y-42571428D01*
X187396857Y-47076190D02*
X187396857Y-46809523D01*
X187815904Y-46695238D02*
X187815904Y-47076190D01*
X187015904Y-47076190D01*
X187015904Y-46695238D01*
X187282571Y-46428571D02*
X187815904Y-46238095D01*
X187282571Y-46047619D01*
X187396857Y-45476190D02*
X187434952Y-45361904D01*
X187473047Y-45323809D01*
X187549238Y-45285714D01*
X187663523Y-45285714D01*
X187739714Y-45323809D01*
X187777809Y-45361904D01*
X187815904Y-45438095D01*
X187815904Y-45742857D01*
X187015904Y-45742857D01*
X187015904Y-45476190D01*
X187054000Y-45400000D01*
X187092095Y-45361904D01*
X187168285Y-45323809D01*
X187244476Y-45323809D01*
X187320666Y-45361904D01*
X187358761Y-45400000D01*
X187396857Y-45476190D01*
X187396857Y-45742857D01*
X187396857Y-49419047D02*
X187396857Y-49152380D01*
X187815904Y-49038095D02*
X187815904Y-49419047D01*
X187015904Y-49419047D01*
X187015904Y-49038095D01*
X187282571Y-48771428D02*
X187815904Y-48580952D01*
X187282571Y-48390476D01*
X187587333Y-48123809D02*
X187587333Y-47742857D01*
X187815904Y-48200000D02*
X187015904Y-47933333D01*
X187815904Y-47666666D01*
X191565904Y-51609523D02*
X191565904Y-51152380D01*
X192365904Y-51380952D02*
X191565904Y-51380952D01*
X191565904Y-50961904D02*
X192365904Y-50428571D01*
X191565904Y-50428571D02*
X192365904Y-50961904D01*
X192289714Y-43688095D02*
X192327809Y-43726190D01*
X192365904Y-43840476D01*
X192365904Y-43916666D01*
X192327809Y-44030952D01*
X192251619Y-44107142D01*
X192175428Y-44145238D01*
X192023047Y-44183333D01*
X191908761Y-44183333D01*
X191756380Y-44145238D01*
X191680190Y-44107142D01*
X191604000Y-44030952D01*
X191565904Y-43916666D01*
X191565904Y-43840476D01*
X191604000Y-43726190D01*
X191642095Y-43688095D01*
X191565904Y-43459523D02*
X191565904Y-43002380D01*
X192365904Y-43230952D02*
X191565904Y-43230952D01*
X192327809Y-42773809D02*
X192365904Y-42659523D01*
X192365904Y-42469047D01*
X192327809Y-42392857D01*
X192289714Y-42354761D01*
X192213523Y-42316666D01*
X192137333Y-42316666D01*
X192061142Y-42354761D01*
X192023047Y-42392857D01*
X191984952Y-42469047D01*
X191946857Y-42621428D01*
X191908761Y-42697619D01*
X191870666Y-42735714D01*
X191794476Y-42773809D01*
X191718285Y-42773809D01*
X191642095Y-42735714D01*
X191604000Y-42697619D01*
X191565904Y-42621428D01*
X191565904Y-42430952D01*
X191604000Y-42316666D01*
X192365904Y-53938095D02*
X191984952Y-54204761D01*
X192365904Y-54395238D02*
X191565904Y-54395238D01*
X191565904Y-54090476D01*
X191604000Y-54014285D01*
X191642095Y-53976190D01*
X191718285Y-53938095D01*
X191832571Y-53938095D01*
X191908761Y-53976190D01*
X191946857Y-54014285D01*
X191984952Y-54090476D01*
X191984952Y-54395238D01*
X191565904Y-53709523D02*
X191565904Y-53252380D01*
X192365904Y-53480952D02*
X191565904Y-53480952D01*
X192327809Y-53023809D02*
X192365904Y-52909523D01*
X192365904Y-52719047D01*
X192327809Y-52642857D01*
X192289714Y-52604761D01*
X192213523Y-52566666D01*
X192137333Y-52566666D01*
X192061142Y-52604761D01*
X192023047Y-52642857D01*
X191984952Y-52719047D01*
X191946857Y-52871428D01*
X191908761Y-52947619D01*
X191870666Y-52985714D01*
X191794476Y-53023809D01*
X191718285Y-53023809D01*
X191642095Y-52985714D01*
X191604000Y-52947619D01*
X191565904Y-52871428D01*
X191565904Y-52680952D01*
X191604000Y-52566666D01*
X191604000Y-41109523D02*
X191565904Y-41185714D01*
X191565904Y-41300000D01*
X191604000Y-41414285D01*
X191680190Y-41490476D01*
X191756380Y-41528571D01*
X191908761Y-41566666D01*
X192023047Y-41566666D01*
X192175428Y-41528571D01*
X192251619Y-41490476D01*
X192327809Y-41414285D01*
X192365904Y-41300000D01*
X192365904Y-41223809D01*
X192327809Y-41109523D01*
X192289714Y-41071428D01*
X192023047Y-41071428D01*
X192023047Y-41223809D01*
X192365904Y-40728571D02*
X191565904Y-40728571D01*
X192365904Y-40271428D01*
X191565904Y-40271428D01*
X192365904Y-39890476D02*
X191565904Y-39890476D01*
X191565904Y-39700000D01*
X191604000Y-39585714D01*
X191680190Y-39509523D01*
X191756380Y-39471428D01*
X191908761Y-39433333D01*
X192023047Y-39433333D01*
X192175428Y-39471428D01*
X192251619Y-39509523D01*
X192327809Y-39585714D01*
X192365904Y-39700000D01*
X192365904Y-39890476D01*
X132316666Y-37919047D02*
X132316666Y-37442857D01*
X132602380Y-38014285D02*
X131602380Y-37680952D01*
X132602380Y-37347619D01*
X132602380Y-37014285D02*
X131602380Y-37014285D01*
X132602380Y-36442857D01*
X131602380Y-36442857D01*
X131602380Y-36109523D02*
X131602380Y-35538095D01*
X132602380Y-35823809D02*
X131602380Y-35823809D01*
X132602380Y-34680952D02*
X132602380Y-35252380D01*
X132602380Y-34966666D02*
X131602380Y-34966666D01*
X131745238Y-35061904D01*
X131840476Y-35157142D01*
X131888095Y-35252380D01*
X132266666Y-65719047D02*
X132266666Y-65242857D01*
X132552380Y-65814285D02*
X131552380Y-65480952D01*
X132552380Y-65147619D01*
X132552380Y-64814285D02*
X131552380Y-64814285D01*
X132552380Y-64242857D01*
X131552380Y-64242857D01*
X131552380Y-63909523D02*
X131552380Y-63338095D01*
X132552380Y-63623809D02*
X131552380Y-63623809D01*
X131647619Y-63052380D02*
X131600000Y-63004761D01*
X131552380Y-62909523D01*
X131552380Y-62671428D01*
X131600000Y-62576190D01*
X131647619Y-62528571D01*
X131742857Y-62480952D01*
X131838095Y-62480952D01*
X131980952Y-62528571D01*
X132552380Y-63100000D01*
X132552380Y-62480952D01*
X140642857Y-74361904D02*
X140642857Y-73561904D01*
X140947619Y-73561904D01*
X141023809Y-73600000D01*
X141061904Y-73638095D01*
X141100000Y-73714285D01*
X141100000Y-73828571D01*
X141061904Y-73904761D01*
X141023809Y-73942857D01*
X140947619Y-73980952D01*
X140642857Y-73980952D01*
X141328571Y-73561904D02*
X141595238Y-74361904D01*
X141861904Y-73561904D01*
X142014285Y-73561904D02*
X142471428Y-73561904D01*
X142242857Y-74361904D02*
X142242857Y-73561904D01*
X147509523Y-74361904D02*
X147509523Y-73561904D01*
X147814285Y-73561904D01*
X147890476Y-73600000D01*
X147928571Y-73638095D01*
X147966666Y-73714285D01*
X147966666Y-73828571D01*
X147928571Y-73904761D01*
X147890476Y-73942857D01*
X147814285Y-73980952D01*
X147509523Y-73980952D01*
X148309523Y-74361904D02*
X148309523Y-73561904D01*
X148614285Y-73561904D01*
X148690476Y-73600000D01*
X148728571Y-73638095D01*
X148766666Y-73714285D01*
X148766666Y-73828571D01*
X148728571Y-73904761D01*
X148690476Y-73942857D01*
X148614285Y-73980952D01*
X148309523Y-73980952D01*
X149071428Y-74323809D02*
X149185714Y-74361904D01*
X149376190Y-74361904D01*
X149452380Y-74323809D01*
X149490476Y-74285714D01*
X149528571Y-74209523D01*
X149528571Y-74133333D01*
X149490476Y-74057142D01*
X149452380Y-74019047D01*
X149376190Y-73980952D01*
X149223809Y-73942857D01*
X149147619Y-73904761D01*
X149109523Y-73866666D01*
X149071428Y-73790476D01*
X149071428Y-73714285D01*
X149109523Y-73638095D01*
X149147619Y-73600000D01*
X149223809Y-73561904D01*
X149414285Y-73561904D01*
X149528571Y-73600000D01*
X134433333Y-74361904D02*
X134433333Y-73561904D01*
X134738095Y-73561904D01*
X134814285Y-73600000D01*
X134852380Y-73638095D01*
X134890476Y-73714285D01*
X134890476Y-73828571D01*
X134852380Y-73904761D01*
X134814285Y-73942857D01*
X134738095Y-73980952D01*
X134433333Y-73980952D01*
X135157142Y-73561904D02*
X135347619Y-74361904D01*
X135500000Y-73790476D01*
X135652380Y-74361904D01*
X135842857Y-73561904D01*
X136604761Y-74361904D02*
X136338095Y-73980952D01*
X136147619Y-74361904D02*
X136147619Y-73561904D01*
X136452380Y-73561904D01*
X136528571Y-73600000D01*
X136566666Y-73638095D01*
X136604761Y-73714285D01*
X136604761Y-73828571D01*
X136566666Y-73904761D01*
X136528571Y-73942857D01*
X136452380Y-73980952D01*
X136147619Y-73980952D01*
D11*
X156330000Y-83610000D02*
G75*
G02*
X153210000Y-83610000I-1560000J0D01*
G01*
X156040000Y-77080000D02*
X156040000Y-77080000D01*
X156040000Y-79750000D02*
X156040000Y-77080000D01*
X156040000Y-79750000D02*
X156040000Y-79750000D01*
X156040000Y-77080000D02*
X156040000Y-79750000D01*
X153500000Y-77080000D02*
X153500000Y-77080000D01*
X153500000Y-79750000D02*
X153500000Y-77080000D01*
X153500000Y-79750000D02*
X153500000Y-79750000D01*
X153500000Y-77080000D02*
X153500000Y-79750000D01*
X156330000Y-79750000D02*
X156730000Y-79750000D01*
X156330000Y-80870000D02*
X156330000Y-79750000D01*
X156730000Y-80870000D02*
X156330000Y-80870000D01*
X156730000Y-79750000D02*
X156730000Y-80870000D01*
X153210000Y-79750000D02*
X156330000Y-79750000D01*
X156330000Y-79750000D02*
X156330000Y-83610000D01*
X153210000Y-79750000D02*
X153210000Y-83610000D01*
X162830000Y-83610000D02*
G75*
G02*
X159710000Y-83610000I-1560000J0D01*
G01*
X162540000Y-77080000D02*
X162540000Y-77080000D01*
X162540000Y-79750000D02*
X162540000Y-77080000D01*
X162540000Y-79750000D02*
X162540000Y-79750000D01*
X162540000Y-77080000D02*
X162540000Y-79750000D01*
X160000000Y-77080000D02*
X160000000Y-77080000D01*
X160000000Y-79750000D02*
X160000000Y-77080000D01*
X160000000Y-79750000D02*
X160000000Y-79750000D01*
X160000000Y-77080000D02*
X160000000Y-79750000D01*
X162830000Y-79750000D02*
X163230000Y-79750000D01*
X162830000Y-80870000D02*
X162830000Y-79750000D01*
X163230000Y-80870000D02*
X162830000Y-80870000D01*
X163230000Y-79750000D02*
X163230000Y-80870000D01*
X159710000Y-79750000D02*
X162830000Y-79750000D01*
X162830000Y-79750000D02*
X162830000Y-83610000D01*
X159710000Y-79750000D02*
X159710000Y-83610000D01*
X136830000Y-83610000D02*
G75*
G02*
X133710000Y-83610000I-1560000J0D01*
G01*
X136540000Y-77080000D02*
X136540000Y-77080000D01*
X136540000Y-79750000D02*
X136540000Y-77080000D01*
X136540000Y-79750000D02*
X136540000Y-79750000D01*
X136540000Y-77080000D02*
X136540000Y-79750000D01*
X134000000Y-77080000D02*
X134000000Y-77080000D01*
X134000000Y-79750000D02*
X134000000Y-77080000D01*
X134000000Y-79750000D02*
X134000000Y-79750000D01*
X134000000Y-77080000D02*
X134000000Y-79750000D01*
X136830000Y-79750000D02*
X137230000Y-79750000D01*
X136830000Y-80870000D02*
X136830000Y-79750000D01*
X137230000Y-80870000D02*
X136830000Y-80870000D01*
X137230000Y-79750000D02*
X137230000Y-80870000D01*
X133710000Y-79750000D02*
X136830000Y-79750000D01*
X136830000Y-79750000D02*
X136830000Y-83610000D01*
X133710000Y-79750000D02*
X133710000Y-83610000D01*
X149830000Y-83610000D02*
G75*
G02*
X146710000Y-83610000I-1560000J0D01*
G01*
X149540000Y-77080000D02*
X149540000Y-77080000D01*
X149540000Y-79750000D02*
X149540000Y-77080000D01*
X149540000Y-79750000D02*
X149540000Y-79750000D01*
X149540000Y-77080000D02*
X149540000Y-79750000D01*
X147000000Y-77080000D02*
X147000000Y-77080000D01*
X147000000Y-79750000D02*
X147000000Y-77080000D01*
X147000000Y-79750000D02*
X147000000Y-79750000D01*
X147000000Y-77080000D02*
X147000000Y-79750000D01*
X149830000Y-79750000D02*
X150230000Y-79750000D01*
X149830000Y-80870000D02*
X149830000Y-79750000D01*
X150230000Y-80870000D02*
X149830000Y-80870000D01*
X150230000Y-79750000D02*
X150230000Y-80870000D01*
X146710000Y-79750000D02*
X149830000Y-79750000D01*
X149830000Y-79750000D02*
X149830000Y-83610000D01*
X146710000Y-79750000D02*
X146710000Y-83610000D01*
X143330000Y-83610000D02*
G75*
G02*
X140210000Y-83610000I-1560000J0D01*
G01*
X143040000Y-77080000D02*
X143040000Y-77080000D01*
X143040000Y-79750000D02*
X143040000Y-77080000D01*
X143040000Y-79750000D02*
X143040000Y-79750000D01*
X143040000Y-77080000D02*
X143040000Y-79750000D01*
X140500000Y-77080000D02*
X140500000Y-77080000D01*
X140500000Y-79750000D02*
X140500000Y-77080000D01*
X140500000Y-79750000D02*
X140500000Y-79750000D01*
X140500000Y-77080000D02*
X140500000Y-79750000D01*
X143330000Y-79750000D02*
X143730000Y-79750000D01*
X143330000Y-80870000D02*
X143330000Y-79750000D01*
X143730000Y-80870000D02*
X143330000Y-80870000D01*
X143730000Y-79750000D02*
X143730000Y-80870000D01*
X140210000Y-79750000D02*
X143330000Y-79750000D01*
X143330000Y-79750000D02*
X143330000Y-83610000D01*
X140210000Y-79750000D02*
X140210000Y-83610000D01*
X173620000Y-71430000D02*
X173620000Y-71130000D01*
X172730000Y-71130000D02*
X172730000Y-71480000D01*
X172730000Y-71130000D02*
X173620000Y-71130000D01*
X172240000Y-73680000D02*
X167260000Y-73680000D01*
X173620000Y-77920000D02*
X173620000Y-74070000D01*
X165880000Y-77920000D02*
X173620000Y-77920000D01*
X165880000Y-74070000D02*
X165880000Y-77920000D01*
X165880000Y-71430000D02*
X165880000Y-71130000D01*
X165880000Y-71130000D02*
X166770000Y-71130000D01*
X166770000Y-71130000D02*
X166770000Y-71480000D01*
X189115000Y-61675000D02*
X189115000Y-59755000D01*
X189115000Y-59755000D02*
X203125000Y-59755000D01*
X189115000Y-73275000D02*
X189115000Y-73725000D01*
X189115000Y-73725000D02*
X192725000Y-73725000D01*
X205385000Y-61435000D02*
X205385000Y-63745000D01*
X205385000Y-72695000D02*
X205385000Y-70835000D01*
X205385000Y-72695000D02*
X205185000Y-72895000D01*
X194425000Y-73725000D02*
X199125000Y-73725000D01*
X200425000Y-73725000D02*
X202225000Y-73725000D01*
X205035000Y-70625000D02*
X205035000Y-64255000D01*
X205035000Y-70625000D02*
X205185000Y-70625000D01*
X205385000Y-70835000D02*
X205185000Y-70625000D01*
X205385000Y-61435000D02*
X205185000Y-61235000D01*
X205185000Y-61235000D02*
X205185000Y-60975000D01*
X205385000Y-63745000D02*
X205035000Y-64255000D01*
X181690000Y-39690000D02*
X182750000Y-39690000D01*
X181690000Y-40750000D02*
X181690000Y-39690000D01*
X181690000Y-41750000D02*
X183810000Y-41750000D01*
X183810000Y-41750000D02*
X183810000Y-45810000D01*
X181690000Y-41750000D02*
X181690000Y-45810000D01*
X181690000Y-45810000D02*
X183810000Y-45810000D01*
X197200000Y-31410000D02*
X195800000Y-31410000D01*
X197200000Y-29590000D02*
X195610000Y-29590000D01*
X200987500Y-33900000D02*
X200987500Y-33450000D01*
X202837500Y-33900000D02*
X200987500Y-33900000D01*
X205387500Y-26100000D02*
X205137500Y-26100000D01*
X205387500Y-33900000D02*
X205137500Y-33900000D01*
X202837500Y-26100000D02*
X200987500Y-26100000D01*
X200987500Y-26100000D02*
X200987500Y-26550000D01*
X200437500Y-31700000D02*
X200437500Y-31250000D01*
X200437500Y-31700000D02*
X200887500Y-31700000D01*
X194250000Y-32250000D02*
X194250000Y-34250000D01*
X194250000Y-34250000D02*
X198150000Y-34250000D01*
X194250000Y-32250000D02*
X198150000Y-32250000D01*
X143587221Y-65490000D02*
X143912779Y-65490000D01*
X143587221Y-66510000D02*
X143912779Y-66510000D01*
X143624721Y-63890000D02*
X143950279Y-63890000D01*
X143624721Y-64910000D02*
X143950279Y-64910000D01*
D13*
G36*
X198634796Y-52603098D02*
G01*
X198638316Y-52569435D01*
X198643632Y-52537383D01*
X198651000Y-52505142D01*
X198653171Y-52496923D01*
X198669608Y-52446289D01*
X198690626Y-52398692D01*
X198716082Y-52354242D01*
X198745832Y-52313050D01*
X198779733Y-52275226D01*
X198817642Y-52240880D01*
X198859415Y-52210122D01*
X198904910Y-52183064D01*
X198953982Y-52159815D01*
X199006489Y-52140486D01*
X199062287Y-52125188D01*
X199121233Y-52114030D01*
X199155973Y-52109587D01*
X199227491Y-52104426D01*
X199298215Y-52104228D01*
X199367705Y-52108973D01*
X199435523Y-52118643D01*
X199458911Y-52123213D01*
X199514343Y-52137294D01*
X199566781Y-52155596D01*
X199616018Y-52177975D01*
X199661851Y-52204285D01*
X199704075Y-52234379D01*
X199742485Y-52268111D01*
X199776877Y-52305336D01*
X199807047Y-52345908D01*
X199832790Y-52389681D01*
X199833047Y-52390179D01*
X199850481Y-52428374D01*
X199865462Y-52470317D01*
X199877617Y-52514787D01*
X199886571Y-52560561D01*
X199887881Y-52569316D01*
X199888760Y-52577848D01*
X199889609Y-52590346D01*
X199890401Y-52605836D01*
X199891112Y-52623341D01*
X199891714Y-52641886D01*
X199892181Y-52660495D01*
X199892488Y-52678193D01*
X199892608Y-52694004D01*
X199892515Y-52706952D01*
X199892183Y-52716062D01*
X199891895Y-52719042D01*
X199891058Y-52725239D01*
X199889815Y-52735063D01*
X199888377Y-52746823D01*
X199887703Y-52752463D01*
X199878739Y-52804315D01*
X199864323Y-52855237D01*
X199844624Y-52904792D01*
X199819810Y-52952541D01*
X199797004Y-52988263D01*
X199776138Y-53015342D01*
X199751196Y-53042787D01*
X199723486Y-53069360D01*
X199694315Y-53093822D01*
X199664993Y-53114935D01*
X199659522Y-53118459D01*
X199613580Y-53144570D01*
X199564161Y-53167281D01*
X199512538Y-53186081D01*
X199459983Y-53200459D01*
X199449928Y-53202663D01*
X199395779Y-53212101D01*
X199339471Y-53218251D01*
X199281915Y-53221154D01*
X199261355Y-53221048D01*
X199261355Y-52898148D01*
X199287296Y-52898111D01*
X199308432Y-52897992D01*
X199325603Y-52897749D01*
X199339649Y-52897343D01*
X199351410Y-52896732D01*
X199361725Y-52895875D01*
X199371434Y-52894731D01*
X199381376Y-52893259D01*
X199389599Y-52891898D01*
X199418472Y-52886516D01*
X199443218Y-52880786D01*
X199465353Y-52874265D01*
X199486393Y-52866514D01*
X199505477Y-52858200D01*
X199533843Y-52843210D01*
X199557406Y-52826542D01*
X199576900Y-52807550D01*
X199593061Y-52785588D01*
X199598335Y-52776594D01*
X199611439Y-52747353D01*
X199620238Y-52715205D01*
X199624638Y-52680804D01*
X199624545Y-52644802D01*
X199621307Y-52616105D01*
X199614245Y-52584901D01*
X199603495Y-52556861D01*
X199588879Y-52531855D01*
X199570220Y-52509747D01*
X199547341Y-52490406D01*
X199520066Y-52473697D01*
X199488216Y-52459488D01*
X199451614Y-52447646D01*
X199410085Y-52438037D01*
X199377066Y-52432432D01*
X199360305Y-52430553D01*
X199339056Y-52429098D01*
X199314456Y-52428065D01*
X199287644Y-52427454D01*
X199259758Y-52427267D01*
X199231936Y-52427502D01*
X199205317Y-52428160D01*
X199181039Y-52429240D01*
X199160239Y-52430743D01*
X199145644Y-52432427D01*
X199100562Y-52440565D01*
X199060491Y-52451000D01*
X199025278Y-52463862D01*
X198994773Y-52479285D01*
X198968824Y-52497401D01*
X198947280Y-52518340D01*
X198929990Y-52542236D01*
X198916802Y-52569219D01*
X198907565Y-52599423D01*
X198902129Y-52632979D01*
X198901082Y-52645756D01*
X198900948Y-52682480D01*
X198905228Y-52716905D01*
X198913814Y-52748695D01*
X198926599Y-52777514D01*
X198943474Y-52803027D01*
X198955925Y-52817018D01*
X198976296Y-52834898D01*
X198999596Y-52850362D01*
X199026315Y-52863615D01*
X199056945Y-52874860D01*
X199091975Y-52884303D01*
X199131897Y-52892149D01*
X199138589Y-52893240D01*
X199148544Y-52894682D01*
X199158787Y-52895823D01*
X199170121Y-52896695D01*
X199183347Y-52897330D01*
X199199267Y-52897760D01*
X199218682Y-52898017D01*
X199242395Y-52898133D01*
X199261355Y-52898148D01*
X199261355Y-53221048D01*
X199224019Y-53220855D01*
X199166694Y-53217396D01*
X199110849Y-53210821D01*
X199057394Y-53201173D01*
X199007239Y-53188495D01*
X198981955Y-53180441D01*
X198962215Y-53172943D01*
X198939759Y-53163263D01*
X198916154Y-53152170D01*
X198892968Y-53140433D01*
X198871768Y-53128820D01*
X198854121Y-53118100D01*
X198852133Y-53116787D01*
X198836057Y-53105090D01*
X198817965Y-53090330D01*
X198798908Y-53073507D01*
X198779936Y-53055617D01*
X198762100Y-53037659D01*
X198746448Y-53020631D01*
X198734032Y-53005531D01*
X198731594Y-53002225D01*
X198703211Y-52957899D01*
X198679595Y-52910714D01*
X198660748Y-52860682D01*
X198646673Y-52807814D01*
X198637374Y-52752121D01*
X198632853Y-52693613D01*
X198632817Y-52640169D01*
X198634796Y-52603098D01*
G37*
X198634796Y-52603098D02*
X198638316Y-52569435D01*
X198643632Y-52537383D01*
X198651000Y-52505142D01*
X198653171Y-52496923D01*
X198669608Y-52446289D01*
X198690626Y-52398692D01*
X198716082Y-52354242D01*
X198745832Y-52313050D01*
X198779733Y-52275226D01*
X198817642Y-52240880D01*
X198859415Y-52210122D01*
X198904910Y-52183064D01*
X198953982Y-52159815D01*
X199006489Y-52140486D01*
X199062287Y-52125188D01*
X199121233Y-52114030D01*
X199155973Y-52109587D01*
X199227491Y-52104426D01*
X199298215Y-52104228D01*
X199367705Y-52108973D01*
X199435523Y-52118643D01*
X199458911Y-52123213D01*
X199514343Y-52137294D01*
X199566781Y-52155596D01*
X199616018Y-52177975D01*
X199661851Y-52204285D01*
X199704075Y-52234379D01*
X199742485Y-52268111D01*
X199776877Y-52305336D01*
X199807047Y-52345908D01*
X199832790Y-52389681D01*
X199833047Y-52390179D01*
X199850481Y-52428374D01*
X199865462Y-52470317D01*
X199877617Y-52514787D01*
X199886571Y-52560561D01*
X199887881Y-52569316D01*
X199888760Y-52577848D01*
X199889609Y-52590346D01*
X199890401Y-52605836D01*
X199891112Y-52623341D01*
X199891714Y-52641886D01*
X199892181Y-52660495D01*
X199892488Y-52678193D01*
X199892608Y-52694004D01*
X199892515Y-52706952D01*
X199892183Y-52716062D01*
X199891895Y-52719042D01*
X199891058Y-52725239D01*
X199889815Y-52735063D01*
X199888377Y-52746823D01*
X199887703Y-52752463D01*
X199878739Y-52804315D01*
X199864323Y-52855237D01*
X199844624Y-52904792D01*
X199819810Y-52952541D01*
X199797004Y-52988263D01*
X199776138Y-53015342D01*
X199751196Y-53042787D01*
X199723486Y-53069360D01*
X199694315Y-53093822D01*
X199664993Y-53114935D01*
X199659522Y-53118459D01*
X199613580Y-53144570D01*
X199564161Y-53167281D01*
X199512538Y-53186081D01*
X199459983Y-53200459D01*
X199449928Y-53202663D01*
X199395779Y-53212101D01*
X199339471Y-53218251D01*
X199281915Y-53221154D01*
X199261355Y-53221048D01*
X199261355Y-52898148D01*
X199287296Y-52898111D01*
X199308432Y-52897992D01*
X199325603Y-52897749D01*
X199339649Y-52897343D01*
X199351410Y-52896732D01*
X199361725Y-52895875D01*
X199371434Y-52894731D01*
X199381376Y-52893259D01*
X199389599Y-52891898D01*
X199418472Y-52886516D01*
X199443218Y-52880786D01*
X199465353Y-52874265D01*
X199486393Y-52866514D01*
X199505477Y-52858200D01*
X199533843Y-52843210D01*
X199557406Y-52826542D01*
X199576900Y-52807550D01*
X199593061Y-52785588D01*
X199598335Y-52776594D01*
X199611439Y-52747353D01*
X199620238Y-52715205D01*
X199624638Y-52680804D01*
X199624545Y-52644802D01*
X199621307Y-52616105D01*
X199614245Y-52584901D01*
X199603495Y-52556861D01*
X199588879Y-52531855D01*
X199570220Y-52509747D01*
X199547341Y-52490406D01*
X199520066Y-52473697D01*
X199488216Y-52459488D01*
X199451614Y-52447646D01*
X199410085Y-52438037D01*
X199377066Y-52432432D01*
X199360305Y-52430553D01*
X199339056Y-52429098D01*
X199314456Y-52428065D01*
X199287644Y-52427454D01*
X199259758Y-52427267D01*
X199231936Y-52427502D01*
X199205317Y-52428160D01*
X199181039Y-52429240D01*
X199160239Y-52430743D01*
X199145644Y-52432427D01*
X199100562Y-52440565D01*
X199060491Y-52451000D01*
X199025278Y-52463862D01*
X198994773Y-52479285D01*
X198968824Y-52497401D01*
X198947280Y-52518340D01*
X198929990Y-52542236D01*
X198916802Y-52569219D01*
X198907565Y-52599423D01*
X198902129Y-52632979D01*
X198901082Y-52645756D01*
X198900948Y-52682480D01*
X198905228Y-52716905D01*
X198913814Y-52748695D01*
X198926599Y-52777514D01*
X198943474Y-52803027D01*
X198955925Y-52817018D01*
X198976296Y-52834898D01*
X198999596Y-52850362D01*
X199026315Y-52863615D01*
X199056945Y-52874860D01*
X199091975Y-52884303D01*
X199131897Y-52892149D01*
X199138589Y-52893240D01*
X199148544Y-52894682D01*
X199158787Y-52895823D01*
X199170121Y-52896695D01*
X199183347Y-52897330D01*
X199199267Y-52897760D01*
X199218682Y-52898017D01*
X199242395Y-52898133D01*
X199261355Y-52898148D01*
X199261355Y-53221048D01*
X199224019Y-53220855D01*
X199166694Y-53217396D01*
X199110849Y-53210821D01*
X199057394Y-53201173D01*
X199007239Y-53188495D01*
X198981955Y-53180441D01*
X198962215Y-53172943D01*
X198939759Y-53163263D01*
X198916154Y-53152170D01*
X198892968Y-53140433D01*
X198871768Y-53128820D01*
X198854121Y-53118100D01*
X198852133Y-53116787D01*
X198836057Y-53105090D01*
X198817965Y-53090330D01*
X198798908Y-53073507D01*
X198779936Y-53055617D01*
X198762100Y-53037659D01*
X198746448Y-53020631D01*
X198734032Y-53005531D01*
X198731594Y-53002225D01*
X198703211Y-52957899D01*
X198679595Y-52910714D01*
X198660748Y-52860682D01*
X198646673Y-52807814D01*
X198637374Y-52752121D01*
X198632853Y-52693613D01*
X198632817Y-52640169D01*
X198634796Y-52603098D01*
G36*
X198633506Y-51435229D02*
G01*
X198633948Y-51410480D01*
X198634782Y-51388014D01*
X198636015Y-51368920D01*
X198637120Y-51358137D01*
X198647709Y-51291220D01*
X198662285Y-51227318D01*
X198681079Y-51165457D01*
X198685658Y-51152426D01*
X198691301Y-51137180D01*
X198697516Y-51121128D01*
X198703954Y-51105088D01*
X198710270Y-51089880D01*
X198716116Y-51076322D01*
X198721144Y-51065233D01*
X198725009Y-51057432D01*
X198727362Y-51053737D01*
X198727543Y-51053599D01*
X198730362Y-51054412D01*
X198737745Y-51057057D01*
X198749053Y-51061285D01*
X198763652Y-51066845D01*
X198780905Y-51073488D01*
X198800176Y-51080963D01*
X198820830Y-51089021D01*
X198842228Y-51097410D01*
X198863737Y-51105881D01*
X198884720Y-51114184D01*
X198904539Y-51122069D01*
X198922561Y-51129285D01*
X198938147Y-51135583D01*
X198950663Y-51140711D01*
X198959472Y-51144421D01*
X198963938Y-51146462D01*
X198964335Y-51146710D01*
X198963820Y-51149531D01*
X198961471Y-51156521D01*
X198957582Y-51166900D01*
X198952446Y-51179885D01*
X198946359Y-51194694D01*
X198945648Y-51196391D01*
X198926269Y-51244581D01*
X198910244Y-51288971D01*
X198897482Y-51329997D01*
X198887892Y-51368094D01*
X198881383Y-51403698D01*
X198877864Y-51437246D01*
X198877245Y-51469173D01*
X198879433Y-51499915D01*
X198880532Y-51508338D01*
X198885761Y-51535035D01*
X198893180Y-51556949D01*
X198902923Y-51574276D01*
X198915126Y-51587216D01*
X198929927Y-51595965D01*
X198943626Y-51600060D01*
X198963416Y-51601338D01*
X198982687Y-51597431D01*
X199001135Y-51588498D01*
X199018456Y-51574696D01*
X199034345Y-51556185D01*
X199038054Y-51550846D01*
X199043550Y-51542395D01*
X199048985Y-51533546D01*
X199054556Y-51523889D01*
X199060463Y-51513014D01*
X199066905Y-51500508D01*
X199074080Y-51485962D01*
X199082189Y-51468963D01*
X199091429Y-51449101D01*
X199101999Y-51425965D01*
X199114099Y-51399143D01*
X199127927Y-51368225D01*
X199143683Y-51332800D01*
X199144898Y-51330063D01*
X199166003Y-51284696D01*
X199186845Y-51244383D01*
X199207599Y-51208846D01*
X199228439Y-51177807D01*
X199249539Y-51150988D01*
X199271072Y-51128113D01*
X199272403Y-51126839D01*
X199301121Y-51102245D01*
X199331057Y-51082164D01*
X199362900Y-51066303D01*
X199397339Y-51054370D01*
X199435062Y-51046074D01*
X199474145Y-51041329D01*
X199517103Y-51039838D01*
X199559754Y-51042240D01*
X199601152Y-51048374D01*
X199640353Y-51058077D01*
X199676410Y-51071187D01*
X199692513Y-51078738D01*
X199727324Y-51099296D01*
X199758761Y-51123856D01*
X199786853Y-51152471D01*
X199811627Y-51185190D01*
X199833109Y-51222064D01*
X199851326Y-51263145D01*
X199866306Y-51308484D01*
X199878076Y-51358131D01*
X199886663Y-51412138D01*
X199890703Y-51451436D01*
X199891518Y-51464855D01*
X199892163Y-51482391D01*
X199892630Y-51502819D01*
X199892910Y-51524909D01*
X199892997Y-51547435D01*
X199892884Y-51569170D01*
X199892563Y-51588886D01*
X199892027Y-51605355D01*
X199891666Y-51612137D01*
X199886692Y-51669737D01*
X199879258Y-51723339D01*
X199869182Y-51773838D01*
X199856282Y-51822131D01*
X199840375Y-51869111D01*
X199837951Y-51875495D01*
X199824070Y-51911590D01*
X199686334Y-51912284D01*
X199653853Y-51912422D01*
X199626624Y-51912478D01*
X199604253Y-51912444D01*
X199586349Y-51912311D01*
X199572517Y-51912073D01*
X199562366Y-51911721D01*
X199555504Y-51911248D01*
X199551536Y-51910645D01*
X199550071Y-51909906D01*
X199550079Y-51909610D01*
X199551717Y-51905932D01*
X199555069Y-51898436D01*
X199559640Y-51888227D01*
X199564747Y-51876832D01*
X199578626Y-51843614D01*
X199592334Y-51806565D01*
X199605409Y-51767192D01*
X199617389Y-51727005D01*
X199627810Y-51687513D01*
X199636210Y-51650222D01*
X199639392Y-51633526D01*
X199645995Y-51589555D01*
X199649708Y-51548567D01*
X199650558Y-51510802D01*
X199648572Y-51476501D01*
X199643776Y-51445905D01*
X199636197Y-51419253D01*
X199625861Y-51396786D01*
X199612795Y-51378746D01*
X199610985Y-51376828D01*
X199599508Y-51366327D01*
X199588164Y-51359226D01*
X199575320Y-51354857D01*
X199559347Y-51352551D01*
X199550290Y-51351991D01*
X199537391Y-51351583D01*
X199528139Y-51351919D01*
X199520557Y-51353284D01*
X199512668Y-51355963D01*
X199507258Y-51358195D01*
X199494905Y-51364546D01*
X199483525Y-51372979D01*
X199472259Y-51384308D01*
X199460248Y-51399343D01*
X199452935Y-51409601D01*
X199444480Y-51422752D01*
X199434300Y-51440131D01*
X199422776Y-51461004D01*
X199410288Y-51484638D01*
X199397219Y-51510300D01*
X199383949Y-51537256D01*
X199370859Y-51564774D01*
X199360152Y-51588074D01*
X199339115Y-51633481D01*
X199319150Y-51674031D01*
X199300017Y-51710068D01*
X199281474Y-51741935D01*
X199263282Y-51769977D01*
X199245201Y-51794536D01*
X199226989Y-51815957D01*
X199208407Y-51834583D01*
X199189214Y-51850759D01*
X199169169Y-51864828D01*
X199164595Y-51867690D01*
X199137186Y-51882636D01*
X199108676Y-51894323D01*
X199078030Y-51903048D01*
X199044211Y-51909110D01*
X199007969Y-51912688D01*
X198961906Y-51913741D01*
X198919070Y-51910460D01*
X198879320Y-51902800D01*
X198842514Y-51890717D01*
X198808511Y-51874167D01*
X198777168Y-51853105D01*
X198754403Y-51833445D01*
X198728744Y-51805657D01*
X198706178Y-51774269D01*
X198686617Y-51739078D01*
X198669972Y-51699883D01*
X198656154Y-51656485D01*
X198645076Y-51608682D01*
X198638639Y-51570695D01*
X198636895Y-51555111D01*
X198635496Y-51535279D01*
X198634450Y-51512285D01*
X198633765Y-51487220D01*
X198633447Y-51461172D01*
X198633506Y-51435229D01*
G37*
X198633506Y-51435229D02*
X198633948Y-51410480D01*
X198634782Y-51388014D01*
X198636015Y-51368920D01*
X198637120Y-51358137D01*
X198647709Y-51291220D01*
X198662285Y-51227318D01*
X198681079Y-51165457D01*
X198685658Y-51152426D01*
X198691301Y-51137180D01*
X198697516Y-51121128D01*
X198703954Y-51105088D01*
X198710270Y-51089880D01*
X198716116Y-51076322D01*
X198721144Y-51065233D01*
X198725009Y-51057432D01*
X198727362Y-51053737D01*
X198727543Y-51053599D01*
X198730362Y-51054412D01*
X198737745Y-51057057D01*
X198749053Y-51061285D01*
X198763652Y-51066845D01*
X198780905Y-51073488D01*
X198800176Y-51080963D01*
X198820830Y-51089021D01*
X198842228Y-51097410D01*
X198863737Y-51105881D01*
X198884720Y-51114184D01*
X198904539Y-51122069D01*
X198922561Y-51129285D01*
X198938147Y-51135583D01*
X198950663Y-51140711D01*
X198959472Y-51144421D01*
X198963938Y-51146462D01*
X198964335Y-51146710D01*
X198963820Y-51149531D01*
X198961471Y-51156521D01*
X198957582Y-51166900D01*
X198952446Y-51179885D01*
X198946359Y-51194694D01*
X198945648Y-51196391D01*
X198926269Y-51244581D01*
X198910244Y-51288971D01*
X198897482Y-51329997D01*
X198887892Y-51368094D01*
X198881383Y-51403698D01*
X198877864Y-51437246D01*
X198877245Y-51469173D01*
X198879433Y-51499915D01*
X198880532Y-51508338D01*
X198885761Y-51535035D01*
X198893180Y-51556949D01*
X198902923Y-51574276D01*
X198915126Y-51587216D01*
X198929927Y-51595965D01*
X198943626Y-51600060D01*
X198963416Y-51601338D01*
X198982687Y-51597431D01*
X199001135Y-51588498D01*
X199018456Y-51574696D01*
X199034345Y-51556185D01*
X199038054Y-51550846D01*
X199043550Y-51542395D01*
X199048985Y-51533546D01*
X199054556Y-51523889D01*
X199060463Y-51513014D01*
X199066905Y-51500508D01*
X199074080Y-51485962D01*
X199082189Y-51468963D01*
X199091429Y-51449101D01*
X199101999Y-51425965D01*
X199114099Y-51399143D01*
X199127927Y-51368225D01*
X199143683Y-51332800D01*
X199144898Y-51330063D01*
X199166003Y-51284696D01*
X199186845Y-51244383D01*
X199207599Y-51208846D01*
X199228439Y-51177807D01*
X199249539Y-51150988D01*
X199271072Y-51128113D01*
X199272403Y-51126839D01*
X199301121Y-51102245D01*
X199331057Y-51082164D01*
X199362900Y-51066303D01*
X199397339Y-51054370D01*
X199435062Y-51046074D01*
X199474145Y-51041329D01*
X199517103Y-51039838D01*
X199559754Y-51042240D01*
X199601152Y-51048374D01*
X199640353Y-51058077D01*
X199676410Y-51071187D01*
X199692513Y-51078738D01*
X199727324Y-51099296D01*
X199758761Y-51123856D01*
X199786853Y-51152471D01*
X199811627Y-51185190D01*
X199833109Y-51222064D01*
X199851326Y-51263145D01*
X199866306Y-51308484D01*
X199878076Y-51358131D01*
X199886663Y-51412138D01*
X199890703Y-51451436D01*
X199891518Y-51464855D01*
X199892163Y-51482391D01*
X199892630Y-51502819D01*
X199892910Y-51524909D01*
X199892997Y-51547435D01*
X199892884Y-51569170D01*
X199892563Y-51588886D01*
X199892027Y-51605355D01*
X199891666Y-51612137D01*
X199886692Y-51669737D01*
X199879258Y-51723339D01*
X199869182Y-51773838D01*
X199856282Y-51822131D01*
X199840375Y-51869111D01*
X199837951Y-51875495D01*
X199824070Y-51911590D01*
X199686334Y-51912284D01*
X199653853Y-51912422D01*
X199626624Y-51912478D01*
X199604253Y-51912444D01*
X199586349Y-51912311D01*
X199572517Y-51912073D01*
X199562366Y-51911721D01*
X199555504Y-51911248D01*
X199551536Y-51910645D01*
X199550071Y-51909906D01*
X199550079Y-51909610D01*
X199551717Y-51905932D01*
X199555069Y-51898436D01*
X199559640Y-51888227D01*
X199564747Y-51876832D01*
X199578626Y-51843614D01*
X199592334Y-51806565D01*
X199605409Y-51767192D01*
X199617389Y-51727005D01*
X199627810Y-51687513D01*
X199636210Y-51650222D01*
X199639392Y-51633526D01*
X199645995Y-51589555D01*
X199649708Y-51548567D01*
X199650558Y-51510802D01*
X199648572Y-51476501D01*
X199643776Y-51445905D01*
X199636197Y-51419253D01*
X199625861Y-51396786D01*
X199612795Y-51378746D01*
X199610985Y-51376828D01*
X199599508Y-51366327D01*
X199588164Y-51359226D01*
X199575320Y-51354857D01*
X199559347Y-51352551D01*
X199550290Y-51351991D01*
X199537391Y-51351583D01*
X199528139Y-51351919D01*
X199520557Y-51353284D01*
X199512668Y-51355963D01*
X199507258Y-51358195D01*
X199494905Y-51364546D01*
X199483525Y-51372979D01*
X199472259Y-51384308D01*
X199460248Y-51399343D01*
X199452935Y-51409601D01*
X199444480Y-51422752D01*
X199434300Y-51440131D01*
X199422776Y-51461004D01*
X199410288Y-51484638D01*
X199397219Y-51510300D01*
X199383949Y-51537256D01*
X199370859Y-51564774D01*
X199360152Y-51588074D01*
X199339115Y-51633481D01*
X199319150Y-51674031D01*
X199300017Y-51710068D01*
X199281474Y-51741935D01*
X199263282Y-51769977D01*
X199245201Y-51794536D01*
X199226989Y-51815957D01*
X199208407Y-51834583D01*
X199189214Y-51850759D01*
X199169169Y-51864828D01*
X199164595Y-51867690D01*
X199137186Y-51882636D01*
X199108676Y-51894323D01*
X199078030Y-51903048D01*
X199044211Y-51909110D01*
X199007969Y-51912688D01*
X198961906Y-51913741D01*
X198919070Y-51910460D01*
X198879320Y-51902800D01*
X198842514Y-51890717D01*
X198808511Y-51874167D01*
X198777168Y-51853105D01*
X198754403Y-51833445D01*
X198728744Y-51805657D01*
X198706178Y-51774269D01*
X198686617Y-51739078D01*
X198669972Y-51699883D01*
X198656154Y-51656485D01*
X198645076Y-51608682D01*
X198638639Y-51570695D01*
X198636895Y-51555111D01*
X198635496Y-51535279D01*
X198634450Y-51512285D01*
X198633765Y-51487220D01*
X198633447Y-51461172D01*
X198633506Y-51435229D01*
G36*
X198630626Y-50299269D02*
G01*
X198631037Y-50274407D01*
X198631829Y-50251922D01*
X198633007Y-50232862D01*
X198634272Y-50220484D01*
X198643402Y-50166454D01*
X198656067Y-50116591D01*
X198672269Y-50070893D01*
X198692011Y-50029356D01*
X198715296Y-49991977D01*
X198742127Y-49958752D01*
X198772507Y-49929680D01*
X198806438Y-49904755D01*
X198843922Y-49883976D01*
X198884964Y-49867338D01*
X198929565Y-49854838D01*
X198945084Y-49851617D01*
X198952725Y-49850202D01*
X198960289Y-49848915D01*
X198968067Y-49847752D01*
X198976351Y-49846706D01*
X198985432Y-49845770D01*
X198995601Y-49844939D01*
X199007150Y-49844207D01*
X199020370Y-49843567D01*
X199035552Y-49843013D01*
X199052988Y-49842539D01*
X199072969Y-49842138D01*
X199095786Y-49841805D01*
X199121731Y-49841534D01*
X199151095Y-49841318D01*
X199184170Y-49841150D01*
X199221246Y-49841026D01*
X199262615Y-49840938D01*
X199308569Y-49840881D01*
X199359399Y-49840848D01*
X199415396Y-49840833D01*
X199453972Y-49840830D01*
X199870955Y-49840821D01*
X199870945Y-49951111D01*
X199870935Y-50061400D01*
X199847662Y-50069972D01*
X199816759Y-50081367D01*
X199790715Y-50091005D01*
X199769119Y-50099052D01*
X199751562Y-50105673D01*
X199737635Y-50111031D01*
X199726927Y-50115292D01*
X199719030Y-50118622D01*
X199713533Y-50121183D01*
X199710028Y-50123142D01*
X199708104Y-50124662D01*
X199707352Y-50125909D01*
X199707286Y-50126437D01*
X199709363Y-50130165D01*
X199714845Y-50135998D01*
X199722644Y-50142808D01*
X199724511Y-50144284D01*
X199746871Y-50163028D01*
X199769458Y-50184465D01*
X199791352Y-50207557D01*
X199811637Y-50231264D01*
X199829395Y-50254547D01*
X199843708Y-50276366D01*
X199848270Y-50284464D01*
X199859857Y-50309694D01*
X199870163Y-50339077D01*
X199878890Y-50371502D01*
X199885740Y-50405855D01*
X199890416Y-50441025D01*
X199890550Y-50442400D01*
X199891923Y-50461363D01*
X199892761Y-50483165D01*
X199893066Y-50506243D01*
X199892838Y-50529032D01*
X199892080Y-50549969D01*
X199890793Y-50567491D01*
X199890438Y-50570737D01*
X199882814Y-50614238D01*
X199870556Y-50655128D01*
X199853773Y-50693183D01*
X199832577Y-50728181D01*
X199807079Y-50759899D01*
X199786046Y-50780645D01*
X199755453Y-50804745D01*
X199721766Y-50824915D01*
X199684647Y-50841309D01*
X199643758Y-50854077D01*
X199603848Y-50862528D01*
X199582986Y-50865314D01*
X199558664Y-50867295D01*
X199532295Y-50868461D01*
X199505291Y-50868802D01*
X199499833Y-50868700D01*
X199499833Y-50545817D01*
X199531261Y-50545323D01*
X199559029Y-50540759D01*
X199583135Y-50532125D01*
X199603580Y-50519422D01*
X199620363Y-50502649D01*
X199633485Y-50481807D01*
X199642945Y-50456895D01*
X199647822Y-50434379D01*
X199649853Y-50414177D01*
X199650302Y-50391103D01*
X199649198Y-50367407D01*
X199646701Y-50346148D01*
X199639965Y-50314557D01*
X199630295Y-50286770D01*
X199617153Y-50261751D01*
X199600005Y-50238465D01*
X199580266Y-50217718D01*
X199562102Y-50201695D01*
X199543855Y-50188400D01*
X199524815Y-50177619D01*
X199504272Y-50169137D01*
X199481516Y-50162739D01*
X199455835Y-50158212D01*
X199426519Y-50155342D01*
X199392859Y-50153914D01*
X199367789Y-50153658D01*
X199309123Y-50153642D01*
X199310821Y-50199763D01*
X199312418Y-50239121D01*
X199314177Y-50273659D01*
X199316184Y-50303903D01*
X199318526Y-50330379D01*
X199321289Y-50353614D01*
X199324559Y-50374135D01*
X199328422Y-50392468D01*
X199332965Y-50409139D01*
X199338273Y-50424674D01*
X199344432Y-50439601D01*
X199351529Y-50454446D01*
X199352968Y-50457256D01*
X199368807Y-50482861D01*
X199387619Y-50503994D01*
X199409550Y-50520745D01*
X199434748Y-50533201D01*
X199463358Y-50541452D01*
X199495527Y-50545584D01*
X199499833Y-50545817D01*
X199499833Y-50868700D01*
X199479064Y-50868309D01*
X199455028Y-50866973D01*
X199434595Y-50864785D01*
X199427866Y-50863691D01*
X199386536Y-50854067D01*
X199348731Y-50840950D01*
X199314297Y-50824182D01*
X199283081Y-50803605D01*
X199254928Y-50779059D01*
X199229685Y-50750386D01*
X199207199Y-50717427D01*
X199187316Y-50680024D01*
X199169882Y-50638018D01*
X199154743Y-50591250D01*
X199151022Y-50577759D01*
X199147373Y-50562895D01*
X199143409Y-50544822D01*
X199139566Y-50525632D01*
X199136278Y-50507418D01*
X199135734Y-50504129D01*
X199133706Y-50491542D01*
X199131911Y-50480003D01*
X199130321Y-50469074D01*
X199128906Y-50458316D01*
X199127638Y-50447291D01*
X199126487Y-50435558D01*
X199125425Y-50422680D01*
X199124421Y-50408216D01*
X199123449Y-50391730D01*
X199122478Y-50372781D01*
X199121478Y-50350930D01*
X199120423Y-50325740D01*
X199119281Y-50296770D01*
X199118025Y-50263582D01*
X199116625Y-50225737D01*
X199115757Y-50202080D01*
X199113958Y-50152929D01*
X199065595Y-50154369D01*
X199043308Y-50155250D01*
X199025530Y-50156480D01*
X199011133Y-50158171D01*
X198998987Y-50160433D01*
X198995661Y-50161228D01*
X198966492Y-50170833D01*
X198941501Y-50184006D01*
X198920559Y-50200868D01*
X198903537Y-50221540D01*
X198890304Y-50246146D01*
X198882640Y-50267771D01*
X198879441Y-50283088D01*
X198877303Y-50302464D01*
X198876226Y-50324708D01*
X198876212Y-50348627D01*
X198877260Y-50373028D01*
X198879372Y-50396718D01*
X198882532Y-50418418D01*
X198888842Y-50449790D01*
X198896427Y-50480807D01*
X198905565Y-50512303D01*
X198916533Y-50545117D01*
X198929610Y-50580084D01*
X198945072Y-50618041D01*
X198961264Y-50655462D01*
X198959130Y-50657453D01*
X198952091Y-50661592D01*
X198940358Y-50667774D01*
X198924144Y-50675890D01*
X198903661Y-50685836D01*
X198879122Y-50697504D01*
X198855906Y-50708382D01*
X198832948Y-50719047D01*
X198811408Y-50728995D01*
X198791846Y-50737970D01*
X198774822Y-50745719D01*
X198760896Y-50751987D01*
X198750628Y-50756520D01*
X198744578Y-50759064D01*
X198743306Y-50759511D01*
X198740520Y-50759538D01*
X198737730Y-50757712D01*
X198734389Y-50753296D01*
X198729951Y-50745547D01*
X198723869Y-50733725D01*
X198722999Y-50731992D01*
X198695799Y-50671728D01*
X198672935Y-50608423D01*
X198654576Y-50542640D01*
X198640889Y-50474944D01*
X198635746Y-50439726D01*
X198634024Y-50422591D01*
X198632641Y-50401550D01*
X198631602Y-50377650D01*
X198630916Y-50351938D01*
X198630588Y-50325462D01*
X198630626Y-50299269D01*
G37*
X198630626Y-50299269D02*
X198631037Y-50274407D01*
X198631829Y-50251922D01*
X198633007Y-50232862D01*
X198634272Y-50220484D01*
X198643402Y-50166454D01*
X198656067Y-50116591D01*
X198672269Y-50070893D01*
X198692011Y-50029356D01*
X198715296Y-49991977D01*
X198742127Y-49958752D01*
X198772507Y-49929680D01*
X198806438Y-49904755D01*
X198843922Y-49883976D01*
X198884964Y-49867338D01*
X198929565Y-49854838D01*
X198945084Y-49851617D01*
X198952725Y-49850202D01*
X198960289Y-49848915D01*
X198968067Y-49847752D01*
X198976351Y-49846706D01*
X198985432Y-49845770D01*
X198995601Y-49844939D01*
X199007150Y-49844207D01*
X199020370Y-49843567D01*
X199035552Y-49843013D01*
X199052988Y-49842539D01*
X199072969Y-49842138D01*
X199095786Y-49841805D01*
X199121731Y-49841534D01*
X199151095Y-49841318D01*
X199184170Y-49841150D01*
X199221246Y-49841026D01*
X199262615Y-49840938D01*
X199308569Y-49840881D01*
X199359399Y-49840848D01*
X199415396Y-49840833D01*
X199453972Y-49840830D01*
X199870955Y-49840821D01*
X199870945Y-49951111D01*
X199870935Y-50061400D01*
X199847662Y-50069972D01*
X199816759Y-50081367D01*
X199790715Y-50091005D01*
X199769119Y-50099052D01*
X199751562Y-50105673D01*
X199737635Y-50111031D01*
X199726927Y-50115292D01*
X199719030Y-50118622D01*
X199713533Y-50121183D01*
X199710028Y-50123142D01*
X199708104Y-50124662D01*
X199707352Y-50125909D01*
X199707286Y-50126437D01*
X199709363Y-50130165D01*
X199714845Y-50135998D01*
X199722644Y-50142808D01*
X199724511Y-50144284D01*
X199746871Y-50163028D01*
X199769458Y-50184465D01*
X199791352Y-50207557D01*
X199811637Y-50231264D01*
X199829395Y-50254547D01*
X199843708Y-50276366D01*
X199848270Y-50284464D01*
X199859857Y-50309694D01*
X199870163Y-50339077D01*
X199878890Y-50371502D01*
X199885740Y-50405855D01*
X199890416Y-50441025D01*
X199890550Y-50442400D01*
X199891923Y-50461363D01*
X199892761Y-50483165D01*
X199893066Y-50506243D01*
X199892838Y-50529032D01*
X199892080Y-50549969D01*
X199890793Y-50567491D01*
X199890438Y-50570737D01*
X199882814Y-50614238D01*
X199870556Y-50655128D01*
X199853773Y-50693183D01*
X199832577Y-50728181D01*
X199807079Y-50759899D01*
X199786046Y-50780645D01*
X199755453Y-50804745D01*
X199721766Y-50824915D01*
X199684647Y-50841309D01*
X199643758Y-50854077D01*
X199603848Y-50862528D01*
X199582986Y-50865314D01*
X199558664Y-50867295D01*
X199532295Y-50868461D01*
X199505291Y-50868802D01*
X199499833Y-50868700D01*
X199499833Y-50545817D01*
X199531261Y-50545323D01*
X199559029Y-50540759D01*
X199583135Y-50532125D01*
X199603580Y-50519422D01*
X199620363Y-50502649D01*
X199633485Y-50481807D01*
X199642945Y-50456895D01*
X199647822Y-50434379D01*
X199649853Y-50414177D01*
X199650302Y-50391103D01*
X199649198Y-50367407D01*
X199646701Y-50346148D01*
X199639965Y-50314557D01*
X199630295Y-50286770D01*
X199617153Y-50261751D01*
X199600005Y-50238465D01*
X199580266Y-50217718D01*
X199562102Y-50201695D01*
X199543855Y-50188400D01*
X199524815Y-50177619D01*
X199504272Y-50169137D01*
X199481516Y-50162739D01*
X199455835Y-50158212D01*
X199426519Y-50155342D01*
X199392859Y-50153914D01*
X199367789Y-50153658D01*
X199309123Y-50153642D01*
X199310821Y-50199763D01*
X199312418Y-50239121D01*
X199314177Y-50273659D01*
X199316184Y-50303903D01*
X199318526Y-50330379D01*
X199321289Y-50353614D01*
X199324559Y-50374135D01*
X199328422Y-50392468D01*
X199332965Y-50409139D01*
X199338273Y-50424674D01*
X199344432Y-50439601D01*
X199351529Y-50454446D01*
X199352968Y-50457256D01*
X199368807Y-50482861D01*
X199387619Y-50503994D01*
X199409550Y-50520745D01*
X199434748Y-50533201D01*
X199463358Y-50541452D01*
X199495527Y-50545584D01*
X199499833Y-50545817D01*
X199499833Y-50868700D01*
X199479064Y-50868309D01*
X199455028Y-50866973D01*
X199434595Y-50864785D01*
X199427866Y-50863691D01*
X199386536Y-50854067D01*
X199348731Y-50840950D01*
X199314297Y-50824182D01*
X199283081Y-50803605D01*
X199254928Y-50779059D01*
X199229685Y-50750386D01*
X199207199Y-50717427D01*
X199187316Y-50680024D01*
X199169882Y-50638018D01*
X199154743Y-50591250D01*
X199151022Y-50577759D01*
X199147373Y-50562895D01*
X199143409Y-50544822D01*
X199139566Y-50525632D01*
X199136278Y-50507418D01*
X199135734Y-50504129D01*
X199133706Y-50491542D01*
X199131911Y-50480003D01*
X199130321Y-50469074D01*
X199128906Y-50458316D01*
X199127638Y-50447291D01*
X199126487Y-50435558D01*
X199125425Y-50422680D01*
X199124421Y-50408216D01*
X199123449Y-50391730D01*
X199122478Y-50372781D01*
X199121478Y-50350930D01*
X199120423Y-50325740D01*
X199119281Y-50296770D01*
X199118025Y-50263582D01*
X199116625Y-50225737D01*
X199115757Y-50202080D01*
X199113958Y-50152929D01*
X199065595Y-50154369D01*
X199043308Y-50155250D01*
X199025530Y-50156480D01*
X199011133Y-50158171D01*
X198998987Y-50160433D01*
X198995661Y-50161228D01*
X198966492Y-50170833D01*
X198941501Y-50184006D01*
X198920559Y-50200868D01*
X198903537Y-50221540D01*
X198890304Y-50246146D01*
X198882640Y-50267771D01*
X198879441Y-50283088D01*
X198877303Y-50302464D01*
X198876226Y-50324708D01*
X198876212Y-50348627D01*
X198877260Y-50373028D01*
X198879372Y-50396718D01*
X198882532Y-50418418D01*
X198888842Y-50449790D01*
X198896427Y-50480807D01*
X198905565Y-50512303D01*
X198916533Y-50545117D01*
X198929610Y-50580084D01*
X198945072Y-50618041D01*
X198961264Y-50655462D01*
X198959130Y-50657453D01*
X198952091Y-50661592D01*
X198940358Y-50667774D01*
X198924144Y-50675890D01*
X198903661Y-50685836D01*
X198879122Y-50697504D01*
X198855906Y-50708382D01*
X198832948Y-50719047D01*
X198811408Y-50728995D01*
X198791846Y-50737970D01*
X198774822Y-50745719D01*
X198760896Y-50751987D01*
X198750628Y-50756520D01*
X198744578Y-50759064D01*
X198743306Y-50759511D01*
X198740520Y-50759538D01*
X198737730Y-50757712D01*
X198734389Y-50753296D01*
X198729951Y-50745547D01*
X198723869Y-50733725D01*
X198722999Y-50731992D01*
X198695799Y-50671728D01*
X198672935Y-50608423D01*
X198654576Y-50542640D01*
X198640889Y-50474944D01*
X198635746Y-50439726D01*
X198634024Y-50422591D01*
X198632641Y-50401550D01*
X198631602Y-50377650D01*
X198630916Y-50351938D01*
X198630588Y-50325462D01*
X198630626Y-50299269D01*
G36*
X198633750Y-48341073D02*
G01*
X198634617Y-48315308D01*
X198635960Y-48291919D01*
X198637777Y-48272007D01*
X198638719Y-48264684D01*
X198650287Y-48200401D01*
X198665973Y-48139563D01*
X198685744Y-48082275D01*
X198705098Y-48037784D01*
X198709920Y-48028274D01*
X198713510Y-48022887D01*
X198716619Y-48020741D01*
X198719524Y-48020826D01*
X198723814Y-48022182D01*
X198732579Y-48025184D01*
X198745181Y-48029602D01*
X198760984Y-48035205D01*
X198779352Y-48041762D01*
X198799646Y-48049043D01*
X198821229Y-48056817D01*
X198843466Y-48064852D01*
X198865719Y-48072920D01*
X198887351Y-48080788D01*
X198907724Y-48088227D01*
X198926203Y-48095005D01*
X198942150Y-48100892D01*
X198954927Y-48105658D01*
X198963899Y-48109071D01*
X198968428Y-48110900D01*
X198968834Y-48111112D01*
X198968732Y-48114176D01*
X198966846Y-48121287D01*
X198963468Y-48131520D01*
X198958892Y-48143951D01*
X198956478Y-48150119D01*
X198940750Y-48191142D01*
X198927594Y-48228785D01*
X198917137Y-48262657D01*
X198909508Y-48292369D01*
X198909421Y-48292758D01*
X198906582Y-48306145D01*
X198904556Y-48317812D01*
X198903213Y-48329193D01*
X198902421Y-48341725D01*
X198902049Y-48356843D01*
X198901964Y-48374305D01*
X198902064Y-48392803D01*
X198902424Y-48407101D01*
X198903145Y-48418347D01*
X198904326Y-48427687D01*
X198906070Y-48436266D01*
X198908070Y-48443821D01*
X198919469Y-48475312D01*
X198934855Y-48503538D01*
X198954357Y-48528593D01*
X198978103Y-48550571D01*
X199006223Y-48569566D01*
X199038847Y-48585673D01*
X199076104Y-48598987D01*
X199118122Y-48609600D01*
X199141411Y-48614001D01*
X199152321Y-48615782D01*
X199162319Y-48617190D01*
X199172271Y-48618269D01*
X199183042Y-48619062D01*
X199195497Y-48619612D01*
X199210501Y-48619961D01*
X199228920Y-48620154D01*
X199251619Y-48620232D01*
X199267000Y-48620243D01*
X199292651Y-48620212D01*
X199313512Y-48620088D01*
X199330437Y-48619830D01*
X199344278Y-48619397D01*
X199355890Y-48618747D01*
X199366126Y-48617839D01*
X199375841Y-48616631D01*
X199385887Y-48615083D01*
X199390814Y-48614252D01*
X199434686Y-48604894D01*
X199473833Y-48592669D01*
X199508337Y-48577516D01*
X199538276Y-48559376D01*
X199563730Y-48538187D01*
X199584780Y-48513892D01*
X199601505Y-48486428D01*
X199613985Y-48455737D01*
X199617472Y-48443821D01*
X199619841Y-48434174D01*
X199621550Y-48425080D01*
X199622700Y-48415364D01*
X199623392Y-48403853D01*
X199623727Y-48389371D01*
X199623806Y-48370743D01*
X199623806Y-48370295D01*
X199622404Y-48326878D01*
X199618108Y-48286786D01*
X199610665Y-48248616D01*
X199599819Y-48210967D01*
X199590186Y-48184474D01*
X199582245Y-48165764D01*
X199572366Y-48144839D01*
X199561372Y-48123277D01*
X199550085Y-48102659D01*
X199539329Y-48084562D01*
X199533446Y-48075535D01*
X199527676Y-48066937D01*
X199523326Y-48060177D01*
X199521129Y-48056403D01*
X199521000Y-48056029D01*
X199523733Y-48055793D01*
X199531578Y-48055598D01*
X199544000Y-48055446D01*
X199560469Y-48055339D01*
X199580449Y-48055281D01*
X199603409Y-48055272D01*
X199628815Y-48055315D01*
X199656135Y-48055413D01*
X199662816Y-48055444D01*
X199804633Y-48056137D01*
X199821753Y-48084568D01*
X199839763Y-48117157D01*
X199854710Y-48150319D01*
X199866916Y-48185051D01*
X199876706Y-48222349D01*
X199884402Y-48263210D01*
X199888011Y-48288748D01*
X199889097Y-48300294D01*
X199890046Y-48316081D01*
X199890845Y-48335111D01*
X199891479Y-48356384D01*
X199891936Y-48378902D01*
X199892202Y-48401668D01*
X199892264Y-48423682D01*
X199892108Y-48443945D01*
X199891722Y-48461461D01*
X199891090Y-48475230D01*
X199890591Y-48481253D01*
X199883364Y-48533476D01*
X199873222Y-48581505D01*
X199860005Y-48625815D01*
X199843553Y-48666880D01*
X199823704Y-48705175D01*
X199804495Y-48735253D01*
X199775869Y-48771507D01*
X199742890Y-48804401D01*
X199705626Y-48833901D01*
X199664143Y-48859972D01*
X199618508Y-48882579D01*
X199568788Y-48901690D01*
X199515051Y-48917269D01*
X199457363Y-48929281D01*
X199412350Y-48935833D01*
X199371314Y-48939811D01*
X199327130Y-48942326D01*
X199281350Y-48943382D01*
X199235529Y-48942980D01*
X199191220Y-48941122D01*
X199149977Y-48937810D01*
X199130122Y-48935495D01*
X199069357Y-48925477D01*
X199012722Y-48911891D01*
X198960087Y-48894681D01*
X198911327Y-48873792D01*
X198866314Y-48849167D01*
X198824919Y-48820752D01*
X198787017Y-48788491D01*
X198781305Y-48783005D01*
X198750088Y-48749577D01*
X198722847Y-48713992D01*
X198699386Y-48675841D01*
X198679510Y-48634714D01*
X198663024Y-48590203D01*
X198649734Y-48541900D01*
X198639444Y-48489395D01*
X198638577Y-48483926D01*
X198636575Y-48467018D01*
X198635053Y-48445881D01*
X198634011Y-48421618D01*
X198633446Y-48395329D01*
X198633360Y-48368114D01*
X198633750Y-48341073D01*
G37*
X198633750Y-48341073D02*
X198634617Y-48315308D01*
X198635960Y-48291919D01*
X198637777Y-48272007D01*
X198638719Y-48264684D01*
X198650287Y-48200401D01*
X198665973Y-48139563D01*
X198685744Y-48082275D01*
X198705098Y-48037784D01*
X198709920Y-48028274D01*
X198713510Y-48022887D01*
X198716619Y-48020741D01*
X198719524Y-48020826D01*
X198723814Y-48022182D01*
X198732579Y-48025184D01*
X198745181Y-48029602D01*
X198760984Y-48035205D01*
X198779352Y-48041762D01*
X198799646Y-48049043D01*
X198821229Y-48056817D01*
X198843466Y-48064852D01*
X198865719Y-48072920D01*
X198887351Y-48080788D01*
X198907724Y-48088227D01*
X198926203Y-48095005D01*
X198942150Y-48100892D01*
X198954927Y-48105658D01*
X198963899Y-48109071D01*
X198968428Y-48110900D01*
X198968834Y-48111112D01*
X198968732Y-48114176D01*
X198966846Y-48121287D01*
X198963468Y-48131520D01*
X198958892Y-48143951D01*
X198956478Y-48150119D01*
X198940750Y-48191142D01*
X198927594Y-48228785D01*
X198917137Y-48262657D01*
X198909508Y-48292369D01*
X198909421Y-48292758D01*
X198906582Y-48306145D01*
X198904556Y-48317812D01*
X198903213Y-48329193D01*
X198902421Y-48341725D01*
X198902049Y-48356843D01*
X198901964Y-48374305D01*
X198902064Y-48392803D01*
X198902424Y-48407101D01*
X198903145Y-48418347D01*
X198904326Y-48427687D01*
X198906070Y-48436266D01*
X198908070Y-48443821D01*
X198919469Y-48475312D01*
X198934855Y-48503538D01*
X198954357Y-48528593D01*
X198978103Y-48550571D01*
X199006223Y-48569566D01*
X199038847Y-48585673D01*
X199076104Y-48598987D01*
X199118122Y-48609600D01*
X199141411Y-48614001D01*
X199152321Y-48615782D01*
X199162319Y-48617190D01*
X199172271Y-48618269D01*
X199183042Y-48619062D01*
X199195497Y-48619612D01*
X199210501Y-48619961D01*
X199228920Y-48620154D01*
X199251619Y-48620232D01*
X199267000Y-48620243D01*
X199292651Y-48620212D01*
X199313512Y-48620088D01*
X199330437Y-48619830D01*
X199344278Y-48619397D01*
X199355890Y-48618747D01*
X199366126Y-48617839D01*
X199375841Y-48616631D01*
X199385887Y-48615083D01*
X199390814Y-48614252D01*
X199434686Y-48604894D01*
X199473833Y-48592669D01*
X199508337Y-48577516D01*
X199538276Y-48559376D01*
X199563730Y-48538187D01*
X199584780Y-48513892D01*
X199601505Y-48486428D01*
X199613985Y-48455737D01*
X199617472Y-48443821D01*
X199619841Y-48434174D01*
X199621550Y-48425080D01*
X199622700Y-48415364D01*
X199623392Y-48403853D01*
X199623727Y-48389371D01*
X199623806Y-48370743D01*
X199623806Y-48370295D01*
X199622404Y-48326878D01*
X199618108Y-48286786D01*
X199610665Y-48248616D01*
X199599819Y-48210967D01*
X199590186Y-48184474D01*
X199582245Y-48165764D01*
X199572366Y-48144839D01*
X199561372Y-48123277D01*
X199550085Y-48102659D01*
X199539329Y-48084562D01*
X199533446Y-48075535D01*
X199527676Y-48066937D01*
X199523326Y-48060177D01*
X199521129Y-48056403D01*
X199521000Y-48056029D01*
X199523733Y-48055793D01*
X199531578Y-48055598D01*
X199544000Y-48055446D01*
X199560469Y-48055339D01*
X199580449Y-48055281D01*
X199603409Y-48055272D01*
X199628815Y-48055315D01*
X199656135Y-48055413D01*
X199662816Y-48055444D01*
X199804633Y-48056137D01*
X199821753Y-48084568D01*
X199839763Y-48117157D01*
X199854710Y-48150319D01*
X199866916Y-48185051D01*
X199876706Y-48222349D01*
X199884402Y-48263210D01*
X199888011Y-48288748D01*
X199889097Y-48300294D01*
X199890046Y-48316081D01*
X199890845Y-48335111D01*
X199891479Y-48356384D01*
X199891936Y-48378902D01*
X199892202Y-48401668D01*
X199892264Y-48423682D01*
X199892108Y-48443945D01*
X199891722Y-48461461D01*
X199891090Y-48475230D01*
X199890591Y-48481253D01*
X199883364Y-48533476D01*
X199873222Y-48581505D01*
X199860005Y-48625815D01*
X199843553Y-48666880D01*
X199823704Y-48705175D01*
X199804495Y-48735253D01*
X199775869Y-48771507D01*
X199742890Y-48804401D01*
X199705626Y-48833901D01*
X199664143Y-48859972D01*
X199618508Y-48882579D01*
X199568788Y-48901690D01*
X199515051Y-48917269D01*
X199457363Y-48929281D01*
X199412350Y-48935833D01*
X199371314Y-48939811D01*
X199327130Y-48942326D01*
X199281350Y-48943382D01*
X199235529Y-48942980D01*
X199191220Y-48941122D01*
X199149977Y-48937810D01*
X199130122Y-48935495D01*
X199069357Y-48925477D01*
X199012722Y-48911891D01*
X198960087Y-48894681D01*
X198911327Y-48873792D01*
X198866314Y-48849167D01*
X198824919Y-48820752D01*
X198787017Y-48788491D01*
X198781305Y-48783005D01*
X198750088Y-48749577D01*
X198722847Y-48713992D01*
X198699386Y-48675841D01*
X198679510Y-48634714D01*
X198663024Y-48590203D01*
X198649734Y-48541900D01*
X198639444Y-48489395D01*
X198638577Y-48483926D01*
X198636575Y-48467018D01*
X198635053Y-48445881D01*
X198634011Y-48421618D01*
X198633446Y-48395329D01*
X198633360Y-48368114D01*
X198633750Y-48341073D01*
G36*
X197472388Y-55141383D02*
G01*
X197473831Y-55136791D01*
X197476875Y-55132724D01*
X197479456Y-55130042D01*
X197485685Y-55125320D01*
X197495809Y-55119395D01*
X197508469Y-55113023D01*
X197517222Y-55109080D01*
X197527512Y-55104515D01*
X197541939Y-55097915D01*
X197559624Y-55089699D01*
X197579688Y-55080286D01*
X197601253Y-55070094D01*
X197623440Y-55059542D01*
X197645369Y-55049047D01*
X197666162Y-55039029D01*
X197684941Y-55029906D01*
X197700826Y-55022096D01*
X197712939Y-55016017D01*
X197716189Y-55014343D01*
X197756036Y-54993483D01*
X197791813Y-54974486D01*
X197824486Y-54956798D01*
X197855020Y-54939866D01*
X197884381Y-54923134D01*
X197913533Y-54906050D01*
X197943442Y-54888060D01*
X197975073Y-54868609D01*
X198009392Y-54847145D01*
X198027339Y-54835815D01*
X198044402Y-54824902D01*
X198057193Y-54816425D01*
X198066232Y-54809991D01*
X198072037Y-54805208D01*
X198075127Y-54801685D01*
X198076022Y-54799071D01*
X198074215Y-54792797D01*
X198071789Y-54789811D01*
X198068239Y-54785924D01*
X198067555Y-54784083D01*
X198066157Y-54780546D01*
X198062626Y-54774390D01*
X198060605Y-54771254D01*
X198055150Y-54762449D01*
X198048011Y-54750048D01*
X198039863Y-54735312D01*
X198031380Y-54719504D01*
X198023239Y-54703884D01*
X198016112Y-54689715D01*
X198010677Y-54678258D01*
X198009754Y-54676179D01*
X198005558Y-54666793D01*
X198002000Y-54659262D01*
X197999769Y-54655036D01*
X197999601Y-54654790D01*
X197997412Y-54650291D01*
X197994170Y-54641667D01*
X197990200Y-54629978D01*
X197985829Y-54616283D01*
X197981382Y-54601642D01*
X197977186Y-54587115D01*
X197973568Y-54573762D01*
X197970852Y-54562643D01*
X197969989Y-54558537D01*
X197967600Y-54541347D01*
X197966503Y-54522274D01*
X197966649Y-54502822D01*
X197967992Y-54484489D01*
X197970486Y-54468779D01*
X197973086Y-54459611D01*
X197982838Y-54440179D01*
X197996962Y-54421152D01*
X198014253Y-54403755D01*
X198033504Y-54389214D01*
X198052033Y-54379362D01*
X198080083Y-54370374D01*
X198111639Y-54365426D01*
X198146520Y-54364510D01*
X198184544Y-54367615D01*
X198225534Y-54374732D01*
X198269307Y-54385851D01*
X198289100Y-54391912D01*
X198333518Y-54407728D01*
X198380296Y-54427256D01*
X198428381Y-54449948D01*
X198476719Y-54475259D01*
X198524256Y-54502641D01*
X198569939Y-54531547D01*
X198605471Y-54556144D01*
X198615350Y-54563165D01*
X198623423Y-54568675D01*
X198628749Y-54572047D01*
X198630404Y-54572777D01*
X198630889Y-54569945D01*
X198631729Y-54562765D01*
X198632819Y-54552218D01*
X198634055Y-54539287D01*
X198634494Y-54534474D01*
X198640558Y-54487297D01*
X198649940Y-54444246D01*
X198662764Y-54405040D01*
X198679154Y-54369396D01*
X198699235Y-54337030D01*
X198723132Y-54307661D01*
X198743133Y-54287883D01*
X198755386Y-54277315D01*
X198768477Y-54266899D01*
X198780758Y-54257898D01*
X198789793Y-54252034D01*
X198809751Y-54240369D01*
X198809775Y-54226804D01*
X198809800Y-54213239D01*
X198789339Y-54200136D01*
X198771071Y-54186944D01*
X198751752Y-54170413D01*
X198732871Y-54151981D01*
X198715916Y-54133082D01*
X198704520Y-54118283D01*
X198681087Y-54080141D01*
X198662118Y-54038904D01*
X198647692Y-53994845D01*
X198637890Y-53948238D01*
X198632793Y-53899357D01*
X198632023Y-53871196D01*
X198634008Y-53820563D01*
X198639995Y-53772971D01*
X198649919Y-53728577D01*
X198663714Y-53687534D01*
X198681313Y-53649997D01*
X198702653Y-53616121D01*
X198727667Y-53586062D01*
X198756290Y-53559974D01*
X198767139Y-53551816D01*
X198791716Y-53536370D01*
X198820467Y-53521859D01*
X198851935Y-53508877D01*
X198884662Y-53498017D01*
X198917190Y-53489873D01*
X198921277Y-53489054D01*
X198929991Y-53487354D01*
X198937992Y-53485809D01*
X198945575Y-53484411D01*
X198953033Y-53483152D01*
X198960661Y-53482023D01*
X198968754Y-53481018D01*
X198977607Y-53480128D01*
X198987513Y-53479345D01*
X198998767Y-53478661D01*
X199011664Y-53478068D01*
X199026499Y-53477559D01*
X199043565Y-53477124D01*
X199063157Y-53476757D01*
X199085569Y-53476449D01*
X199111097Y-53476192D01*
X199140034Y-53475978D01*
X199172676Y-53475799D01*
X199209316Y-53475648D01*
X199250249Y-53475516D01*
X199295769Y-53475395D01*
X199346172Y-53475278D01*
X199401750Y-53475156D01*
X199437039Y-53475079D01*
X199870955Y-53474121D01*
X199870955Y-53789853D01*
X199513239Y-53789876D01*
X199463026Y-53789901D01*
X199414910Y-53789968D01*
X199369205Y-53790074D01*
X199326226Y-53790218D01*
X199286287Y-53790397D01*
X199249703Y-53790609D01*
X199216789Y-53790852D01*
X199187859Y-53791124D01*
X199163229Y-53791423D01*
X199143212Y-53791747D01*
X199128123Y-53792093D01*
X199118278Y-53792459D01*
X199116529Y-53792563D01*
X199087562Y-53795057D01*
X199062532Y-53798430D01*
X199039764Y-53802978D01*
X199017583Y-53808993D01*
X199010851Y-53811110D01*
X198981125Y-53823050D01*
X198955924Y-53838187D01*
X198935249Y-53856518D01*
X198919102Y-53878040D01*
X198907486Y-53902748D01*
X198900404Y-53930641D01*
X198897856Y-53961715D01*
X198898277Y-53978348D01*
X198900357Y-54001634D01*
X198903995Y-54021671D01*
X198909721Y-54040470D01*
X198918066Y-54060038D01*
X198921824Y-54067679D01*
X198937789Y-54093115D01*
X198958498Y-54115768D01*
X198983819Y-54135550D01*
X199013621Y-54152371D01*
X199047770Y-54166142D01*
X199082144Y-54175863D01*
X199093066Y-54178377D01*
X199103429Y-54180643D01*
X199113571Y-54182671D01*
X199123831Y-54184476D01*
X199134546Y-54186070D01*
X199146054Y-54187467D01*
X199158693Y-54188679D01*
X199172802Y-54189719D01*
X199188717Y-54190601D01*
X199206779Y-54191338D01*
X199227323Y-54191943D01*
X199250689Y-54192428D01*
X199277214Y-54192806D01*
X199307236Y-54193092D01*
X199341094Y-54193297D01*
X199379124Y-54193435D01*
X199421667Y-54193519D01*
X199469058Y-54193561D01*
X199521637Y-54193576D01*
X199541461Y-54193577D01*
X199870955Y-54193579D01*
X199870955Y-54508896D01*
X199479372Y-54509830D01*
X199424037Y-54509966D01*
X199374056Y-54510101D01*
X199329137Y-54510237D01*
X199288990Y-54510379D01*
X199253322Y-54510530D01*
X199221843Y-54510694D01*
X199194262Y-54510876D01*
X199170288Y-54511079D01*
X199149629Y-54511306D01*
X199131995Y-54511563D01*
X199117094Y-54511851D01*
X199104636Y-54512176D01*
X199094328Y-54512541D01*
X199085881Y-54512950D01*
X199079003Y-54513407D01*
X199073403Y-54513915D01*
X199068789Y-54514479D01*
X199064871Y-54515103D01*
X199063800Y-54515299D01*
X199027742Y-54523588D01*
X198996672Y-54533972D01*
X198970301Y-54546650D01*
X198948341Y-54561820D01*
X198930501Y-54579682D01*
X198916494Y-54600432D01*
X198906336Y-54623390D01*
X198903443Y-54632129D01*
X198901434Y-54639944D01*
X198900154Y-54648143D01*
X198899447Y-54658033D01*
X198899159Y-54670921D01*
X198899126Y-54684200D01*
X198899323Y-54701895D01*
X198899944Y-54715652D01*
X198901129Y-54726877D01*
X198903017Y-54736972D01*
X198905275Y-54745695D01*
X198915127Y-54773146D01*
X198928384Y-54797812D01*
X198945231Y-54819785D01*
X198965857Y-54839158D01*
X198990449Y-54856024D01*
X199019195Y-54870476D01*
X199052281Y-54882606D01*
X199089895Y-54892507D01*
X199132224Y-54900272D01*
X199179456Y-54905994D01*
X199231779Y-54909764D01*
X199237366Y-54910041D01*
X199248214Y-54910420D01*
X199264229Y-54910784D01*
X199284932Y-54911129D01*
X199309848Y-54911452D01*
X199338498Y-54911747D01*
X199370405Y-54912013D01*
X199405091Y-54912244D01*
X199442078Y-54912438D01*
X199480890Y-54912590D01*
X199521048Y-54912697D01*
X199562075Y-54912754D01*
X199582383Y-54912763D01*
X199870955Y-54912800D01*
X199870955Y-55225621D01*
X199511122Y-55225621D01*
X199452360Y-55225639D01*
X199399148Y-55225692D01*
X199351391Y-55225782D01*
X199308992Y-55225909D01*
X199271858Y-55226074D01*
X199239893Y-55226278D01*
X199213003Y-55226522D01*
X199191092Y-55226805D01*
X199174065Y-55227130D01*
X199161827Y-55227496D01*
X199154284Y-55227904D01*
X199151339Y-55228356D01*
X199151289Y-55228428D01*
X199152495Y-55232590D01*
X199155414Y-55238791D01*
X199155555Y-55239051D01*
X199157729Y-55243921D01*
X199161316Y-55252971D01*
X199165977Y-55265300D01*
X199171372Y-55280005D01*
X199177161Y-55296185D01*
X199178358Y-55299579D01*
X199194930Y-55350301D01*
X199208322Y-55399025D01*
X199218514Y-55445480D01*
X199225485Y-55489391D01*
X199229217Y-55530488D01*
X199229688Y-55568498D01*
X199226880Y-55603148D01*
X199220771Y-55634167D01*
X199211341Y-55661282D01*
X199205767Y-55672581D01*
X199190155Y-55696077D01*
X199171666Y-55715006D01*
X199150400Y-55729341D01*
X199126456Y-55739061D01*
X199099932Y-55744139D01*
X199070929Y-55744553D01*
X199039544Y-55740279D01*
X199031344Y-55738090D01*
X199031344Y-55006379D01*
X199032755Y-55005042D01*
X199031344Y-55003705D01*
X199029933Y-55005042D01*
X199031344Y-55006379D01*
X199031344Y-55738090D01*
X199005877Y-55731291D01*
X198989116Y-55725364D01*
X198961847Y-55713637D01*
X198932055Y-55698396D01*
X198909989Y-55685628D01*
X198909989Y-54840611D01*
X198911400Y-54839274D01*
X198909989Y-54837937D01*
X198908577Y-54839274D01*
X198909989Y-54840611D01*
X198909989Y-55685628D01*
X198900761Y-55680288D01*
X198895877Y-55677164D01*
X198895877Y-54824569D01*
X198897289Y-54823232D01*
X198895877Y-54821895D01*
X198894466Y-54823232D01*
X198895877Y-54824569D01*
X198895877Y-55677164D01*
X198868987Y-55659960D01*
X198837755Y-55638058D01*
X198808086Y-55615231D01*
X198786540Y-55597070D01*
X198778834Y-55590619D01*
X198772497Y-55585931D01*
X198768818Y-55583954D01*
X198768684Y-55583942D01*
X198765109Y-55585869D01*
X198758182Y-55591465D01*
X198748257Y-55600366D01*
X198735691Y-55612210D01*
X198720840Y-55626634D01*
X198704059Y-55643276D01*
X198685705Y-55661771D01*
X198666133Y-55681759D01*
X198645699Y-55702876D01*
X198624760Y-55724758D01*
X198603670Y-55747045D01*
X198582786Y-55769372D01*
X198562464Y-55791376D01*
X198543059Y-55812697D01*
X198530050Y-55827200D01*
X198511643Y-55848215D01*
X198490882Y-55872520D01*
X198468494Y-55899219D01*
X198445208Y-55927419D01*
X198421749Y-55956225D01*
X198398845Y-55984743D01*
X198377224Y-56012079D01*
X198357610Y-56037339D01*
X198340733Y-56059628D01*
X198337077Y-56064562D01*
X198329499Y-56073991D01*
X198322187Y-56081621D01*
X198316343Y-56086233D01*
X198315244Y-56086774D01*
X198303966Y-56088546D01*
X198289299Y-56086441D01*
X198271564Y-56080613D01*
X198251080Y-56071218D01*
X198228166Y-56058409D01*
X198203141Y-56042341D01*
X198176324Y-56023171D01*
X198162898Y-56012902D01*
X198133457Y-55989063D01*
X198101260Y-55961420D01*
X198066857Y-55930506D01*
X198030796Y-55896851D01*
X197993628Y-55860988D01*
X197955900Y-55823449D01*
X197918162Y-55784765D01*
X197880964Y-55745467D01*
X197844854Y-55706088D01*
X197837164Y-55697526D01*
X197800734Y-55656045D01*
X197763606Y-55612322D01*
X197726583Y-55567362D01*
X197690469Y-55522170D01*
X197656068Y-55477750D01*
X197624182Y-55435106D01*
X197597597Y-55398074D01*
X197577760Y-55369508D01*
X197560786Y-55344402D01*
X197546164Y-55321930D01*
X197533378Y-55301265D01*
X197521916Y-55281584D01*
X197511264Y-55262061D01*
X197502861Y-55245762D01*
X197492393Y-55224255D01*
X197484547Y-55206273D01*
X197478973Y-55190797D01*
X197475318Y-55176809D01*
X197473232Y-55163287D01*
X197472813Y-55158547D01*
X197472173Y-55148101D01*
X197472388Y-55141383D01*
G37*
X197472388Y-55141383D02*
X197473831Y-55136791D01*
X197476875Y-55132724D01*
X197479456Y-55130042D01*
X197485685Y-55125320D01*
X197495809Y-55119395D01*
X197508469Y-55113023D01*
X197517222Y-55109080D01*
X197527512Y-55104515D01*
X197541939Y-55097915D01*
X197559624Y-55089699D01*
X197579688Y-55080286D01*
X197601253Y-55070094D01*
X197623440Y-55059542D01*
X197645369Y-55049047D01*
X197666162Y-55039029D01*
X197684941Y-55029906D01*
X197700826Y-55022096D01*
X197712939Y-55016017D01*
X197716189Y-55014343D01*
X197756036Y-54993483D01*
X197791813Y-54974486D01*
X197824486Y-54956798D01*
X197855020Y-54939866D01*
X197884381Y-54923134D01*
X197913533Y-54906050D01*
X197943442Y-54888060D01*
X197975073Y-54868609D01*
X198009392Y-54847145D01*
X198027339Y-54835815D01*
X198044402Y-54824902D01*
X198057193Y-54816425D01*
X198066232Y-54809991D01*
X198072037Y-54805208D01*
X198075127Y-54801685D01*
X198076022Y-54799071D01*
X198074215Y-54792797D01*
X198071789Y-54789811D01*
X198068239Y-54785924D01*
X198067555Y-54784083D01*
X198066157Y-54780546D01*
X198062626Y-54774390D01*
X198060605Y-54771254D01*
X198055150Y-54762449D01*
X198048011Y-54750048D01*
X198039863Y-54735312D01*
X198031380Y-54719504D01*
X198023239Y-54703884D01*
X198016112Y-54689715D01*
X198010677Y-54678258D01*
X198009754Y-54676179D01*
X198005558Y-54666793D01*
X198002000Y-54659262D01*
X197999769Y-54655036D01*
X197999601Y-54654790D01*
X197997412Y-54650291D01*
X197994170Y-54641667D01*
X197990200Y-54629978D01*
X197985829Y-54616283D01*
X197981382Y-54601642D01*
X197977186Y-54587115D01*
X197973568Y-54573762D01*
X197970852Y-54562643D01*
X197969989Y-54558537D01*
X197967600Y-54541347D01*
X197966503Y-54522274D01*
X197966649Y-54502822D01*
X197967992Y-54484489D01*
X197970486Y-54468779D01*
X197973086Y-54459611D01*
X197982838Y-54440179D01*
X197996962Y-54421152D01*
X198014253Y-54403755D01*
X198033504Y-54389214D01*
X198052033Y-54379362D01*
X198080083Y-54370374D01*
X198111639Y-54365426D01*
X198146520Y-54364510D01*
X198184544Y-54367615D01*
X198225534Y-54374732D01*
X198269307Y-54385851D01*
X198289100Y-54391912D01*
X198333518Y-54407728D01*
X198380296Y-54427256D01*
X198428381Y-54449948D01*
X198476719Y-54475259D01*
X198524256Y-54502641D01*
X198569939Y-54531547D01*
X198605471Y-54556144D01*
X198615350Y-54563165D01*
X198623423Y-54568675D01*
X198628749Y-54572047D01*
X198630404Y-54572777D01*
X198630889Y-54569945D01*
X198631729Y-54562765D01*
X198632819Y-54552218D01*
X198634055Y-54539287D01*
X198634494Y-54534474D01*
X198640558Y-54487297D01*
X198649940Y-54444246D01*
X198662764Y-54405040D01*
X198679154Y-54369396D01*
X198699235Y-54337030D01*
X198723132Y-54307661D01*
X198743133Y-54287883D01*
X198755386Y-54277315D01*
X198768477Y-54266899D01*
X198780758Y-54257898D01*
X198789793Y-54252034D01*
X198809751Y-54240369D01*
X198809775Y-54226804D01*
X198809800Y-54213239D01*
X198789339Y-54200136D01*
X198771071Y-54186944D01*
X198751752Y-54170413D01*
X198732871Y-54151981D01*
X198715916Y-54133082D01*
X198704520Y-54118283D01*
X198681087Y-54080141D01*
X198662118Y-54038904D01*
X198647692Y-53994845D01*
X198637890Y-53948238D01*
X198632793Y-53899357D01*
X198632023Y-53871196D01*
X198634008Y-53820563D01*
X198639995Y-53772971D01*
X198649919Y-53728577D01*
X198663714Y-53687534D01*
X198681313Y-53649997D01*
X198702653Y-53616121D01*
X198727667Y-53586062D01*
X198756290Y-53559974D01*
X198767139Y-53551816D01*
X198791716Y-53536370D01*
X198820467Y-53521859D01*
X198851935Y-53508877D01*
X198884662Y-53498017D01*
X198917190Y-53489873D01*
X198921277Y-53489054D01*
X198929991Y-53487354D01*
X198937992Y-53485809D01*
X198945575Y-53484411D01*
X198953033Y-53483152D01*
X198960661Y-53482023D01*
X198968754Y-53481018D01*
X198977607Y-53480128D01*
X198987513Y-53479345D01*
X198998767Y-53478661D01*
X199011664Y-53478068D01*
X199026499Y-53477559D01*
X199043565Y-53477124D01*
X199063157Y-53476757D01*
X199085569Y-53476449D01*
X199111097Y-53476192D01*
X199140034Y-53475978D01*
X199172676Y-53475799D01*
X199209316Y-53475648D01*
X199250249Y-53475516D01*
X199295769Y-53475395D01*
X199346172Y-53475278D01*
X199401750Y-53475156D01*
X199437039Y-53475079D01*
X199870955Y-53474121D01*
X199870955Y-53789853D01*
X199513239Y-53789876D01*
X199463026Y-53789901D01*
X199414910Y-53789968D01*
X199369205Y-53790074D01*
X199326226Y-53790218D01*
X199286287Y-53790397D01*
X199249703Y-53790609D01*
X199216789Y-53790852D01*
X199187859Y-53791124D01*
X199163229Y-53791423D01*
X199143212Y-53791747D01*
X199128123Y-53792093D01*
X199118278Y-53792459D01*
X199116529Y-53792563D01*
X199087562Y-53795057D01*
X199062532Y-53798430D01*
X199039764Y-53802978D01*
X199017583Y-53808993D01*
X199010851Y-53811110D01*
X198981125Y-53823050D01*
X198955924Y-53838187D01*
X198935249Y-53856518D01*
X198919102Y-53878040D01*
X198907486Y-53902748D01*
X198900404Y-53930641D01*
X198897856Y-53961715D01*
X198898277Y-53978348D01*
X198900357Y-54001634D01*
X198903995Y-54021671D01*
X198909721Y-54040470D01*
X198918066Y-54060038D01*
X198921824Y-54067679D01*
X198937789Y-54093115D01*
X198958498Y-54115768D01*
X198983819Y-54135550D01*
X199013621Y-54152371D01*
X199047770Y-54166142D01*
X199082144Y-54175863D01*
X199093066Y-54178377D01*
X199103429Y-54180643D01*
X199113571Y-54182671D01*
X199123831Y-54184476D01*
X199134546Y-54186070D01*
X199146054Y-54187467D01*
X199158693Y-54188679D01*
X199172802Y-54189719D01*
X199188717Y-54190601D01*
X199206779Y-54191338D01*
X199227323Y-54191943D01*
X199250689Y-54192428D01*
X199277214Y-54192806D01*
X199307236Y-54193092D01*
X199341094Y-54193297D01*
X199379124Y-54193435D01*
X199421667Y-54193519D01*
X199469058Y-54193561D01*
X199521637Y-54193576D01*
X199541461Y-54193577D01*
X199870955Y-54193579D01*
X199870955Y-54508896D01*
X199479372Y-54509830D01*
X199424037Y-54509966D01*
X199374056Y-54510101D01*
X199329137Y-54510237D01*
X199288990Y-54510379D01*
X199253322Y-54510530D01*
X199221843Y-54510694D01*
X199194262Y-54510876D01*
X199170288Y-54511079D01*
X199149629Y-54511306D01*
X199131995Y-54511563D01*
X199117094Y-54511851D01*
X199104636Y-54512176D01*
X199094328Y-54512541D01*
X199085881Y-54512950D01*
X199079003Y-54513407D01*
X199073403Y-54513915D01*
X199068789Y-54514479D01*
X199064871Y-54515103D01*
X199063800Y-54515299D01*
X199027742Y-54523588D01*
X198996672Y-54533972D01*
X198970301Y-54546650D01*
X198948341Y-54561820D01*
X198930501Y-54579682D01*
X198916494Y-54600432D01*
X198906336Y-54623390D01*
X198903443Y-54632129D01*
X198901434Y-54639944D01*
X198900154Y-54648143D01*
X198899447Y-54658033D01*
X198899159Y-54670921D01*
X198899126Y-54684200D01*
X198899323Y-54701895D01*
X198899944Y-54715652D01*
X198901129Y-54726877D01*
X198903017Y-54736972D01*
X198905275Y-54745695D01*
X198915127Y-54773146D01*
X198928384Y-54797812D01*
X198945231Y-54819785D01*
X198965857Y-54839158D01*
X198990449Y-54856024D01*
X199019195Y-54870476D01*
X199052281Y-54882606D01*
X199089895Y-54892507D01*
X199132224Y-54900272D01*
X199179456Y-54905994D01*
X199231779Y-54909764D01*
X199237366Y-54910041D01*
X199248214Y-54910420D01*
X199264229Y-54910784D01*
X199284932Y-54911129D01*
X199309848Y-54911452D01*
X199338498Y-54911747D01*
X199370405Y-54912013D01*
X199405091Y-54912244D01*
X199442078Y-54912438D01*
X199480890Y-54912590D01*
X199521048Y-54912697D01*
X199562075Y-54912754D01*
X199582383Y-54912763D01*
X199870955Y-54912800D01*
X199870955Y-55225621D01*
X199511122Y-55225621D01*
X199452360Y-55225639D01*
X199399148Y-55225692D01*
X199351391Y-55225782D01*
X199308992Y-55225909D01*
X199271858Y-55226074D01*
X199239893Y-55226278D01*
X199213003Y-55226522D01*
X199191092Y-55226805D01*
X199174065Y-55227130D01*
X199161827Y-55227496D01*
X199154284Y-55227904D01*
X199151339Y-55228356D01*
X199151289Y-55228428D01*
X199152495Y-55232590D01*
X199155414Y-55238791D01*
X199155555Y-55239051D01*
X199157729Y-55243921D01*
X199161316Y-55252971D01*
X199165977Y-55265300D01*
X199171372Y-55280005D01*
X199177161Y-55296185D01*
X199178358Y-55299579D01*
X199194930Y-55350301D01*
X199208322Y-55399025D01*
X199218514Y-55445480D01*
X199225485Y-55489391D01*
X199229217Y-55530488D01*
X199229688Y-55568498D01*
X199226880Y-55603148D01*
X199220771Y-55634167D01*
X199211341Y-55661282D01*
X199205767Y-55672581D01*
X199190155Y-55696077D01*
X199171666Y-55715006D01*
X199150400Y-55729341D01*
X199126456Y-55739061D01*
X199099932Y-55744139D01*
X199070929Y-55744553D01*
X199039544Y-55740279D01*
X199031344Y-55738090D01*
X199031344Y-55006379D01*
X199032755Y-55005042D01*
X199031344Y-55003705D01*
X199029933Y-55005042D01*
X199031344Y-55006379D01*
X199031344Y-55738090D01*
X199005877Y-55731291D01*
X198989116Y-55725364D01*
X198961847Y-55713637D01*
X198932055Y-55698396D01*
X198909989Y-55685628D01*
X198909989Y-54840611D01*
X198911400Y-54839274D01*
X198909989Y-54837937D01*
X198908577Y-54839274D01*
X198909989Y-54840611D01*
X198909989Y-55685628D01*
X198900761Y-55680288D01*
X198895877Y-55677164D01*
X198895877Y-54824569D01*
X198897289Y-54823232D01*
X198895877Y-54821895D01*
X198894466Y-54823232D01*
X198895877Y-54824569D01*
X198895877Y-55677164D01*
X198868987Y-55659960D01*
X198837755Y-55638058D01*
X198808086Y-55615231D01*
X198786540Y-55597070D01*
X198778834Y-55590619D01*
X198772497Y-55585931D01*
X198768818Y-55583954D01*
X198768684Y-55583942D01*
X198765109Y-55585869D01*
X198758182Y-55591465D01*
X198748257Y-55600366D01*
X198735691Y-55612210D01*
X198720840Y-55626634D01*
X198704059Y-55643276D01*
X198685705Y-55661771D01*
X198666133Y-55681759D01*
X198645699Y-55702876D01*
X198624760Y-55724758D01*
X198603670Y-55747045D01*
X198582786Y-55769372D01*
X198562464Y-55791376D01*
X198543059Y-55812697D01*
X198530050Y-55827200D01*
X198511643Y-55848215D01*
X198490882Y-55872520D01*
X198468494Y-55899219D01*
X198445208Y-55927419D01*
X198421749Y-55956225D01*
X198398845Y-55984743D01*
X198377224Y-56012079D01*
X198357610Y-56037339D01*
X198340733Y-56059628D01*
X198337077Y-56064562D01*
X198329499Y-56073991D01*
X198322187Y-56081621D01*
X198316343Y-56086233D01*
X198315244Y-56086774D01*
X198303966Y-56088546D01*
X198289299Y-56086441D01*
X198271564Y-56080613D01*
X198251080Y-56071218D01*
X198228166Y-56058409D01*
X198203141Y-56042341D01*
X198176324Y-56023171D01*
X198162898Y-56012902D01*
X198133457Y-55989063D01*
X198101260Y-55961420D01*
X198066857Y-55930506D01*
X198030796Y-55896851D01*
X197993628Y-55860988D01*
X197955900Y-55823449D01*
X197918162Y-55784765D01*
X197880964Y-55745467D01*
X197844854Y-55706088D01*
X197837164Y-55697526D01*
X197800734Y-55656045D01*
X197763606Y-55612322D01*
X197726583Y-55567362D01*
X197690469Y-55522170D01*
X197656068Y-55477750D01*
X197624182Y-55435106D01*
X197597597Y-55398074D01*
X197577760Y-55369508D01*
X197560786Y-55344402D01*
X197546164Y-55321930D01*
X197533378Y-55301265D01*
X197521916Y-55281584D01*
X197511264Y-55262061D01*
X197502861Y-55245762D01*
X197492393Y-55224255D01*
X197484547Y-55206273D01*
X197478973Y-55190797D01*
X197475318Y-55176809D01*
X197473232Y-55163287D01*
X197472813Y-55158547D01*
X197472173Y-55148101D01*
X197472388Y-55141383D01*
G36*
X199870955Y-49204484D02*
G01*
X199870955Y-49517305D01*
X198654577Y-49517305D01*
X198654577Y-49204484D01*
X199870955Y-49204484D01*
G37*
X199870955Y-49204484D02*
X199870955Y-49517305D01*
X198654577Y-49517305D01*
X198654577Y-49204484D01*
X199870955Y-49204484D01*
G36*
X198902933Y-47442526D02*
G01*
X198902933Y-46846295D01*
X198279222Y-46846295D01*
X198279222Y-46528126D01*
X199870955Y-46528126D01*
X199870955Y-46846295D01*
X199185155Y-46846295D01*
X199185155Y-47442526D01*
X199870955Y-47442526D01*
X199870955Y-47763369D01*
X198279222Y-47763369D01*
X198279222Y-47442526D01*
X198902933Y-47442526D01*
G37*
X198902933Y-47442526D02*
X198902933Y-46846295D01*
X198279222Y-46846295D01*
X198279222Y-46528126D01*
X199870955Y-46528126D01*
X199870955Y-46846295D01*
X199185155Y-46846295D01*
X199185155Y-47442526D01*
X199870955Y-47442526D01*
X199870955Y-47763369D01*
X198279222Y-47763369D01*
X198279222Y-47442526D01*
X198902933Y-47442526D01*
G36*
X199068033Y-45146616D02*
G01*
X199132705Y-45124976D01*
X199196018Y-45103791D01*
X199257763Y-45083131D01*
X199317733Y-45063065D01*
X199375720Y-45043664D01*
X199431515Y-45024997D01*
X199484910Y-45007132D01*
X199535698Y-44990141D01*
X199583669Y-44974093D01*
X199628617Y-44959057D01*
X199670332Y-44945102D01*
X199708608Y-44932300D01*
X199743235Y-44920718D01*
X199774005Y-44910427D01*
X199800712Y-44901496D01*
X199823145Y-44893995D01*
X199841099Y-44887993D01*
X199854363Y-44883561D01*
X199862731Y-44880768D01*
X199865993Y-44879682D01*
X199866016Y-44879675D01*
X199867008Y-44879586D01*
X199867858Y-44880252D01*
X199868576Y-44882049D01*
X199869174Y-44885357D01*
X199869663Y-44890555D01*
X199870054Y-44898020D01*
X199870358Y-44908131D01*
X199870585Y-44921266D01*
X199870746Y-44937805D01*
X199870853Y-44958124D01*
X199870916Y-44982603D01*
X199870946Y-45011621D01*
X199870955Y-45045554D01*
X199870955Y-45223219D01*
X199856139Y-45227353D01*
X199850874Y-45228849D01*
X199840715Y-45231762D01*
X199826164Y-45235947D01*
X199807725Y-45241258D01*
X199785902Y-45247552D01*
X199761197Y-45254681D01*
X199734113Y-45262502D01*
X199705155Y-45270869D01*
X199674826Y-45279636D01*
X199667755Y-45281681D01*
X199494189Y-45331875D01*
X199494189Y-45882121D01*
X199667755Y-45932338D01*
X199698327Y-45941181D01*
X199727642Y-45949657D01*
X199755198Y-45957620D01*
X199780491Y-45964926D01*
X199803017Y-45971428D01*
X199822274Y-45976982D01*
X199837757Y-45981442D01*
X199848965Y-45984663D01*
X199855393Y-45986500D01*
X199856139Y-45986710D01*
X199870955Y-45990865D01*
X199870955Y-46163243D01*
X199870945Y-46193059D01*
X199870914Y-46221240D01*
X199870865Y-46247338D01*
X199870800Y-46270910D01*
X199870720Y-46291509D01*
X199870627Y-46308690D01*
X199870523Y-46322007D01*
X199870411Y-46331015D01*
X199870290Y-46335268D01*
X199870250Y-46335552D01*
X199867564Y-46334671D01*
X199859760Y-46332083D01*
X199847043Y-46327859D01*
X199829621Y-46322065D01*
X199807699Y-46314772D01*
X199781484Y-46306048D01*
X199751181Y-46295961D01*
X199716997Y-46284580D01*
X199679138Y-46271974D01*
X199637811Y-46258212D01*
X199593221Y-46243361D01*
X199545575Y-46227492D01*
X199495078Y-46210671D01*
X199441938Y-46192969D01*
X199386360Y-46174454D01*
X199328551Y-46155195D01*
X199268717Y-46135259D01*
X199207063Y-46114717D01*
X199206550Y-46114547D01*
X199206550Y-45799842D01*
X199207359Y-45799179D01*
X199208051Y-45797442D01*
X199208635Y-45794277D01*
X199209122Y-45789327D01*
X199209518Y-45782237D01*
X199209835Y-45772652D01*
X199210080Y-45760216D01*
X199210262Y-45744574D01*
X199210392Y-45725370D01*
X199210477Y-45702249D01*
X199210526Y-45674855D01*
X199210549Y-45642833D01*
X199210555Y-45605827D01*
X199210555Y-45408591D01*
X199129416Y-45432456D01*
X199063921Y-45451714D01*
X199003568Y-45469444D01*
X198948113Y-45485718D01*
X198897310Y-45500606D01*
X198850915Y-45514179D01*
X198808683Y-45526508D01*
X198770370Y-45537661D01*
X198735730Y-45547711D01*
X198704520Y-45556728D01*
X198676494Y-45564782D01*
X198651407Y-45571943D01*
X198629016Y-45578283D01*
X198609075Y-45583871D01*
X198591339Y-45588779D01*
X198575564Y-45593076D01*
X198561506Y-45596833D01*
X198548919Y-45600120D01*
X198537558Y-45603009D01*
X198536044Y-45603388D01*
X198523344Y-45606556D01*
X198533222Y-45609220D01*
X198573469Y-45620087D01*
X198609174Y-45629757D01*
X198641227Y-45638476D01*
X198670521Y-45646490D01*
X198697946Y-45654046D01*
X198724396Y-45661391D01*
X198750760Y-45668771D01*
X198777931Y-45676433D01*
X198806801Y-45684624D01*
X198838022Y-45693521D01*
X198863432Y-45700789D01*
X198892072Y-45709003D01*
X198923205Y-45717951D01*
X198956094Y-45727421D01*
X198990003Y-45737198D01*
X199024193Y-45747071D01*
X199057928Y-45756825D01*
X199090472Y-45766248D01*
X199121087Y-45775128D01*
X199149037Y-45783249D01*
X199173583Y-45790401D01*
X199193990Y-45796369D01*
X199205616Y-45799788D01*
X199206550Y-45799842D01*
X199206550Y-46114547D01*
X199143797Y-46093636D01*
X199079124Y-46072085D01*
X199072266Y-46069800D01*
X198274989Y-45804116D01*
X198274989Y-45411985D01*
X199068033Y-45146616D01*
G37*
X199068033Y-45146616D02*
X199132705Y-45124976D01*
X199196018Y-45103791D01*
X199257763Y-45083131D01*
X199317733Y-45063065D01*
X199375720Y-45043664D01*
X199431515Y-45024997D01*
X199484910Y-45007132D01*
X199535698Y-44990141D01*
X199583669Y-44974093D01*
X199628617Y-44959057D01*
X199670332Y-44945102D01*
X199708608Y-44932300D01*
X199743235Y-44920718D01*
X199774005Y-44910427D01*
X199800712Y-44901496D01*
X199823145Y-44893995D01*
X199841099Y-44887993D01*
X199854363Y-44883561D01*
X199862731Y-44880768D01*
X199865993Y-44879682D01*
X199866016Y-44879675D01*
X199867008Y-44879586D01*
X199867858Y-44880252D01*
X199868576Y-44882049D01*
X199869174Y-44885357D01*
X199869663Y-44890555D01*
X199870054Y-44898020D01*
X199870358Y-44908131D01*
X199870585Y-44921266D01*
X199870746Y-44937805D01*
X199870853Y-44958124D01*
X199870916Y-44982603D01*
X199870946Y-45011621D01*
X199870955Y-45045554D01*
X199870955Y-45223219D01*
X199856139Y-45227353D01*
X199850874Y-45228849D01*
X199840715Y-45231762D01*
X199826164Y-45235947D01*
X199807725Y-45241258D01*
X199785902Y-45247552D01*
X199761197Y-45254681D01*
X199734113Y-45262502D01*
X199705155Y-45270869D01*
X199674826Y-45279636D01*
X199667755Y-45281681D01*
X199494189Y-45331875D01*
X199494189Y-45882121D01*
X199667755Y-45932338D01*
X199698327Y-45941181D01*
X199727642Y-45949657D01*
X199755198Y-45957620D01*
X199780491Y-45964926D01*
X199803017Y-45971428D01*
X199822274Y-45976982D01*
X199837757Y-45981442D01*
X199848965Y-45984663D01*
X199855393Y-45986500D01*
X199856139Y-45986710D01*
X199870955Y-45990865D01*
X199870955Y-46163243D01*
X199870945Y-46193059D01*
X199870914Y-46221240D01*
X199870865Y-46247338D01*
X199870800Y-46270910D01*
X199870720Y-46291509D01*
X199870627Y-46308690D01*
X199870523Y-46322007D01*
X199870411Y-46331015D01*
X199870290Y-46335268D01*
X199870250Y-46335552D01*
X199867564Y-46334671D01*
X199859760Y-46332083D01*
X199847043Y-46327859D01*
X199829621Y-46322065D01*
X199807699Y-46314772D01*
X199781484Y-46306048D01*
X199751181Y-46295961D01*
X199716997Y-46284580D01*
X199679138Y-46271974D01*
X199637811Y-46258212D01*
X199593221Y-46243361D01*
X199545575Y-46227492D01*
X199495078Y-46210671D01*
X199441938Y-46192969D01*
X199386360Y-46174454D01*
X199328551Y-46155195D01*
X199268717Y-46135259D01*
X199207063Y-46114717D01*
X199206550Y-46114547D01*
X199206550Y-45799842D01*
X199207359Y-45799179D01*
X199208051Y-45797442D01*
X199208635Y-45794277D01*
X199209122Y-45789327D01*
X199209518Y-45782237D01*
X199209835Y-45772652D01*
X199210080Y-45760216D01*
X199210262Y-45744574D01*
X199210392Y-45725370D01*
X199210477Y-45702249D01*
X199210526Y-45674855D01*
X199210549Y-45642833D01*
X199210555Y-45605827D01*
X199210555Y-45408591D01*
X199129416Y-45432456D01*
X199063921Y-45451714D01*
X199003568Y-45469444D01*
X198948113Y-45485718D01*
X198897310Y-45500606D01*
X198850915Y-45514179D01*
X198808683Y-45526508D01*
X198770370Y-45537661D01*
X198735730Y-45547711D01*
X198704520Y-45556728D01*
X198676494Y-45564782D01*
X198651407Y-45571943D01*
X198629016Y-45578283D01*
X198609075Y-45583871D01*
X198591339Y-45588779D01*
X198575564Y-45593076D01*
X198561506Y-45596833D01*
X198548919Y-45600120D01*
X198537558Y-45603009D01*
X198536044Y-45603388D01*
X198523344Y-45606556D01*
X198533222Y-45609220D01*
X198573469Y-45620087D01*
X198609174Y-45629757D01*
X198641227Y-45638476D01*
X198670521Y-45646490D01*
X198697946Y-45654046D01*
X198724396Y-45661391D01*
X198750760Y-45668771D01*
X198777931Y-45676433D01*
X198806801Y-45684624D01*
X198838022Y-45693521D01*
X198863432Y-45700789D01*
X198892072Y-45709003D01*
X198923205Y-45717951D01*
X198956094Y-45727421D01*
X198990003Y-45737198D01*
X199024193Y-45747071D01*
X199057928Y-45756825D01*
X199090472Y-45766248D01*
X199121087Y-45775128D01*
X199149037Y-45783249D01*
X199173583Y-45790401D01*
X199193990Y-45796369D01*
X199205616Y-45799788D01*
X199206550Y-45799842D01*
X199206550Y-46114547D01*
X199143797Y-46093636D01*
X199079124Y-46072085D01*
X199072266Y-46069800D01*
X198274989Y-45804116D01*
X198274989Y-45411985D01*
X199068033Y-45146616D01*
G36*
X198561444Y-43696695D02*
G01*
X198561444Y-44105769D01*
X199870955Y-44105769D01*
X199870955Y-44426611D01*
X198561444Y-44426611D01*
X198561444Y-44835684D01*
X198279222Y-44835684D01*
X198279222Y-43696695D01*
X198561444Y-43696695D01*
G37*
X198561444Y-43696695D02*
X198561444Y-44105769D01*
X199870955Y-44105769D01*
X199870955Y-44426611D01*
X198561444Y-44426611D01*
X198561444Y-44835684D01*
X198279222Y-44835684D01*
X198279222Y-43696695D01*
X198561444Y-43696695D01*
G36*
X199443655Y-43676251D02*
G01*
X199449936Y-43645877D01*
X199460930Y-43616868D01*
X199476334Y-43589769D01*
X199495843Y-43565123D01*
X199519154Y-43543476D01*
X199545964Y-43525372D01*
X199572732Y-43512596D01*
X199605551Y-43502392D01*
X199638486Y-43497260D01*
X199671057Y-43496958D01*
X199702785Y-43501248D01*
X199733190Y-43509888D01*
X199761795Y-43522639D01*
X199788118Y-43539260D01*
X199811682Y-43559511D01*
X199832006Y-43583153D01*
X199848612Y-43609944D01*
X199861021Y-43639645D01*
X199866484Y-43659819D01*
X199869963Y-43684496D01*
X199870318Y-43710365D01*
X199867547Y-43734867D01*
X199866595Y-43739474D01*
X199856795Y-43770914D01*
X199842264Y-43800056D01*
X199823408Y-43826428D01*
X199800633Y-43849558D01*
X199774346Y-43868975D01*
X199744951Y-43884208D01*
X199740261Y-43886118D01*
X199707430Y-43896327D01*
X199674485Y-43901466D01*
X199641907Y-43901774D01*
X199610174Y-43897492D01*
X199579765Y-43888858D01*
X199551158Y-43876114D01*
X199524833Y-43859498D01*
X199501267Y-43839251D01*
X199480941Y-43815612D01*
X199464332Y-43788822D01*
X199451920Y-43759120D01*
X199446448Y-43738918D01*
X199442392Y-43707446D01*
X199443655Y-43676251D01*
G37*
X199443655Y-43676251D02*
X199449936Y-43645877D01*
X199460930Y-43616868D01*
X199476334Y-43589769D01*
X199495843Y-43565123D01*
X199519154Y-43543476D01*
X199545964Y-43525372D01*
X199572732Y-43512596D01*
X199605551Y-43502392D01*
X199638486Y-43497260D01*
X199671057Y-43496958D01*
X199702785Y-43501248D01*
X199733190Y-43509888D01*
X199761795Y-43522639D01*
X199788118Y-43539260D01*
X199811682Y-43559511D01*
X199832006Y-43583153D01*
X199848612Y-43609944D01*
X199861021Y-43639645D01*
X199866484Y-43659819D01*
X199869963Y-43684496D01*
X199870318Y-43710365D01*
X199867547Y-43734867D01*
X199866595Y-43739474D01*
X199856795Y-43770914D01*
X199842264Y-43800056D01*
X199823408Y-43826428D01*
X199800633Y-43849558D01*
X199774346Y-43868975D01*
X199744951Y-43884208D01*
X199740261Y-43886118D01*
X199707430Y-43896327D01*
X199674485Y-43901466D01*
X199641907Y-43901774D01*
X199610174Y-43897492D01*
X199579765Y-43888858D01*
X199551158Y-43876114D01*
X199524833Y-43859498D01*
X199501267Y-43839251D01*
X199480941Y-43815612D01*
X199464332Y-43788822D01*
X199451920Y-43759120D01*
X199446448Y-43738918D01*
X199442392Y-43707446D01*
X199443655Y-43676251D01*
D11*
X136590000Y-64510000D02*
X169610000Y-64510000D01*
X136590000Y-31490000D02*
X136590000Y-64510000D01*
X169610000Y-31490000D02*
X136590000Y-31490000D01*
X169610000Y-64510000D02*
X169610000Y-31490000D01*
X144210000Y-39110000D02*
X161990000Y-39110000D01*
X144210000Y-56890000D02*
X144210000Y-39110000D01*
X161990000Y-56890000D02*
X144210000Y-56890000D01*
X161990000Y-39110000D02*
X161990000Y-56890000D01*
X168600000Y-63500000D02*
X137600000Y-63500000D01*
X168600000Y-32500000D02*
X137600000Y-32500000D01*
X137600000Y-63500000D02*
X137600000Y-32500000D01*
X168600000Y-63500000D02*
X168600000Y-32500000D01*
X177210000Y-33750000D02*
X177210000Y-39760000D01*
X170390000Y-36000000D02*
X170390000Y-39760000D01*
X177210000Y-39760000D02*
X175950000Y-39760000D01*
X170390000Y-39760000D02*
X171650000Y-39760000D01*
X122750000Y-68350000D02*
X131050000Y-68350000D01*
X122750000Y-60050000D02*
X131050000Y-60050000D01*
X131050000Y-68350000D02*
X131050000Y-60050000D01*
X122750000Y-68350000D02*
X122750000Y-60050000D01*
X192670000Y-39420000D02*
X194000000Y-39420000D01*
X192670000Y-40750000D02*
X192670000Y-39420000D01*
X192670000Y-42020000D02*
X195330000Y-42020000D01*
X195330000Y-42020000D02*
X195330000Y-54780000D01*
X192670000Y-42020000D02*
X192670000Y-54780000D01*
X192670000Y-54780000D02*
X195330000Y-54780000D01*
X188170000Y-39420000D02*
X189500000Y-39420000D01*
X188170000Y-40750000D02*
X188170000Y-39420000D01*
X188170000Y-42020000D02*
X190830000Y-42020000D01*
X190830000Y-42020000D02*
X190830000Y-49700000D01*
X188170000Y-42020000D02*
X188170000Y-49700000D01*
X188170000Y-49700000D02*
X190830000Y-49700000D01*
X170558000Y-61040000D02*
X170558000Y-59740000D01*
X172358000Y-59490000D02*
X172358000Y-61040000D01*
X122750000Y-39964000D02*
X122750000Y-31664000D01*
X131050000Y-39964000D02*
X131050000Y-31664000D01*
X122750000Y-31664000D02*
X131050000Y-31664000D01*
X122750000Y-39964000D02*
X131050000Y-39964000D01*
X156510000Y-71875279D02*
X156510000Y-71549721D01*
X155490000Y-71875279D02*
X155490000Y-71549721D01*
X163010000Y-71875279D02*
X163010000Y-71549721D01*
X161990000Y-71875279D02*
X161990000Y-71549721D01*
X127540000Y-47715000D02*
X128600000Y-47715000D01*
X127540000Y-48775000D02*
X127540000Y-47715000D01*
X127540000Y-49775000D02*
X129660000Y-49775000D01*
X129660000Y-49775000D02*
X129660000Y-53835000D01*
X127540000Y-49775000D02*
X127540000Y-53835000D01*
X127540000Y-53835000D02*
X129660000Y-53835000D01*
X148990000Y-71875279D02*
X148990000Y-71549721D01*
X150010000Y-71875279D02*
X150010000Y-71549721D01*
X135990000Y-71875279D02*
X135990000Y-71549721D01*
X137010000Y-71875279D02*
X137010000Y-71549721D01*
X181800000Y-30516000D02*
X179800000Y-30516000D01*
X179800000Y-30516000D02*
X179800000Y-34416000D01*
X181800000Y-30516000D02*
X181800000Y-34416000D01*
X142490000Y-71875279D02*
X142490000Y-71549721D01*
X143510000Y-71875279D02*
X143510000Y-71549721D01*
X135104721Y-36430000D02*
X135430279Y-36430000D01*
X135104721Y-37450000D02*
X135430279Y-37450000D01*
X134980000Y-39429721D02*
X134980000Y-39755279D01*
X133960000Y-39429721D02*
X133960000Y-39755279D01*
X134960000Y-32274721D02*
X134960000Y-32600279D01*
X133940000Y-32274721D02*
X133940000Y-32600279D01*
X177910000Y-41637221D02*
X177910000Y-41962779D01*
X176890000Y-41637221D02*
X176890000Y-41962779D01*
X176662779Y-45310000D02*
X176337221Y-45310000D01*
X176662779Y-44290000D02*
X176337221Y-44290000D01*
X172224721Y-44290000D02*
X172550279Y-44290000D01*
X172224721Y-45310000D02*
X172550279Y-45310000D01*
X172437221Y-31690000D02*
X172762779Y-31690000D01*
X172437221Y-32710000D02*
X172762779Y-32710000D01*
X174500000Y-51235000D02*
X176700000Y-51235000D01*
X174500000Y-51235000D02*
X172300000Y-51235000D01*
X174500000Y-45765000D02*
X176700000Y-45765000D01*
X174500000Y-45765000D02*
X170900000Y-45765000D01*
X185837221Y-63010000D02*
X186162779Y-63010000D01*
X185837221Y-61990000D02*
X186162779Y-61990000D01*
X186162779Y-63740000D02*
X185837221Y-63740000D01*
X186162779Y-64760000D02*
X185837221Y-64760000D01*
X176912779Y-69240000D02*
X176587221Y-69240000D01*
X176912779Y-70260000D02*
X176587221Y-70260000D01*
X193850000Y-29000000D02*
X193850000Y-27750000D01*
X192600000Y-29000000D02*
X193850000Y-29000000D01*
X186700000Y-23500000D02*
X189750000Y-23500000D01*
X186700000Y-26450000D02*
X186700000Y-23500000D01*
X185950000Y-26450000D02*
X186700000Y-26450000D01*
X192800000Y-23500000D02*
X189750000Y-23500000D01*
X192800000Y-26450000D02*
X192800000Y-23500000D01*
X193550000Y-26450000D02*
X192800000Y-26450000D01*
X185950000Y-28700000D02*
X187750000Y-28700000D01*
X185950000Y-27950000D02*
X185950000Y-28700000D01*
X187750000Y-27950000D02*
X185950000Y-27950000D01*
X187750000Y-28700000D02*
X187750000Y-27950000D01*
X191750000Y-28700000D02*
X193550000Y-28700000D01*
X191750000Y-27950000D02*
X191750000Y-28700000D01*
X193550000Y-27950000D02*
X191750000Y-27950000D01*
X193550000Y-28700000D02*
X193550000Y-27950000D01*
X189250000Y-28700000D02*
X190250000Y-28700000D01*
X189250000Y-27950000D02*
X189250000Y-28700000D01*
X190250000Y-27950000D02*
X189250000Y-27950000D01*
X190250000Y-28700000D02*
X190250000Y-27950000D01*
X185940000Y-28710000D02*
X193560000Y-28710000D01*
X185940000Y-22740000D02*
X185940000Y-28710000D01*
X193560000Y-22740000D02*
X185940000Y-22740000D01*
X193560000Y-28710000D02*
X193560000Y-22740000D01*
D12*
X149219047Y-48452380D02*
X149219047Y-47452380D01*
X149552380Y-48166666D01*
X149885714Y-47452380D01*
X149885714Y-48452380D01*
X150504761Y-48452380D02*
X150409523Y-48404761D01*
X150361904Y-48357142D01*
X150314285Y-48261904D01*
X150314285Y-47976190D01*
X150361904Y-47880952D01*
X150409523Y-47833333D01*
X150504761Y-47785714D01*
X150647619Y-47785714D01*
X150742857Y-47833333D01*
X150790476Y-47880952D01*
X150838095Y-47976190D01*
X150838095Y-48261904D01*
X150790476Y-48357142D01*
X150742857Y-48404761D01*
X150647619Y-48452380D01*
X150504761Y-48452380D01*
X151219047Y-48404761D02*
X151314285Y-48452380D01*
X151504761Y-48452380D01*
X151600000Y-48404761D01*
X151647619Y-48309523D01*
X151647619Y-48261904D01*
X151600000Y-48166666D01*
X151504761Y-48119047D01*
X151361904Y-48119047D01*
X151266666Y-48071428D01*
X151219047Y-47976190D01*
X151219047Y-47928571D01*
X151266666Y-47833333D01*
X151361904Y-47785714D01*
X151504761Y-47785714D01*
X151600000Y-47833333D01*
X152504761Y-48452380D02*
X152504761Y-47928571D01*
X152457142Y-47833333D01*
X152361904Y-47785714D01*
X152171428Y-47785714D01*
X152076190Y-47833333D01*
X152504761Y-48404761D02*
X152409523Y-48452380D01*
X152171428Y-48452380D01*
X152076190Y-48404761D01*
X152028571Y-48309523D01*
X152028571Y-48214285D01*
X152076190Y-48119047D01*
X152171428Y-48071428D01*
X152409523Y-48071428D01*
X152504761Y-48023809D01*
X152980952Y-48452380D02*
X152980952Y-47785714D01*
X152980952Y-47452380D02*
X152933333Y-47500000D01*
X152980952Y-47547619D01*
X153028571Y-47500000D01*
X152980952Y-47452380D01*
X152980952Y-47547619D01*
X153885714Y-48404761D02*
X153790476Y-48452380D01*
X153600000Y-48452380D01*
X153504761Y-48404761D01*
X153457142Y-48357142D01*
X153409523Y-48261904D01*
X153409523Y-47976190D01*
X153457142Y-47880952D01*
X153504761Y-47833333D01*
X153600000Y-47785714D01*
X153790476Y-47785714D01*
X153885714Y-47833333D01*
X154314285Y-48071428D02*
X155076190Y-48071428D01*
X155457142Y-47452380D02*
X156123809Y-48452380D01*
X156123809Y-47452380D02*
X155457142Y-48452380D01*
X156980952Y-47452380D02*
X156504761Y-47452380D01*
X156457142Y-47928571D01*
X156504761Y-47880952D01*
X156600000Y-47833333D01*
X156838095Y-47833333D01*
X156933333Y-47880952D01*
X156980952Y-47928571D01*
X157028571Y-48023809D01*
X157028571Y-48261904D01*
X156980952Y-48357142D01*
X156933333Y-48404761D01*
X156838095Y-48452380D01*
X156600000Y-48452380D01*
X156504761Y-48404761D01*
X156457142Y-48357142D01*
X189416666Y-29252380D02*
X189416666Y-29966666D01*
X189369047Y-30109523D01*
X189273809Y-30204761D01*
X189130952Y-30252380D01*
X189035714Y-30252380D01*
X189797619Y-29252380D02*
X190464285Y-29252380D01*
X190035714Y-30252380D01*
%LPC*%
D14*
X156040000Y-76000000D03*
D15*
X153500000Y-76000000D03*
D14*
X162540000Y-76000000D03*
D15*
X160000000Y-76000000D03*
D14*
X136540000Y-76000000D03*
D15*
X134000000Y-76000000D03*
D14*
X149540000Y-76000000D03*
D15*
X147000000Y-76000000D03*
D14*
X143040000Y-76000000D03*
D15*
X140500000Y-76000000D03*
D16*
X172000000Y-75250000D03*
X167500000Y-75250000D03*
D17*
X173250000Y-72750000D03*
X166250000Y-72750000D03*
D18*
X204375000Y-60075000D03*
D19*
X203925000Y-73575000D03*
D20*
X199775000Y-73575000D03*
D21*
X193575000Y-73575000D03*
X189275000Y-62425000D03*
D22*
X189275000Y-70575000D03*
X189275000Y-69475000D03*
X189275000Y-68375000D03*
X189275000Y-67275000D03*
X189275000Y-66175000D03*
X189275000Y-65075000D03*
X189275000Y-63975000D03*
X189275000Y-71675000D03*
X189275000Y-72625000D03*
D23*
X182750000Y-44750000D03*
X182750000Y-42750000D03*
D24*
X182750000Y-40750000D03*
D25*
X195850000Y-30500000D03*
X195850000Y-30000000D03*
X195850000Y-31000000D03*
X197150000Y-30500000D03*
X197150000Y-30000000D03*
X197150000Y-31000000D03*
D26*
X203987500Y-32900000D03*
X203987500Y-27100000D03*
D27*
X203987500Y-26500000D03*
X203987500Y-33500000D03*
D28*
X203987500Y-31000000D03*
D29*
X201287500Y-27500000D03*
D30*
X201287500Y-30000000D03*
X201287500Y-29350000D03*
X201287500Y-28700000D03*
X201287500Y-31300000D03*
X201287500Y-30650000D03*
D29*
X201287500Y-32500000D03*
D28*
X203987500Y-29000000D03*
D31*
X198150000Y-33250000D03*
X194850000Y-33250000D03*
G36*
G01*
X186390000Y-70947500D02*
X186390000Y-70552500D01*
G75*
G02*
X186562500Y-70380000I172500J0D01*
G01*
X186907500Y-70380000D01*
G75*
G02*
X187080000Y-70552500I0J-172500D01*
G01*
X187080000Y-70947500D01*
G75*
G02*
X186907500Y-71120000I-172500J0D01*
G01*
X186562500Y-71120000D01*
G75*
G02*
X186390000Y-70947500I0J172500D01*
G01*
G37*
G36*
G01*
X185420000Y-70947500D02*
X185420000Y-70552500D01*
G75*
G02*
X185592500Y-70380000I172500J0D01*
G01*
X185937500Y-70380000D01*
G75*
G02*
X186110000Y-70552500I0J-172500D01*
G01*
X186110000Y-70947500D01*
G75*
G02*
X185937500Y-71120000I-172500J0D01*
G01*
X185592500Y-71120000D01*
G75*
G02*
X185420000Y-70947500I0J172500D01*
G01*
G37*
G36*
G01*
X144050000Y-66281250D02*
X144050000Y-65718750D01*
G75*
G02*
X144293750Y-65475000I243750J0D01*
G01*
X144781250Y-65475000D01*
G75*
G02*
X145025000Y-65718750I0J-243750D01*
G01*
X145025000Y-66281250D01*
G75*
G02*
X144781250Y-66525000I-243750J0D01*
G01*
X144293750Y-66525000D01*
G75*
G02*
X144050000Y-66281250I0J243750D01*
G01*
G37*
G36*
G01*
X142475000Y-66281250D02*
X142475000Y-65718750D01*
G75*
G02*
X142718750Y-65475000I243750J0D01*
G01*
X143206250Y-65475000D01*
G75*
G02*
X143450000Y-65718750I0J-243750D01*
G01*
X143450000Y-66281250D01*
G75*
G02*
X143206250Y-66525000I-243750J0D01*
G01*
X142718750Y-66525000D01*
G75*
G02*
X142475000Y-66281250I0J243750D01*
G01*
G37*
G36*
G01*
X144087500Y-64681250D02*
X144087500Y-64118750D01*
G75*
G02*
X144331250Y-63875000I243750J0D01*
G01*
X144818750Y-63875000D01*
G75*
G02*
X145062500Y-64118750I0J-243750D01*
G01*
X145062500Y-64681250D01*
G75*
G02*
X144818750Y-64925000I-243750J0D01*
G01*
X144331250Y-64925000D01*
G75*
G02*
X144087500Y-64681250I0J243750D01*
G01*
G37*
G36*
G01*
X142512500Y-64681250D02*
X142512500Y-64118750D01*
G75*
G02*
X142756250Y-63875000I243750J0D01*
G01*
X143243750Y-63875000D01*
G75*
G02*
X143487500Y-64118750I0J-243750D01*
G01*
X143487500Y-64681250D01*
G75*
G02*
X143243750Y-64925000I-243750J0D01*
G01*
X142756250Y-64925000D01*
G75*
G02*
X142512500Y-64681250I0J243750D01*
G01*
G37*
D32*
X167070000Y-60700000D03*
X167070000Y-59430000D03*
X165770000Y-59430000D03*
X165770000Y-60700000D03*
X165800000Y-61970000D03*
X164530000Y-61970000D03*
X164530000Y-60700000D03*
X164530000Y-59430000D03*
X163230000Y-59430000D03*
X163230000Y-60700000D03*
X163260000Y-61970000D03*
X161990000Y-61970000D03*
X160690000Y-60700000D03*
X160720000Y-61970000D03*
X161990000Y-60700000D03*
X161990000Y-59430000D03*
X160690000Y-59430000D03*
X159450000Y-61970000D03*
X158180000Y-61970000D03*
X158150000Y-59430000D03*
X159450000Y-60700000D03*
X158150000Y-60700000D03*
X159450000Y-59430000D03*
X156910000Y-60700000D03*
X154370000Y-59430000D03*
X153070000Y-60700000D03*
X151830000Y-61970000D03*
X149290000Y-59430000D03*
X153100000Y-61970000D03*
X156910000Y-61970000D03*
X155610000Y-59430000D03*
X151830000Y-59430000D03*
X153070000Y-59430000D03*
X148020000Y-61970000D03*
X151830000Y-60700000D03*
X155610000Y-60700000D03*
X150530000Y-60700000D03*
X150530000Y-59430000D03*
X156910000Y-59430000D03*
X149290000Y-60700000D03*
X154370000Y-61970000D03*
X150560000Y-61970000D03*
X154370000Y-60700000D03*
X149290000Y-61970000D03*
X155640000Y-61970000D03*
X147990000Y-59430000D03*
X147990000Y-60700000D03*
X140370000Y-59430000D03*
X142910000Y-60700000D03*
X140400000Y-61970000D03*
X146750000Y-59430000D03*
X139130000Y-61970000D03*
X146750000Y-61970000D03*
X145450000Y-60700000D03*
X141670000Y-59430000D03*
X145450000Y-59430000D03*
X144210000Y-59430000D03*
X145480000Y-61970000D03*
X139130000Y-59430000D03*
X141670000Y-60700000D03*
X139130000Y-60700000D03*
X141670000Y-61970000D03*
X144210000Y-61970000D03*
X142910000Y-59430000D03*
X140370000Y-60700000D03*
X144210000Y-60700000D03*
X142940000Y-61970000D03*
X146750000Y-60700000D03*
X164530000Y-58160000D03*
X165800000Y-58160000D03*
X167070000Y-58160000D03*
X140400000Y-58160000D03*
X139130000Y-58160000D03*
X141670000Y-58160000D03*
X161990000Y-36570000D03*
X164530000Y-36570000D03*
X165800000Y-36570000D03*
X163260000Y-36570000D03*
X160720000Y-36570000D03*
X154370000Y-36570000D03*
X139130000Y-36570000D03*
X153100000Y-36570000D03*
X158180000Y-36570000D03*
X150560000Y-36570000D03*
X156910000Y-36570000D03*
X141670000Y-36570000D03*
X146750000Y-36570000D03*
X142940000Y-36570000D03*
X155640000Y-36570000D03*
X151830000Y-36570000D03*
X145480000Y-36570000D03*
X140400000Y-36570000D03*
X159450000Y-36570000D03*
X144210000Y-36570000D03*
X148020000Y-36570000D03*
X149290000Y-36570000D03*
X167070000Y-36570000D03*
X167070000Y-35300000D03*
X164530000Y-35300000D03*
X163230000Y-35300000D03*
X165770000Y-35300000D03*
X160690000Y-35300000D03*
X161990000Y-35300000D03*
X156910000Y-35300000D03*
X155610000Y-35300000D03*
X150530000Y-35300000D03*
X149290000Y-35300000D03*
X139130000Y-35300000D03*
X144210000Y-35300000D03*
X147990000Y-35300000D03*
X146750000Y-35300000D03*
X140370000Y-35300000D03*
X141670000Y-35300000D03*
X142910000Y-35300000D03*
X151830000Y-35300000D03*
X159450000Y-35300000D03*
X158150000Y-35300000D03*
X154370000Y-35300000D03*
X153070000Y-35300000D03*
X145450000Y-35300000D03*
X167070000Y-34030000D03*
X165770000Y-34030000D03*
X163230000Y-34030000D03*
X164530000Y-34030000D03*
X161990000Y-34030000D03*
X160690000Y-34030000D03*
X140370000Y-34030000D03*
X147990000Y-34030000D03*
X146750000Y-34030000D03*
X154370000Y-34030000D03*
X151830000Y-34030000D03*
X153070000Y-34030000D03*
X149290000Y-34030000D03*
X141670000Y-34030000D03*
X142910000Y-34030000D03*
X145450000Y-34030000D03*
X159450000Y-34030000D03*
X144210000Y-34030000D03*
X150530000Y-34030000D03*
X139130000Y-34030000D03*
X155610000Y-34030000D03*
X158150000Y-34030000D03*
X156910000Y-34030000D03*
X165800000Y-56890000D03*
X164530000Y-56890000D03*
X167070000Y-56890000D03*
X140400000Y-56890000D03*
X141670000Y-56890000D03*
X139130000Y-56890000D03*
X141670000Y-54350000D03*
X139130000Y-54350000D03*
X165800000Y-54350000D03*
X164530000Y-54350000D03*
X140400000Y-54350000D03*
X167070000Y-54350000D03*
X165800000Y-55620000D03*
X164530000Y-55620000D03*
X167070000Y-55620000D03*
X140400000Y-55620000D03*
X141670000Y-55620000D03*
X139130000Y-55620000D03*
X139130000Y-53080000D03*
X141670000Y-53080000D03*
X164530000Y-53080000D03*
X167070000Y-53080000D03*
X140400000Y-53080000D03*
X165800000Y-53080000D03*
X167070000Y-40380000D03*
X167070000Y-41650000D03*
X165800000Y-41650000D03*
X165800000Y-50540000D03*
X140400000Y-50540000D03*
X141670000Y-48000000D03*
X167070000Y-50540000D03*
X164530000Y-40380000D03*
X165800000Y-51810000D03*
X141670000Y-46730000D03*
X139130000Y-46730000D03*
X164530000Y-41650000D03*
X165800000Y-49270000D03*
X141670000Y-49270000D03*
X140400000Y-48000000D03*
X167070000Y-49270000D03*
X165800000Y-40380000D03*
X141670000Y-50540000D03*
X140400000Y-49270000D03*
X164530000Y-50540000D03*
X139130000Y-48000000D03*
X164530000Y-49270000D03*
X140400000Y-46730000D03*
X139130000Y-50540000D03*
X139130000Y-49270000D03*
X140400000Y-51810000D03*
X141670000Y-51810000D03*
X167070000Y-51810000D03*
X139130000Y-51810000D03*
X164530000Y-51810000D03*
X164530000Y-39110000D03*
X164530000Y-37840000D03*
X167070000Y-37840000D03*
X167070000Y-39110000D03*
X141670000Y-37840000D03*
X139130000Y-37840000D03*
X165800000Y-39110000D03*
X141670000Y-39110000D03*
X140400000Y-39110000D03*
X139130000Y-39110000D03*
X140400000Y-37840000D03*
X165800000Y-37840000D03*
X165800000Y-45460000D03*
X165800000Y-44190000D03*
X167070000Y-44190000D03*
X164530000Y-44190000D03*
X165800000Y-46730000D03*
X164530000Y-45460000D03*
X164530000Y-48000000D03*
X167070000Y-45460000D03*
X164530000Y-46730000D03*
X165800000Y-48000000D03*
X167070000Y-48000000D03*
X167070000Y-46730000D03*
X164530000Y-42920000D03*
X165800000Y-42920000D03*
X167070000Y-42920000D03*
X139130000Y-45460000D03*
X141670000Y-45460000D03*
X139130000Y-40380000D03*
X139130000Y-42920000D03*
X140400000Y-40380000D03*
X139130000Y-41650000D03*
X141670000Y-42920000D03*
X140400000Y-44190000D03*
X141670000Y-40380000D03*
X140400000Y-45460000D03*
X140400000Y-42920000D03*
X141670000Y-44190000D03*
X140400000Y-41650000D03*
X139130000Y-44190000D03*
X141670000Y-41650000D03*
G36*
G01*
X133245000Y-58052500D02*
X133245000Y-58447500D01*
G75*
G02*
X133072500Y-58620000I-172500J0D01*
G01*
X132727500Y-58620000D01*
G75*
G02*
X132555000Y-58447500I0J172500D01*
G01*
X132555000Y-58052500D01*
G75*
G02*
X132727500Y-57880000I172500J0D01*
G01*
X133072500Y-57880000D01*
G75*
G02*
X133245000Y-58052500I0J-172500D01*
G01*
G37*
G36*
G01*
X134215000Y-58052500D02*
X134215000Y-58447500D01*
G75*
G02*
X134042500Y-58620000I-172500J0D01*
G01*
X133697500Y-58620000D01*
G75*
G02*
X133525000Y-58447500I0J172500D01*
G01*
X133525000Y-58052500D01*
G75*
G02*
X133697500Y-57880000I172500J0D01*
G01*
X134042500Y-57880000D01*
G75*
G02*
X134215000Y-58052500I0J-172500D01*
G01*
G37*
D33*
X176100000Y-34700000D03*
X171500000Y-34700000D03*
X173800000Y-34700000D03*
D34*
X173800000Y-41000000D03*
D35*
X177240000Y-24030000D03*
X177240000Y-26570000D03*
X174700000Y-24030000D03*
X174700000Y-26570000D03*
X172160000Y-24030000D03*
X172160000Y-26570000D03*
X169620000Y-24030000D03*
X169620000Y-26570000D03*
X167080000Y-24030000D03*
X167080000Y-26570000D03*
X164540000Y-24030000D03*
X164540000Y-26570000D03*
X162000000Y-24030000D03*
X162000000Y-26570000D03*
X159460000Y-24030000D03*
X159460000Y-26570000D03*
X156920000Y-24030000D03*
X156920000Y-26570000D03*
X154380000Y-24030000D03*
X154380000Y-26570000D03*
X151840000Y-24030000D03*
X151840000Y-26570000D03*
X149300000Y-24030000D03*
X149300000Y-26570000D03*
X146760000Y-24030000D03*
X146760000Y-26570000D03*
X144220000Y-24030000D03*
X144220000Y-26570000D03*
X141680000Y-24030000D03*
X141680000Y-26570000D03*
X139140000Y-24030000D03*
X139140000Y-26570000D03*
X136600000Y-24030000D03*
X136600000Y-26570000D03*
X134060000Y-24030000D03*
X134060000Y-26570000D03*
X131520000Y-24030000D03*
X131520000Y-26570000D03*
X128980000Y-24030000D03*
D36*
X128980000Y-26570000D03*
D37*
X183500000Y-29150000D03*
X123200000Y-28950000D03*
D38*
X126900000Y-64200000D03*
X129440000Y-61660000D03*
X124360000Y-61660000D03*
X124360000Y-66740000D03*
X129440000Y-66740000D03*
D35*
X194000000Y-53450000D03*
X194000000Y-50910000D03*
X194000000Y-48370000D03*
X194000000Y-45830000D03*
X194000000Y-43290000D03*
D36*
X194000000Y-40750000D03*
D35*
X189500000Y-48370000D03*
X189500000Y-45830000D03*
X189500000Y-43290000D03*
D36*
X189500000Y-40750000D03*
D39*
X170958000Y-61090000D03*
X171458000Y-59690000D03*
X171958000Y-61090000D03*
X170958000Y-59690000D03*
X171958000Y-59690000D03*
D38*
X126900000Y-35814000D03*
X129440000Y-33274000D03*
X124360000Y-33274000D03*
X124360000Y-38354000D03*
X129440000Y-38354000D03*
G36*
G01*
X156281250Y-71412500D02*
X155718750Y-71412500D01*
G75*
G02*
X155475000Y-71168750I0J243750D01*
G01*
X155475000Y-70681250D01*
G75*
G02*
X155718750Y-70437500I243750J0D01*
G01*
X156281250Y-70437500D01*
G75*
G02*
X156525000Y-70681250I0J-243750D01*
G01*
X156525000Y-71168750D01*
G75*
G02*
X156281250Y-71412500I-243750J0D01*
G01*
G37*
G36*
G01*
X156281250Y-72987500D02*
X155718750Y-72987500D01*
G75*
G02*
X155475000Y-72743750I0J243750D01*
G01*
X155475000Y-72256250D01*
G75*
G02*
X155718750Y-72012500I243750J0D01*
G01*
X156281250Y-72012500D01*
G75*
G02*
X156525000Y-72256250I0J-243750D01*
G01*
X156525000Y-72743750D01*
G75*
G02*
X156281250Y-72987500I-243750J0D01*
G01*
G37*
G36*
G01*
X162781250Y-71412500D02*
X162218750Y-71412500D01*
G75*
G02*
X161975000Y-71168750I0J243750D01*
G01*
X161975000Y-70681250D01*
G75*
G02*
X162218750Y-70437500I243750J0D01*
G01*
X162781250Y-70437500D01*
G75*
G02*
X163025000Y-70681250I0J-243750D01*
G01*
X163025000Y-71168750D01*
G75*
G02*
X162781250Y-71412500I-243750J0D01*
G01*
G37*
G36*
G01*
X162781250Y-72987500D02*
X162218750Y-72987500D01*
G75*
G02*
X161975000Y-72743750I0J243750D01*
G01*
X161975000Y-72256250D01*
G75*
G02*
X162218750Y-72012500I243750J0D01*
G01*
X162781250Y-72012500D01*
G75*
G02*
X163025000Y-72256250I0J-243750D01*
G01*
X163025000Y-72743750D01*
G75*
G02*
X162781250Y-72987500I-243750J0D01*
G01*
G37*
D23*
X128600000Y-52775000D03*
X128600000Y-50775000D03*
D24*
X128600000Y-48775000D03*
G36*
G01*
X149781250Y-71412500D02*
X149218750Y-71412500D01*
G75*
G02*
X148975000Y-71168750I0J243750D01*
G01*
X148975000Y-70681250D01*
G75*
G02*
X149218750Y-70437500I243750J0D01*
G01*
X149781250Y-70437500D01*
G75*
G02*
X150025000Y-70681250I0J-243750D01*
G01*
X150025000Y-71168750D01*
G75*
G02*
X149781250Y-71412500I-243750J0D01*
G01*
G37*
G36*
G01*
X149781250Y-72987500D02*
X149218750Y-72987500D01*
G75*
G02*
X148975000Y-72743750I0J243750D01*
G01*
X148975000Y-72256250D01*
G75*
G02*
X149218750Y-72012500I243750J0D01*
G01*
X149781250Y-72012500D01*
G75*
G02*
X150025000Y-72256250I0J-243750D01*
G01*
X150025000Y-72743750D01*
G75*
G02*
X149781250Y-72987500I-243750J0D01*
G01*
G37*
G36*
G01*
X136781250Y-71412500D02*
X136218750Y-71412500D01*
G75*
G02*
X135975000Y-71168750I0J243750D01*
G01*
X135975000Y-70681250D01*
G75*
G02*
X136218750Y-70437500I243750J0D01*
G01*
X136781250Y-70437500D01*
G75*
G02*
X137025000Y-70681250I0J-243750D01*
G01*
X137025000Y-71168750D01*
G75*
G02*
X136781250Y-71412500I-243750J0D01*
G01*
G37*
G36*
G01*
X136781250Y-72987500D02*
X136218750Y-72987500D01*
G75*
G02*
X135975000Y-72743750I0J243750D01*
G01*
X135975000Y-72256250D01*
G75*
G02*
X136218750Y-72012500I243750J0D01*
G01*
X136781250Y-72012500D01*
G75*
G02*
X137025000Y-72256250I0J-243750D01*
G01*
X137025000Y-72743750D01*
G75*
G02*
X136781250Y-72987500I-243750J0D01*
G01*
G37*
D40*
X180800000Y-34416000D03*
X180800000Y-31116000D03*
G36*
G01*
X143281250Y-71412500D02*
X142718750Y-71412500D01*
G75*
G02*
X142475000Y-71168750I0J243750D01*
G01*
X142475000Y-70681250D01*
G75*
G02*
X142718750Y-70437500I243750J0D01*
G01*
X143281250Y-70437500D01*
G75*
G02*
X143525000Y-70681250I0J-243750D01*
G01*
X143525000Y-71168750D01*
G75*
G02*
X143281250Y-71412500I-243750J0D01*
G01*
G37*
G36*
G01*
X143281250Y-72987500D02*
X142718750Y-72987500D01*
G75*
G02*
X142475000Y-72743750I0J243750D01*
G01*
X142475000Y-72256250D01*
G75*
G02*
X142718750Y-72012500I243750J0D01*
G01*
X143281250Y-72012500D01*
G75*
G02*
X143525000Y-72256250I0J-243750D01*
G01*
X143525000Y-72743750D01*
G75*
G02*
X143281250Y-72987500I-243750J0D01*
G01*
G37*
G36*
G01*
X135567500Y-37221250D02*
X135567500Y-36658750D01*
G75*
G02*
X135811250Y-36415000I243750J0D01*
G01*
X136298750Y-36415000D01*
G75*
G02*
X136542500Y-36658750I0J-243750D01*
G01*
X136542500Y-37221250D01*
G75*
G02*
X136298750Y-37465000I-243750J0D01*
G01*
X135811250Y-37465000D01*
G75*
G02*
X135567500Y-37221250I0J243750D01*
G01*
G37*
G36*
G01*
X133992500Y-37221250D02*
X133992500Y-36658750D01*
G75*
G02*
X134236250Y-36415000I243750J0D01*
G01*
X134723750Y-36415000D01*
G75*
G02*
X134967500Y-36658750I0J-243750D01*
G01*
X134967500Y-37221250D01*
G75*
G02*
X134723750Y-37465000I-243750J0D01*
G01*
X134236250Y-37465000D01*
G75*
G02*
X133992500Y-37221250I0J243750D01*
G01*
G37*
G36*
G01*
X134188750Y-39892500D02*
X134751250Y-39892500D01*
G75*
G02*
X134995000Y-40136250I0J-243750D01*
G01*
X134995000Y-40623750D01*
G75*
G02*
X134751250Y-40867500I-243750J0D01*
G01*
X134188750Y-40867500D01*
G75*
G02*
X133945000Y-40623750I0J243750D01*
G01*
X133945000Y-40136250D01*
G75*
G02*
X134188750Y-39892500I243750J0D01*
G01*
G37*
G36*
G01*
X134188750Y-38317500D02*
X134751250Y-38317500D01*
G75*
G02*
X134995000Y-38561250I0J-243750D01*
G01*
X134995000Y-39048750D01*
G75*
G02*
X134751250Y-39292500I-243750J0D01*
G01*
X134188750Y-39292500D01*
G75*
G02*
X133945000Y-39048750I0J243750D01*
G01*
X133945000Y-38561250D01*
G75*
G02*
X134188750Y-38317500I243750J0D01*
G01*
G37*
G36*
G01*
X134168750Y-32737500D02*
X134731250Y-32737500D01*
G75*
G02*
X134975000Y-32981250I0J-243750D01*
G01*
X134975000Y-33468750D01*
G75*
G02*
X134731250Y-33712500I-243750J0D01*
G01*
X134168750Y-33712500D01*
G75*
G02*
X133925000Y-33468750I0J243750D01*
G01*
X133925000Y-32981250D01*
G75*
G02*
X134168750Y-32737500I243750J0D01*
G01*
G37*
G36*
G01*
X134168750Y-31162500D02*
X134731250Y-31162500D01*
G75*
G02*
X134975000Y-31406250I0J-243750D01*
G01*
X134975000Y-31893750D01*
G75*
G02*
X134731250Y-32137500I-243750J0D01*
G01*
X134168750Y-32137500D01*
G75*
G02*
X133925000Y-31893750I0J243750D01*
G01*
X133925000Y-31406250D01*
G75*
G02*
X134168750Y-31162500I243750J0D01*
G01*
G37*
G36*
G01*
X177118750Y-42100000D02*
X177681250Y-42100000D01*
G75*
G02*
X177925000Y-42343750I0J-243750D01*
G01*
X177925000Y-42831250D01*
G75*
G02*
X177681250Y-43075000I-243750J0D01*
G01*
X177118750Y-43075000D01*
G75*
G02*
X176875000Y-42831250I0J243750D01*
G01*
X176875000Y-42343750D01*
G75*
G02*
X177118750Y-42100000I243750J0D01*
G01*
G37*
G36*
G01*
X177118750Y-40525000D02*
X177681250Y-40525000D01*
G75*
G02*
X177925000Y-40768750I0J-243750D01*
G01*
X177925000Y-41256250D01*
G75*
G02*
X177681250Y-41500000I-243750J0D01*
G01*
X177118750Y-41500000D01*
G75*
G02*
X176875000Y-41256250I0J243750D01*
G01*
X176875000Y-40768750D01*
G75*
G02*
X177118750Y-40525000I243750J0D01*
G01*
G37*
G36*
G01*
X176200000Y-44518750D02*
X176200000Y-45081250D01*
G75*
G02*
X175956250Y-45325000I-243750J0D01*
G01*
X175468750Y-45325000D01*
G75*
G02*
X175225000Y-45081250I0J243750D01*
G01*
X175225000Y-44518750D01*
G75*
G02*
X175468750Y-44275000I243750J0D01*
G01*
X175956250Y-44275000D01*
G75*
G02*
X176200000Y-44518750I0J-243750D01*
G01*
G37*
G36*
G01*
X177775000Y-44518750D02*
X177775000Y-45081250D01*
G75*
G02*
X177531250Y-45325000I-243750J0D01*
G01*
X177043750Y-45325000D01*
G75*
G02*
X176800000Y-45081250I0J243750D01*
G01*
X176800000Y-44518750D01*
G75*
G02*
X177043750Y-44275000I243750J0D01*
G01*
X177531250Y-44275000D01*
G75*
G02*
X177775000Y-44518750I0J-243750D01*
G01*
G37*
G36*
G01*
X172687500Y-45081250D02*
X172687500Y-44518750D01*
G75*
G02*
X172931250Y-44275000I243750J0D01*
G01*
X173418750Y-44275000D01*
G75*
G02*
X173662500Y-44518750I0J-243750D01*
G01*
X173662500Y-45081250D01*
G75*
G02*
X173418750Y-45325000I-243750J0D01*
G01*
X172931250Y-45325000D01*
G75*
G02*
X172687500Y-45081250I0J243750D01*
G01*
G37*
G36*
G01*
X171112500Y-45081250D02*
X171112500Y-44518750D01*
G75*
G02*
X171356250Y-44275000I243750J0D01*
G01*
X171843750Y-44275000D01*
G75*
G02*
X172087500Y-44518750I0J-243750D01*
G01*
X172087500Y-45081250D01*
G75*
G02*
X171843750Y-45325000I-243750J0D01*
G01*
X171356250Y-45325000D01*
G75*
G02*
X171112500Y-45081250I0J243750D01*
G01*
G37*
G36*
G01*
X172900000Y-32481250D02*
X172900000Y-31918750D01*
G75*
G02*
X173143750Y-31675000I243750J0D01*
G01*
X173631250Y-31675000D01*
G75*
G02*
X173875000Y-31918750I0J-243750D01*
G01*
X173875000Y-32481250D01*
G75*
G02*
X173631250Y-32725000I-243750J0D01*
G01*
X173143750Y-32725000D01*
G75*
G02*
X172900000Y-32481250I0J243750D01*
G01*
G37*
G36*
G01*
X171325000Y-32481250D02*
X171325000Y-31918750D01*
G75*
G02*
X171568750Y-31675000I243750J0D01*
G01*
X172056250Y-31675000D01*
G75*
G02*
X172300000Y-31918750I0J-243750D01*
G01*
X172300000Y-32481250D01*
G75*
G02*
X172056250Y-32725000I-243750J0D01*
G01*
X171568750Y-32725000D01*
G75*
G02*
X171325000Y-32481250I0J243750D01*
G01*
G37*
G36*
G01*
X176575000Y-46350000D02*
X176575000Y-46100000D01*
G75*
G02*
X176700000Y-45975000I125000J0D01*
G01*
X178025000Y-45975000D01*
G75*
G02*
X178150000Y-46100000I0J-125000D01*
G01*
X178150000Y-46350000D01*
G75*
G02*
X178025000Y-46475000I-125000J0D01*
G01*
X176700000Y-46475000D01*
G75*
G02*
X176575000Y-46350000I0J125000D01*
G01*
G37*
G36*
G01*
X176575000Y-47000000D02*
X176575000Y-46750000D01*
G75*
G02*
X176700000Y-46625000I125000J0D01*
G01*
X178025000Y-46625000D01*
G75*
G02*
X178150000Y-46750000I0J-125000D01*
G01*
X178150000Y-47000000D01*
G75*
G02*
X178025000Y-47125000I-125000J0D01*
G01*
X176700000Y-47125000D01*
G75*
G02*
X176575000Y-47000000I0J125000D01*
G01*
G37*
G36*
G01*
X176575000Y-47650000D02*
X176575000Y-47400000D01*
G75*
G02*
X176700000Y-47275000I125000J0D01*
G01*
X178025000Y-47275000D01*
G75*
G02*
X178150000Y-47400000I0J-125000D01*
G01*
X178150000Y-47650000D01*
G75*
G02*
X178025000Y-47775000I-125000J0D01*
G01*
X176700000Y-47775000D01*
G75*
G02*
X176575000Y-47650000I0J125000D01*
G01*
G37*
G36*
G01*
X176575000Y-48300000D02*
X176575000Y-48050000D01*
G75*
G02*
X176700000Y-47925000I125000J0D01*
G01*
X178025000Y-47925000D01*
G75*
G02*
X178150000Y-48050000I0J-125000D01*
G01*
X178150000Y-48300000D01*
G75*
G02*
X178025000Y-48425000I-125000J0D01*
G01*
X176700000Y-48425000D01*
G75*
G02*
X176575000Y-48300000I0J125000D01*
G01*
G37*
G36*
G01*
X176575000Y-48950000D02*
X176575000Y-48700000D01*
G75*
G02*
X176700000Y-48575000I125000J0D01*
G01*
X178025000Y-48575000D01*
G75*
G02*
X178150000Y-48700000I0J-125000D01*
G01*
X178150000Y-48950000D01*
G75*
G02*
X178025000Y-49075000I-125000J0D01*
G01*
X176700000Y-49075000D01*
G75*
G02*
X176575000Y-48950000I0J125000D01*
G01*
G37*
G36*
G01*
X176575000Y-49600000D02*
X176575000Y-49350000D01*
G75*
G02*
X176700000Y-49225000I125000J0D01*
G01*
X178025000Y-49225000D01*
G75*
G02*
X178150000Y-49350000I0J-125000D01*
G01*
X178150000Y-49600000D01*
G75*
G02*
X178025000Y-49725000I-125000J0D01*
G01*
X176700000Y-49725000D01*
G75*
G02*
X176575000Y-49600000I0J125000D01*
G01*
G37*
G36*
G01*
X176575000Y-50250000D02*
X176575000Y-50000000D01*
G75*
G02*
X176700000Y-49875000I125000J0D01*
G01*
X178025000Y-49875000D01*
G75*
G02*
X178150000Y-50000000I0J-125000D01*
G01*
X178150000Y-50250000D01*
G75*
G02*
X178025000Y-50375000I-125000J0D01*
G01*
X176700000Y-50375000D01*
G75*
G02*
X176575000Y-50250000I0J125000D01*
G01*
G37*
G36*
G01*
X176575000Y-50900000D02*
X176575000Y-50650000D01*
G75*
G02*
X176700000Y-50525000I125000J0D01*
G01*
X178025000Y-50525000D01*
G75*
G02*
X178150000Y-50650000I0J-125000D01*
G01*
X178150000Y-50900000D01*
G75*
G02*
X178025000Y-51025000I-125000J0D01*
G01*
X176700000Y-51025000D01*
G75*
G02*
X176575000Y-50900000I0J125000D01*
G01*
G37*
G36*
G01*
X170850000Y-50900000D02*
X170850000Y-50650000D01*
G75*
G02*
X170975000Y-50525000I125000J0D01*
G01*
X172300000Y-50525000D01*
G75*
G02*
X172425000Y-50650000I0J-125000D01*
G01*
X172425000Y-50900000D01*
G75*
G02*
X172300000Y-51025000I-125000J0D01*
G01*
X170975000Y-51025000D01*
G75*
G02*
X170850000Y-50900000I0J125000D01*
G01*
G37*
G36*
G01*
X170850000Y-50250000D02*
X170850000Y-50000000D01*
G75*
G02*
X170975000Y-49875000I125000J0D01*
G01*
X172300000Y-49875000D01*
G75*
G02*
X172425000Y-50000000I0J-125000D01*
G01*
X172425000Y-50250000D01*
G75*
G02*
X172300000Y-50375000I-125000J0D01*
G01*
X170975000Y-50375000D01*
G75*
G02*
X170850000Y-50250000I0J125000D01*
G01*
G37*
G36*
G01*
X170850000Y-49600000D02*
X170850000Y-49350000D01*
G75*
G02*
X170975000Y-49225000I125000J0D01*
G01*
X172300000Y-49225000D01*
G75*
G02*
X172425000Y-49350000I0J-125000D01*
G01*
X172425000Y-49600000D01*
G75*
G02*
X172300000Y-49725000I-125000J0D01*
G01*
X170975000Y-49725000D01*
G75*
G02*
X170850000Y-49600000I0J125000D01*
G01*
G37*
G36*
G01*
X170850000Y-48950000D02*
X170850000Y-48700000D01*
G75*
G02*
X170975000Y-48575000I125000J0D01*
G01*
X172300000Y-48575000D01*
G75*
G02*
X172425000Y-48700000I0J-125000D01*
G01*
X172425000Y-48950000D01*
G75*
G02*
X172300000Y-49075000I-125000J0D01*
G01*
X170975000Y-49075000D01*
G75*
G02*
X170850000Y-48950000I0J125000D01*
G01*
G37*
G36*
G01*
X170850000Y-48300000D02*
X170850000Y-48050000D01*
G75*
G02*
X170975000Y-47925000I125000J0D01*
G01*
X172300000Y-47925000D01*
G75*
G02*
X172425000Y-48050000I0J-125000D01*
G01*
X172425000Y-48300000D01*
G75*
G02*
X172300000Y-48425000I-125000J0D01*
G01*
X170975000Y-48425000D01*
G75*
G02*
X170850000Y-48300000I0J125000D01*
G01*
G37*
G36*
G01*
X170850000Y-47650000D02*
X170850000Y-47400000D01*
G75*
G02*
X170975000Y-47275000I125000J0D01*
G01*
X172300000Y-47275000D01*
G75*
G02*
X172425000Y-47400000I0J-125000D01*
G01*
X172425000Y-47650000D01*
G75*
G02*
X172300000Y-47775000I-125000J0D01*
G01*
X170975000Y-47775000D01*
G75*
G02*
X170850000Y-47650000I0J125000D01*
G01*
G37*
G36*
G01*
X170850000Y-47000000D02*
X170850000Y-46750000D01*
G75*
G02*
X170975000Y-46625000I125000J0D01*
G01*
X172300000Y-46625000D01*
G75*
G02*
X172425000Y-46750000I0J-125000D01*
G01*
X172425000Y-47000000D01*
G75*
G02*
X172300000Y-47125000I-125000J0D01*
G01*
X170975000Y-47125000D01*
G75*
G02*
X170850000Y-47000000I0J125000D01*
G01*
G37*
G36*
G01*
X170850000Y-46350000D02*
X170850000Y-46100000D01*
G75*
G02*
X170975000Y-45975000I125000J0D01*
G01*
X172300000Y-45975000D01*
G75*
G02*
X172425000Y-46100000I0J-125000D01*
G01*
X172425000Y-46350000D01*
G75*
G02*
X172300000Y-46475000I-125000J0D01*
G01*
X170975000Y-46475000D01*
G75*
G02*
X170850000Y-46350000I0J125000D01*
G01*
G37*
G36*
G01*
X186300000Y-62781250D02*
X186300000Y-62218750D01*
G75*
G02*
X186543750Y-61975000I243750J0D01*
G01*
X187031250Y-61975000D01*
G75*
G02*
X187275000Y-62218750I0J-243750D01*
G01*
X187275000Y-62781250D01*
G75*
G02*
X187031250Y-63025000I-243750J0D01*
G01*
X186543750Y-63025000D01*
G75*
G02*
X186300000Y-62781250I0J243750D01*
G01*
G37*
G36*
G01*
X184725000Y-62781250D02*
X184725000Y-62218750D01*
G75*
G02*
X184968750Y-61975000I243750J0D01*
G01*
X185456250Y-61975000D01*
G75*
G02*
X185700000Y-62218750I0J-243750D01*
G01*
X185700000Y-62781250D01*
G75*
G02*
X185456250Y-63025000I-243750J0D01*
G01*
X184968750Y-63025000D01*
G75*
G02*
X184725000Y-62781250I0J243750D01*
G01*
G37*
G36*
G01*
X186390000Y-66447500D02*
X186390000Y-66052500D01*
G75*
G02*
X186562500Y-65880000I172500J0D01*
G01*
X186907500Y-65880000D01*
G75*
G02*
X187080000Y-66052500I0J-172500D01*
G01*
X187080000Y-66447500D01*
G75*
G02*
X186907500Y-66620000I-172500J0D01*
G01*
X186562500Y-66620000D01*
G75*
G02*
X186390000Y-66447500I0J172500D01*
G01*
G37*
G36*
G01*
X185420000Y-66447500D02*
X185420000Y-66052500D01*
G75*
G02*
X185592500Y-65880000I172500J0D01*
G01*
X185937500Y-65880000D01*
G75*
G02*
X186110000Y-66052500I0J-172500D01*
G01*
X186110000Y-66447500D01*
G75*
G02*
X185937500Y-66620000I-172500J0D01*
G01*
X185592500Y-66620000D01*
G75*
G02*
X185420000Y-66447500I0J172500D01*
G01*
G37*
G36*
G01*
X185435000Y-69447500D02*
X185435000Y-69052500D01*
G75*
G02*
X185607500Y-68880000I172500J0D01*
G01*
X185952500Y-68880000D01*
G75*
G02*
X186125000Y-69052500I0J-172500D01*
G01*
X186125000Y-69447500D01*
G75*
G02*
X185952500Y-69620000I-172500J0D01*
G01*
X185607500Y-69620000D01*
G75*
G02*
X185435000Y-69447500I0J172500D01*
G01*
G37*
G36*
G01*
X186405000Y-69447500D02*
X186405000Y-69052500D01*
G75*
G02*
X186577500Y-68880000I172500J0D01*
G01*
X186922500Y-68880000D01*
G75*
G02*
X187095000Y-69052500I0J-172500D01*
G01*
X187095000Y-69447500D01*
G75*
G02*
X186922500Y-69620000I-172500J0D01*
G01*
X186577500Y-69620000D01*
G75*
G02*
X186405000Y-69447500I0J172500D01*
G01*
G37*
G36*
G01*
X185420000Y-67947500D02*
X185420000Y-67552500D01*
G75*
G02*
X185592500Y-67380000I172500J0D01*
G01*
X185937500Y-67380000D01*
G75*
G02*
X186110000Y-67552500I0J-172500D01*
G01*
X186110000Y-67947500D01*
G75*
G02*
X185937500Y-68120000I-172500J0D01*
G01*
X185592500Y-68120000D01*
G75*
G02*
X185420000Y-67947500I0J172500D01*
G01*
G37*
G36*
G01*
X186390000Y-67947500D02*
X186390000Y-67552500D01*
G75*
G02*
X186562500Y-67380000I172500J0D01*
G01*
X186907500Y-67380000D01*
G75*
G02*
X187080000Y-67552500I0J-172500D01*
G01*
X187080000Y-67947500D01*
G75*
G02*
X186907500Y-68120000I-172500J0D01*
G01*
X186562500Y-68120000D01*
G75*
G02*
X186390000Y-67947500I0J172500D01*
G01*
G37*
G36*
G01*
X185700000Y-63968750D02*
X185700000Y-64531250D01*
G75*
G02*
X185456250Y-64775000I-243750J0D01*
G01*
X184968750Y-64775000D01*
G75*
G02*
X184725000Y-64531250I0J243750D01*
G01*
X184725000Y-63968750D01*
G75*
G02*
X184968750Y-63725000I243750J0D01*
G01*
X185456250Y-63725000D01*
G75*
G02*
X185700000Y-63968750I0J-243750D01*
G01*
G37*
G36*
G01*
X187275000Y-63968750D02*
X187275000Y-64531250D01*
G75*
G02*
X187031250Y-64775000I-243750J0D01*
G01*
X186543750Y-64775000D01*
G75*
G02*
X186300000Y-64531250I0J243750D01*
G01*
X186300000Y-63968750D01*
G75*
G02*
X186543750Y-63725000I243750J0D01*
G01*
X187031250Y-63725000D01*
G75*
G02*
X187275000Y-63968750I0J-243750D01*
G01*
G37*
D37*
X129700000Y-74400000D03*
X176750000Y-74550000D03*
G36*
G01*
X178025000Y-69468750D02*
X178025000Y-70031250D01*
G75*
G02*
X177781250Y-70275000I-243750J0D01*
G01*
X177293750Y-70275000D01*
G75*
G02*
X177050000Y-70031250I0J243750D01*
G01*
X177050000Y-69468750D01*
G75*
G02*
X177293750Y-69225000I243750J0D01*
G01*
X177781250Y-69225000D01*
G75*
G02*
X178025000Y-69468750I0J-243750D01*
G01*
G37*
G36*
G01*
X176450000Y-69468750D02*
X176450000Y-70031250D01*
G75*
G02*
X176206250Y-70275000I-243750J0D01*
G01*
X175718750Y-70275000D01*
G75*
G02*
X175475000Y-70031250I0J243750D01*
G01*
X175475000Y-69468750D01*
G75*
G02*
X175718750Y-69225000I243750J0D01*
G01*
X176206250Y-69225000D01*
G75*
G02*
X176450000Y-69468750I0J-243750D01*
G01*
G37*
G36*
G01*
X191900000Y-25464706D02*
X191900000Y-27035294D01*
G75*
G02*
X191635294Y-27300000I-264706J0D01*
G01*
X190364706Y-27300000D01*
G75*
G02*
X190100000Y-27035294I0J264706D01*
G01*
X190100000Y-25464706D01*
G75*
G02*
X190364706Y-25200000I264706J0D01*
G01*
X191635294Y-25200000D01*
G75*
G02*
X191900000Y-25464706I0J-264706D01*
G01*
G37*
D41*
X188500000Y-26250000D03*
D42*
X161900000Y-30990000D03*
X144100000Y-32650000D03*
X139150000Y-32825000D03*
X139150000Y-30450000D03*
X141300000Y-30450000D03*
X143200000Y-31400000D03*
X136750000Y-30450000D03*
X137450000Y-32850000D03*
X121950000Y-61650000D03*
X121950000Y-66850000D03*
X121850000Y-64200000D03*
X121950000Y-59400000D03*
X121950000Y-68900000D03*
X124400000Y-69000000D03*
X126500000Y-66950000D03*
X127600000Y-66950000D03*
X124350000Y-64850000D03*
X124350000Y-63600000D03*
X126450000Y-61600000D03*
X127550000Y-61550000D03*
X124400000Y-59400000D03*
X126950000Y-59250000D03*
X129500000Y-59300000D03*
X131400000Y-59350000D03*
X127050000Y-69000000D03*
X129550000Y-69000000D03*
X131750000Y-69000000D03*
X131750000Y-66800000D03*
X121850000Y-33200000D03*
X121850000Y-40450000D03*
X121750000Y-35750000D03*
X121850000Y-38400000D03*
X121850000Y-30950000D03*
X123800000Y-35275000D03*
X124300000Y-30900000D03*
X127500000Y-38500000D03*
X127450000Y-33100000D03*
X131550000Y-30900000D03*
X126850000Y-30800000D03*
X129450000Y-40550000D03*
X131650000Y-38350000D03*
X126950000Y-40550000D03*
X131650000Y-40550000D03*
X126400000Y-38500000D03*
X129400000Y-30850000D03*
X126350000Y-33150000D03*
X124300000Y-40550000D03*
X123825000Y-36225000D03*
X134300000Y-43000000D03*
X134200000Y-44900000D03*
X131400000Y-43300000D03*
X131500000Y-45500000D03*
X131500000Y-47600000D03*
X134200000Y-46200000D03*
X134400000Y-49900000D03*
X134400000Y-51200000D03*
X134400000Y-52700000D03*
X134300000Y-54100000D03*
X134300000Y-55500000D03*
X131600000Y-52000000D03*
X131500000Y-53950000D03*
X131400000Y-57700000D03*
X135200000Y-62100000D03*
X135200000Y-59200000D03*
X134900000Y-57200000D03*
X132700000Y-39900000D03*
X135800000Y-41600000D03*
X135900000Y-39300000D03*
X133450000Y-34400000D03*
X146700000Y-58300000D03*
X148000000Y-58300000D03*
X149300000Y-58300000D03*
X143000000Y-58100000D03*
X143000000Y-56900000D03*
X143000000Y-55600000D03*
X143000000Y-54300000D03*
X143000000Y-53100000D03*
X143000000Y-51800000D03*
X143000000Y-50500000D03*
X143000000Y-49200000D03*
X143000000Y-48000000D03*
X143000000Y-46800000D03*
X143100000Y-45500000D03*
X143100000Y-44200000D03*
X143100000Y-42900000D03*
X143100000Y-41700000D03*
X143100000Y-40400000D03*
X143100000Y-39100000D03*
X143000000Y-37800000D03*
X144300000Y-37800000D03*
X145600000Y-37800000D03*
X147000000Y-38500000D03*
X162000000Y-37800000D03*
X163300000Y-37800000D03*
X146400000Y-54800000D03*
X146300000Y-41100000D03*
X159800000Y-54700000D03*
X147600000Y-41900000D03*
X147500000Y-53700000D03*
X158700000Y-53500000D03*
X145725000Y-64675000D03*
X151800000Y-32850000D03*
X170500000Y-32600000D03*
X133400000Y-30700000D03*
X170300000Y-45400000D03*
X174250000Y-44800000D03*
X136906000Y-38354000D03*
X136144000Y-35052000D03*
X138000000Y-34000000D03*
X178100000Y-33100000D03*
X140250000Y-65900000D03*
X153400000Y-48050000D03*
X151900000Y-58250000D03*
X151800000Y-64050000D03*
X148700000Y-63050000D03*
X147400000Y-63050000D03*
X138100000Y-58150000D03*
X138050000Y-56800000D03*
X137950000Y-55600000D03*
X138050000Y-54350000D03*
X138000000Y-53100000D03*
X138050000Y-51800000D03*
X138000000Y-50550000D03*
X138050000Y-49300000D03*
X138000000Y-42950000D03*
X137950000Y-41650000D03*
X138000000Y-39100000D03*
X138000000Y-37850000D03*
X138000000Y-36550000D03*
X138000000Y-35300000D03*
X141650000Y-63100000D03*
X140450000Y-63100000D03*
X139100000Y-63100000D03*
X137950000Y-59400000D03*
X164550000Y-32950000D03*
X165800000Y-32900000D03*
X168150000Y-35300000D03*
X160700000Y-63100000D03*
X141025000Y-32875000D03*
X132250000Y-32200000D03*
X159500000Y-58150000D03*
X163200000Y-58150000D03*
X163250000Y-56300000D03*
X163200000Y-53700000D03*
X163200000Y-52450000D03*
X156900000Y-37850000D03*
X157900000Y-39050000D03*
X158500000Y-41950000D03*
X159650000Y-41000000D03*
X163150000Y-45400000D03*
X162850000Y-44200000D03*
X164250000Y-64000000D03*
X132400000Y-35750000D03*
X166500000Y-64000000D03*
X162250000Y-64000000D03*
X130950000Y-56675000D03*
X153725000Y-38000000D03*
X148000000Y-37800000D03*
X178950000Y-34550000D03*
X135200000Y-60700000D03*
X138500000Y-76000000D03*
X145000000Y-76000000D03*
X151500000Y-76000000D03*
X158000000Y-76000000D03*
X165000000Y-76000000D03*
X187750000Y-60750000D03*
X187750000Y-72500000D03*
X202750000Y-58250000D03*
X198000000Y-58250000D03*
X194250000Y-58250000D03*
X189250000Y-59000000D03*
X198500000Y-31500000D03*
X203250000Y-35500000D03*
X199500000Y-26750000D03*
X199750000Y-34250000D03*
X201500000Y-25250000D03*
X198750000Y-29000000D03*
X196750000Y-28000000D03*
X163258660Y-48441340D03*
X168750000Y-64000000D03*
X171000000Y-64000000D03*
X174000000Y-62000000D03*
X175500000Y-60500000D03*
X177000000Y-59000000D03*
X178500000Y-57500000D03*
X180250000Y-55750000D03*
X182200000Y-50600000D03*
X185250000Y-50750000D03*
X174000000Y-59000000D03*
X175400000Y-57400000D03*
X177000000Y-55800000D03*
X184404000Y-46990000D03*
X184404000Y-44831000D03*
X184404000Y-42291000D03*
X184404000Y-39751000D03*
X184404000Y-37465000D03*
X184531000Y-35433000D03*
X188214000Y-32131000D03*
X189611000Y-30607000D03*
X190881000Y-29210000D03*
X193802000Y-29210000D03*
X194437000Y-31369000D03*
X192278000Y-31369000D03*
X191135000Y-32258000D03*
X189230000Y-34544000D03*
X187452000Y-36068000D03*
X186563000Y-37592000D03*
X186563000Y-39751000D03*
X186563000Y-42291000D03*
X186563000Y-44450000D03*
X186563000Y-46228000D03*
X183134000Y-52832000D03*
X180340000Y-52578000D03*
X185801000Y-34290000D03*
X170565660Y-58796340D03*
X176276000Y-63500000D03*
X181737000Y-58166000D03*
X186436000Y-52705000D03*
X187960000Y-50546000D03*
X202565000Y-75184000D03*
X197612000Y-75438000D03*
X193040000Y-75438000D03*
X188468000Y-74930000D03*
X173990000Y-68072000D03*
X180721000Y-63881000D03*
X182118000Y-70993000D03*
X157480000Y-65024000D03*
X136500000Y-69000000D03*
X170700000Y-41200000D03*
X141650000Y-66500000D03*
X191000000Y-67350000D03*
X170200000Y-36500000D03*
X182982616Y-64103926D03*
X177500000Y-71750000D03*
X173990000Y-57531000D03*
X136700000Y-45500000D03*
X163200000Y-31000000D03*
X171000000Y-43200000D03*
X175224997Y-55025003D03*
X176330016Y-53080000D03*
D43*
X175249999Y-29349999D03*
D42*
X192000000Y-33250000D03*
X176810010Y-51810000D03*
X175799088Y-54079534D03*
X156000000Y-68243000D03*
X179117394Y-48100000D03*
X179917948Y-48750000D03*
X180750000Y-49500000D03*
X166624000Y-65405000D03*
X149479000Y-67691000D03*
X170200000Y-50100000D03*
X158140000Y-30980000D03*
X170200000Y-48800000D03*
X159470000Y-30980000D03*
X170200000Y-47300000D03*
X160690000Y-30990000D03*
X171500000Y-55750004D03*
X171450000Y-57940000D03*
X152800000Y-65100000D03*
X168250000Y-36500000D03*
X184500000Y-67000000D03*
X168250000Y-37750000D03*
X183896000Y-69977000D03*
X168250000Y-39000000D03*
X186000000Y-72390000D03*
X170053000Y-61870001D03*
X162560000Y-68199000D03*
X161150000Y-50850000D03*
M02*
