G04 #@! TF.GenerationSoftware,KiCad,Pcbnew,(5.1.6)-1*
G04 #@! TF.CreationDate,2021-01-15T17:25:52+09:00*
G04 #@! TF.ProjectId,HATv2.0,48415476-322e-4302-9e6b-696361645f70,rev?*
G04 #@! TF.SameCoordinates,Original*
G04 #@! TF.FileFunction,Profile,NP*
%FSLAX46Y46*%
G04 Gerber Fmt 4.6, Leading zero omitted, Abs format (unit mm)*
G04 Created by KiCad (PCBNEW (5.1.6)-1) date 2021-01-15 17:25:52*
%MOMM*%
%LPD*%
G01*
G04 APERTURE LIST*
G04 #@! TA.AperFunction,Profile*
%ADD10C,0.050000*%
G04 #@! TD*
G04 #@! TA.AperFunction,Profile*
%ADD11C,0.100000*%
G04 #@! TD*
G04 APERTURE END LIST*
D10*
X183390724Y-74500000D02*
G75*
G03*
X183390724Y-74500000I-1345362J0D01*
G01*
X125345362Y-74454638D02*
G75*
G03*
X125345362Y-74454638I-1345362J0D01*
G01*
X183345362Y-25500000D02*
G75*
G03*
X183345362Y-25500000I-1345362J0D01*
G01*
X125345362Y-25500000D02*
G75*
G03*
X125345362Y-25500000I-1345362J0D01*
G01*
D11*
X123500000Y-78000000D02*
X202500000Y-78000000D01*
X120500000Y-24500000D02*
X120500000Y-40500000D01*
X120500000Y-75000000D02*
G75*
G03*
X123500000Y-78000000I3000000J0D01*
G01*
X125500000Y-42500000D02*
X125500000Y-57500000D01*
X120500000Y-59500000D02*
X120500000Y-75000000D01*
X121500000Y-58500000D02*
X124500000Y-58500000D01*
X205500000Y-24500000D02*
X205500000Y-75000000D01*
X123500000Y-21500000D02*
G75*
G03*
X120500000Y-24500000I0J-3000000D01*
G01*
X123500000Y-21500000D02*
X202500000Y-21500000D01*
X125500000Y-42500000D02*
G75*
G03*
X124500000Y-41500000I-1000000J0D01*
G01*
X121500000Y-58500000D02*
G75*
G03*
X120500000Y-59500000I0J-1000000D01*
G01*
X205500000Y-24500000D02*
G75*
G03*
X202500000Y-21500000I-3000000J0D01*
G01*
X121500000Y-41500000D02*
X124500000Y-41500000D01*
X202500000Y-78000000D02*
G75*
G03*
X205500000Y-75000000I0J3000000D01*
G01*
X124500000Y-58500000D02*
G75*
G03*
X125500000Y-57500000I0J1000000D01*
G01*
X120500000Y-40500000D02*
G75*
G03*
X121500000Y-41500000I1000000J0D01*
G01*
M02*
